<?xml version="1.0" encoding="UTF-8" standalone="no"?>
<!-- Created with Inkscape (http://www.inkscape.org/) -->

<svg
   xmlns:dc="http://purl.org/dc/elements/1.1/"
   xmlns:cc="http://creativecommons.org/ns#"
   xmlns:rdf="http://www.w3.org/1999/02/22-rdf-syntax-ns#"
   xmlns:svg="http://www.w3.org/2000/svg"
   xmlns="http://www.w3.org/2000/svg"
   xmlns:sodipodi="http://sodipodi.sourceforge.net/DTD/sodipodi-0.dtd"
   xmlns:inkscape="http://www.inkscape.org/namespaces/inkscape"
   width="46.497417mm"
   height="83.932472mm"
   viewBox="0 0 164.75463 297.39852"
   id="svg6320"
   version="1.1"
   inkscape:version="0.91 r13725"
   sodipodi:docname="cat_right.svg">
  <defs
     id="defs6322">
    <linearGradient
       gradientTransform="translate(-320.75693,117.47857)"
       id="SVGID_6_"
       gradientUnits="userSpaceOnUse"
       x1="649.48138"
       y1="359.543"
       x2="662.55981"
       y2="367.09381">
      <stop
         offset="0"
         style="stop-color:#E5C226"
         id="stop290" />
      <stop
         offset="0.2203"
         style="stop-color:#D9BC22"
         id="stop292" />
      <stop
         offset="0.6767"
         style="stop-color:#B6A619"
         id="stop294" />
      <stop
         offset="1"
         style="stop-color:#978F11"
         id="stop296" />
    </linearGradient>
    <linearGradient
       gradientTransform="translate(-320.75693,117.47857)"
       id="SVGID_5_"
       gradientUnits="userSpaceOnUse"
       x1="663.81641"
       y1="366.96289"
       x2="663.81641"
       y2="366.96289">
      <stop
         offset="0"
         style="stop-color:#FFFFFF"
         id="stop271" />
      <stop
         offset="0.0249"
         style="stop-color:#FEFDF7"
         id="stop273" />
      <stop
         offset="0.226"
         style="stop-color:#F6EBB8"
         id="stop275" />
      <stop
         offset="0.4184"
         style="stop-color:#F0DC84"
         id="stop277" />
      <stop
         offset="0.5971"
         style="stop-color:#EBD15B"
         id="stop279" />
      <stop
         offset="0.759"
         style="stop-color:#E8C93E"
         id="stop281" />
      <stop
         offset="0.8986"
         style="stop-color:#E6C42C"
         id="stop283" />
      <stop
         offset="1"
         style="stop-color:#E5C226"
         id="stop285" />
    </linearGradient>
    <radialGradient
       id="SVGID_4_"
       cx="734.0166"
       cy="441.05469"
       r="20.559999"
       gradientTransform="matrix(-4.371139e-8,-1,0.7,-3.059797e-8,425.2784,1175.0713)"
       gradientUnits="userSpaceOnUse">
      <stop
         offset="0"
         style="stop-color:#E5C226"
         id="stop158" />
      <stop
         offset="0.2021"
         style="stop-color:#E1BE29;stop-opacity:0.899"
         id="stop160" />
      <stop
         offset="0.3992"
         style="stop-color:#D6B12E;stop-opacity:0.8004"
         id="stop162" />
      <stop
         offset="0.5944"
         style="stop-color:#C59D33;stop-opacity:0.7028"
         id="stop164" />
      <stop
         offset="0.7885"
         style="stop-color:#B08237;stop-opacity:0.6058"
         id="stop166" />
      <stop
         offset="0.98"
         style="stop-color:#966337;stop-opacity:0.51"
         id="stop168" />
      <stop
         offset="1"
         style="stop-color:#936037;stop-opacity:0.5"
         id="stop170" />
    </radialGradient>
    <radialGradient
       gradientTransform="translate(-320.75693,117.47857)"
       id="SVGID_3_"
       cx="651.76862"
       cy="338.9014"
       r="5.2943001"
       gradientUnits="userSpaceOnUse">
      <stop
         offset="0"
         style="stop-color:#FFFFFF"
         id="stop87" />
      <stop
         offset="0.0443"
         style="stop-color:#E6E6E6"
         id="stop89" />
      <stop
         offset="0.1498"
         style="stop-color:#B1B1B1"
         id="stop91" />
      <stop
         offset="0.2596"
         style="stop-color:#828282"
         id="stop93" />
      <stop
         offset="0.3712"
         style="stop-color:#5A5A5A"
         id="stop95" />
      <stop
         offset="0.4852"
         style="stop-color:#393939"
         id="stop97" />
      <stop
         offset="0.6022"
         style="stop-color:#202020"
         id="stop99" />
      <stop
         offset="0.7236"
         style="stop-color:#0E0E0E"
         id="stop101" />
      <stop
         offset="0.8522"
         style="stop-color:#030303"
         id="stop103" />
      <stop
         offset="1"
         style="stop-color:#000000"
         id="stop105" />
    </radialGradient>
    <radialGradient
       gradientTransform="translate(-320.75693,117.47857)"
       id="SVGID_2_"
       cx="684.25983"
       cy="354.5957"
       r="6.8246999"
       gradientUnits="userSpaceOnUse">
      <stop
         offset="0"
         style="stop-color:#FFFFFF"
         id="stop64" />
      <stop
         offset="0.0155"
         style="stop-color:#F7F7F7"
         id="stop66" />
      <stop
         offset="0.1321"
         style="stop-color:#BEBEBE"
         id="stop68" />
      <stop
         offset="0.2521"
         style="stop-color:#8B8B8B"
         id="stop70" />
      <stop
         offset="0.3727"
         style="stop-color:#606060"
         id="stop72" />
      <stop
         offset="0.4942"
         style="stop-color:#3E3E3E"
         id="stop74" />
      <stop
         offset="0.6166"
         style="stop-color:#232323"
         id="stop76" />
      <stop
         offset="0.7406"
         style="stop-color:#0F0F0F"
         id="stop78" />
      <stop
         offset="0.8671"
         style="stop-color:#040404"
         id="stop80" />
      <stop
         offset="1"
         style="stop-color:#000000"
         id="stop82" />
    </radialGradient>
    <linearGradient
       id="SVGID_1_"
       gradientUnits="userSpaceOnUse"
       x1="654.94141"
       y1="348.88669"
       x2="668.97882"
       y2="356.99121">
      <stop
         offset="0"
         style="stop-color:#FFFFFF"
         id="stop39" />
      <stop
         offset="0.0249"
         style="stop-color:#FEFDF7"
         id="stop41" />
      <stop
         offset="0.226"
         style="stop-color:#F6EBB8"
         id="stop43" />
      <stop
         offset="0.4184"
         style="stop-color:#F0DC84"
         id="stop45" />
      <stop
         offset="0.5971"
         style="stop-color:#EBD15B"
         id="stop47" />
      <stop
         offset="0.759"
         style="stop-color:#E8C93E"
         id="stop49" />
      <stop
         offset="0.8986"
         style="stop-color:#E6C42C"
         id="stop51" />
      <stop
         offset="1"
         style="stop-color:#E5C226"
         id="stop53" />
    </linearGradient>
  </defs>
  <sodipodi:namedview
     id="base"
     pagecolor="#ffffff"
     bordercolor="#666666"
     borderopacity="1.0"
     inkscape:pageopacity="0.0"
     inkscape:pageshadow="2"
     inkscape:zoom="0.35"
     inkscape:cx="-339.05126"
     inkscape:cy="148.69926"
     inkscape:document-units="px"
     inkscape:current-layer="layer1"
     showgrid="false"
     fit-margin-top="0"
     fit-margin-left="0"
     fit-margin-right="0"
     fit-margin-bottom="0"
     inkscape:window-width="1600"
     inkscape:window-height="837"
     inkscape:window-x="-8"
     inkscape:window-y="-8"
     inkscape:window-maximized="1" />
  <metadata
     id="metadata6325">
    <rdf:RDF>
      <cc:Work
         rdf:about="">
        <dc:format>image/svg+xml</dc:format>
        <dc:type
           rdf:resource="http://purl.org/dc/dcmitype/StillImage" />
        <dc:title></dc:title>
      </cc:Work>
    </rdf:RDF>
  </metadata>
  <g
     inkscape:label="Layer 1"
     inkscape:groupmode="layer"
     id="layer1"
     transform="translate(-292.62268,-383.66294)">
    <path
       inkscape:connector-curvature="0"
       style="fill:#e5bc45"
       d="m 329.19006,502.09757 c 0,0 -21.458,-33.494 5.495,-69.345 0,0 14.131,-15.963 23.028,-5.758 0,0 -6.264,-47.625 -18.31,-35.064 0,0 8.628,-18.318 33.226,0.785 0,0 8.111,9.158 14.916,17.271 0,0 -12.299,16.485 -14.654,23.29 0,0 26.43001,0.523 30.87901,29.309 l 1.569,0 c 0,0 10.992,-57.048 -16.74701,-53.646 0,0 23.81301,-15.701 36.89701,9.683 0,0 32.448,57.57 -1.309,95.514 10e-4,-10e-4 -65.94301,26.691 -94.99001,-12.039 z"
       id="path14" />
    <path
       inkscape:connector-curvature="0"
       style="fill:none;stroke:#010202;stroke-miterlimit:10"
       stroke-miterlimit="10"
       d="M 412.14407,471.48157"
       id="path24" />
    <path
       inkscape:connector-curvature="0"
       style="fill:none;stroke:#010202;stroke-miterlimit:10"
       stroke-miterlimit="10"
       d="M 332.12306,449.84857"
       id="path26" />
    <path
       inkscape:connector-curvature="0"
       style="fill:#dcbc45"
       d="m 328.14406,508.37857 c 0,0 -34.543,29.832 -27.478,58.879 0,0 -5.046,28.262 -0.952,47.103 0,0 -8.468,7.065 -6.897,16.486 0,0 1.376,11.775 17.566,18.057 0,0 1.274,13.346 13.835,17.271 0,0 5.495,3.141 9.421,0 0,0 25.035,18.841 47.845,14.131 0,0 43.22101,-3.14 63.63201,-25.906 0,0 21.196,-23.552 7.851,-88.711 0,0 -10.206,-47.103 -38.468,-35.327 0,0 -21.98001,12.561 -69.86901,-0.785 0,-10e-4 -21.197,-9.421 -16.486,-21.198 z"
       id="path28" />
    <g
       transform="translate(-320.75693,117.47857)"
       id="g30">
      <path
         style="fill:#e30613"
         inkscape:connector-curvature="0"
         d="m 648.901,390.9 1.569,-5.233 c 0,0 12.561,25.906 67.776,18.579 0,0 19.103,-1.831 26.691,-7.589 0,0 0.522,9.612 0,14.357 -0.523,4.746 -28.57,6.707 -29.363,6.781 -0.793,0.074 -73.476,1.892 -66.673,-26.895 z"
         id="path32" />
      <path
         style="fill:#a81927"
         inkscape:connector-curvature="0"
         d="m 648.901,390.9 1.557,-5.237 0.009,-0.031 0.017,0.029 c 0.508,0.93 1.119,1.803 1.773,2.636 l 1.012,1.229 1.099,1.15 c 1.479,1.52 3.109,2.891 4.839,4.117 0.832,0.661 1.745,1.203 2.654,1.749 0.911,0.542 1.79,1.143 2.763,1.573 l 2.854,1.404 c 0.966,0.436 1.974,0.776 2.958,1.17 1.955,0.833 4.021,1.336 6.059,1.92 l 1.529,0.432 1.561,0.306 3.123,0.599 1.561,0.3 c 0.523,0.076 1.053,0.119 1.579,0.181 l 3.161,0.343 c 1.055,0.091 2.102,0.279 3.163,0.291 l 3.178,0.099 c 2.118,0.055 4.234,0.19 6.353,0.038 l 6.351,-0.26 c 2.11,-0.186 4.216,-0.442 6.323,-0.66 2.096,-0.236 4.229,-0.427 6.319,-0.725 4.19,-0.593 8.362,-1.352 12.447,-2.422 2.035,-0.558 4.057,-1.165 6.01,-1.938 1.938,-0.791 3.843,-1.691 5.499,-2.915 l 0.722,-0.533 0.042,0.888 c 0.125,2.619 0.23,5.231 0.229,7.855 0.021,1.31 0.024,2.621 -0.076,3.942 l -0.108,1.977 -0.026,0.494 -0.007,0.123 -0.002,0.031 c 0.004,-0.007 -0.032,0.173 -0.021,0.11 l -0.018,0.06 -0.069,0.234 c -0.015,0.135 -0.186,0.377 -0.298,0.558 -0.128,0.217 -0.266,0.303 -0.4,0.445 -0.55,0.507 -1.161,0.836 -1.774,1.124 -0.615,0.289 -1.241,0.527 -1.873,0.736 -1.262,0.421 -2.539,0.758 -3.822,1.047 -2.567,0.578 -5.155,1.009 -7.749,1.379 -2.593,0.369 -5.193,0.672 -7.796,0.934 -1.302,0.132 -2.605,0.244 -3.909,0.348 l -1.955,0.147 c -0.692,0.038 -1.324,0.03 -1.986,0.038 -5.235,0.008 -10.464,-0.195 -15.682,-0.567 -5.216,-0.379 -10.42,-0.943 -15.584,-1.776 -5.158,-0.847 -10.289,-1.943 -15.261,-3.573 -2.489,-0.799 -4.928,-1.761 -7.275,-2.915 -2.334,-1.174 -4.58,-2.561 -6.523,-4.318 -1.922,-1.759 -3.559,-3.918 -4.346,-6.428 -0.402,-1.243 -0.613,-2.546 -0.636,-3.854 -0.007,-1.309 0.168,-2.609 0.452,-3.884 z m 0,0 c -0.278,1.276 -0.446,2.576 -0.437,3.883 0.029,1.305 0.246,2.604 0.653,3.842 0.798,2.497 2.438,4.639 4.361,6.381 1.945,1.741 4.19,3.113 6.523,4.271 2.346,1.138 4.783,2.087 7.271,2.87 4.98,1.562 10.111,2.59 15.268,3.368 5.161,0.766 10.358,1.262 15.565,1.573 5.207,0.305 10.427,0.44 15.637,0.364 0.645,-0.014 1.319,-0.018 1.931,-0.06 l 1.949,-0.172 3.892,-0.386 c 2.592,-0.274 5.18,-0.589 7.756,-0.969 2.575,-0.381 5.142,-0.822 7.668,-1.403 1.262,-0.291 2.512,-0.628 3.725,-1.04 1.185,-0.425 2.445,-0.895 3.287,-1.666 0.09,-0.093 0.229,-0.198 0.256,-0.275 0.044,-0.103 0.138,-0.093 0.173,-0.291 l 0.068,-0.235 0.017,-0.059 c 0.018,-0.081 -0.014,0.079 -0.01,0.051 l 0.001,-0.03 0.006,-0.121 0.023,-0.483 0.096,-1.936 c 0.092,-1.285 0.079,-2.586 0.069,-3.888 0.016,-2.6 -0.077,-5.209 -0.188,-7.807 l 0.764,0.354 c -1.776,1.299 -3.747,2.211 -5.738,3.013 -2.003,0.782 -4.058,1.388 -6.12,1.942 -4.141,1.053 -8.34,1.826 -12.569,2.354 -2.118,0.273 -4.221,0.434 -6.348,0.646 -2.12,0.191 -4.236,0.422 -6.357,0.582 l -6.384,0.179 c -2.127,0.126 -4.254,-0.036 -6.381,-0.119 l -3.188,-0.14 c -1.064,-0.025 -2.116,-0.228 -3.174,-0.333 l -3.169,-0.384 c -0.527,-0.069 -1.058,-0.118 -1.582,-0.202 l -1.564,-0.321 -3.126,-0.641 -1.562,-0.326 -1.53,-0.453 c -2.038,-0.61 -4.1,-1.146 -6.054,-2 -0.985,-0.398 -1.993,-0.746 -2.959,-1.188 l -2.854,-1.422 c -0.973,-0.437 -1.852,-1.043 -2.762,-1.591 -0.909,-0.552 -1.82,-1.1 -2.651,-1.767 -1.728,-1.238 -3.354,-2.62 -4.828,-4.149 l -1.096,-1.158 -1.007,-1.236 c -0.651,-0.838 -1.259,-1.714 -1.764,-2.65 l 0.024,-0.002 -1.581,5.23 z"
         id="path34" />
    </g>
    <g
       transform="translate(-320.75693,117.47857)"
       style="opacity:0.7"
       id="g36">
      <linearGradient
         id="linearGradient6204"
         gradientUnits="userSpaceOnUse"
         x1="654.94141"
         y1="348.88669"
         x2="668.97882"
         y2="356.99121">
        <stop
           offset="0"
           style="stop-color:#FFFFFF"
           id="stop6206" />
        <stop
           offset="0.0249"
           style="stop-color:#FEFDF7"
           id="stop6208" />
        <stop
           offset="0.226"
           style="stop-color:#F6EBB8"
           id="stop6210" />
        <stop
           offset="0.4184"
           style="stop-color:#F0DC84"
           id="stop6212" />
        <stop
           offset="0.5971"
           style="stop-color:#EBD15B"
           id="stop6214" />
        <stop
           offset="0.759"
           style="stop-color:#E8C93E"
           id="stop6216" />
        <stop
           offset="0.8986"
           style="stop-color:#E6C42C"
           id="stop6218" />
        <stop
           offset="1"
           style="stop-color:#E5C226"
           id="stop6220" />
      </linearGradient>
      <path
         style="fill:url(#SVGID_1_)"
         inkscape:connector-curvature="0"
         d="m 664.209,336.08 c 0,0 -5.103,10.857 -10.598,16.746 0,0 -7.458,4.71 0,12.168 l 1.178,1.963 7.851,0 c 0,0 0.393,0.392 3.532,-5.104 3.141,-5.495 3.533,-5.103 2.355,-18.841"
         id="path55" />
      <path
         style="fill:#a99627"
         inkscape:connector-curvature="0"
         d="m 664.209,336.08 c -0.666,1.518 -1.383,3.015 -2.146,4.488 -0.388,0.732 -0.752,1.479 -1.159,2.203 l -1.221,2.173 c -0.429,0.712 -0.875,1.413 -1.312,2.121 -0.225,0.35 -0.428,0.714 -0.671,1.052 l -0.716,1.025 c -0.491,0.674 -0.92,1.393 -1.475,2.023 l -1.592,1.946 -0.02,0.024 -0.063,0.044 c -0.434,0.307 -0.887,0.689 -1.263,1.105 -0.392,0.41 -0.722,0.87 -1.014,1.347 -0.121,0.251 -0.266,0.492 -0.369,0.749 -0.084,0.263 -0.199,0.518 -0.262,0.785 -0.045,0.271 -0.113,0.54 -0.145,0.812 l -0.018,0.824 c 0.029,0.273 0.081,0.546 0.119,0.819 0.016,0.277 0.153,0.534 0.228,0.801 0.088,0.265 0.161,0.534 0.311,0.779 l 0.39,0.753 c 0.129,0.252 0.322,0.472 0.48,0.709 0.168,0.231 0.326,0.47 0.501,0.697 l 1.167,1.283 0.051,0.056 0.024,0.039 1.176,1.964 -0.423,-0.239 7.851,0.041 0.318,0.131 c -0.062,-0.083 -0.229,-0.136 -0.298,-0.125 l -0.039,-0.004 c -0.026,10e-4 -0.054,0.009 -0.076,0.021 -0.038,0.024 0.012,-0.015 0.015,-0.019 0.028,-0.028 0.051,-0.028 0.095,-0.083 l 0.24,-0.261 0.469,-0.614 c 0.298,-0.435 0.602,-0.863 0.879,-1.319 0.581,-0.89 1.102,-1.826 1.66,-2.738 0.555,-0.922 1.108,-1.843 1.609,-2.769 0.285,-0.455 0.429,-0.949 0.65,-1.423 0.227,-0.473 0.274,-0.999 0.423,-1.497 0.147,-0.501 0.128,-1.042 0.2,-1.562 0.069,-0.522 0.077,-1.056 0.071,-1.589 l 0.016,-1.602 -0.052,-1.605 c -0.05,-2.145 -0.212,-4.287 -0.293,-6.435 0.245,2.135 0.501,4.268 0.664,6.414 l 0.134,1.609 0.053,1.62 c 0.023,0.54 0.033,1.081 -0.021,1.627 -0.058,0.544 -0.021,1.095 -0.158,1.634 -0.138,0.534 -0.18,1.101 -0.4,1.61 -0.214,0.505 -0.366,1.057 -0.64,1.523 -0.49,0.98 -1.016,1.916 -1.538,2.852 -0.533,0.938 -1.062,1.876 -1.641,2.794 -0.276,0.464 -0.588,0.916 -0.893,1.37 -0.158,0.226 -0.335,0.447 -0.502,0.671 l -0.303,0.334 c -0.039,0.052 -0.135,0.121 -0.208,0.179 -0.053,0.034 -0.048,0.05 -0.148,0.098 -0.055,0.023 -0.113,0.042 -0.171,0.054 l -0.087,0.014 c -0.084,0.009 -0.269,-0.051 -0.347,-0.137 l 0.318,0.131 -7.851,0.041 -0.278,0.001 -0.145,-0.24 -1.18,-1.962 0.075,0.095 -1.225,-1.374 c -0.187,-0.246 -0.357,-0.506 -0.536,-0.759 -0.169,-0.26 -0.37,-0.496 -0.512,-0.775 l -0.424,-0.839 c -0.158,-0.271 -0.244,-0.578 -0.341,-0.88 -0.083,-0.307 -0.226,-0.594 -0.248,-0.917 -0.043,-0.317 -0.098,-0.633 -0.126,-0.95 l 0.03,-0.963 c 0.04,-0.318 0.118,-0.631 0.178,-0.945 0.077,-0.311 0.209,-0.604 0.312,-0.905 0.122,-0.294 0.287,-0.566 0.43,-0.85 0.334,-0.536 0.71,-1.044 1.146,-1.491 0.432,-0.461 0.893,-0.855 1.439,-1.224 l -0.082,0.068 1.612,-1.853 c 0.562,-0.598 1.007,-1.297 1.513,-1.944 l 0.738,-0.99 c 0.25,-0.327 0.463,-0.682 0.697,-1.021 0.455,-0.688 0.92,-1.37 1.367,-2.063 l 1.307,-2.106 c 0.443,-0.698 0.843,-1.423 1.267,-2.134 0.426,-0.71 0.814,-1.44 1.22,-2.163 0.41,-0.722 0.804,-1.45 1.189,-2.184 z"
         id="path57" />
    </g>
    <path
       inkscape:connector-curvature="0"
       style="fill:#fbda20;stroke:#010202;stroke-miterlimit:10"
       stroke-miterlimit="10"
       d="m 353.26506,473.44457 c 0,0 6.325,-17.663 22.789,-2.355 0,0 1.569,7.458 -11.396,11.776 0.001,0 -11,3.139 -11.393,-9.421 z"
       id="path59" />
    <path
       inkscape:connector-curvature="0"
       style="fill:#fbda20;stroke:#010202;stroke-miterlimit:10"
       stroke-miterlimit="10"
       d="m 335.99506,456.95757 c 0,0 -2.861,-10.205 -8.301,-8.242 0,0 -6.221,10.658 -1.905,20.284 0,0 12.953,-1.05 10.206,-12.042 z"
       id="path61" />
    <path
       inkscape:connector-curvature="0"
       style="fill:url(#SVGID_2_);stroke:#010202;stroke-miterlimit:10"
       stroke-miterlimit="10"
       d="m 360.30506,465.53557 c 0,0 -6.895,9.658 0,13.012 0,0 6.699,1.963 7.484,0 0,0 2.744,-2.756 1.765,-12.172 0,-10e-4 -5.948,-3.056 -9.249,-0.84 z"
       id="path84" />
    <path
       inkscape:connector-curvature="0"
       style="fill:url(#SVGID_3_);stroke:#010202;stroke-miterlimit:10"
       stroke-miterlimit="10"
       d="m 332.12306,449.84857 c 0,0 -6.28,-0.327 -4.429,12.998 0,0 6.045,1.443 6.977,-9.288 l -2.548,-3.71 z"
       id="path107" />
    <g
       transform="translate(-320.75693,117.47857)"
       id="g109">
      <path
         style="fill:#e30613"
         inkscape:connector-curvature="0"
         d="m 648.451,376.377 c 1.063,-0.688 2.166,-1.258 3.28,-1.794 0.557,-0.269 1.124,-0.507 1.686,-0.762 l 1.709,-0.692 0.57,-0.23 0.473,0.541 c 1.334,1.53 2.638,3.109 3.893,4.713 l 0.94,1.206 0.931,1.218 c 0.322,0.393 0.614,0.823 0.93,1.229 0.322,0.395 0.641,0.807 0.954,1.244 -0.473,-0.226 -0.941,-0.477 -1.406,-0.745 -0.441,-0.289 -0.87,-0.594 -1.289,-0.914 -0.435,-0.309 -0.823,-0.653 -1.214,-1.002 -0.393,-0.346 -0.794,-0.687 -1.15,-1.063 -0.744,-0.729 -1.464,-1.482 -2.134,-2.274 -0.678,-0.789 -1.321,-1.596 -1.937,-2.445 l 1.043,0.311 -1.779,0.484 c -0.602,0.138 -1.197,0.292 -1.803,0.416 -1.211,0.247 -2.434,0.461 -3.697,0.559 z"
         id="path111" />
    </g>
    <g
       transform="translate(-320.75693,117.47857)"
       id="g113">
      <polygon
         style="fill:#e30613"
         points="654.291,367.002 655.287,366.912 655.428,374.022 "
         id="polygon115" />
    </g>
    <g
       transform="translate(-320.75693,117.47857)"
       id="g117">
      <path
         style="fill:#010202"
         inkscape:connector-curvature="0"
         d="m 686.47,347.305 c 0,0 0.082,-0.082 0.17,-0.192 0.098,-0.102 0.239,-0.32 0.399,-0.561 0.144,-0.26 0.332,-0.556 0.473,-0.91 0.168,-0.342 0.301,-0.728 0.422,-1.121 0.146,-0.387 0.217,-0.794 0.305,-1.174 0.097,-0.379 0.153,-0.739 0.182,-1.052 0.075,-0.624 0.126,-1.041 0.126,-1.041 0,0 0.012,0.421 0.029,1.052 0.019,0.317 0.017,0.688 -0.023,1.084 -0.031,0.396 -0.041,0.826 -0.131,1.246 -0.065,0.425 -0.144,0.849 -0.268,1.239 -0.093,0.398 -0.247,0.753 -0.364,1.064 -0.145,0.308 -0.253,0.553 -0.38,0.742 -0.117,0.193 -0.176,0.268 -0.176,0.268 l -0.764,-0.644 z"
         id="path119" />
    </g>
    <g
       transform="translate(-320.75693,117.47857)"
       id="g121">
      <path
         style="fill:#010202"
         inkscape:connector-curvature="0"
         d="m 690.072,347.031 c 0,0 0.288,-0.487 0.653,-1.224 0.186,-0.369 0.412,-0.796 0.64,-1.264 0.213,-0.475 0.44,-0.98 0.668,-1.487 0.225,-0.509 0.473,-1.011 0.637,-1.505 0.181,-0.489 0.35,-0.947 0.494,-1.339 0.291,-0.787 0.484,-1.312 0.484,-1.312 0,0 -0.134,0.542 -0.334,1.356 -0.101,0.408 -0.219,0.885 -0.345,1.395 -0.11,0.518 -0.3,1.044 -0.468,1.58 -0.172,0.536 -0.345,1.071 -0.506,1.573 -0.176,0.498 -0.357,0.959 -0.506,1.357 -0.293,0.804 -0.52,1.308 -0.52,1.308 l -0.897,-0.438 z"
         id="path123" />
    </g>
    <g
       transform="translate(-320.75693,117.47857)"
       id="g129">
      <path
         style="fill:#010202"
         inkscape:connector-curvature="0"
         d="m 698.653,354.105 c 0,0 0.206,-0.025 0.513,-0.102 0.314,-0.057 0.77,-0.193 1.32,-0.361 0.278,-0.071 0.56,-0.209 0.87,-0.321 0.303,-0.131 0.644,-0.225 0.959,-0.401 0.323,-0.163 0.657,-0.331 0.997,-0.502 0.35,-0.156 0.665,-0.379 0.991,-0.588 0.326,-0.211 0.652,-0.422 0.974,-0.629 0.318,-0.213 0.589,-0.478 0.875,-0.704 0.28,-0.234 0.553,-0.461 0.81,-0.676 0.272,-0.201 0.466,-0.455 0.669,-0.666 0.796,-0.868 1.326,-1.446 1.326,-1.446 0,0 -0.484,0.62 -1.211,1.551 -0.188,0.229 -0.364,0.503 -0.62,0.727 -0.243,0.238 -0.499,0.488 -0.765,0.748 -0.271,0.253 -0.528,0.545 -0.834,0.787 -0.311,0.238 -0.626,0.479 -0.942,0.722 -0.317,0.241 -0.626,0.497 -0.971,0.686 -0.337,0.204 -0.668,0.405 -0.988,0.601 -0.314,0.209 -0.657,0.335 -0.963,0.496 -0.313,0.144 -0.598,0.31 -0.885,0.408 -0.562,0.223 -1.034,0.405 -1.392,0.502 -0.354,0.114 -0.536,0.15 -0.536,0.15 l -0.197,-0.982 z"
         id="path131" />
    </g>
    <path
       inkscape:connector-curvature="0"
       style="fill:#e30613"
       d="m 334.68506,432.75257 c 0,0 3.831,-37.159 4.274,-38.991 0.444,-1.831 6.716,-9.038 10.707,1.997 0,0 7.785,21.293 8.047,31.236 0.001,10e-4 -6.672,-10.99 -23.028,5.758 z"
       id="path133" />
    <path
       inkscape:connector-curvature="0"
       style="fill:#e30613"
       d="m 372.89106,433.27657 c 0,0 13.028,-28.147 20.37101,-24.308 0,0 13.021,0.839 14.186,27.555 l -2.108,26.062 -1.569,0 c -0.001,-0.001 -2.618,-26.693 -30.88001,-29.309 z"
       id="path135" />
    <g
       transform="translate(-320.75693,117.47857)"
       id="g137">
      <path
         style="fill:#010202"
         inkscape:connector-curvature="0"
         d="m 674.06,378.037 c 0,0 0.399,0.046 1.069,0.068 0.669,0.052 1.652,0.027 2.826,0.031 0.588,-0.031 1.225,-0.065 1.897,-0.102 0.676,-0.023 1.385,-0.08 2.116,-0.176 0.733,-0.081 1.491,-0.166 2.261,-0.252 0.769,-0.1 1.54,-0.258 2.317,-0.386 0.775,-0.14 1.556,-0.261 2.316,-0.413 0.755,-0.183 1.497,-0.362 2.216,-0.536 0.72,-0.174 1.415,-0.343 2.074,-0.502 0.66,-0.159 1.262,-0.386 1.83,-0.555 2.261,-0.716 3.769,-1.193 3.769,-1.193 0,0 -1.488,0.537 -3.721,1.343 -0.562,0.191 -1.157,0.442 -1.812,0.628 -0.654,0.187 -1.345,0.382 -2.06,0.585 -0.715,0.204 -1.454,0.414 -2.205,0.627 -0.758,0.184 -1.537,0.336 -2.312,0.508 -0.777,0.159 -1.55,0.35 -2.32,0.481 -0.773,0.117 -1.535,0.232 -2.271,0.345 -0.735,0.125 -1.452,0.211 -2.135,0.262 -0.682,0.063 -1.327,0.123 -1.922,0.179 -1.198,0.044 -2.19,0.108 -2.905,0.083 -0.714,0.002 -1.103,-0.027 -1.103,-0.027 l 0.075,-0.998 z"
         id="path139" />
    </g>
    <g
       transform="translate(-320.75693,117.47857)"
       id="g141">
      <path
         style="fill:#010202"
         inkscape:connector-curvature="0"
         d="m 674.041,382.55 c 0,0 6.172,0.364 12.354,0.565 1.545,0.056 3.09,0.099 4.539,0.114 1.449,0.038 2.801,0.033 3.96,0.012 0.579,-0.01 1.112,-0.003 1.582,-0.025 0.469,-0.034 0.878,-0.063 1.215,-0.089 0.676,-0.049 1.062,-0.077 1.062,-0.077 0,0 -0.384,0.044 -1.057,0.12 -0.336,0.038 -0.745,0.085 -1.215,0.139 -0.47,0.041 -1.001,0.056 -1.581,0.089 -1.159,0.068 -2.514,0.128 -3.965,0.148 -1.451,0.043 -2.999,0.062 -4.547,0.069 -6.19,0.049 -12.384,-0.065 -12.384,-0.065 l 0.037,-1 z"
         id="path143" />
    </g>
    <g
       transform="translate(-320.75693,117.47857)"
       id="g145">
      <path
         style="fill:#010202"
         inkscape:connector-curvature="0"
         d="m 674.125,385.178 c 0,0 6.083,1.404 12.233,2.494 3.073,0.546 6.164,1.003 8.497,1.202 0.583,0.037 1.118,0.103 1.594,0.104 0.475,0.008 0.89,0.032 1.23,0.022 0.683,-0.04 1.072,-0.062 1.072,-0.062 0,0 -0.39,0.038 -1.07,0.105 -0.342,0.023 -0.758,0.016 -1.234,0.027 -0.479,0.017 -1.015,-0.028 -1.602,-0.042 -2.348,-0.105 -5.463,-0.439 -8.564,-0.863 -6.204,-0.846 -12.361,-2.01 -12.361,-2.01 l 0.205,-0.977 z"
         id="path147" />
    </g>
    <path
       inkscape:connector-curvature="0"
       style="fill:none;stroke:#f7d35a;stroke-miterlimit:10"
       stroke-miterlimit="10"
       d="m 327.35206,512.30457 c 0,0 -10.984,2.354 -9.414,44.747 0,0 -2.748,29.439 -17.271,10.206 0,0 -7.85,-25.906 27.478,-58.879 l -0.793,3.926 z"
       id="path149" />
    <path
       inkscape:connector-curvature="0"
       style="fill:none;stroke:#a99627;stroke-miterlimit:10"
       stroke-miterlimit="10"
       d="m 317.93806,557.05157 c 0,0 17.664,6.674 25.121,50.243 0,0 9.421,54.169 -9.42,58.879 0,0 -17.465,5.495 -23.256,-17.271 0,0 -18.738,-36.086 -8.146,-79.705 0,10e-4 11.777,15.723 15.701,-12.146 z"
       id="path151" />
    <path
       inkscape:connector-curvature="0"
       style="opacity:0.8;fill:#b79b10;stroke:#a99627;stroke-miterlimit:10"
       stroke-miterlimit="10"
       d="m 317.93806,557.05157 3.156,0 c 0,0 15.292,7.851 32.171,49.066 0,0 0.062,26.299 10.237,35.719 0,0 -14.555,14.523 -18.088,20.805 0,0 -7.851,6.673 -11.775,3.532 0,0 16.486,-0.595 9.42,-54.27 0,0.001 -2.354,-41.113 -25.121,-54.852 z"
       id="path153" />
    <g
       transform="translate(-320.75693,117.47857)"
       style="opacity:0.8"
       id="g155">
      <radialGradient
         id="radialGradient6250"
         cx="734.0166"
         cy="441.05469"
         r="20.559999"
         gradientTransform="matrix(-4.371139e-8,-1,0.7,-3.059797e-8,425.2784,1175.0713)"
         gradientUnits="userSpaceOnUse">
        <stop
           offset="0"
           style="stop-color:#E5C226"
           id="stop6252" />
        <stop
           offset="0.2021"
           style="stop-color:#E1BE29;stop-opacity:0.899"
           id="stop6254" />
        <stop
           offset="0.3992"
           style="stop-color:#D6B12E;stop-opacity:0.8004"
           id="stop6256" />
        <stop
           offset="0.5944"
           style="stop-color:#C59D33;stop-opacity:0.7028"
           id="stop6258" />
        <stop
           offset="0.7885"
           style="stop-color:#B08237;stop-opacity:0.6058"
           id="stop6260" />
        <stop
           offset="0.98"
           style="stop-color:#966337;stop-opacity:0.51"
           id="stop6262" />
        <stop
           offset="1"
           style="stop-color:#936037;stop-opacity:0.5"
           id="stop6264" />
      </radialGradient>
      <path
         style="fill:url(#SVGID_4_)"
         inkscape:connector-curvature="0"
         d="m 728.205,416.467 c 0,0 -14.93,12.116 -7.473,35.275 0,0 8.243,17.836 18.449,13.235 0,0 8.636,-1.676 10.205,-22.568 10e-4,0 -1.934,-27.852 -21.181,-25.942 z"
         id="path172" />
      <path
         style="fill:#8e7c21"
         inkscape:connector-curvature="0"
         d="m 728.205,416.467 c -0.588,0.535 -1.146,1.101 -1.66,1.705 -0.535,0.586 -0.999,1.231 -1.493,1.85 -0.44,0.658 -0.928,1.285 -1.325,1.971 -0.396,0.685 -0.839,1.343 -1.17,2.062 -0.347,0.711 -0.737,1.399 -1.009,2.144 -0.276,0.74 -0.642,1.445 -0.845,2.211 -0.227,0.756 -0.483,1.502 -0.685,2.263 l -0.504,2.31 c -0.165,0.771 -0.207,1.562 -0.316,2.341 l -0.141,1.172 -0.024,1.182 c -0.009,0.787 -0.048,1.574 -0.033,2.359 l 0.187,2.354 0.096,1.176 0.209,1.163 0.418,2.323 c 0.138,0.774 0.406,1.521 0.603,2.282 l 0.628,2.277 -0.02,-0.049 c 0.895,1.837 1.958,3.629 3.122,5.323 1.18,1.687 2.467,3.306 3.953,4.704 0.366,0.355 0.754,0.687 1.146,1.007 0.393,0.323 0.803,0.617 1.221,0.901 0.426,0.268 0.852,0.537 1.303,0.751 0.441,0.235 0.908,0.416 1.376,0.572 0.469,0.163 0.951,0.26 1.435,0.347 l 0.731,0.067 c 0.244,0.011 0.488,-0.007 0.732,-0.008 0.484,-0.039 0.976,-0.084 1.444,-0.227 0.481,-0.1 0.933,-0.306 1.393,-0.479 l 0.062,-0.023 0.048,-0.012 c 0.396,-0.096 0.896,-0.343 1.318,-0.592 0.438,-0.259 0.842,-0.578 1.243,-0.901 0.368,-0.365 0.773,-0.69 1.098,-1.104 0.348,-0.39 0.683,-0.791 0.973,-1.232 l 0.456,-0.644 0.397,-0.685 c 0.269,-0.455 0.538,-0.91 0.749,-1.399 0.218,-0.483 0.471,-0.951 0.661,-1.449 l 0.564,-1.495 c 0.207,-0.491 0.319,-1.019 0.482,-1.526 0.146,-0.515 0.318,-1.021 0.441,-1.542 l 0.352,-1.568 c 0.113,-0.524 0.25,-1.043 0.32,-1.576 l 0.256,-1.591 c 0.078,-0.531 0.188,-1.058 0.229,-1.595 l 0.334,-3.21 -0.001,0.062 c -0.129,-1.522 -0.347,-3.071 -0.627,-4.592 -0.282,-1.524 -0.631,-3.037 -1.057,-4.528 -0.846,-2.979 -1.999,-5.887 -3.619,-8.523 -0.397,-0.663 -0.849,-1.289 -1.303,-1.914 -0.483,-0.602 -0.964,-1.207 -1.509,-1.755 -0.256,-0.29 -0.544,-0.546 -0.831,-0.804 -0.284,-0.263 -0.568,-0.523 -0.884,-0.748 -0.598,-0.491 -1.259,-0.892 -1.917,-1.297 -0.689,-0.35 -1.378,-0.705 -2.115,-0.951 -0.357,-0.15 -0.73,-0.258 -1.107,-0.349 -0.377,-0.087 -0.744,-0.228 -1.132,-0.269 l -1.151,-0.185 c -0.387,-0.044 -0.776,-0.054 -1.165,-0.082 -0.775,-0.085 -1.556,0.023 -2.337,0.025 z m 0,0 c 0.779,-0.031 1.559,-0.169 2.342,-0.113 0.391,0.014 0.784,0.008 1.175,0.037 l 1.169,0.148 c 0.394,0.03 0.768,0.161 1.153,0.238 0.386,0.082 0.767,0.18 1.135,0.322 0.756,0.229 1.467,0.57 2.182,0.908 0.684,0.393 1.372,0.784 1.998,1.27 0.329,0.221 0.628,0.479 0.926,0.739 0.302,0.256 0.604,0.511 0.875,0.8 0.573,0.546 1.085,1.148 1.594,1.754 0.476,0.631 0.949,1.265 1.367,1.936 1.701,2.664 2.924,5.603 3.837,8.613 0.457,1.506 0.839,3.035 1.152,4.578 0.31,1.546 0.566,3.091 0.703,4.683 l 0.002,0.031 -0.003,0.03 -0.318,3.252 c -0.039,0.543 -0.147,1.079 -0.224,1.619 l -0.251,1.617 c -0.068,0.541 -0.204,1.072 -0.316,1.606 l -0.35,1.603 c -0.123,0.532 -0.297,1.054 -0.442,1.582 -0.165,0.522 -0.277,1.061 -0.487,1.57 l -0.574,1.545 c -0.193,0.515 -0.453,1.005 -0.678,1.509 -0.216,0.508 -0.495,0.986 -0.773,1.466 l -0.414,0.721 -0.479,0.685 c -0.304,0.467 -0.658,0.898 -1.029,1.319 -0.345,0.442 -0.784,0.807 -1.183,1.203 -0.439,0.359 -0.884,0.713 -1.378,1.009 -0.511,0.291 -0.978,0.562 -1.639,0.72 l 0.11,-0.034 c -0.515,0.193 -1.019,0.415 -1.562,0.527 -0.528,0.155 -1.087,0.207 -1.636,0.246 -0.276,10e-4 -0.554,0.018 -0.829,0.004 l -0.824,-0.081 c -0.541,-0.099 -1.08,-0.212 -1.597,-0.395 -0.516,-0.175 -1.026,-0.378 -1.502,-0.634 -0.489,-0.237 -0.943,-0.527 -1.397,-0.816 -0.443,-0.305 -0.877,-0.62 -1.288,-0.962 -0.411,-0.34 -0.815,-0.688 -1.194,-1.062 -1.542,-1.468 -2.852,-3.139 -4.048,-4.87 -1.185,-1.747 -2.245,-3.554 -3.164,-5.469 l -0.014,-0.028 -0.006,-0.021 -0.622,-2.323 c -0.187,-0.779 -0.444,-1.542 -0.572,-2.334 l -0.385,-2.376 -0.192,-1.187 -0.077,-1.201 -0.148,-2.4 c -0.001,-0.802 0.052,-1.604 0.075,-2.404 l 0.047,-1.202 0.162,-1.191 c 0.125,-0.791 0.183,-1.594 0.363,-2.375 l 0.554,-2.339 c 0.217,-0.771 0.506,-1.52 0.755,-2.279 0.228,-0.769 0.618,-1.476 0.919,-2.215 0.296,-0.744 0.711,-1.431 1.081,-2.138 0.354,-0.716 0.82,-1.369 1.239,-2.047 0.42,-0.679 0.928,-1.297 1.39,-1.945 0.512,-0.611 1.007,-1.235 1.565,-1.805 0.536,-0.587 1.119,-1.132 1.725,-1.644 z"
         id="path174" />
    </g>
    <path
       inkscape:connector-curvature="0"
       style="fill:#1e1e1c;stroke:#010202;stroke-miterlimit:10"
       stroke-miterlimit="10"
       d="m 317.93806,571.96757 c 0,0 -7.851,9.028 -15.701,13.346 0,0 -2.747,4.711 3.926,3.926 l 3.645,-2.748 c 0,0 2.407,-0.608 1.344,2.836 0,0 -1.456,3.416 -8.914,5.393 0,0 -1.684,6.295 4.457,7.865 0,0 5.79,-2.748 7.34,-4.317 0,0 1.941,5.495 -7.871,8.635 0,0 -4.825,3.588 0.531,5.131 l 4.457,-0.129 c 0,0 2.338,0.362 0.376,4.681 0,0 -1.047,1.7 -7.197,1.178 0,0 0.095,7.065 5.478,6.935 0,0 4.468,-0.393 8.131,-4.71 3.663,-4.318 5.626,-1.963 5.626,-1.963 0,0 1.439,-1.907 1.309,-5.991 0,0 3.794,-1.467 1.046,5.991 0,0 -1.308,1.963 3.533,1.047 0,0 2.094,-0.654 2.748,-1.57 0.654,-0.916 3.663,-7.981 -3.141,-10.729 0,0 -3.897,-0.915 -6.855,2.879 0,0 -4.266,0.263 -1.125,-3.009 0,0 7.196,-6.542 11.383,-1.178 0,0 2.485,1.439 1.831,-1.963 0,0 -3.009,-7.852 -5.364,-7.72 0,0 -1.177,-1.309 -4.317,1.438 0,0 -2.747,2.355 -4.188,2.094 0,0 -2.197,-1.86 1.78,-4.594 0,0 3.585,-4.957 7.379,-2.341 0,0 3.533,1.569 2.225,-3.01 0,0 -2.224,-4.709 -4.056,-6.018 0,0 -1.963,-3.142 -7.981,2.485 0,0 -2.486,-2.225 0,-4.579 0,0 4.972,-2.485 5.104,-2.617 0.13,-0.131 -0.132,0.132 -0.132,0.132 0,0 2.094,-0.655 -0.653,-4.449 -0.003,-10e-4 -3.109,-5.589 -6.154,-2.357 z"
       id="path176" />
    <path
       inkscape:connector-curvature="0"
       style="fill:#1e1e1c;stroke:#010202;stroke-miterlimit:10"
       stroke-miterlimit="10"
       d="m 325.00406,622.47557 c 0,0 -11.219,5.233 -13.853,5.757 0,0 -4.597,-0.13 -5.12,-1.438 -0.523,-1.31 -0.916,4.972 3.271,6.279 4.187,1.309 4.841,-0.392 7.458,-1.962 0,0 2.487,-0.786 1.178,3.663 0,0 -8.377,-1.022 -9.028,4.188 0,0 1.046,14.916 8.111,14.916 0,0 1.701,1.178 -0.393,-10.991 0,0 4.188,-4.188 4.058,0.654 0,0 -3.665,14.392 5.756,9.682 0,0 8.112,-11.514 3.402,-15.962 0,0 -1.963,6.149 -4.973,6.149 0,0 -4.186,-4.711 3.272,-8.636 0,0 7.093,-2.967 4.121,10.309 -0.021,0.096 -0.043,0.192 -0.065,0.289 -3.141,13.608 2.203,11.122 2.203,11.122 0,0 3.422,-1.047 4.207,-12.3 0,0 1.179,-15.177 -6.541,-14.392 0,0 -3.402,-0.916 -7.458,2.486 0,0 -2.225,-1.44 0.653,-3.664 0,0 4.973,-5.495 8.375,-2.224 0,0 2.485,2.485 3.532,0 0,0 0.653,-7.982 -5.234,-6.15 l -6.932,2.225 z"
       id="path178" />
    <g
       transform="translate(-320.75693,117.47857)"
       id="g180">
      <path
         style="fill:#2fac66"
         inkscape:connector-curvature="0"
         d="m 648.109,394.826 c 0,0 -13.561,10.005 -6.258,44.747 0,0 14.408,10.299 19.625,23.336 0,0 41.592,-20.98 51.013,-42.7 l -3.532,-2.011 c 0,0 -59.283,0.963 -60.848,-23.372 z"
         id="path182" />
      <path
         style="fill:#006633"
         inkscape:connector-curvature="0"
         d="m 648.109,394.826 c -0.766,0.615 -1.381,1.386 -1.997,2.141 l -0.847,1.197 -0.755,1.256 c -0.495,0.841 -0.899,1.734 -1.314,2.615 -0.341,0.915 -0.765,1.799 -1.035,2.737 -0.266,0.939 -0.62,1.853 -0.812,2.812 -0.202,0.954 -0.443,1.9 -0.614,2.86 l -0.414,2.896 c -0.138,0.966 -0.152,1.945 -0.235,2.916 -0.075,0.973 -0.141,1.945 -0.111,2.922 l 10e-4,2.926 c 0.006,0.975 0.11,1.947 0.161,2.921 0.071,0.973 0.107,1.948 0.207,2.918 l 0.37,2.904 c 0.136,0.966 0.221,1.939 0.397,2.899 l 1.076,5.755 -0.136,-0.208 c 2.096,1.534 4.065,3.193 5.977,4.933 0.484,0.427 0.94,0.884 1.412,1.325 0.473,0.439 0.925,0.901 1.379,1.36 0.456,0.457 0.911,0.915 1.345,1.395 0.437,0.477 0.887,0.94 1.311,1.429 0.847,0.978 1.687,1.961 2.47,2.993 0.407,0.504 0.795,1.021 1.161,1.557 0.369,0.532 0.76,1.05 1.112,1.594 l 1.035,1.647 c 0.362,0.539 0.635,1.133 0.956,1.697 0.309,0.571 0.632,1.136 0.881,1.738 l 0.802,1.781 -0.616,-0.233 c 4.97,-2.582 9.831,-5.42 14.585,-8.4 2.375,-1.496 4.727,-3.029 7.037,-4.621 2.312,-1.591 4.582,-3.238 6.822,-4.925 4.462,-3.395 8.761,-7.014 12.665,-11.022 0.971,-1.007 1.922,-2.029 2.83,-3.091 0.473,-0.516 0.895,-1.071 1.337,-1.61 0.447,-0.537 0.875,-1.088 1.277,-1.656 0.843,-1.11 1.601,-2.279 2.33,-3.463 0.339,-0.605 0.696,-1.202 1.022,-1.814 l 0.902,-1.873 0.187,0.56 -3.528,-2.017 0.222,0.057 c -5.864,0.021 -11.702,-0.312 -17.521,-0.908 -5.816,-0.598 -11.611,-1.486 -17.305,-2.851 -1.421,-0.345 -2.839,-0.713 -4.24,-1.134 l -2.099,-0.645 -2.073,-0.727 c -1.364,-0.531 -2.737,-1.046 -4.054,-1.691 -1.338,-0.596 -2.623,-1.31 -3.883,-2.055 -0.613,-0.402 -1.244,-0.775 -1.842,-1.2 l -1.744,-1.339 -1.609,-1.498 -1.435,-1.666 c -0.417,-0.602 -0.809,-1.223 -1.213,-1.832 l -0.936,-1.986 -0.614,-2.104 -0.287,-2.172 z m 0,0 0.325,2.162 0.649,2.085 0.964,1.956 c 0.413,0.599 0.812,1.206 1.234,1.795 l 1.451,1.624 1.619,1.456 1.751,1.294 c 0.599,0.41 1.232,0.77 1.846,1.156 1.262,0.716 2.546,1.4 3.884,1.968 1.315,0.616 2.688,1.104 4.051,1.605 l 2.069,0.688 2.091,0.619 c 1.396,0.404 2.809,0.755 4.225,1.084 5.673,1.299 11.449,2.126 17.246,2.663 2.898,0.27 5.805,0.467 8.713,0.595 2.906,0.128 5.823,0.215 8.723,0.187 l 0.119,-10e-4 0.103,0.058 3.536,2.005 0.356,0.202 -0.17,0.357 -0.923,1.932 c -0.333,0.63 -0.695,1.242 -1.043,1.864 -0.741,1.213 -1.513,2.409 -2.366,3.543 -0.409,0.581 -0.842,1.143 -1.293,1.689 -0.448,0.549 -0.877,1.115 -1.353,1.64 -0.918,1.08 -1.879,2.119 -2.857,3.142 -3.937,4.068 -8.258,7.729 -12.737,11.161 -4.501,3.406 -9.174,6.575 -13.958,9.559 -4.789,2.979 -9.663,5.804 -14.687,8.395 l -0.416,0.214 -0.2,-0.447 -0.774,-1.736 c -0.24,-0.587 -0.555,-1.14 -0.855,-1.7 -0.312,-0.553 -0.574,-1.133 -0.929,-1.662 l -1.01,-1.62 c -0.345,-0.535 -0.727,-1.046 -1.089,-1.569 -0.357,-0.527 -0.738,-1.038 -1.138,-1.536 -0.767,-1.02 -1.594,-1.99 -2.424,-2.961 -0.413,-0.485 -0.854,-0.948 -1.28,-1.424 -0.424,-0.479 -0.87,-0.936 -1.316,-1.393 -0.444,-0.458 -0.887,-0.92 -1.352,-1.359 -0.462,-0.441 -0.909,-0.899 -1.385,-1.326 -1.87,-1.738 -3.821,-3.414 -5.857,-4.936 l -0.115,-0.085 -0.021,-0.124 -1.025,-5.8 c -0.168,-0.967 -0.244,-1.948 -0.371,-2.922 l -0.343,-2.925 c -0.091,-0.978 -0.118,-1.96 -0.18,-2.94 -0.041,-0.98 -0.136,-1.96 -0.132,-2.942 l 0.041,-2.946 c -0.011,-0.983 0.071,-1.963 0.165,-2.941 0.1,-0.977 0.133,-1.961 0.288,-2.931 l 0.469,-2.909 c 0.189,-0.963 0.449,-1.912 0.67,-2.868 0.21,-0.96 0.583,-1.875 0.866,-2.813 0.288,-0.938 0.731,-1.821 1.09,-2.734 0.434,-0.878 0.854,-1.768 1.367,-2.604 l 0.78,-1.246 0.869,-1.187 c 0.633,-0.749 1.263,-1.509 2.039,-2.111 z"
         id="path184" />
    </g>
    <g
       transform="translate(-320.75693,117.47857)"
       id="g186">
      <path
         style="fill:#010202"
         inkscape:connector-curvature="0"
         d="m 652.384,332.435 c 0,0 -0.035,-0.479 0.04,-1.134 0.077,-0.662 0.255,-1.543 0.649,-2.338 0.194,-0.395 0.417,-0.776 0.686,-1.087 0.252,-0.32 0.53,-0.585 0.787,-0.777 0.502,-0.405 0.91,-0.553 0.896,-0.571 0.015,0.018 -0.367,0.225 -0.791,0.688 -0.218,0.22 -0.443,0.509 -0.633,0.842 -0.206,0.323 -0.357,0.707 -0.48,1.091 -0.251,0.771 -0.289,1.59 -0.271,2.187 0.022,0.611 0.108,0.972 0.108,0.972 l -0.991,0.127 z"
         id="path188" />
    </g>
    <g
       transform="translate(-320.75693,117.47857)"
       id="g190">
      <path
         style="fill:#010202"
         inkscape:connector-curvature="0"
         d="m 650.588,329.351 c 0,0 0.034,-0.116 0.094,-0.318 0.062,-0.214 0.163,-0.504 0.297,-0.839 0.118,-0.343 0.319,-0.718 0.501,-1.128 0.227,-0.392 0.438,-0.821 0.711,-1.215 0.29,-0.383 0.521,-0.801 0.844,-1.115 0.312,-0.32 0.555,-0.658 0.843,-0.871 0.547,-0.443 0.912,-0.739 0.912,-0.739 0,0 -0.32,0.339 -0.801,0.848 -0.249,0.241 -0.444,0.609 -0.701,0.952 -0.268,0.338 -0.438,0.777 -0.662,1.172 -0.208,0.406 -0.354,0.845 -0.517,1.236 -0.118,0.412 -0.26,0.783 -0.326,1.117 -0.083,0.331 -0.139,0.603 -0.166,0.788 -0.035,0.182 -0.048,0.308 -0.048,0.308 l -0.981,-0.196 z"
         id="path192" />
    </g>
    <g
       transform="translate(-320.75693,117.47857)"
       id="g194">
      <path
         style="fill:#010202"
         inkscape:connector-curvature="0"
         d="m 649.197,329.034 c 0,0 0.141,-0.49 0.409,-1.169 0.27,-0.685 0.684,-1.576 1.208,-2.402 0.259,-0.416 0.558,-0.805 0.853,-1.154 0.307,-0.343 0.623,-0.629 0.908,-0.854 0.305,-0.204 0.551,-0.375 0.75,-0.451 0.189,-0.09 0.298,-0.141 0.298,-0.141 0,0 -0.101,0.064 -0.276,0.178 -0.184,0.099 -0.405,0.301 -0.669,0.532 -0.247,0.255 -0.512,0.567 -0.76,0.93 -0.237,0.371 -0.472,0.775 -0.665,1.201 -0.394,0.849 -0.675,1.744 -0.844,2.422 -0.171,0.685 -0.235,1.128 -0.235,1.128 l -0.977,-0.22 z"
         id="path196" />
    </g>
    <g
       transform="translate(-320.75693,117.47857)"
       id="g198">
      <path
         style="fill:#a99627"
         inkscape:connector-curvature="0"
         d="m 724.789,464.978 c 0,0 -3.045,1.026 -7.612,2.566 -2.277,0.782 -4.935,1.694 -7.781,2.671 -2.846,0.976 -5.868,2.053 -8.867,3.188 -3.014,1.094 -6.005,2.249 -8.771,3.415 -1.38,0.591 -2.721,1.147 -3.974,1.715 -1.256,0.56 -2.433,1.116 -3.497,1.668 -0.538,0.266 -1.042,0.542 -1.521,0.804 -0.486,0.251 -0.938,0.505 -1.355,0.756 -0.849,0.481 -1.553,0.958 -2.125,1.359 -0.565,0.413 -1.009,0.74 -1.283,0.999 -0.286,0.245 -0.438,0.376 -0.438,0.376 0,0 0.14,-0.145 0.401,-0.416 0.254,-0.281 0.656,-0.662 1.201,-1.113 0.548,-0.444 1.226,-0.976 2.045,-1.52 0.808,-0.564 1.752,-1.152 2.81,-1.74 1.05,-0.603 2.211,-1.214 3.45,-1.832 1.237,-0.625 2.558,-1.254 3.944,-1.854 2.768,-1.211 5.756,-2.417 8.768,-3.554 3.026,-1.097 6.072,-2.134 8.939,-3.072 2.865,-0.939 5.574,-1.708 7.889,-2.385 2.316,-0.672 4.27,-1.153 5.63,-1.511 1.362,-0.346 2.147,-0.52 2.147,-0.52 z"
         id="path200" />
    </g>
    <path
       inkscape:connector-curvature="0"
       style="fill:none;stroke:#a99627;stroke-miterlimit:10"
       stroke-miterlimit="10"
       d="m 421.61907,670.36057 c 0,0 16.955,-57.002 -3.194,-87.904"
       id="path202" />
    <path
       inkscape:connector-curvature="0"
       style="fill:none;stroke:#a99627;stroke-miterlimit:10"
       stroke-miterlimit="10"
       d="m 408.57507,518.99957 c 19.196,-38.313 4.685,-60.268 4.685,-60.268 6.61,-53.571 -10.863,-54.492 -10.863,-54.492"
       id="path204" />
    <path
       inkscape:connector-curvature="0"
       style="fill:none;stroke:#f7d35a;stroke-miterlimit:10"
       stroke-miterlimit="10"
       d="m 352.58506,384.01757 c 0,0 17.965,17.856 18.743,38.791 0,0 4.704,-0.618 6.667,0.999"
       id="path206" />
    <g
       transform="translate(-320.75693,117.47857)"
       id="g208">
      <path
         style="fill:#a99627"
         inkscape:connector-curvature="0"
         d="m 655.278,316.569 c 0,0 1.074,-1.411 2.919,-3.29 0.926,-0.937 2.049,-1.987 3.337,-3.015 0.644,-0.515 1.333,-1.016 2.057,-1.491 0.729,-0.467 1.484,-0.923 2.283,-1.298 0.792,-0.387 1.619,-0.708 2.46,-0.931 0.837,-0.242 1.696,-0.341 2.524,-0.366 0.828,0.012 1.633,0.105 2.354,0.343 0.363,0.11 0.712,0.226 1.027,0.395 0.326,0.145 0.63,0.301 0.899,0.493 0.572,0.329 1.008,0.751 1.42,1.085 0.363,0.389 0.7,0.708 0.94,1.003 0.467,0.601 0.734,0.943 0.734,0.943 0,0 -0.279,-0.333 -0.768,-0.915 -0.249,-0.285 -0.597,-0.591 -0.969,-0.963 -0.422,-0.316 -0.865,-0.717 -1.439,-1.02 -0.271,-0.179 -0.574,-0.321 -0.896,-0.45 -0.312,-0.154 -0.657,-0.254 -1.013,-0.349 -0.707,-0.204 -1.486,-0.266 -2.283,-0.249 -0.798,0.054 -1.619,0.177 -2.419,0.44 -0.805,0.244 -1.593,0.583 -2.348,0.986 -0.762,0.392 -1.482,0.862 -2.176,1.342 -0.688,0.49 -1.344,1.003 -1.954,1.529 -1.224,1.049 -2.288,2.118 -3.161,3.067 -1.742,1.908 -2.728,3.307 -2.728,3.307 l -0.8,-0.596 z"
         id="path210" />
    </g>
    <g
       transform="translate(-320.75693,117.47857)"
       id="g212">
      <path
         style="fill:#f9de86"
         inkscape:connector-curvature="0"
         d="m 662.154,272.278 c 0.302,-0.292 0.674,-0.506 1.062,-0.698 0.395,-0.179 0.821,-0.294 1.268,-0.355 0.223,-0.057 0.447,-0.021 0.676,-0.033 0.232,-0.014 0.459,0.011 0.681,0.068 0.224,0.049 0.456,0.086 0.678,0.15 l 0.638,0.262 c 0.451,0.153 0.795,0.443 1.187,0.691 0.399,0.246 0.676,0.591 1.021,0.889 0.353,0.299 0.606,0.653 0.891,0.995 0.277,0.345 0.57,0.693 0.778,1.07 l 0.678,1.119 c 0.245,0.37 0.396,0.766 0.594,1.15 l 0.551,1.17 c 0.179,0.393 0.305,0.796 0.459,1.193 0.281,0.802 0.603,1.602 0.81,2.416 l 0.663,2.445 -0.055,-0.188 c 0.371,1.019 0.721,2.01 1.049,3.023 0.311,1.016 0.66,2.019 0.928,3.046 0.282,1.024 0.582,2.042 0.82,3.078 0.249,1.033 0.471,2.073 0.7,3.11 0.196,1.046 0.355,2.103 0.534,3.15 0.193,1.043 0.275,2.113 0.369,3.177 0.054,0.531 0.084,1.064 0.12,1.595 0.046,0.529 0.067,1.062 0.047,1.601 -0.028,1.074 -0.057,2.139 -0.137,3.194 -0.294,-1.035 -0.536,-2.062 -0.779,-3.078 -0.103,-0.511 -0.23,-1.017 -0.392,-1.52 -0.148,-0.503 -0.301,-1.005 -0.432,-1.509 l -0.406,-1.507 -0.46,-1.496 c -0.302,-0.998 -0.583,-1.998 -0.9,-2.989 -0.317,-0.993 -0.641,-1.982 -0.938,-2.979 -0.306,-0.993 -0.647,-1.979 -0.954,-2.973 -0.638,-1.976 -1.289,-3.968 -1.951,-5.91 l -0.035,-0.104 -0.02,-0.084 -0.538,-2.338 c -0.145,-0.794 -0.404,-1.536 -0.607,-2.305 -0.11,-0.38 -0.194,-0.774 -0.326,-1.143 l -0.39,-1.109 c -0.135,-0.366 -0.229,-0.763 -0.403,-1.103 l -0.474,-1.061 c -0.141,-0.371 -0.363,-0.669 -0.54,-1.01 -0.188,-0.329 -0.356,-0.688 -0.597,-0.965 -0.235,-0.279 -0.426,-0.637 -0.701,-0.867 -0.274,-0.23 -0.501,-0.562 -0.813,-0.736 l -0.449,-0.319 c -0.159,-0.086 -0.328,-0.149 -0.494,-0.229 -0.166,-0.091 -0.341,-0.144 -0.521,-0.183 -0.18,-0.036 -0.361,-0.124 -0.55,-0.123 -0.379,-0.053 -0.766,-0.043 -1.163,10e-4 -0.395,0.063 -0.792,0.156 -1.177,0.321 z"
         id="path214" />
    </g>
    <g
       transform="translate(-320.75693,117.47857)"
       id="g216">
      <path
         style="fill:#f7d35a"
         inkscape:connector-curvature="0"
         d="m 679.163,310.315 c 0,0 0.269,-0.202 0.761,-0.522 0.496,-0.312 1.196,-0.776 2.075,-1.266 1.751,-0.99 4.173,-2.171 6.728,-3.044 2.548,-0.871 5.255,-1.411 7.316,-1.283 0.515,0.029 0.981,0.101 1.389,0.192 0.405,0.105 0.755,0.2 1.027,0.324 0.553,0.225 0.812,0.453 0.82,0.435 0,0 -0.08,-0.025 -0.23,-0.073 -0.148,-0.05 -0.364,-0.121 -0.648,-0.175 -0.277,-0.074 -0.627,-0.108 -1.021,-0.142 -0.398,-0.02 -0.846,-0.011 -1.333,0.013 -0.976,0.068 -2.104,0.263 -3.298,0.553 -1.191,0.297 -2.454,0.668 -3.699,1.103 -2.498,0.846 -4.952,1.855 -6.8,2.611 -1.853,0.765 -3.087,1.274 -3.087,1.274 z"
         id="path218" />
    </g>
    <g
       transform="translate(-320.75693,117.47857)"
       id="g220">
      <path
         style="fill:#f9de86"
         inkscape:connector-curvature="0"
         d="m 709.35,291.461 c 0.445,-0.197 0.914,-0.367 1.391,-0.493 0.477,-0.148 0.968,-0.222 1.462,-0.306 0.495,-0.037 0.999,-0.119 1.503,-0.104 0.506,0.003 1.017,0.008 1.52,0.097 l 0.762,0.106 c 0.253,0.047 0.497,0.126 0.748,0.188 l 0.751,0.201 c 0.245,0.081 0.479,0.194 0.719,0.295 0.478,0.205 0.965,0.401 1.395,0.696 0.432,0.287 0.921,0.514 1.309,0.859 l 1.207,1.002 c 0.367,0.368 0.697,0.768 1.048,1.154 l 0.519,0.586 0.437,0.638 0.872,1.282 c 0.269,0.439 0.49,0.898 0.724,1.354 0.226,0.459 0.47,0.913 0.678,1.379 l 1.075,2.849 -0.131,-0.302 c 0.325,0.591 0.436,1.001 0.613,1.464 0.188,0.46 0.301,0.909 0.396,1.354 0.192,0.893 0.469,1.795 0.556,2.681 l 0.376,2.669 c 0.144,0.891 0.137,1.772 0.19,2.661 l 0.121,2.66 c 0.066,0.889 0.004,1.767 -0.003,2.648 -0.027,1.764 -0.122,3.524 -0.182,5.283 -0.134,1.751 -0.337,3.496 -0.534,5.238 -0.21,1.741 -0.343,3.491 -0.677,5.213 -0.61,3.45 -1.285,6.888 -2.096,10.29 0.005,-3.515 0.144,-6.994 0.349,-10.461 0.068,-0.865 0.065,-1.734 0.075,-2.603 l 0.065,-2.598 0.066,-2.595 0.097,-2.59 c -0.017,-1.724 -0.068,-3.444 -0.054,-5.163 -0.009,-0.858 0.039,-1.724 -0.042,-2.573 l -0.161,-2.556 c -0.077,-0.847 -0.056,-1.715 -0.174,-2.546 l -0.31,-2.51 c -0.067,-0.854 -0.304,-1.627 -0.46,-2.438 -0.079,-0.409 -0.172,-0.806 -0.296,-1.16 -0.109,-0.359 -0.235,-0.79 -0.316,-0.973 l -0.12,-0.269 -0.011,-0.034 -0.85,-2.658 c -0.166,-0.431 -0.365,-0.844 -0.546,-1.268 -0.194,-0.415 -0.342,-0.861 -0.552,-1.267 l -0.671,-1.192 -0.336,-0.6 -0.405,-0.542 c -0.275,-0.357 -0.532,-0.736 -0.821,-1.084 l -0.935,-0.978 c -0.3,-0.347 -0.69,-0.572 -1.034,-0.871 -0.341,-0.306 -0.738,-0.518 -1.131,-0.746 -0.198,-0.11 -0.39,-0.238 -0.592,-0.344 l -0.628,-0.274 c -0.211,-0.088 -0.419,-0.194 -0.636,-0.27 l -0.665,-0.197 c -0.44,-0.157 -0.903,-0.214 -1.364,-0.31 -0.462,-0.103 -0.936,-0.11 -1.41,-0.163 -0.95,-0.016 -1.922,-0.006 -2.881,0.191 z"
         id="path222" />
    </g>
    <g
       transform="translate(-320.75693,117.47857)"
       id="g224">
      <path
         style="fill:#a99627"
         inkscape:connector-curvature="0"
         d="m 702.78,318.118 c 0,0 0.575,0.016 1.563,0.221 0.489,0.12 1.087,0.261 1.75,0.498 0.679,0.198 1.402,0.533 2.19,0.898 0.766,0.408 1.606,0.839 2.425,1.412 0.859,0.514 1.656,1.204 2.507,1.887 0.412,0.355 0.793,0.759 1.199,1.145 0.398,0.394 0.826,0.772 1.175,1.227 0.725,0.882 1.518,1.737 2.143,2.716 l 0.978,1.436 c 0.326,0.477 0.574,0.996 0.862,1.487 0.562,0.991 1.108,1.97 1.514,2.975 0.427,0.994 0.882,1.938 1.196,2.877 0.312,0.938 0.607,1.825 0.88,2.644 0.3,0.809 0.47,1.582 0.622,2.266 0.157,0.682 0.295,1.275 0.408,1.764 0.213,0.979 0.335,1.538 0.335,1.538 0,0 -0.19,-0.54 -0.522,-1.486 -0.344,-0.94 -0.726,-2.317 -1.375,-3.897 -0.317,-0.791 -0.661,-1.648 -1.024,-2.556 -0.364,-0.904 -0.877,-1.801 -1.313,-2.768 -0.421,-0.978 -1.007,-1.905 -1.556,-2.872 -0.286,-0.476 -0.533,-0.982 -0.855,-1.442 l -0.964,-1.386 c -0.598,-0.961 -1.358,-1.793 -2.052,-2.657 -0.71,-0.849 -1.497,-1.606 -2.237,-2.355 -0.81,-0.672 -1.533,-1.401 -2.336,-1.944 -0.76,-0.604 -1.549,-1.068 -2.271,-1.512 -0.748,-0.389 -1.421,-0.79 -2.061,-1.049 -0.626,-0.295 -1.196,-0.49 -1.666,-0.656 -0.477,-0.139 -0.85,-0.267 -1.111,-0.319 -0.261,-0.07 -0.404,-0.092 -0.404,-0.092 z"
         id="path226" />
    </g>
    <g
       transform="translate(-320.75693,117.47857)"
       id="g262">
      <path
         style="fill:#a99627"
         inkscape:connector-curvature="0"
         d="m 676.091,486.938 c 0,0 0.013,1.312 0.137,3.599 0.117,2.287 0.392,5.551 0.93,9.432 0.546,3.875 1.431,8.38 3.037,12.976 0.802,2.294 1.853,4.589 3.23,6.708 1.383,2.13 3.169,3.953 5.4,5.273 2.177,1.413 4.448,2.697 6.745,3.836 1.138,0.59 2.305,1.099 3.442,1.631 1.163,0.475 2.291,1 3.439,1.416 2.281,0.872 4.515,1.647 6.663,2.28 1.081,0.295 2.121,0.626 3.148,0.866 1.028,0.235 2.021,0.462 2.976,0.68 0.956,0.209 1.888,0.331 2.765,0.498 0.879,0.156 1.711,0.322 2.504,0.396 1.582,0.165 2.958,0.401 4.103,0.437 2.287,0.138 3.595,0.216 3.595,0.216 0,0 -1.312,-0.008 -3.605,-0.021 -1.15,0.014 -2.536,-0.163 -4.135,-0.261 -0.801,-0.039 -1.643,-0.171 -2.533,-0.29 -0.889,-0.13 -1.829,-0.239 -2.799,-0.421 -0.967,-0.194 -1.975,-0.396 -3.018,-0.606 -1.041,-0.216 -2.099,-0.521 -3.197,-0.79 -2.186,-0.582 -4.468,-1.294 -6.775,-2.172 -1.165,-0.412 -2.31,-0.932 -3.49,-1.402 -1.155,-0.527 -2.34,-1.032 -3.497,-1.619 -2.334,-1.134 -4.646,-2.408 -6.873,-3.834 -2.279,-1.366 -4.246,-3.392 -5.637,-5.602 -1.417,-2.22 -2.47,-4.586 -3.269,-6.932 -1.602,-4.703 -2.309,-9.283 -2.776,-13.191 -0.451,-3.917 -0.529,-7.203 -0.566,-9.496 -0.019,-2.297 0.056,-3.607 0.056,-3.607 z"
         id="path264" />
    </g>
    <g
       transform="translate(-320.75693,117.47857)"
       id="g266">
      <path
         style="fill:#a99627"
         inkscape:connector-curvature="0"
         d="m 672.359,539.193 c 2.063,-2.45 4.189,-4.836 6.355,-7.194 2.183,-2.355 4.426,-4.66 6.669,-6.962 l 0.257,-0.264 0.346,0.234 c 2.692,1.818 5.469,3.543 8.277,5.187 1.407,0.819 2.842,1.588 4.312,2.281 l 1.105,0.513 1.133,0.45 c 0.379,0.147 0.772,0.243 1.16,0.368 0.39,0.118 0.795,0.162 1.198,0.248 -0.404,-0.034 -0.823,-0.029 -1.229,-0.099 -0.4,-0.087 -0.812,-0.149 -1.209,-0.262 l -1.188,-0.349 -1.166,-0.415 c -1.529,-0.613 -3.022,-1.311 -4.488,-2.056 -2.927,-1.506 -5.732,-3.211 -8.469,-5.045 l 0.602,-0.029 c -2.234,2.261 -4.469,4.52 -6.765,6.727 l -3.416,3.364 c -1.16,1.101 -2.299,2.224 -3.484,3.303 z"
         id="path268" />
    </g>
    <path
       inkscape:connector-curvature="0"
       style="fill:url(#SVGID_5_);stroke:#a99627;stroke-miterlimit:10"
       stroke-miterlimit="10"
       d="M 343.05906,484.44157"
       id="path287" />
    <path
       inkscape:connector-curvature="0"
       style="opacity:0.8;fill:url(#SVGID_6_);stroke:#a99627;stroke-miterlimit:10"
       stroke-miterlimit="10"
       d="m 341.88306,484.43557 c 0,0 0.223,-5.837 -7.197,-5.627 0,0 -4.433,-0.854 -5.141,-2.677 -0.708,-1.823 1.425,5.258 4.807,7.082 -10e-4,0 -2.19,0.75 7.531,1.222 z"
       id="path298" />
    <g
       transform="translate(-320.75693,117.47857)"
       style="opacity:0.8"
       id="g312">
      <path
         style="fill:#f9de86"
         inkscape:connector-curvature="0"
         d="m 722.957,286.759 c 0,0 0.261,-0.083 0.743,-0.103 0.24,-0.006 0.533,0.004 0.869,0.048 0.332,0.05 0.719,0.109 1.108,0.263 0.404,0.125 0.812,0.327 1.236,0.563 0.398,0.264 0.85,0.527 1.224,0.896 0.192,0.179 0.39,0.36 0.588,0.545 0.185,0.196 0.355,0.408 0.53,0.621 0.37,0.411 0.651,0.89 0.959,1.353 0.318,0.459 0.512,0.978 0.767,1.456 0.266,0.477 0.402,0.994 0.588,1.472 0.381,0.955 0.539,1.902 0.734,2.69 0.098,0.394 0.118,0.771 0.165,1.098 0.039,0.327 0.073,0.613 0.102,0.848 0.053,0.47 0.069,0.739 0.069,0.739 0,0 -0.104,-0.253 -0.259,-0.698 -0.076,-0.223 -0.169,-0.492 -0.274,-0.802 -0.114,-0.307 -0.21,-0.66 -0.356,-1.032 -0.147,-0.373 -0.305,-0.774 -0.458,-1.203 -0.144,-0.432 -0.343,-0.867 -0.543,-1.317 -0.201,-0.449 -0.385,-0.926 -0.637,-1.373 -0.251,-0.446 -0.445,-0.938 -0.751,-1.356 -0.276,-0.436 -0.529,-0.893 -0.861,-1.273 -0.154,-0.2 -0.309,-0.398 -0.46,-0.595 -0.17,-0.179 -0.337,-0.355 -0.502,-0.529 -0.325,-0.355 -0.695,-0.634 -1.033,-0.915 -0.361,-0.247 -0.702,-0.49 -1.05,-0.659 -0.338,-0.188 -0.673,-0.314 -0.97,-0.428 -0.301,-0.106 -0.571,-0.174 -0.8,-0.216 -0.454,-0.087 -0.728,-0.093 -0.728,-0.093 z"
         id="path314" />
    </g>
    <g
       transform="translate(-320.75693,117.47857)"
       style="opacity:0.6"
       id="g328">
      <path
         style="fill:#f9de86"
         inkscape:connector-curvature="0"
         d="m 639.692,442.409 c 0,0 0.346,0.125 0.974,0.441 0.61,0.337 1.527,0.826 2.556,1.645 0.26,0.2 0.548,0.398 0.827,0.63 0.27,0.243 0.551,0.498 0.845,0.763 0.591,0.529 1.239,1.103 1.828,1.804 0.598,0.691 1.302,1.386 1.924,2.205 0.608,0.831 1.248,1.706 1.916,2.619 0.647,0.928 1.205,1.961 1.849,2.999 0.31,0.526 0.623,1.062 0.942,1.605 0.271,0.565 0.547,1.141 0.825,1.724 0.55,1.169 1.151,2.359 1.7,3.603 0.477,1.269 0.964,2.565 1.459,3.885 0.246,0.661 0.493,1.328 0.742,1.999 0.2,0.686 0.402,1.376 0.605,2.07 0.406,1.389 0.813,2.797 1.202,4.223 0.214,0.709 0.379,1.43 0.517,2.159 0.149,0.727 0.3,1.455 0.45,2.186 0.301,1.461 0.604,2.928 0.905,4.395 0.477,2.952 0.798,5.924 1.196,8.837 0.231,1.455 0.291,2.911 0.379,4.348 0.088,1.436 0.174,2.854 0.259,4.249 0.076,1.396 0.19,2.765 0.229,4.108 -0.003,1.343 -0.006,2.657 -0.009,3.938 0.004,2.558 -0.029,4.975 -0.064,7.203 -0.03,2.228 -0.248,4.267 -0.359,6.073 -0.143,1.805 -0.268,3.378 -0.369,4.673 -0.224,2.588 -0.38,4.062 -0.38,4.062 0,0 -0.097,-1.486 -0.217,-4.079 -0.051,-1.295 -0.112,-2.868 -0.183,-4.671 -0.029,-0.901 -0.061,-1.859 -0.093,-2.869 -0.042,-1.01 -0.021,-2.072 -0.121,-3.178 -0.155,-2.211 -0.319,-4.604 -0.452,-7.135 -0.072,-1.264 -0.146,-2.562 -0.221,-3.891 -0.129,-1.321 -0.261,-2.672 -0.396,-4.045 -0.293,-2.742 -0.481,-5.591 -0.88,-8.451 -0.426,-2.857 -0.78,-5.774 -1.273,-8.662 -0.278,-1.437 -0.558,-2.873 -0.835,-4.305 -0.139,-0.716 -0.276,-1.431 -0.415,-2.144 -0.125,-0.716 -0.277,-1.422 -0.479,-2.112 -0.375,-1.387 -0.726,-2.77 -1.067,-4.138 -0.173,-0.684 -0.346,-1.363 -0.517,-2.038 -0.218,-0.658 -0.436,-1.312 -0.65,-1.96 -0.426,-1.3 -0.845,-2.578 -1.255,-3.829 -0.46,-1.23 -0.972,-2.408 -1.436,-3.572 -0.237,-0.58 -0.47,-1.152 -0.7,-1.717 -0.271,-0.542 -0.539,-1.076 -0.803,-1.602 -0.536,-1.045 -0.995,-2.096 -1.544,-3.038 -0.567,-0.933 -1.11,-1.827 -1.628,-2.679 -0.517,-0.854 -1.119,-1.579 -1.627,-2.312 -0.497,-0.745 -1.07,-1.344 -1.569,-1.933 -0.252,-0.293 -0.494,-0.574 -0.725,-0.843 -0.241,-0.258 -0.492,-0.481 -0.721,-0.707 -0.904,-0.911 -1.699,-1.542 -2.251,-1.957 -0.56,-0.399 -0.89,-0.579 -0.89,-0.579 z"
         id="path330" />
    </g>
    <g
       transform="translate(-320.75693,117.47857)"
       id="g340">
      <path
         style="fill:#e30613"
         inkscape:connector-curvature="0"
         d="m 636.896,448.386 c 0,0 -0.25,-0.045 -0.673,-0.188 -0.413,-0.159 -1.016,-0.383 -1.683,-0.763 -0.664,-0.381 -1.423,-0.872 -2.145,-1.507 -0.747,-0.611 -1.437,-1.376 -2.1,-2.158 -0.3,-0.416 -0.61,-0.825 -0.893,-1.242 -0.271,-0.425 -0.521,-0.854 -0.759,-1.268 -0.221,-0.426 -0.417,-0.845 -0.605,-1.239 -0.185,-0.396 -0.313,-0.792 -0.448,-1.147 -0.287,-0.705 -0.394,-1.341 -0.519,-1.763 -0.106,-0.429 -0.153,-0.677 -0.153,-0.677 0,0 0.131,0.22 0.336,0.609 0.204,0.39 0.478,0.951 0.858,1.593 0.183,0.323 0.381,0.673 0.59,1.043 0.227,0.359 0.467,0.735 0.699,1.132 0.25,0.387 0.539,0.765 0.797,1.171 0.279,0.393 0.586,0.773 0.878,1.165 0.315,0.371 0.614,0.759 0.94,1.111 0.335,0.343 0.633,0.714 0.972,1.022 0.641,0.657 1.3,1.206 1.868,1.68 0.58,0.457 1.08,0.829 1.45,1.063 0.37,0.235 0.59,0.363 0.59,0.363 z"
         id="path342" />
    </g>
    <g
       transform="translate(-320.75693,117.47857)"
       id="g344">
      <path
         style="fill:#e30613"
         inkscape:connector-curvature="0"
         d="m 631.908,454.489 c 0,0 -0.239,-0.065 -0.635,-0.237 -0.39,-0.18 -0.96,-0.429 -1.588,-0.824 -0.642,-0.376 -1.335,-0.901 -2.045,-1.508 -0.33,-0.328 -0.71,-0.632 -1.027,-1.008 -0.329,-0.365 -0.664,-0.736 -0.96,-1.14 -0.309,-0.394 -0.579,-0.815 -0.835,-1.236 -0.28,-0.405 -0.468,-0.857 -0.679,-1.274 -0.225,-0.412 -0.354,-0.851 -0.501,-1.252 -0.16,-0.397 -0.258,-0.79 -0.333,-1.156 -0.193,-0.72 -0.229,-1.343 -0.269,-1.771 -0.037,-0.429 -0.043,-0.673 -0.043,-0.673 0,0 0.094,0.231 0.233,0.634 0.067,0.201 0.149,0.444 0.244,0.724 0.099,0.276 0.253,0.574 0.38,0.909 0.131,0.334 0.285,0.688 0.477,1.05 0.187,0.364 0.36,0.755 0.596,1.133 0.222,0.384 0.445,0.781 0.712,1.163 0.25,0.392 0.515,0.781 0.814,1.146 0.547,0.771 1.199,1.459 1.798,2.117 0.324,0.304 0.611,0.629 0.917,0.902 0.302,0.277 0.584,0.546 0.858,0.779 0.542,0.473 1.005,0.867 1.348,1.117 0.343,0.258 0.538,0.405 0.538,0.405 z"
         id="path346" />
    </g>
    <g
       transform="translate(-320.75693,117.47857)"
       id="g348">
      <path
         style="fill:none"
         inkscape:connector-curvature="0"
         d="M 684.26,561.256"
         id="path350" />
    </g>
    <g
       transform="translate(-320.75693,117.47857)"
       id="g352">
      <path
         style="fill:#e30613"
         inkscape:connector-curvature="0"
         d="m 684.26,561.256 c 0,0 -0.644,-1.282 -0.984,-3.382 -0.085,-0.523 -0.179,-1.095 -0.204,-1.703 -0.058,-0.608 -0.068,-1.254 -0.049,-1.922 0.022,-0.667 0.075,-1.36 0.16,-2.061 0.132,-0.693 0.214,-1.41 0.427,-2.101 0.198,-0.694 0.388,-1.391 0.686,-2.04 0.132,-0.331 0.269,-0.655 0.413,-0.972 0.171,-0.305 0.339,-0.606 0.505,-0.902 0.171,-0.292 0.314,-0.593 0.501,-0.859 0.197,-0.26 0.39,-0.515 0.577,-0.762 0.188,-0.244 0.371,-0.481 0.548,-0.711 0.191,-0.219 0.405,-0.406 0.594,-0.597 0.384,-0.377 0.733,-0.718 1.069,-0.989 0.352,-0.259 0.669,-0.466 0.926,-0.637 0.518,-0.34 0.818,-0.513 0.818,-0.513 0,0 -0.194,0.305 -0.544,0.801 -0.178,0.245 -0.386,0.546 -0.64,0.869 -0.216,0.351 -0.461,0.747 -0.728,1.179 -0.284,0.411 -0.528,0.896 -0.787,1.403 -0.131,0.251 -0.265,0.509 -0.402,0.771 -0.117,0.272 -0.237,0.551 -0.359,0.834 -0.122,0.281 -0.246,0.567 -0.371,0.856 -0.096,0.303 -0.195,0.607 -0.305,0.909 -0.23,0.601 -0.396,1.235 -0.567,1.868 -0.207,0.622 -0.283,1.281 -0.449,1.908 -0.1,0.641 -0.246,1.269 -0.32,1.887 -0.063,0.62 -0.175,1.218 -0.215,1.793 -0.051,0.578 -0.098,1.124 -0.142,1.629 -0.065,1.014 -0.111,1.874 -0.128,2.48 -0.028,0.609 -0.03,0.964 -0.03,0.964 z"
         id="path354" />
    </g>
    <g
       transform="translate(-320.75693,117.47857)"
       id="g356">
      <path
         style="fill:#e30613"
         inkscape:connector-curvature="0"
         d="m 676.091,541.106 c 0,0 -0.034,0.268 -0.124,0.723 -0.048,0.226 -0.101,0.503 -0.183,0.81 -0.078,0.311 -0.119,0.66 -0.209,1.025 -0.076,0.368 -0.159,0.766 -0.246,1.187 -0.075,0.426 -0.183,0.862 -0.259,1.322 -0.078,0.46 -0.176,0.929 -0.242,1.411 -0.066,0.482 -0.174,0.964 -0.223,1.455 -0.151,0.976 -0.262,1.957 -0.37,2.884 -0.094,0.928 -0.179,1.802 -0.247,2.562 -0.137,1.551 -0.228,2.584 -0.228,2.584 0,0 -0.566,-0.938 -0.917,-2.498 -0.101,-0.388 -0.175,-0.812 -0.238,-1.265 -0.055,-0.452 -0.124,-0.934 -0.13,-1.431 -0.007,-0.498 -0.047,-1.016 -10e-4,-1.539 0.014,-0.524 0.078,-1.054 0.151,-1.582 0.066,-0.529 0.187,-1.051 0.305,-1.562 0.098,-0.516 0.304,-0.998 0.443,-1.476 0.132,-0.48 0.367,-0.913 0.543,-1.333 0.167,-0.421 0.394,-0.804 0.6,-1.15 0.388,-0.712 0.796,-1.218 1.093,-1.574 0.296,-0.356 0.482,-0.553 0.482,-0.553 z"
         id="path358" />
    </g>
    <g
       transform="translate(-320.75693,117.47857)"
       id="g360">
      <path
         style="fill:#e30613"
         inkscape:connector-curvature="0"
         d="m 664.602,552.882 c 0,0 -0.076,-0.103 -0.178,-0.279 -0.101,-0.174 -0.194,-0.438 -0.266,-0.763 -0.088,-0.33 -0.129,-0.72 -0.101,-1.095 0.02,-0.385 0.08,-0.79 0.176,-1.186 0.087,-0.401 0.278,-0.758 0.46,-1.095 0.19,-0.333 0.402,-0.63 0.624,-0.867 0.415,-0.486 0.854,-0.734 0.854,-0.734 0,0 0.189,0.49 0.229,1.112 0.034,0.317 0.027,0.666 -0.017,1.025 -0.035,0.36 -0.152,0.727 -0.224,1.09 -0.093,0.361 -0.22,0.713 -0.377,1.037 -0.17,0.331 -0.324,0.614 -0.493,0.863 -0.334,0.5 -0.687,0.892 -0.687,0.892 z"
         id="path362" />
    </g>
    <g
       transform="translate(-320.75693,117.47857)"
       id="g364">
      <path
         style="fill:#e30613"
         inkscape:connector-curvature="0"
         d="m 619.75,524.31 c 0,0 -0.34,-0.843 -0.571,-2.151 -0.139,-0.652 -0.221,-1.421 -0.294,-2.246 -0.076,-0.826 -0.054,-1.712 -0.043,-2.596 0.059,-0.886 0.156,-1.771 0.287,-2.592 0.188,-0.82 0.376,-1.579 0.577,-2.215 0.515,-1.263 0.975,-2.021 0.975,-2.021 0,0 0.019,0.927 -0.13,2.19 -0.004,0.654 -0.04,1.403 -0.1,2.196 -0.019,0.804 -0.059,1.656 -0.111,2.509 -0.014,0.856 -0.095,1.711 -0.129,2.519 -0.051,0.807 -0.117,1.562 -0.176,2.214 -0.126,1.301 -0.285,2.193 -0.285,2.193 z"
         id="path366" />
    </g>
    <g
       transform="translate(-320.75693,117.47857)"
       id="g368">
      <path
         style="fill:#e30613"
         inkscape:connector-curvature="0"
         d="m 624.707,528.218 c 0,0 -0.362,-0.394 -0.67,-1.067 -0.321,-0.668 -0.599,-1.613 -0.647,-2.6 -0.029,-0.491 10e-4,-0.993 0.083,-1.459 0.028,-0.232 0.113,-0.459 0.171,-0.668 0.054,-0.21 0.158,-0.405 0.237,-0.579 0.07,-0.177 0.193,-0.327 0.28,-0.457 0.081,-0.133 0.186,-0.233 0.271,-0.312 0.17,-0.158 0.274,-0.229 0.274,-0.229 0,0 0.003,0.141 -0.003,0.354 -0.008,0.104 -0.007,0.229 0,0.375 0.011,0.146 10e-4,0.293 0.016,0.466 0.046,0.663 0.106,1.547 0.167,2.431 0.051,0.889 0.048,1.807 -0.008,2.521 -0.046,0.708 -0.171,1.224 -0.171,1.224 z"
         id="path370" />
    </g>
  </g>
</svg>
