<?xml version="1.0" encoding="UTF-8" standalone="no"?>
<!-- Created with Inkscape (http://www.inkscape.org/) -->

<svg
   xmlns:dc="http://purl.org/dc/elements/1.1/"
   xmlns:cc="http://creativecommons.org/ns#"
   xmlns:rdf="http://www.w3.org/1999/02/22-rdf-syntax-ns#"
   xmlns:svg="http://www.w3.org/2000/svg"
   xmlns="http://www.w3.org/2000/svg"
   xmlns:sodipodi="http://sodipodi.sourceforge.net/DTD/sodipodi-0.dtd"
   xmlns:inkscape="http://www.inkscape.org/namespaces/inkscape"
   width="46.497414mm"
   height="83.932472mm"
   viewBox="0 0 164.75462 297.39852"
   id="svg5263"
   version="1.1"
   inkscape:version="0.91 r13725"
   sodipodi:docname="cat_left.svg">
  <defs
     id="defs5265">
    <linearGradient
       id="SVGID_12_"
       gradientUnits="userSpaceOnUse"
       x1="1722.3447"
       y1="357.12701"
       x2="1735.4231"
       y2="364.6777"
       gradientTransform="matrix(-1,0,0,1,2434.3349,317.03843)">
      <stop
         offset="0"
         style="stop-color:#E5C226"
         id="stop646" />
      <stop
         offset="0.2203"
         style="stop-color:#D9BC22"
         id="stop648" />
      <stop
         offset="0.6767"
         style="stop-color:#B6A619"
         id="stop650" />
      <stop
         offset="1"
         style="stop-color:#978F11"
         id="stop652" />
    </linearGradient>
    <linearGradient
       id="SVGID_11_"
       gradientUnits="userSpaceOnUse"
       x1="1736.6797"
       y1="364.54489"
       x2="1736.6797"
       y2="364.54489"
       gradientTransform="matrix(-1,0,0,1,2434.3349,317.03843)">
      <stop
         offset="0"
         style="stop-color:#FFFFFF"
         id="stop627" />
      <stop
         offset="0.0249"
         style="stop-color:#FEFDF7"
         id="stop629" />
      <stop
         offset="0.226"
         style="stop-color:#F6EBB8"
         id="stop631" />
      <stop
         offset="0.4184"
         style="stop-color:#F0DC84"
         id="stop633" />
      <stop
         offset="0.5971"
         style="stop-color:#EBD15B"
         id="stop635" />
      <stop
         offset="0.759"
         style="stop-color:#E8C93E"
         id="stop637" />
      <stop
         offset="0.8986"
         style="stop-color:#E6C42C"
         id="stop639" />
      <stop
         offset="1"
         style="stop-color:#E5C226"
         id="stop641" />
    </linearGradient>
    <radialGradient
       id="SVGID_10_"
       cx="1806.8799"
       cy="438.6377"
       r="20.559999"
       gradientTransform="matrix(4.371139e-8,-1,-0.7,-3.059797e-8,412.055,2245.5176)"
       gradientUnits="userSpaceOnUse">
      <stop
         offset="0"
         style="stop-color:#E5C226"
         id="stop516" />
      <stop
         offset="0.2021"
         style="stop-color:#E1BE29;stop-opacity:0.899"
         id="stop518" />
      <stop
         offset="0.3992"
         style="stop-color:#D6B12E;stop-opacity:0.8004"
         id="stop520" />
      <stop
         offset="0.5944"
         style="stop-color:#C59D33;stop-opacity:0.7028"
         id="stop522" />
      <stop
         offset="0.7885"
         style="stop-color:#B08237;stop-opacity:0.6058"
         id="stop524" />
      <stop
         offset="0.98"
         style="stop-color:#966337;stop-opacity:0.51"
         id="stop526" />
      <stop
         offset="1"
         style="stop-color:#936037;stop-opacity:0.5"
         id="stop528" />
    </radialGradient>
    <radialGradient
       id="SVGID_9_"
       cx="1724.6318"
       cy="336.48441"
       r="5.2937002"
       gradientTransform="matrix(-1,0,0,1,2434.3349,317.03843)"
       gradientUnits="userSpaceOnUse">
      <stop
         offset="0"
         style="stop-color:#FFFFFF"
         id="stop445" />
      <stop
         offset="0.0443"
         style="stop-color:#E6E6E6"
         id="stop447" />
      <stop
         offset="0.1498"
         style="stop-color:#B1B1B1"
         id="stop449" />
      <stop
         offset="0.2596"
         style="stop-color:#828282"
         id="stop451" />
      <stop
         offset="0.3712"
         style="stop-color:#5A5A5A"
         id="stop453" />
      <stop
         offset="0.4852"
         style="stop-color:#393939"
         id="stop455" />
      <stop
         offset="0.6022"
         style="stop-color:#202020"
         id="stop457" />
      <stop
         offset="0.7236"
         style="stop-color:#0E0E0E"
         id="stop459" />
      <stop
         offset="0.8522"
         style="stop-color:#030303"
         id="stop461" />
      <stop
         offset="1"
         style="stop-color:#000000"
         id="stop463" />
    </radialGradient>
    <radialGradient
       id="SVGID_8_"
       cx="1757.123"
       cy="352.17871"
       r="6.8246999"
       gradientTransform="matrix(-1,0,0,1,2434.3349,317.03843)"
       gradientUnits="userSpaceOnUse">
      <stop
         offset="0"
         style="stop-color:#FFFFFF"
         id="stop422" />
      <stop
         offset="0.0155"
         style="stop-color:#F7F7F7"
         id="stop424" />
      <stop
         offset="0.1321"
         style="stop-color:#BEBEBE"
         id="stop426" />
      <stop
         offset="0.2521"
         style="stop-color:#8B8B8B"
         id="stop428" />
      <stop
         offset="0.3727"
         style="stop-color:#606060"
         id="stop430" />
      <stop
         offset="0.4942"
         style="stop-color:#3E3E3E"
         id="stop432" />
      <stop
         offset="0.6166"
         style="stop-color:#232323"
         id="stop434" />
      <stop
         offset="0.7406"
         style="stop-color:#0F0F0F"
         id="stop436" />
      <stop
         offset="0.8671"
         style="stop-color:#040404"
         id="stop438" />
      <stop
         offset="1"
         style="stop-color:#000000"
         id="stop440" />
    </radialGradient>
    <linearGradient
       id="SVGID_7_"
       gradientUnits="userSpaceOnUse"
       x1="1727.8057"
       y1="346.4707"
       x2="1741.8422"
       y2="354.57471"
       gradientTransform="matrix(-1,0,0,1,1911.8887,0)">
      <stop
         offset="0"
         style="stop-color:#FFFFFF"
         id="stop397" />
      <stop
         offset="0.0249"
         style="stop-color:#FEFDF7"
         id="stop399" />
      <stop
         offset="0.226"
         style="stop-color:#F6EBB8"
         id="stop401" />
      <stop
         offset="0.4184"
         style="stop-color:#F0DC84"
         id="stop403" />
      <stop
         offset="0.5971"
         style="stop-color:#EBD15B"
         id="stop405" />
      <stop
         offset="0.759"
         style="stop-color:#E8C93E"
         id="stop407" />
      <stop
         offset="0.8986"
         style="stop-color:#E6C42C"
         id="stop409" />
      <stop
         offset="1"
         style="stop-color:#E5C226"
         id="stop411" />
    </linearGradient>
  </defs>
  <sodipodi:namedview
     id="base"
     pagecolor="#ffffff"
     bordercolor="#666666"
     borderopacity="1.0"
     inkscape:pageopacity="0.0"
     inkscape:pageshadow="2"
     inkscape:zoom="0.35"
     inkscape:cx="-629.76555"
     inkscape:cy="345.84212"
     inkscape:document-units="px"
     inkscape:current-layer="layer1"
     showgrid="false"
     fit-margin-top="0"
     fit-margin-left="0"
     fit-margin-right="0"
     fit-margin-bottom="0"
     inkscape:window-width="1600"
     inkscape:window-height="837"
     inkscape:window-x="-8"
     inkscape:window-y="-8"
     inkscape:window-maximized="1" />
  <metadata
     id="metadata5268">
    <rdf:RDF>
      <cc:Work
         rdf:about="">
        <dc:format>image/svg+xml</dc:format>
        <dc:type
           rdf:resource="http://purl.org/dc/dcmitype/StillImage" />
        <dc:title></dc:title>
      </cc:Work>
    </rdf:RDF>
  </metadata>
  <g
     inkscape:label="Layer 1"
     inkscape:groupmode="layer"
     id="layer1"
     transform="translate(-583.33698,-580.8058)">
    <path
       inkscape:connector-curvature="0"
       style="fill:#e5bc45"
       d="m 711.52422,699.24043 c 0,0 21.458,-33.494 -5.495,-69.345 0,0 -14.131,-15.963 -23.028,-5.758 0,0 6.264,-47.625 18.31,-35.064 0,0 -8.628,-18.318 -33.226,0.785 0,0 -8.111,9.158 -14.916,17.271 0,0 12.299,16.485 14.654,23.29 0,0 -26.43,0.523 -30.879,29.309 l -1.569,0 c 0,0 -10.992,-57.048 16.747,-53.646 0,0 -23.813,-15.701 -36.897,9.683 0,0 -32.448,57.57 1.309,95.514 -10e-4,-0.001 65.943,26.691 94.99,-12.039 z"
       id="path372" />
    <path
       inkscape:connector-curvature="0"
       style="fill:none;stroke:#010202;stroke-miterlimit:10"
       stroke-miterlimit="10"
       d="M 628.57022,668.62443"
       id="path382" />
    <path
       inkscape:connector-curvature="0"
       style="fill:none;stroke:#010202;stroke-miterlimit:10"
       stroke-miterlimit="10"
       d="M 708.59222,646.99143"
       id="path384" />
    <path
       inkscape:connector-curvature="0"
       style="fill:#dcbc45"
       d="m 712.57022,705.52143 c 0,0 34.543,29.832 27.478,58.879 0,0 5.046,28.262 0.952,47.103 0,0 8.468,7.065 6.897,16.486 0,0 -1.376,11.775 -17.566,18.057 0,0 -1.274,13.346 -13.835,17.271 0,0 -5.495,3.141 -9.421,0 0,0 -25.035,18.841 -47.845,14.131 0,0 -43.221,-3.14 -63.632,-25.906 0,0 -21.196,-23.552 -7.851,-88.711 0,0 10.206,-47.103 38.468,-35.327 0,0 21.98,12.561 69.869,-0.785 0.001,-10e-4 21.197,-9.421 16.486,-21.198 z"
       id="path386" />
    <g
       transform="translate(522.44622,317.03843)"
       id="g388">
      <path
         style="fill:#e30613"
         inkscape:connector-curvature="0"
         d="m 190.124,388.483 -1.569,-5.233 c 0,0 -12.561,25.906 -67.776,18.579 0,0 -19.103,-1.831 -26.691,-7.589 0,0 -0.522,9.612 0,14.357 0.523,4.746 28.57,6.707 29.363,6.781 0.793,0.074 73.477,1.892 66.673,-26.895 z"
         id="path390" />
      <path
         style="fill:#a81927"
         inkscape:connector-curvature="0"
         d="m 190.124,388.483 -1.583,-5.229 0.025,0.002 c -0.505,0.937 -1.113,1.812 -1.765,2.65 l -1.007,1.236 -1.095,1.158 c -1.474,1.529 -3.101,2.911 -4.828,4.149 -0.831,0.667 -1.743,1.215 -2.651,1.767 -0.911,0.548 -1.789,1.154 -2.761,1.591 l -2.855,1.422 c -0.966,0.441 -1.974,0.788 -2.959,1.188 -1.954,0.854 -4.016,1.39 -6.053,2 l -1.531,0.453 -1.561,0.326 -3.126,0.641 -1.564,0.321 c -0.525,0.084 -1.055,0.133 -1.583,0.201 l -3.169,0.385 c -1.058,0.105 -2.109,0.308 -3.174,0.333 l -3.189,0.14 c -2.126,0.083 -4.253,0.245 -6.38,0.119 l -6.384,-0.18 c -2.121,-0.158 -4.238,-0.39 -6.357,-0.582 -2.127,-0.212 -4.229,-0.372 -6.348,-0.646 -4.229,-0.527 -8.428,-1.301 -12.569,-2.354 -2.063,-0.555 -4.118,-1.161 -6.12,-1.942 -1.991,-0.803 -3.962,-1.714 -5.739,-3.013 l 0.764,-0.354 c -0.11,2.598 -0.204,5.207 -0.188,7.806 -0.009,1.303 -0.022,2.604 0.07,3.889 l 0.095,1.936 0.024,0.483 0.006,0.121 10e-4,0.03 c 0.003,0.028 -0.028,-0.133 -0.01,-0.051 l 0.017,0.059 0.068,0.235 c 0.034,0.198 0.129,0.188 0.172,0.291 0.027,0.077 0.167,0.183 0.256,0.276 0.842,0.771 2.103,1.24 3.287,1.665 1.213,0.412 2.463,0.749 3.726,1.04 2.526,0.582 5.092,1.022 7.667,1.404 2.576,0.379 5.164,0.693 7.756,0.968 l 3.891,0.386 1.949,0.172 c 0.612,0.042 1.287,0.046 1.93,0.061 5.21,0.075 10.43,-0.061 15.637,-0.365 5.207,-0.312 10.405,-0.809 15.565,-1.573 5.156,-0.778 10.287,-1.806 15.268,-3.368 2.488,-0.783 4.925,-1.732 7.271,-2.87 2.333,-1.158 4.578,-2.53 6.523,-4.271 1.923,-1.742 3.563,-3.884 4.36,-6.381 0.407,-1.237 0.625,-2.537 0.654,-3.842 0.013,-1.306 -0.155,-2.606 -0.433,-3.883 z m 0,0 c 0.284,1.274 0.459,2.574 0.457,3.883 -0.023,1.308 -0.234,2.61 -0.636,3.854 -0.787,2.509 -2.424,4.668 -4.346,6.427 -1.944,1.758 -4.189,3.146 -6.523,4.318 -2.347,1.153 -4.787,2.116 -7.275,2.915 -4.972,1.631 -10.103,2.727 -15.261,3.572 -5.164,0.834 -10.368,1.398 -15.584,1.777 -5.217,0.372 -10.446,0.575 -15.682,0.566 -0.662,-0.007 -1.294,10e-4 -1.986,-0.037 l -1.955,-0.146 c -1.304,-0.104 -2.607,-0.217 -3.909,-0.349 -2.604,-0.263 -5.204,-0.564 -7.797,-0.934 -2.593,-0.37 -5.181,-0.801 -7.749,-1.379 -1.284,-0.29 -2.561,-0.626 -3.823,-1.047 -0.631,-0.209 -1.257,-0.447 -1.872,-0.736 -0.614,-0.288 -1.226,-0.618 -1.775,-1.124 -0.135,-0.143 -0.272,-0.229 -0.4,-0.445 -0.112,-0.18 -0.284,-0.422 -0.298,-0.558 l -0.069,-0.235 -0.018,-0.059 c 0.011,0.062 -0.025,-0.117 -0.021,-0.11 l -0.001,-0.03 -0.007,-0.124 -0.027,-0.494 -0.108,-1.977 c -0.101,-1.321 -0.097,-2.632 -0.076,-3.942 -0.002,-2.625 0.104,-5.236 0.229,-7.855 l 0.042,-0.888 0.722,0.533 c 1.656,1.224 3.562,2.124 5.5,2.915 1.952,0.773 3.975,1.381 6.009,1.939 4.085,1.069 8.258,1.828 12.447,2.421 2.091,0.298 4.224,0.488 6.32,0.725 2.107,0.218 4.212,0.475 6.322,0.66 l 6.351,0.259 c 2.118,0.153 4.235,0.018 6.353,-0.037 l 3.177,-0.099 c 1.062,-0.012 2.108,-0.2 3.164,-0.291 l 3.161,-0.343 c 0.526,-0.062 1.055,-0.104 1.579,-0.182 l 1.561,-0.299 3.123,-0.6 1.561,-0.305 1.53,-0.432 c 2.037,-0.584 4.103,-1.088 6.059,-1.92 0.984,-0.394 1.992,-0.734 2.958,-1.17 l 2.854,-1.404 c 0.973,-0.431 1.851,-1.031 2.763,-1.572 0.909,-0.547 1.822,-1.089 2.654,-1.75 1.729,-1.227 3.36,-2.598 4.839,-4.117 l 1.099,-1.15 1.011,-1.229 c 0.655,-0.833 1.266,-1.706 1.774,-2.636 l 0.016,-0.029 0.009,0.031 1.554,5.239 z"
         id="path392" />
    </g>
    <g
       transform="translate(522.44622,317.03843)"
       style="opacity:0.7"
       id="g394">
      <linearGradient
         id="linearGradient4929"
         gradientUnits="userSpaceOnUse"
         x1="1727.8057"
         y1="346.4707"
         x2="1741.8422"
         y2="354.57471"
         gradientTransform="matrix(-1,0,0,1,1911.8887,0)">
        <stop
           offset="0"
           style="stop-color:#FFFFFF"
           id="stop4931" />
        <stop
           offset="0.0249"
           style="stop-color:#FEFDF7"
           id="stop4933" />
        <stop
           offset="0.226"
           style="stop-color:#F6EBB8"
           id="stop4935" />
        <stop
           offset="0.4184"
           style="stop-color:#F0DC84"
           id="stop4937" />
        <stop
           offset="0.5971"
           style="stop-color:#EBD15B"
           id="stop4939" />
        <stop
           offset="0.759"
           style="stop-color:#E8C93E"
           id="stop4941" />
        <stop
           offset="0.8986"
           style="stop-color:#E6C42C"
           id="stop4943" />
        <stop
           offset="1"
           style="stop-color:#E5C226"
           id="stop4945" />
      </linearGradient>
      <path
         style="fill:url(#SVGID_7_)"
         inkscape:connector-curvature="0"
         d="m 174.816,333.663 c 0,0 5.103,10.857 10.598,16.746 0,0 7.458,4.71 0,12.168 l -1.178,1.963 -7.851,0 c 0,0 -0.393,0.392 -3.532,-5.104 -3.141,-5.495 -3.533,-5.103 -2.355,-18.841"
         id="path413" />
      <path
         style="fill:#a99627"
         inkscape:connector-curvature="0"
         d="m 174.816,333.663 c 0.385,0.734 0.78,1.462 1.184,2.185 0.404,0.723 0.794,1.453 1.22,2.163 0.423,0.711 0.823,1.435 1.266,2.134 l 1.307,2.106 c 0.448,0.693 0.913,1.376 1.368,2.063 0.233,0.34 0.446,0.694 0.697,1.021 l 0.738,0.99 c 0.505,0.647 0.951,1.347 1.513,1.944 l 1.612,1.853 -0.083,-0.068 c 0.547,0.368 1.008,0.763 1.44,1.224 0.437,0.448 0.812,0.955 1.146,1.491 0.143,0.283 0.308,0.556 0.43,0.85 0.104,0.301 0.236,0.595 0.312,0.905 0.06,0.314 0.139,0.628 0.178,0.944 l 0.031,0.964 c -0.029,0.317 -0.083,0.633 -0.126,0.95 -0.022,0.323 -0.166,0.61 -0.249,0.917 -0.097,0.302 -0.183,0.609 -0.341,0.88 l -0.424,0.839 c -0.142,0.279 -0.343,0.516 -0.512,0.775 -0.179,0.253 -0.35,0.513 -0.536,0.759 l -1.224,1.374 0.074,-0.095 -1.179,1.962 -0.145,0.241 -0.278,-0.002 -7.851,-0.041 0.318,-0.131 c -0.078,0.086 -0.263,0.146 -0.347,0.137 l -0.086,-0.014 c -0.058,-0.012 -0.117,-0.03 -0.17,-0.054 -0.101,-0.048 -0.096,-0.063 -0.149,-0.098 -0.073,-0.058 -0.169,-0.127 -0.208,-0.179 l -0.302,-0.334 c -0.167,-0.224 -0.344,-0.445 -0.502,-0.671 -0.305,-0.454 -0.616,-0.905 -0.892,-1.37 -0.58,-0.918 -1.108,-1.856 -1.641,-2.793 -0.523,-0.937 -1.048,-1.872 -1.539,-2.853 -0.273,-0.467 -0.425,-1.019 -0.639,-1.524 -0.221,-0.508 -0.263,-1.075 -0.4,-1.609 -0.137,-0.539 -0.101,-1.09 -0.159,-1.634 -0.054,-0.546 -0.044,-1.087 -0.021,-1.627 l 0.053,-1.62 0.134,-1.609 c 0.163,-2.146 0.419,-4.279 0.664,-6.414 -0.081,2.147 -0.244,4.29 -0.293,6.435 l -0.051,1.606 0.016,1.601 c -0.006,0.534 0.001,1.066 0.071,1.589 0.073,0.52 0.053,1.061 0.2,1.561 0.148,0.499 0.197,1.025 0.423,1.498 0.222,0.474 0.366,0.968 0.651,1.423 0.5,0.926 1.055,1.847 1.609,2.769 0.559,0.912 1.079,1.849 1.66,2.738 0.278,0.456 0.581,0.885 0.879,1.319 l 0.469,0.614 0.24,0.261 c 0.044,0.054 0.066,0.055 0.096,0.083 0.002,0.004 0.052,0.043 0.014,0.019 -0.022,-0.012 -0.049,-0.02 -0.076,-0.021 l -0.039,0.004 c -0.068,-0.011 -0.237,0.043 -0.299,0.125 l 0.319,-0.131 7.851,-0.041 -0.423,0.239 1.176,-1.964 0.023,-0.039 0.051,-0.057 1.167,-1.283 c 0.175,-0.227 0.333,-0.465 0.501,-0.696 0.157,-0.237 0.351,-0.457 0.479,-0.709 l 0.39,-0.753 c 0.149,-0.245 0.223,-0.515 0.311,-0.779 0.073,-0.267 0.211,-0.523 0.228,-0.801 0.037,-0.273 0.09,-0.546 0.119,-0.819 l -0.018,-0.824 c -0.032,-0.272 -0.099,-0.54 -0.145,-0.812 -0.062,-0.268 -0.178,-0.522 -0.262,-0.785 -0.103,-0.257 -0.249,-0.498 -0.369,-0.749 -0.292,-0.478 -0.622,-0.937 -1.014,-1.347 -0.375,-0.416 -0.829,-0.799 -1.263,-1.105 l -0.063,-0.045 -0.02,-0.023 -1.592,-1.946 c -0.555,-0.632 -0.983,-1.35 -1.475,-2.023 l -0.715,-1.025 c -0.243,-0.339 -0.446,-0.702 -0.671,-1.052 -0.437,-0.708 -0.884,-1.409 -1.312,-2.121 l -1.22,-2.173 c -0.407,-0.724 -0.771,-1.47 -1.159,-2.203 -0.763,-1.474 -1.48,-2.971 -2.146,-4.489 z"
         id="path415" />
    </g>
    <path
       inkscape:connector-curvature="0"
       style="fill:#fbda20;stroke:#010202;stroke-miterlimit:10"
       stroke-miterlimit="10"
       d="m 687.44922,670.58743 c 0,0 -6.325,-17.663 -22.789,-2.355 0,0 -1.569,7.458 11.396,11.776 -0.001,0 11,3.139 11.393,-9.421 z"
       id="path417" />
    <path
       inkscape:connector-curvature="0"
       style="fill:#fbda20;stroke:#010202;stroke-miterlimit:10"
       stroke-miterlimit="10"
       d="m 704.71922,654.10043 c 0,0 2.861,-10.205 8.301,-8.242 0,0 6.221,10.658 1.905,20.284 0,0 -12.953,-1.05 -10.206,-12.042 z"
       id="path419" />
    <path
       inkscape:connector-curvature="0"
       style="fill:url(#SVGID_8_);stroke:#010202;stroke-miterlimit:10"
       stroke-miterlimit="10"
       d="m 680.41022,662.67843 c 0,0 6.895,9.658 0,13.012 0,0 -6.699,1.963 -7.484,0 0,0 -2.744,-2.756 -1.765,-12.172 0,-10e-4 5.947,-3.056 9.249,-0.84 z"
       id="path442" />
    <path
       inkscape:connector-curvature="0"
       style="fill:url(#SVGID_9_);stroke:#010202;stroke-miterlimit:10"
       stroke-miterlimit="10"
       d="m 708.59222,646.99143 c 0,0 6.28,-0.327 4.429,12.998 0,0 -6.045,1.443 -6.977,-9.288 l 2.548,-3.71 z"
       id="path465" />
    <g
       transform="translate(522.44622,317.03843)"
       id="g467">
      <path
         style="fill:#e30613"
         inkscape:connector-curvature="0"
         d="m 190.574,373.96 c -1.262,-0.098 -2.485,-0.312 -3.696,-0.561 -0.606,-0.124 -1.201,-0.278 -1.803,-0.415 l -1.779,-0.485 1.042,-0.311 c -0.615,0.85 -1.259,1.656 -1.936,2.445 -0.67,0.792 -1.39,1.545 -2.134,2.274 -0.356,0.377 -0.758,0.718 -1.15,1.064 -0.391,0.348 -0.78,0.692 -1.213,1.001 -0.419,0.32 -0.848,0.625 -1.29,0.913 -0.464,0.27 -0.933,0.521 -1.406,0.746 0.313,-0.438 0.631,-0.85 0.954,-1.244 0.315,-0.406 0.608,-0.837 0.93,-1.229 l 0.931,-1.218 0.94,-1.206 c 1.254,-1.604 2.559,-3.183 3.893,-4.713 l 0.472,-0.541 0.57,0.231 1.709,0.691 c 0.562,0.255 1.129,0.493 1.686,0.762 1.115,0.538 2.217,1.108 3.28,1.796 z"
         id="path469" />
    </g>
    <g
       transform="translate(522.44622,317.03843)"
       id="g471">
      <polygon
         style="fill:#e30613"
         points="183.738,364.495 184.734,364.585 183.598,371.605 "
         id="polygon473" />
    </g>
    <g
       transform="translate(522.44622,317.03843)"
       id="g475">
      <path
         style="fill:#010202"
         inkscape:connector-curvature="0"
         d="m 151.792,345.532 c 0,0 -0.058,-0.074 -0.176,-0.269 -0.127,-0.188 -0.235,-0.434 -0.379,-0.741 -0.118,-0.312 -0.271,-0.666 -0.365,-1.064 -0.123,-0.39 -0.202,-0.814 -0.267,-1.239 -0.089,-0.42 -0.1,-0.85 -0.131,-1.246 -0.04,-0.396 -0.042,-0.767 -0.023,-1.084 0.018,-0.631 0.029,-1.052 0.029,-1.052 0,0 0.051,0.417 0.126,1.042 0.028,0.312 0.084,0.672 0.181,1.051 0.088,0.38 0.158,0.787 0.304,1.174 0.122,0.394 0.255,0.779 0.423,1.121 0.14,0.354 0.329,0.65 0.472,0.91 0.161,0.24 0.302,0.459 0.4,0.561 0.088,0.11 0.17,0.192 0.17,0.192 l -0.764,0.644 z"
         id="path477" />
    </g>
    <g
       transform="translate(522.44622,317.03843)"
       id="g479">
      <path
         style="fill:#010202"
         inkscape:connector-curvature="0"
         d="m 148.055,345.054 c 0,0 -0.227,-0.504 -0.52,-1.308 -0.147,-0.398 -0.329,-0.859 -0.506,-1.357 -0.161,-0.502 -0.333,-1.037 -0.505,-1.573 -0.168,-0.536 -0.357,-1.062 -0.468,-1.58 -0.126,-0.511 -0.243,-0.986 -0.344,-1.396 -0.2,-0.813 -0.334,-1.355 -0.334,-1.355 0,0 0.193,0.524 0.484,1.312 0.145,0.392 0.313,0.849 0.495,1.339 0.165,0.494 0.412,0.996 0.636,1.505 0.228,0.507 0.456,1.013 0.669,1.487 0.227,0.468 0.454,0.895 0.639,1.264 0.365,0.736 0.653,1.224 0.653,1.224 l -0.899,0.438 z"
         id="path481" />
    </g>
    <g
       transform="translate(522.44622,317.03843)"
       id="g483">
      <path
         style="fill:#010202"
         inkscape:connector-curvature="0"
         d="m 145.506,345.693 c 0.022,-0.006 -0.188,0.045 -0.476,0.06 -0.292,0.012 -0.709,-0.009 -1.185,-0.137 -0.234,-0.075 -0.485,-0.16 -0.729,-0.3 -0.252,-0.117 -0.48,-0.306 -0.711,-0.488 -0.444,-0.396 -0.821,-0.896 -1.094,-1.436 -0.163,-0.257 -0.242,-0.55 -0.36,-0.818 -0.123,-0.268 -0.173,-0.553 -0.253,-0.817 -0.169,-0.527 -0.205,-1.044 -0.293,-1.472 -0.092,-0.871 -0.132,-1.448 -0.132,-1.448 0,0 0.104,0.573 0.286,1.419 0.133,0.412 0.221,0.913 0.441,1.404 0.104,0.246 0.181,0.514 0.325,0.753 0.139,0.24 0.241,0.507 0.417,0.725 0.302,0.468 0.685,0.865 1.086,1.153 0.209,0.128 0.406,0.263 0.617,0.331 0.202,0.09 0.406,0.132 0.59,0.173 0.376,0.056 0.691,0.037 0.903,0.006 0.217,-0.039 0.287,-0.068 0.309,-0.074 l 0.259,0.966 z"
         id="path485" />
    </g>
    <g
       transform="translate(522.44622,317.03843)"
       id="g487">
      <path
         style="fill:#010202"
         inkscape:connector-curvature="0"
         d="m 140.175,352.669 c 0,0 -0.183,-0.036 -0.537,-0.15 -0.357,-0.097 -0.83,-0.279 -1.391,-0.502 -0.287,-0.099 -0.571,-0.265 -0.885,-0.408 -0.305,-0.161 -0.648,-0.287 -0.963,-0.496 -0.32,-0.194 -0.651,-0.396 -0.988,-0.601 -0.345,-0.188 -0.654,-0.444 -0.972,-0.686 -0.315,-0.242 -0.631,-0.483 -0.942,-0.722 -0.306,-0.242 -0.563,-0.534 -0.834,-0.787 -0.265,-0.26 -0.521,-0.511 -0.764,-0.748 -0.256,-0.224 -0.434,-0.497 -0.621,-0.727 -0.726,-0.931 -1.21,-1.551 -1.21,-1.551 0,0 0.53,0.578 1.326,1.446 0.203,0.211 0.396,0.465 0.668,0.666 0.258,0.215 0.529,0.441 0.811,0.676 0.286,0.227 0.556,0.491 0.875,0.703 0.321,0.208 0.647,0.419 0.974,0.63 0.326,0.209 0.642,0.433 0.992,0.588 0.339,0.171 0.673,0.339 0.997,0.502 0.315,0.177 0.656,0.271 0.959,0.401 0.31,0.112 0.592,0.25 0.871,0.321 0.55,0.168 1.006,0.304 1.319,0.362 0.307,0.075 0.513,0.101 0.513,0.101 l -0.198,0.982 z"
         id="path489" />
    </g>
    <path
       inkscape:connector-curvature="0"
       style="fill:#e30613"
       d="m 706.02922,629.89543 c 0,0 -3.831,-37.159 -4.274,-38.991 -0.444,-1.831 -6.716,-9.038 -10.707,1.997 0,0 -7.785,21.293 -8.047,31.236 0,10e-4 6.673,-10.99 23.028,5.758 z"
       id="path491" />
    <path
       inkscape:connector-curvature="0"
       style="fill:#e30613"
       d="m 667.82322,630.41943 c 0,0 -13.028,-28.147 -20.371,-24.308 0,0 -13.021,0.839 -14.186,27.555 l 2.108,26.062 1.569,0 c 10e-4,-10e-4 2.618,-26.693 30.88,-29.309 z"
       id="path493" />
    <g
       transform="translate(522.44622,317.03843)"
       id="g495">
      <path
         style="fill:#010202"
         inkscape:connector-curvature="0"
         d="m 165.04,376.618 c 0,0 -0.388,0.029 -1.103,0.027 -0.714,0.025 -1.707,-0.039 -2.905,-0.083 -0.595,-0.056 -1.24,-0.115 -1.922,-0.179 -0.683,-0.051 -1.399,-0.137 -2.135,-0.262 -0.737,-0.112 -1.498,-0.228 -2.271,-0.345 -0.771,-0.132 -1.543,-0.322 -2.321,-0.481 -0.775,-0.172 -1.554,-0.324 -2.312,-0.508 -0.751,-0.213 -1.49,-0.423 -2.206,-0.626 -0.714,-0.203 -1.405,-0.4 -2.06,-0.586 -0.654,-0.186 -1.25,-0.438 -1.812,-0.629 -2.232,-0.805 -3.721,-1.342 -3.721,-1.342 0,0 1.507,0.478 3.769,1.193 0.568,0.169 1.169,0.396 1.83,0.555 0.66,0.159 1.355,0.328 2.075,0.502 0.719,0.174 1.461,0.354 2.216,0.536 0.761,0.152 1.541,0.273 2.316,0.413 0.778,0.128 1.55,0.286 2.318,0.387 0.77,0.085 1.527,0.17 2.261,0.252 0.731,0.096 1.441,0.151 2.116,0.176 0.673,0.035 1.31,0.069 1.898,0.101 1.173,-0.004 2.157,0.021 2.826,-0.03 0.669,-0.023 1.069,-0.069 1.069,-0.069 l 0.074,0.998 z"
         id="path497" />
    </g>
    <g
       transform="translate(522.44622,317.03843)"
       id="g499">
      <path
         style="fill:#010202"
         inkscape:connector-curvature="0"
         d="m 165.021,381.133 c 0,0 -6.193,0.114 -12.384,0.065 -1.548,-0.007 -3.096,-0.026 -4.547,-0.069 -1.451,-0.021 -2.805,-0.08 -3.964,-0.148 -0.58,-0.033 -1.111,-0.048 -1.582,-0.09 -0.469,-0.053 -0.878,-0.1 -1.215,-0.138 -0.672,-0.076 -1.056,-0.12 -1.056,-0.12 0,0 0.386,0.028 1.061,0.077 0.337,0.024 0.746,0.055 1.215,0.089 0.47,0.022 1.002,0.016 1.582,0.025 1.159,0.021 2.51,0.026 3.96,-0.012 1.449,-0.016 2.994,-0.059 4.539,-0.114 6.182,-0.201 12.354,-0.565 12.354,-0.565 l 0.037,1 z"
         id="path501" />
    </g>
    <g
       transform="translate(522.44622,317.03843)"
       id="g503">
      <path
         style="fill:#010202"
         inkscape:connector-curvature="0"
         d="m 165.105,383.739 c 0,0 -6.157,1.165 -12.361,2.01 -3.101,0.424 -6.217,0.758 -8.564,0.863 -0.587,0.015 -1.124,0.059 -1.602,0.042 -0.477,-0.012 -0.893,-0.004 -1.234,-0.027 -0.681,-0.067 -1.07,-0.105 -1.07,-0.105 0,0 0.39,0.022 1.072,0.062 0.341,0.01 0.756,-0.015 1.231,-0.022 0.475,-0.002 1.01,-0.067 1.593,-0.104 2.333,-0.199 5.423,-0.656 8.497,-1.202 6.15,-1.09 12.233,-2.494 12.233,-2.494 l 0.205,0.977 z"
         id="path505" />
    </g>
    <path
       inkscape:connector-curvature="0"
       style="fill:none;stroke:#f7d35a;stroke-miterlimit:10"
       stroke-miterlimit="10"
       d="m 713.36222,709.44743 c 0,0 10.984,2.354 9.414,44.747 0,0 2.748,29.439 17.271,10.206 0,0 7.85,-25.906 -27.478,-58.879 l 0.793,3.926 z"
       id="path507" />
    <path
       inkscape:connector-curvature="0"
       style="fill:none;stroke:#a99627;stroke-miterlimit:10"
       stroke-miterlimit="10"
       d="m 722.77622,754.19443 c 0,0 -17.664,6.674 -25.121,50.243 0,0 -9.421,54.169 9.42,58.879 0,0 17.465,5.495 23.256,-17.271 0,0 18.738,-36.086 8.146,-79.705 0,10e-4 -11.776,15.723 -15.701,-12.146 z"
       id="path509" />
    <path
       inkscape:connector-curvature="0"
       style="opacity:0.8;fill:#b79b10;stroke:#a99627;stroke-miterlimit:10"
       stroke-miterlimit="10"
       d="m 722.77622,754.19443 -3.156,0 c 0,0 -15.292,7.851 -32.171,49.066 0,0 -0.062,26.299 -10.237,35.719 0,0 14.555,14.523 18.088,20.805 0,0 7.851,6.673 11.775,3.532 0,0 -16.486,-0.595 -9.42,-54.27 0,10e-4 2.354,-41.113 25.121,-54.852 z"
       id="path511" />
    <g
       transform="translate(522.44622,317.03843)"
       style="opacity:0.8"
       id="g513">
      <radialGradient
         id="radialGradient4977"
         cx="1806.8799"
         cy="438.6377"
         r="20.559999"
         gradientTransform="matrix(4.371139e-8,-1,-0.7,-3.059797e-8,412.055,2245.5176)"
         gradientUnits="userSpaceOnUse">
        <stop
           offset="0"
           style="stop-color:#E5C226"
           id="stop4979" />
        <stop
           offset="0.2021"
           style="stop-color:#E1BE29;stop-opacity:0.899"
           id="stop4981" />
        <stop
           offset="0.3992"
           style="stop-color:#D6B12E;stop-opacity:0.8004"
           id="stop4983" />
        <stop
           offset="0.5944"
           style="stop-color:#C59D33;stop-opacity:0.7028"
           id="stop4985" />
        <stop
           offset="0.7885"
           style="stop-color:#B08237;stop-opacity:0.6058"
           id="stop4987" />
        <stop
           offset="0.98"
           style="stop-color:#966337;stop-opacity:0.51"
           id="stop4989" />
        <stop
           offset="1"
           style="stop-color:#936037;stop-opacity:0.5"
           id="stop4991" />
      </radialGradient>
      <path
         style="fill:url(#SVGID_10_)"
         inkscape:connector-curvature="0"
         d="m 110.82,414.05 c 0,0 14.93,12.116 7.473,35.275 0,0 -8.243,17.836 -18.449,13.235 0,0 -8.636,-1.676 -10.205,-22.568 0,0 1.934,-27.852 21.181,-25.942 z"
         id="path530" />
      <path
         style="fill:#8e7c21"
         inkscape:connector-curvature="0"
         d="m 110.82,414.05 c 0.607,0.512 1.189,1.058 1.727,1.645 0.558,0.569 1.053,1.193 1.566,1.804 0.461,0.649 0.97,1.268 1.39,1.946 0.418,0.678 0.884,1.331 1.239,2.047 0.37,0.707 0.785,1.394 1.081,2.138 0.301,0.739 0.691,1.446 0.919,2.215 0.25,0.76 0.538,1.51 0.755,2.279 l 0.553,2.339 c 0.18,0.78 0.238,1.583 0.363,2.375 l 0.163,1.192 0.046,1.201 c 0.024,0.801 0.077,1.603 0.076,2.404 l -0.148,2.4 -0.078,1.201 -0.192,1.187 -0.385,2.376 c -0.128,0.792 -0.385,1.555 -0.572,2.334 l -0.623,2.323 -0.005,0.021 -0.013,0.028 c -0.92,1.915 -1.98,3.722 -3.164,5.469 -1.197,1.731 -2.507,3.402 -4.048,4.87 -0.379,0.373 -0.783,0.722 -1.195,1.062 -0.411,0.341 -0.845,0.656 -1.288,0.961 -0.454,0.289 -0.909,0.579 -1.397,0.816 -0.476,0.256 -0.986,0.459 -1.502,0.634 -0.516,0.183 -1.055,0.296 -1.597,0.395 l -0.824,0.081 c -0.276,0.014 -0.553,-0.003 -0.83,-0.004 -0.548,-0.039 -1.106,-0.091 -1.636,-0.246 -0.544,-0.112 -1.047,-0.334 -1.562,-0.527 l 0.11,0.035 c -0.661,-0.158 -1.128,-0.43 -1.639,-0.721 -0.494,-0.296 -0.938,-0.65 -1.377,-1.01 -0.398,-0.396 -0.838,-0.76 -1.182,-1.202 -0.371,-0.421 -0.727,-0.853 -1.03,-1.319 l -0.479,-0.685 -0.414,-0.721 c -0.279,-0.479 -0.558,-0.958 -0.774,-1.466 -0.224,-0.504 -0.484,-0.994 -0.677,-1.508 l -0.574,-1.546 c -0.21,-0.51 -0.323,-1.048 -0.487,-1.57 -0.146,-0.528 -0.32,-1.05 -0.442,-1.582 l -0.35,-1.603 c -0.113,-0.534 -0.248,-1.065 -0.317,-1.606 l -0.25,-1.617 c -0.076,-0.54 -0.185,-1.076 -0.224,-1.62 l -0.319,-3.251 -0.003,-0.03 0.003,-0.031 c 0.136,-1.592 0.393,-3.137 0.703,-4.683 0.313,-1.543 0.694,-3.072 1.152,-4.579 0.912,-3.01 2.135,-5.948 3.836,-8.612 0.418,-0.671 0.891,-1.304 1.367,-1.936 0.509,-0.605 1.021,-1.208 1.595,-1.754 0.27,-0.289 0.573,-0.544 0.875,-0.8 0.298,-0.26 0.597,-0.519 0.926,-0.739 0.626,-0.485 1.314,-0.877 1.998,-1.27 0.714,-0.338 1.425,-0.68 2.182,-0.908 0.368,-0.143 0.749,-0.24 1.134,-0.322 0.385,-0.077 0.76,-0.208 1.154,-0.238 l 1.168,-0.148 c 0.391,-0.029 0.784,-0.023 1.175,-0.037 0.783,-0.056 1.563,0.082 2.341,0.113 z m 0,0 c -0.782,-0.002 -1.561,-0.109 -2.339,-0.024 -0.388,0.029 -0.778,0.038 -1.165,0.082 l -1.151,0.185 c -0.387,0.041 -0.754,0.182 -1.132,0.269 -0.377,0.092 -0.75,0.198 -1.107,0.35 -0.737,0.244 -1.426,0.601 -2.115,0.95 -0.659,0.405 -1.32,0.806 -1.918,1.297 -0.315,0.224 -0.6,0.485 -0.883,0.747 -0.287,0.259 -0.576,0.515 -0.832,0.805 -0.545,0.548 -1.025,1.153 -1.509,1.754 -0.454,0.626 -0.906,1.252 -1.303,1.916 -1.62,2.636 -2.772,5.543 -3.619,8.522 -0.425,1.491 -0.774,3.004 -1.056,4.528 -0.281,1.521 -0.498,3.069 -0.627,4.592 l 0,-0.062 0.333,3.21 c 0.042,0.537 0.152,1.063 0.23,1.595 l 0.255,1.591 c 0.07,0.533 0.207,1.052 0.32,1.576 l 0.352,1.568 c 0.123,0.521 0.296,1.027 0.441,1.542 0.164,0.508 0.276,1.035 0.483,1.526 l 0.565,1.496 c 0.189,0.497 0.443,0.965 0.661,1.448 0.21,0.489 0.48,0.944 0.749,1.399 l 0.398,0.685 0.456,0.644 c 0.289,0.441 0.625,0.843 0.972,1.232 0.324,0.414 0.73,0.739 1.097,1.105 0.402,0.322 0.806,0.642 1.244,0.9 0.422,0.249 0.922,0.496 1.318,0.592 l 0.047,0.012 0.062,0.023 c 0.46,0.173 0.912,0.379 1.392,0.479 0.47,0.143 0.96,0.188 1.445,0.227 0.244,0.001 0.489,0.019 0.732,0.008 l 0.731,-0.067 c 0.483,-0.087 0.966,-0.184 1.435,-0.347 0.468,-0.156 0.935,-0.337 1.375,-0.572 0.452,-0.214 0.877,-0.484 1.303,-0.752 0.418,-0.283 0.829,-0.577 1.221,-0.9 0.393,-0.32 0.78,-0.651 1.146,-1.007 1.487,-1.398 2.773,-3.018 3.953,-4.704 1.164,-1.694 2.228,-3.486 3.122,-5.323 l -0.019,0.049 0.627,-2.276 c 0.197,-0.762 0.465,-1.509 0.603,-2.283 l 0.417,-2.323 0.209,-1.163 0.096,-1.176 0.187,-2.354 c 0.015,-0.786 -0.024,-1.572 -0.034,-2.359 l -0.024,-1.182 -0.14,-1.172 c -0.11,-0.779 -0.152,-1.57 -0.316,-2.341 l -0.504,-2.309 c -0.201,-0.762 -0.458,-1.508 -0.684,-2.264 -0.203,-0.766 -0.568,-1.471 -0.845,-2.211 -0.271,-0.744 -0.663,-1.433 -1.009,-2.143 -0.332,-0.721 -0.773,-1.379 -1.17,-2.063 -0.397,-0.686 -0.884,-1.312 -1.325,-1.971 -0.494,-0.618 -0.958,-1.264 -1.494,-1.85 -0.51,-0.606 -1.069,-1.171 -1.657,-1.706 z"
         id="path532" />
    </g>
    <path
       inkscape:connector-curvature="0"
       style="fill:#1e1e1c;stroke:#010202;stroke-miterlimit:10"
       stroke-miterlimit="10"
       d="m 722.77622,769.11043 c 0,0 7.851,9.028 15.701,13.346 0,0 2.747,4.711 -3.926,3.926 l -3.645,-2.748 c 0,0 -2.407,-0.608 -1.344,2.836 0,0 1.456,3.416 8.914,5.393 0,0 1.684,6.295 -4.457,7.865 0,0 -5.79,-2.748 -7.34,-4.317 0,0 -1.941,5.495 7.871,8.635 0,0 4.825,3.588 -0.531,5.131 l -4.457,-0.129 c 0,0 -2.338,0.362 -0.376,4.681 0,0 1.047,1.7 7.197,1.178 0,0 -0.095,7.065 -5.478,6.935 0,0 -4.468,-0.393 -8.131,-4.71 -3.663,-4.318 -5.626,-1.963 -5.626,-1.963 0,0 -1.439,-1.907 -1.309,-5.991 0,0 -3.794,-1.467 -1.046,5.991 0,0 1.308,1.963 -3.533,1.047 0,0 -2.094,-0.654 -2.748,-1.57 -0.654,-0.916 -3.663,-7.981 3.141,-10.729 0,0 3.897,-0.915 6.855,2.879 0,0 4.266,0.263 1.125,-3.009 0,0 -7.196,-6.542 -11.383,-1.178 0,0 -2.485,1.439 -1.831,-1.963 0,0 3.009,-7.852 5.364,-7.72 0,0 1.177,-1.309 4.317,1.438 0,0 2.747,2.355 4.188,2.094 0,0 2.197,-1.86 -1.78,-4.594 0,0 -3.585,-4.957 -7.379,-2.341 0,0 -3.533,1.569 -2.225,-3.01 0,0 2.224,-4.709 4.056,-6.018 0,0 1.963,-3.142 7.981,2.485 0,0 2.486,-2.225 0,-4.579 0,0 -4.972,-2.485 -5.104,-2.617 -0.13,-0.131 0.132,0.132 0.132,0.132 0,0 -2.094,-0.655 0.653,-4.449 0.004,-0.001 3.109,-5.589 6.154,-2.357 z"
       id="path534" />
    <path
       inkscape:connector-curvature="0"
       style="fill:#1e1e1c;stroke:#010202;stroke-miterlimit:10"
       stroke-miterlimit="10"
       d="m 715.71122,819.61843 c 0,0 11.219,5.233 13.853,5.757 0,0 4.597,-0.13 5.12,-1.438 0.523,-1.31 0.916,4.972 -3.271,6.279 -4.187,1.309 -4.841,-0.392 -7.458,-1.962 0,0 -2.487,-0.786 -1.178,3.663 0,0 8.377,-1.022 9.028,4.188 0,0 -1.046,14.916 -8.111,14.916 0,0 -1.701,1.178 0.393,-10.991 0,0 -4.188,-4.188 -4.058,0.654 0,0 3.665,14.392 -5.756,9.682 0,0 -8.112,-11.514 -3.402,-15.962 0,0 1.963,6.149 4.973,6.149 0,0 4.186,-4.711 -3.272,-8.636 0,0 -7.093,-2.967 -4.121,10.309 0.021,0.096 0.043,0.192 0.065,0.289 3.141,13.608 -2.203,11.122 -2.203,11.122 0,0 -3.422,-1.047 -4.207,-12.3 0,0 -1.179,-15.177 6.541,-14.392 0,0 3.402,-0.916 7.458,2.486 0,0 2.225,-1.44 -0.653,-3.664 0,0 -4.973,-5.495 -8.375,-2.224 0,0 -2.485,2.485 -3.532,0 0,0 -0.653,-7.982 5.234,-6.15 l 6.932,2.225 z"
       id="path536" />
    <g
       transform="translate(522.44622,317.03843)"
       id="g538">
      <path
         style="fill:#2fac66"
         inkscape:connector-curvature="0"
         d="m 190.916,392.409 c 0,0 13.561,10.005 6.258,44.747 0,0 -14.408,10.299 -19.625,23.336 0,0 -41.592,-20.98 -51.013,-42.7 l 3.532,-2.011 c 0,0 59.284,0.963 60.848,-23.372 z"
         id="path540" />
      <path
         style="fill:#006633"
         inkscape:connector-curvature="0"
         d="m 190.916,392.409 c 0.776,0.603 1.406,1.362 2.039,2.108 l 0.87,1.186 0.78,1.247 c 0.512,0.836 0.934,1.726 1.368,2.604 0.358,0.913 0.801,1.796 1.089,2.734 0.283,0.938 0.656,1.854 0.866,2.813 0.221,0.956 0.48,1.905 0.669,2.868 l 0.469,2.909 c 0.156,0.971 0.188,1.954 0.289,2.932 0.094,0.979 0.176,1.957 0.165,2.94 l 0.042,2.946 c 0.004,0.982 -0.091,1.961 -0.132,2.942 -0.062,0.979 -0.089,1.964 -0.179,2.94 l -0.344,2.926 c -0.126,0.973 -0.203,1.954 -0.37,2.921 l -1.025,5.8 -0.022,0.123 -0.115,0.086 c -2.036,1.521 -3.987,3.197 -5.858,4.936 -0.476,0.428 -0.923,0.885 -1.385,1.326 -0.464,0.439 -0.906,0.9 -1.351,1.359 -0.447,0.457 -0.893,0.914 -1.316,1.393 -0.426,0.476 -0.867,0.938 -1.281,1.424 -0.83,0.971 -1.657,1.941 -2.424,2.961 -0.399,0.498 -0.78,1.009 -1.138,1.536 -0.361,0.524 -0.744,1.034 -1.088,1.569 l -1.009,1.619 c -0.354,0.53 -0.617,1.111 -0.929,1.664 -0.3,0.559 -0.615,1.111 -0.855,1.699 l -0.775,1.736 -0.2,0.447 -0.417,-0.215 c -5.024,-2.59 -9.897,-5.414 -14.687,-8.394 -4.784,-2.983 -9.456,-6.152 -13.958,-9.559 -4.479,-3.432 -8.8,-7.093 -12.737,-11.161 -0.979,-1.022 -1.939,-2.062 -2.857,-3.142 -0.476,-0.524 -0.905,-1.091 -1.352,-1.64 -0.452,-0.547 -0.885,-1.108 -1.293,-1.689 -0.854,-1.134 -1.625,-2.33 -2.367,-3.543 -0.347,-0.622 -0.71,-1.234 -1.042,-1.864 l -0.922,-1.932 -0.17,-0.356 0.357,-0.203 3.535,-2.005 0.103,-0.058 0.12,0.001 c 2.898,0.028 5.816,-0.06 8.722,-0.187 2.908,-0.128 5.814,-0.325 8.713,-0.595 5.796,-0.537 11.573,-1.364 17.246,-2.663 1.417,-0.329 2.829,-0.68 4.225,-1.084 l 2.091,-0.619 2.068,-0.688 c 1.362,-0.502 2.735,-0.989 4.051,-1.605 1.338,-0.567 2.623,-1.252 3.884,-1.968 0.613,-0.387 1.247,-0.746 1.845,-1.156 l 1.751,-1.294 1.62,-1.456 1.45,-1.624 c 0.423,-0.589 0.822,-1.196 1.235,-1.795 l 0.964,-1.956 0.649,-2.084 0.323,-2.16 z m 0,0 -0.287,2.171 -0.614,2.104 -0.936,1.986 c -0.405,0.609 -0.796,1.23 -1.213,1.832 l -1.435,1.665 -1.609,1.5 -1.745,1.338 c -0.597,0.425 -1.229,0.798 -1.841,1.2 -1.26,0.745 -2.544,1.459 -3.882,2.055 -1.317,0.646 -2.69,1.16 -4.054,1.69 l -2.073,0.728 -2.099,0.645 c -1.401,0.421 -2.819,0.788 -4.241,1.134 -5.692,1.364 -11.488,2.253 -17.304,2.851 -5.82,0.595 -11.658,0.929 -17.522,0.908 l 0.222,-0.057 -3.529,2.017 0.187,-0.56 0.902,1.873 c 0.326,0.612 0.683,1.209 1.023,1.814 0.729,1.184 1.487,2.353 2.33,3.463 0.403,0.569 0.831,1.119 1.277,1.656 0.443,0.539 0.865,1.095 1.337,1.61 0.908,1.061 1.86,2.084 2.831,3.091 3.904,4.009 8.204,7.628 12.665,11.022 2.24,1.687 4.511,3.334 6.822,4.925 2.311,1.592 4.662,3.126 7.037,4.621 4.754,2.98 9.616,5.817 14.585,8.4 l -0.616,0.233 0.801,-1.781 c 0.25,-0.603 0.573,-1.167 0.882,-1.738 0.321,-0.564 0.593,-1.158 0.956,-1.697 l 1.035,-1.647 c 0.353,-0.544 0.743,-1.062 1.112,-1.594 0.366,-0.535 0.754,-1.053 1.161,-1.557 0.783,-1.032 1.623,-2.016 2.469,-2.993 0.424,-0.488 0.875,-0.951 1.311,-1.429 0.434,-0.479 0.889,-0.938 1.345,-1.395 0.454,-0.459 0.906,-0.921 1.379,-1.36 0.471,-0.441 0.927,-0.898 1.412,-1.325 1.911,-1.739 3.88,-3.399 5.977,-4.933 l -0.137,0.209 1.077,-5.756 c 0.176,-0.96 0.261,-1.934 0.396,-2.899 l 0.371,-2.904 c 0.1,-0.97 0.136,-1.945 0.208,-2.918 0.05,-0.974 0.155,-1.946 0.16,-2.921 l 0.002,-2.926 c 0.028,-0.977 -0.036,-1.949 -0.112,-2.922 -0.083,-0.971 -0.098,-1.951 -0.235,-2.916 l -0.415,-2.896 c -0.171,-0.96 -0.412,-1.906 -0.614,-2.86 -0.192,-0.959 -0.546,-1.872 -0.811,-2.812 -0.271,-0.939 -0.695,-1.822 -1.035,-2.737 -0.416,-0.881 -0.82,-1.774 -1.315,-2.615 l -0.755,-1.256 -0.846,-1.197 c -0.617,-0.754 -1.232,-1.525 -1.997,-2.14 z"
         id="path542" />
    </g>
    <g
       transform="translate(522.44622,317.03843)"
       id="g544">
      <path
         style="fill:#010202"
         inkscape:connector-curvature="0"
         d="m 185.649,329.889 c 0,0 0.085,-0.36 0.109,-0.972 0.019,-0.597 -0.02,-1.415 -0.271,-2.187 -0.124,-0.384 -0.275,-0.768 -0.481,-1.091 -0.189,-0.333 -0.415,-0.622 -0.633,-0.843 -0.423,-0.462 -0.806,-0.669 -0.791,-0.687 -0.014,0.019 0.395,0.166 0.896,0.571 0.257,0.192 0.536,0.457 0.788,0.777 0.269,0.311 0.491,0.692 0.686,1.088 0.395,0.793 0.571,1.675 0.648,2.337 0.076,0.655 0.04,1.134 0.041,1.134 l -0.992,-0.127 z"
         id="path546" />
    </g>
    <g
       transform="translate(522.44622,317.03843)"
       id="g548">
      <path
         style="fill:#010202"
         inkscape:connector-curvature="0"
         d="m 187.457,327.129 c 0,0 -0.013,-0.126 -0.048,-0.308 -0.027,-0.186 -0.083,-0.457 -0.166,-0.788 -0.066,-0.334 -0.208,-0.705 -0.326,-1.117 -0.163,-0.392 -0.308,-0.83 -0.517,-1.236 -0.225,-0.395 -0.395,-0.834 -0.663,-1.172 -0.256,-0.344 -0.452,-0.711 -0.701,-0.952 -0.48,-0.509 -0.8,-0.848 -0.8,-0.848 0,0 0.365,0.296 0.913,0.739 0.287,0.213 0.53,0.551 0.842,0.871 0.324,0.314 0.555,0.732 0.845,1.115 0.273,0.394 0.484,0.823 0.71,1.215 0.182,0.41 0.382,0.785 0.501,1.128 0.134,0.335 0.235,0.625 0.297,0.839 0.06,0.202 0.094,0.318 0.094,0.318 l -0.981,0.196 z"
         id="path550" />
    </g>
    <g
       transform="translate(522.44622,317.03843)"
       id="g552">
      <path
         style="fill:#010202"
         inkscape:connector-curvature="0"
         d="m 188.852,326.836 c 0,0 -0.065,-0.443 -0.236,-1.128 -0.169,-0.678 -0.45,-1.573 -0.844,-2.422 -0.193,-0.426 -0.428,-0.83 -0.665,-1.201 -0.248,-0.362 -0.513,-0.675 -0.76,-0.93 -0.265,-0.231 -0.486,-0.434 -0.669,-0.532 -0.176,-0.113 -0.276,-0.178 -0.276,-0.178 0,0 0.108,0.051 0.297,0.141 0.199,0.076 0.446,0.247 0.75,0.451 0.285,0.227 0.602,0.512 0.908,0.854 0.294,0.35 0.594,0.739 0.852,1.153 0.525,0.827 0.939,1.719 1.208,2.403 0.269,0.679 0.409,1.169 0.409,1.169 l -0.974,0.22 z"
         id="path554" />
    </g>
    <g
       transform="translate(522.44622,317.03843)"
       id="g556">
      <path
         style="fill:#a99627"
         inkscape:connector-curvature="0"
         d="m 114.236,462.561 c 0,0 0.785,0.175 2.149,0.521 1.36,0.357 3.313,0.839 5.63,1.511 2.314,0.676 5.023,1.445 7.889,2.385 2.866,0.938 5.912,1.976 8.939,3.072 3.012,1.137 6,2.343 8.768,3.555 1.387,0.599 2.707,1.227 3.944,1.853 1.24,0.618 2.401,1.229 3.451,1.832 1.058,0.588 2.001,1.177 2.809,1.74 0.819,0.544 1.498,1.075 2.045,1.52 0.545,0.451 0.947,0.832 1.201,1.114 0.262,0.271 0.401,0.415 0.401,0.415 0,0 -0.153,-0.131 -0.439,-0.376 -0.274,-0.258 -0.717,-0.586 -1.283,-0.999 -0.572,-0.401 -1.277,-0.878 -2.125,-1.359 -0.417,-0.251 -0.869,-0.505 -1.355,-0.756 -0.479,-0.262 -0.983,-0.538 -1.521,-0.804 -1.064,-0.552 -2.241,-1.107 -3.497,-1.668 -1.252,-0.568 -2.594,-1.124 -3.973,-1.715 -2.767,-1.166 -5.758,-2.321 -8.772,-3.415 -2.999,-1.135 -6.021,-2.212 -8.867,-3.188 -2.846,-0.978 -5.503,-1.89 -7.78,-2.671 -4.569,-1.541 -7.614,-2.567 -7.614,-2.567 z"
         id="path558" />
    </g>
    <path
       inkscape:connector-curvature="0"
       style="fill:none;stroke:#a99627;stroke-miterlimit:10"
       stroke-miterlimit="10"
       d="m 619.09522,867.50343 c 0,0 -16.955,-57.002 3.194,-87.904"
       id="path560" />
    <path
       inkscape:connector-curvature="0"
       style="fill:none;stroke:#a99627;stroke-miterlimit:10"
       stroke-miterlimit="10"
       d="m 632.13922,716.14243 c -19.196,-38.313 -4.685,-60.268 -4.685,-60.268 -6.61,-53.571 10.863,-54.492 10.863,-54.492"
       id="path562" />
    <path
       inkscape:connector-curvature="0"
       style="fill:none;stroke:#f7d35a;stroke-miterlimit:10"
       stroke-miterlimit="10"
       d="m 688.13022,581.16043 c 0,0 -17.965,17.856 -18.743,38.791 0,0 -4.704,-0.618 -6.667,0.999"
       id="path564" />
    <g
       transform="translate(522.44622,317.03843)"
       id="g566">
      <path
         style="fill:#a99627"
         inkscape:connector-curvature="0"
         d="m 182.944,314.75 c 0,0 -0.985,-1.398 -2.728,-3.307 -0.874,-0.949 -1.937,-2.019 -3.161,-3.067 -0.611,-0.526 -1.266,-1.039 -1.955,-1.529 -0.694,-0.479 -1.414,-0.95 -2.175,-1.342 -0.755,-0.403 -1.544,-0.742 -2.348,-0.986 -0.8,-0.264 -1.622,-0.387 -2.419,-0.44 -0.797,-0.017 -1.577,0.045 -2.284,0.249 -0.356,0.095 -0.7,0.194 -1.012,0.349 -0.323,0.129 -0.627,0.271 -0.897,0.45 -0.574,0.303 -1.018,0.703 -1.439,1.02 -0.373,0.372 -0.72,0.678 -0.97,0.963 -0.488,0.582 -0.767,0.915 -0.767,0.915 0,0 0.267,-0.343 0.735,-0.943 0.24,-0.295 0.577,-0.614 0.94,-1.003 0.412,-0.334 0.848,-0.756 1.42,-1.085 0.27,-0.191 0.574,-0.349 0.899,-0.492 0.315,-0.17 0.664,-0.285 1.027,-0.396 0.722,-0.237 1.526,-0.331 2.354,-0.343 0.828,0.025 1.688,0.124 2.524,0.366 0.841,0.223 1.668,0.544 2.46,0.931 0.799,0.375 1.554,0.831 2.283,1.298 0.724,0.476 1.413,0.978 2.056,1.491 1.289,1.027 2.412,2.078 3.337,3.015 1.845,1.879 2.919,3.29 2.919,3.29 l -0.799,0.596 z"
         id="path568" />
    </g>
    <g
       transform="translate(522.44622,317.03843)"
       id="g570">
      <path
         style="fill:#f9de86"
         inkscape:connector-curvature="0"
         d="m 176.871,269.861 c -0.385,-0.165 -0.781,-0.259 -1.175,-0.317 -0.397,-0.044 -0.785,-0.054 -1.163,-10e-4 -0.189,-0.001 -0.371,0.087 -0.55,0.123 -0.181,0.039 -0.355,0.092 -0.521,0.183 -0.167,0.08 -0.335,0.144 -0.494,0.229 l -0.45,0.319 c -0.312,0.174 -0.54,0.506 -0.813,0.736 -0.276,0.23 -0.466,0.588 -0.701,0.868 -0.24,0.276 -0.409,0.635 -0.597,0.964 -0.177,0.341 -0.4,0.639 -0.54,1.01 l -0.474,1.061 c -0.174,0.34 -0.269,0.736 -0.403,1.103 l -0.389,1.109 c -0.132,0.368 -0.216,0.764 -0.327,1.143 -0.204,0.769 -0.463,1.512 -0.608,2.305 l -0.538,2.338 -0.019,0.084 -0.036,0.104 c -0.663,1.943 -1.313,3.936 -1.951,5.912 -0.307,0.993 -0.648,1.979 -0.955,2.972 -0.296,0.996 -0.62,1.985 -0.937,2.979 -0.318,0.991 -0.599,1.991 -0.901,2.989 l -0.459,1.496 -0.406,1.507 c -0.13,0.504 -0.283,1.005 -0.431,1.509 -0.162,0.503 -0.29,1.009 -0.392,1.52 -0.243,1.017 -0.485,2.043 -0.78,3.078 -0.08,-1.056 -0.108,-2.12 -0.137,-3.194 -0.021,-0.538 0.001,-1.071 0.047,-1.601 0.036,-0.53 0.066,-1.063 0.12,-1.595 0.094,-1.063 0.176,-2.134 0.37,-3.177 0.178,-1.048 0.337,-2.104 0.534,-3.15 0.229,-1.037 0.451,-2.077 0.699,-3.11 0.239,-1.036 0.539,-2.054 0.821,-3.077 0.268,-1.028 0.618,-2.031 0.928,-3.047 0.328,-1.014 0.678,-2.005 1.049,-3.023 l -0.055,0.188 0.663,-2.445 c 0.207,-0.814 0.528,-1.615 0.81,-2.416 0.155,-0.398 0.28,-0.801 0.459,-1.193 l 0.55,-1.17 c 0.199,-0.385 0.349,-0.78 0.594,-1.15 l 0.679,-1.119 c 0.208,-0.377 0.5,-0.726 0.778,-1.07 0.284,-0.342 0.538,-0.696 0.89,-0.995 0.346,-0.298 0.622,-0.643 1.022,-0.888 0.391,-0.249 0.735,-0.539 1.187,-0.692 l 0.638,-0.262 c 0.222,-0.064 0.454,-0.103 0.677,-0.15 0.221,-0.058 0.448,-0.082 0.681,-0.068 0.229,0.013 0.453,-0.023 0.676,0.033 0.446,0.062 0.873,0.177 1.268,0.355 0.388,0.187 0.761,0.401 1.062,0.693 z"
         id="path572" />
    </g>
    <g
       transform="translate(522.44622,317.03843)"
       id="g574">
      <path
         style="fill:#f7d35a"
         inkscape:connector-curvature="0"
         d="m 159.862,307.898 c 0,0 -1.234,-0.51 -3.086,-1.274 -1.848,-0.756 -4.302,-1.767 -6.8,-2.612 -1.245,-0.434 -2.507,-0.805 -3.699,-1.102 -1.194,-0.289 -2.322,-0.484 -3.297,-0.553 -0.487,-0.023 -0.935,-0.031 -1.333,-0.014 -0.395,0.034 -0.744,0.068 -1.021,0.143 -0.285,0.054 -0.5,0.125 -0.649,0.175 -0.15,0.048 -0.23,0.073 -0.23,0.073 0.007,0.019 0.268,-0.21 0.82,-0.434 0.273,-0.125 0.622,-0.221 1.027,-0.325 0.407,-0.092 0.875,-0.163 1.388,-0.192 2.062,-0.129 4.769,0.412 7.317,1.283 2.555,0.873 4.977,2.054 6.727,3.043 0.879,0.49 1.58,0.955 2.076,1.266 0.491,0.321 0.76,0.523 0.76,0.523 z"
         id="path576" />
    </g>
    <g
       transform="translate(522.44622,317.03843)"
       id="g578">
      <path
         style="fill:#f9de86"
         inkscape:connector-curvature="0"
         d="m 129.676,289.044 c -0.959,-0.197 -1.932,-0.206 -2.881,-0.185 -0.475,0.053 -0.948,0.061 -1.41,0.163 -0.461,0.097 -0.923,0.152 -1.365,0.31 l -0.665,0.197 c -0.217,0.075 -0.425,0.182 -0.636,0.27 l -0.627,0.273 c -0.202,0.106 -0.394,0.234 -0.591,0.345 -0.393,0.229 -0.791,0.44 -1.132,0.747 -0.343,0.297 -0.734,0.523 -1.034,0.87 l -0.934,0.978 c -0.29,0.348 -0.547,0.727 -0.821,1.084 l -0.406,0.541 -0.335,0.601 -0.671,1.192 c -0.209,0.406 -0.357,0.852 -0.552,1.267 -0.18,0.424 -0.379,0.837 -0.546,1.268 l -0.849,2.657 -0.011,0.035 -0.12,0.268 c -0.082,0.184 -0.208,0.614 -0.316,0.974 -0.124,0.354 -0.216,0.751 -0.296,1.16 -0.156,0.812 -0.392,1.585 -0.46,2.438 l -0.309,2.51 c -0.119,0.831 -0.097,1.699 -0.175,2.546 l -0.161,2.556 c -0.081,0.85 -0.033,1.715 -0.042,2.572 0.015,1.72 -0.038,3.441 -0.054,5.164 l 0.097,2.59 0.065,2.595 0.066,2.598 c 0.01,0.868 0.007,1.737 0.075,2.603 0.205,3.467 0.344,6.946 0.349,10.461 -0.81,-3.402 -1.486,-6.84 -2.096,-10.29 -0.334,-1.722 -0.467,-3.472 -0.677,-5.212 -0.198,-1.744 -0.4,-3.488 -0.535,-5.239 -0.059,-1.759 -0.154,-3.521 -0.182,-5.282 -0.006,-0.883 -0.069,-1.761 -0.002,-2.649 l 0.121,-2.659 c 0.054,-0.889 0.047,-1.771 0.191,-2.662 l 0.375,-2.669 c 0.087,-0.886 0.363,-1.788 0.556,-2.681 0.096,-0.445 0.208,-0.895 0.396,-1.354 0.178,-0.463 0.289,-0.874 0.613,-1.464 l -0.131,0.302 1.076,-2.849 c 0.208,-0.466 0.453,-0.92 0.678,-1.379 0.234,-0.457 0.455,-0.916 0.724,-1.354 l 0.873,-1.282 0.437,-0.638 0.518,-0.587 c 0.351,-0.386 0.681,-0.785 1.047,-1.152 l 1.207,-1.003 c 0.388,-0.346 0.877,-0.573 1.309,-0.859 0.43,-0.295 0.917,-0.491 1.395,-0.696 0.239,-0.102 0.473,-0.214 0.719,-0.295 l 0.75,-0.201 c 0.25,-0.062 0.496,-0.142 0.748,-0.188 l 0.762,-0.106 c 0.503,-0.09 1.014,-0.094 1.52,-0.097 0.504,-0.016 1.008,0.066 1.503,0.104 0.495,0.084 0.986,0.157 1.461,0.306 0.477,0.12 0.945,0.29 1.391,0.487 z"
         id="path580" />
    </g>
    <g
       transform="translate(522.44622,317.03843)"
       id="g582">
      <path
         style="fill:#a99627"
         inkscape:connector-curvature="0"
         d="m 136.245,315.701 c 0,0 -0.142,0.021 -0.402,0.088 -0.262,0.053 -0.636,0.18 -1.111,0.319 -0.47,0.167 -1.04,0.361 -1.667,0.656 -0.639,0.259 -1.312,0.66 -2.061,1.049 -0.723,0.443 -1.512,0.907 -2.271,1.512 -0.803,0.543 -1.526,1.272 -2.336,1.944 -0.74,0.749 -1.527,1.507 -2.237,2.355 -0.693,0.864 -1.454,1.696 -2.052,2.656 l -0.964,1.387 c -0.323,0.46 -0.569,0.967 -0.855,1.442 -0.548,0.967 -1.135,1.895 -1.556,2.872 -0.437,0.967 -0.949,1.863 -1.313,2.768 -0.363,0.907 -0.707,1.765 -1.024,2.556 -0.65,1.58 -1.031,2.957 -1.375,3.897 -0.333,0.945 -0.523,1.486 -0.523,1.486 0,0 0.122,-0.56 0.335,-1.537 0.113,-0.489 0.25,-1.083 0.408,-1.765 0.152,-0.684 0.322,-1.457 0.622,-2.266 0.272,-0.818 0.568,-1.706 0.88,-2.644 0.314,-0.938 0.77,-1.883 1.196,-2.877 0.406,-1.005 0.952,-1.983 1.514,-2.975 0.288,-0.49 0.536,-1.011 0.862,-1.487 l 0.977,-1.436 c 0.625,-0.979 1.418,-1.834 2.143,-2.716 0.349,-0.454 0.776,-0.833 1.174,-1.227 0.407,-0.386 0.788,-0.789 1.2,-1.145 0.851,-0.683 1.647,-1.373 2.507,-1.887 0.817,-0.573 1.659,-1.004 2.425,-1.412 0.788,-0.365 1.511,-0.7 2.189,-0.898 0.664,-0.236 1.262,-0.378 1.75,-0.498 0.99,-0.201 1.565,-0.217 1.565,-0.217 z"
         id="path584" />
    </g>
    <g
       transform="translate(522.44622,317.03843)"
       id="g618">
      <path
         style="fill:#a99627"
         inkscape:connector-curvature="0"
         d="m 162.935,484.521 c 0,0 0.075,1.31 0.057,3.604 -0.037,2.294 -0.115,5.579 -0.567,9.496 -0.467,3.907 -1.175,8.488 -2.775,13.191 -0.799,2.347 -1.853,4.712 -3.269,6.931 -1.391,2.211 -3.357,4.236 -5.637,5.604 -2.228,1.424 -4.539,2.699 -6.873,3.833 -1.157,0.587 -2.342,1.092 -3.497,1.619 -1.181,0.471 -2.325,0.991 -3.49,1.402 -2.308,0.878 -4.59,1.59 -6.775,2.172 -1.099,0.269 -2.156,0.574 -3.198,0.79 -1.043,0.21 -2.05,0.412 -3.018,0.606 -0.969,0.182 -1.91,0.291 -2.798,0.421 -0.891,0.119 -1.732,0.251 -2.534,0.29 -1.599,0.098 -2.984,0.274 -4.134,0.261 -2.294,0.014 -3.605,0.021 -3.605,0.021 0,0 1.307,-0.078 3.595,-0.216 1.144,-0.035 2.52,-0.271 4.102,-0.437 0.793,-0.072 1.625,-0.239 2.504,-0.396 0.877,-0.167 1.808,-0.289 2.764,-0.498 0.954,-0.218 1.947,-0.444 2.976,-0.68 1.026,-0.24 2.067,-0.571 3.147,-0.866 2.149,-0.633 4.382,-1.408 6.664,-2.28 1.148,-0.416 2.276,-0.941 3.439,-1.416 1.138,-0.532 2.305,-1.041 3.443,-1.631 2.296,-1.139 4.568,-2.423 6.745,-3.836 2.231,-1.32 4.018,-3.144 5.4,-5.273 1.378,-2.119 2.428,-4.414 3.231,-6.708 1.605,-4.596 2.491,-9.101 3.037,-12.976 0.539,-3.881 0.812,-7.145 0.93,-9.432 0.123,-2.284 0.136,-3.596 0.136,-3.596 z"
         id="path620" />
    </g>
    <g
       transform="translate(522.44622,317.03843)"
       id="g622">
      <path
         style="fill:#a99627"
         inkscape:connector-curvature="0"
         d="m 166.666,536.776 c -1.184,-1.079 -2.323,-2.202 -3.485,-3.302 l -3.416,-3.364 c -2.296,-2.207 -4.53,-4.466 -6.765,-6.727 l 0.602,0.03 c -2.737,1.833 -5.542,3.537 -8.469,5.044 -1.466,0.745 -2.959,1.442 -4.488,2.056 l -1.166,0.415 -1.188,0.349 c -0.396,0.112 -0.809,0.175 -1.209,0.262 -0.406,0.069 -0.824,0.064 -1.229,0.099 0.403,-0.086 0.808,-0.13 1.198,-0.248 0.388,-0.126 0.782,-0.221 1.161,-0.368 l 1.132,-0.45 1.106,-0.513 c 1.47,-0.693 2.905,-1.462 4.312,-2.281 2.809,-1.644 5.585,-3.368 8.277,-5.187 l 0.346,-0.234 0.257,0.264 c 2.244,2.302 4.487,4.606 6.669,6.962 2.166,2.357 4.291,4.743 6.355,7.193 z"
         id="path624" />
    </g>
    <path
       inkscape:connector-curvature="0"
       style="fill:url(#SVGID_11_);stroke:#a99627;stroke-miterlimit:10"
       stroke-miterlimit="10"
       d="M 697.65522,681.58443"
       id="path643" />
    <path
       inkscape:connector-curvature="0"
       style="opacity:0.8;fill:url(#SVGID_12_);stroke:#a99627;stroke-miterlimit:10"
       stroke-miterlimit="10"
       d="m 698.83222,681.57843 c 0,0 -0.223,-5.837 7.197,-5.627 0,0 4.433,-0.854 5.141,-2.677 0.708,-1.823 -1.425,5.258 -4.807,7.082 0,0 2.189,0.75 -7.531,1.222 z"
       id="path654" />
    <g
       transform="translate(522.44622,317.03843)"
       style="opacity:0.8"
       id="g668">
      <path
         style="fill:#f9de86"
         inkscape:connector-curvature="0"
         d="m 116.068,284.342 c 0,0 -0.274,0.006 -0.729,0.09 -0.228,0.043 -0.499,0.109 -0.8,0.217 -0.297,0.113 -0.631,0.24 -0.969,0.428 -0.348,0.169 -0.688,0.412 -1.05,0.659 -0.338,0.281 -0.708,0.56 -1.032,0.915 -0.165,0.174 -0.333,0.351 -0.502,0.529 -0.152,0.196 -0.305,0.395 -0.46,0.595 -0.332,0.381 -0.584,0.838 -0.861,1.273 -0.305,0.418 -0.5,0.91 -0.751,1.356 -0.251,0.447 -0.435,0.924 -0.637,1.373 -0.2,0.45 -0.399,0.886 -0.542,1.318 -0.153,0.428 -0.311,0.83 -0.458,1.201 -0.147,0.373 -0.243,0.727 -0.357,1.033 -0.105,0.31 -0.198,0.58 -0.274,0.802 -0.156,0.445 -0.259,0.698 -0.259,0.698 0,0 0.016,-0.27 0.069,-0.739 0.028,-0.235 0.063,-0.521 0.103,-0.848 0.046,-0.327 0.066,-0.704 0.165,-1.098 0.195,-0.788 0.353,-1.735 0.734,-2.69 0.186,-0.478 0.322,-0.995 0.587,-1.471 0.255,-0.479 0.449,-0.998 0.767,-1.457 0.308,-0.463 0.588,-0.941 0.959,-1.354 0.175,-0.212 0.346,-0.424 0.53,-0.62 0.199,-0.185 0.395,-0.366 0.588,-0.545 0.374,-0.368 0.825,-0.632 1.224,-0.896 0.424,-0.236 0.832,-0.438 1.236,-0.563 0.389,-0.153 0.777,-0.212 1.108,-0.263 0.336,-0.044 0.629,-0.054 0.869,-0.048 0.482,0.022 0.742,0.105 0.742,0.105 z"
         id="path670" />
    </g>
    <g
       transform="translate(522.44622,317.03843)"
       style="opacity:0.6"
       id="g684">
      <path
         style="fill:#f9de86"
         inkscape:connector-curvature="0"
         d="m 199.333,439.992 c 0,0 -0.33,0.18 -0.892,0.58 -0.552,0.416 -1.347,1.046 -2.251,1.957 -0.228,0.226 -0.479,0.449 -0.72,0.707 -0.231,0.269 -0.473,0.55 -0.725,0.843 -0.499,0.589 -1.072,1.188 -1.569,1.933 -0.508,0.732 -1.11,1.458 -1.627,2.312 -0.517,0.851 -1.06,1.745 -1.627,2.678 -0.549,0.941 -1.009,1.994 -1.544,3.038 -0.263,0.525 -0.531,1.06 -0.803,1.602 -0.23,0.563 -0.463,1.137 -0.7,1.718 -0.465,1.163 -0.976,2.341 -1.436,3.571 -0.41,1.251 -0.829,2.529 -1.255,3.829 -0.215,0.648 -0.432,1.302 -0.651,1.96 -0.171,0.675 -0.343,1.354 -0.516,2.038 -0.342,1.368 -0.692,2.751 -1.067,4.139 -0.202,0.689 -0.354,1.396 -0.479,2.111 -0.138,0.713 -0.276,1.428 -0.415,2.144 -0.278,1.431 -0.556,2.868 -0.835,4.306 -0.493,2.887 -0.848,5.804 -1.273,8.661 -0.399,2.86 -0.587,5.709 -0.88,8.45 -0.134,1.374 -0.266,2.725 -0.395,4.047 -0.076,1.327 -0.149,2.626 -0.221,3.89 -0.133,2.53 -0.297,4.924 -0.452,7.136 -0.102,1.105 -0.08,2.167 -0.121,3.177 -0.033,1.01 -0.064,1.968 -0.093,2.868 -0.07,1.805 -0.132,3.377 -0.183,4.672 -0.12,2.593 -0.217,4.079 -0.217,4.079 0,0 -0.156,-1.475 -0.379,-4.062 -0.103,-1.295 -0.227,-2.868 -0.369,-4.673 -0.112,-1.807 -0.33,-3.846 -0.36,-6.074 -0.035,-2.228 -0.068,-4.645 -0.064,-7.202 -0.003,-1.28 -0.006,-2.595 -0.009,-3.938 0.039,-1.343 0.153,-2.712 0.229,-4.107 0.085,-1.395 0.172,-2.813 0.259,-4.249 0.087,-1.437 0.148,-2.893 0.378,-4.348 0.399,-2.913 0.721,-5.885 1.197,-8.837 0.302,-1.467 0.604,-2.934 0.905,-4.395 0.151,-0.73 0.301,-1.459 0.451,-2.186 0.137,-0.729 0.302,-1.45 0.517,-2.159 0.389,-1.426 0.795,-2.834 1.202,-4.223 0.203,-0.694 0.405,-1.385 0.605,-2.069 0.25,-0.672 0.497,-1.339 0.742,-2 0.496,-1.319 0.982,-2.615 1.459,-3.885 0.549,-1.242 1.15,-2.434 1.7,-3.603 0.279,-0.583 0.554,-1.158 0.825,-1.724 0.319,-0.544 0.633,-1.079 0.942,-1.605 0.643,-1.037 1.202,-2.071 1.849,-2.999 0.667,-0.913 1.307,-1.788 1.916,-2.62 0.622,-0.818 1.327,-1.513 1.924,-2.204 0.589,-0.701 1.237,-1.274 1.828,-1.804 0.293,-0.266 0.576,-0.52 0.845,-0.763 0.279,-0.231 0.567,-0.43 0.828,-0.63 1.027,-0.818 1.944,-1.308 2.555,-1.645 0.626,-0.317 0.972,-0.442 0.972,-0.442 z"
         id="path686" />
    </g>
    <g
       transform="translate(522.44622,317.03843)"
       id="g696">
      <path
         style="fill:#e30613"
         inkscape:connector-curvature="0"
         d="m 202.129,445.969 c 0,0 0.22,-0.128 0.588,-0.362 0.37,-0.233 0.87,-0.606 1.45,-1.063 0.569,-0.474 1.228,-1.022 1.869,-1.68 0.339,-0.309 0.637,-0.68 0.972,-1.023 0.326,-0.352 0.625,-0.739 0.94,-1.11 0.292,-0.392 0.599,-0.772 0.878,-1.165 0.258,-0.406 0.546,-0.784 0.797,-1.171 0.232,-0.396 0.473,-0.772 0.699,-1.132 0.209,-0.37 0.407,-0.72 0.589,-1.043 0.381,-0.642 0.655,-1.203 0.859,-1.593 0.205,-0.39 0.336,-0.609 0.336,-0.609 0,0 -0.047,0.248 -0.154,0.677 -0.124,0.422 -0.23,1.058 -0.518,1.763 -0.135,0.355 -0.264,0.751 -0.448,1.147 -0.188,0.395 -0.385,0.813 -0.605,1.239 -0.238,0.414 -0.488,0.843 -0.759,1.268 -0.283,0.417 -0.593,0.826 -0.893,1.242 -0.664,0.782 -1.353,1.547 -2.1,2.157 -0.722,0.636 -1.481,1.127 -2.145,1.508 -0.667,0.38 -1.271,0.604 -1.683,0.763 -0.422,0.142 -0.672,0.187 -0.672,0.187 z"
         id="path698" />
    </g>
    <g
       transform="translate(522.44622,317.03843)"
       id="g700">
      <path
         style="fill:#e30613"
         inkscape:connector-curvature="0"
         d="m 207.117,452.072 c 0,0 0.195,-0.147 0.537,-0.405 0.343,-0.251 0.806,-0.645 1.349,-1.117 0.274,-0.233 0.557,-0.502 0.858,-0.779 0.306,-0.273 0.593,-0.599 0.917,-0.902 0.599,-0.658 1.251,-1.347 1.798,-2.116 0.299,-0.366 0.564,-0.756 0.814,-1.147 0.266,-0.382 0.49,-0.778 0.712,-1.163 0.235,-0.377 0.409,-0.769 0.595,-1.133 0.192,-0.362 0.346,-0.717 0.477,-1.05 0.127,-0.335 0.282,-0.633 0.381,-0.909 0.094,-0.279 0.176,-0.522 0.244,-0.724 0.139,-0.402 0.233,-0.634 0.233,-0.634 0,0 -0.006,0.244 -0.043,0.673 -0.039,0.429 -0.075,1.052 -0.269,1.771 -0.074,0.367 -0.172,0.76 -0.332,1.157 -0.147,0.401 -0.277,0.84 -0.502,1.251 -0.21,0.418 -0.398,0.87 -0.678,1.275 -0.256,0.421 -0.526,0.843 -0.835,1.236 -0.296,0.403 -0.63,0.774 -0.96,1.14 -0.317,0.376 -0.697,0.68 -1.028,1.008 -0.709,0.606 -1.402,1.132 -2.044,1.508 -0.628,0.396 -1.198,0.645 -1.588,0.824 -0.397,0.171 -0.636,0.236 -0.636,0.236 z"
         id="path702" />
    </g>
    <g
       transform="translate(522.44622,317.03843)"
       id="g704">
      <path
         style="fill:none"
         inkscape:connector-curvature="0"
         d="M 154.766,558.839"
         id="path706" />
    </g>
    <g
       transform="translate(522.44622,317.03843)"
       id="g708">
      <path
         style="fill:#e30613"
         inkscape:connector-curvature="0"
         d="m 154.766,558.839 c 0,0 -0.002,-0.354 -0.029,-0.961 -0.017,-0.606 -0.063,-1.466 -0.128,-2.48 -0.044,-0.505 -0.092,-1.051 -0.142,-1.629 -0.04,-0.575 -0.151,-1.173 -0.214,-1.793 -0.075,-0.618 -0.221,-1.246 -0.32,-1.887 -0.166,-0.627 -0.243,-1.286 -0.45,-1.909 -0.17,-0.633 -0.337,-1.267 -0.568,-1.867 -0.109,-0.302 -0.209,-0.606 -0.304,-0.909 -0.125,-0.289 -0.249,-0.575 -0.371,-0.856 -0.122,-0.283 -0.242,-0.562 -0.359,-0.834 -0.137,-0.263 -0.272,-0.521 -0.403,-0.771 -0.258,-0.507 -0.502,-0.992 -0.787,-1.403 -0.267,-0.432 -0.511,-0.828 -0.728,-1.179 -0.253,-0.323 -0.462,-0.623 -0.639,-0.869 -0.35,-0.496 -0.544,-0.801 -0.544,-0.801 0,0 0.301,0.173 0.818,0.512 0.257,0.172 0.575,0.379 0.926,0.638 0.335,0.271 0.686,0.612 1.069,0.989 0.188,0.19 0.402,0.379 0.593,0.597 0.177,0.229 0.36,0.467 0.548,0.711 0.188,0.247 0.38,0.502 0.578,0.762 0.187,0.267 0.33,0.567 0.501,0.859 0.166,0.296 0.334,0.597 0.504,0.902 0.144,0.316 0.281,0.641 0.414,0.972 0.297,0.65 0.487,1.346 0.685,2.039 0.213,0.691 0.295,1.408 0.428,2.102 0.085,0.7 0.137,1.394 0.16,2.061 0.019,0.668 0.009,1.313 -0.049,1.922 -0.026,0.608 -0.119,1.18 -0.204,1.703 -0.342,2.097 -0.985,3.379 -0.985,3.379 z"
         id="path710" />
    </g>
    <g
       transform="translate(522.44622,317.03843)"
       id="g712">
      <path
         style="fill:#e30613"
         inkscape:connector-curvature="0"
         d="m 162.935,538.689 c 0,0 0.186,0.196 0.481,0.553 0.297,0.356 0.705,0.862 1.093,1.574 0.206,0.347 0.432,0.729 0.6,1.15 0.175,0.42 0.411,0.853 0.542,1.333 0.14,0.478 0.346,0.96 0.443,1.476 0.118,0.512 0.238,1.032 0.305,1.562 0.073,0.528 0.137,1.058 0.151,1.583 0.045,0.521 0.006,1.04 0,1.538 -0.007,0.497 -0.076,0.979 -0.13,1.431 -0.064,0.452 -0.138,0.877 -0.238,1.265 -0.352,1.561 -0.918,2.498 -0.917,2.498 0,0 -0.091,-1.034 -0.228,-2.584 -0.068,-0.76 -0.154,-1.634 -0.248,-2.562 -0.108,-0.927 -0.218,-1.908 -0.369,-2.884 -0.049,-0.491 -0.157,-0.973 -0.223,-1.455 -0.066,-0.483 -0.165,-0.951 -0.243,-1.411 -0.077,-0.46 -0.184,-0.896 -0.258,-1.322 -0.087,-0.421 -0.17,-0.818 -0.246,-1.186 -0.09,-0.365 -0.131,-0.716 -0.209,-1.026 -0.082,-0.307 -0.135,-0.584 -0.183,-0.81 -0.089,-0.455 -0.123,-0.723 -0.123,-0.723 z"
         id="path714" />
    </g>
    <g
       transform="translate(522.44622,317.03843)"
       id="g716">
      <path
         style="fill:#e30613"
         inkscape:connector-curvature="0"
         d="m 174.424,550.465 c 0,0 -0.354,-0.391 -0.689,-0.891 -0.169,-0.249 -0.323,-0.532 -0.493,-0.863 -0.157,-0.324 -0.285,-0.676 -0.377,-1.037 -0.071,-0.363 -0.188,-0.729 -0.224,-1.09 -0.043,-0.359 -0.051,-0.709 -0.017,-1.025 0.041,-0.622 0.23,-1.112 0.23,-1.112 -0.001,0 0.438,0.248 0.854,0.734 0.222,0.237 0.433,0.534 0.624,0.867 0.182,0.337 0.374,0.693 0.46,1.095 0.096,0.396 0.157,0.801 0.176,1.186 0.028,0.375 -0.012,0.765 -0.1,1.095 -0.072,0.324 -0.165,0.589 -0.267,0.763 -0.101,0.175 -0.177,0.278 -0.177,0.278 z"
         id="path718" />
    </g>
    <g
       transform="translate(522.44622,317.03843)"
       id="g724">
      <path
         style="fill:#e30613"
         inkscape:connector-curvature="0"
         d="m 214.318,525.801 c 0,0 -0.125,-0.516 -0.172,-1.227 -0.055,-0.714 -0.058,-1.631 -0.007,-2.521 0.061,-0.884 0.122,-1.768 0.167,-2.431 0.015,-0.173 0.004,-0.32 0.016,-0.467 0.007,-0.145 0.008,-0.271 0,-0.374 -0.006,-0.213 -0.003,-0.354 -0.003,-0.354 0,0 0.104,0.071 0.274,0.229 0.086,0.079 0.191,0.18 0.272,0.312 0.086,0.13 0.209,0.281 0.28,0.457 0.08,0.174 0.184,0.369 0.237,0.579 0.058,0.209 0.143,0.436 0.17,0.668 0.083,0.466 0.113,0.968 0.083,1.459 -0.049,0.986 -0.326,1.932 -0.647,2.6 -0.308,0.675 -0.67,1.07 -0.67,1.07 z"
         id="path726" />
    </g>
  </g>
</svg>
