<svg xmlns:svg="http://www.w3.org/2000/svg" xmlns="http://www.w3.org/2000/svg" xmlns:xlink="http://www.w3.org/1999/xlink" version="1.1" id="Layer_1" x="0" y="0" width="207" height="209.01" viewBox="0 0 207 209.01" enable-background="new 0 0 841.89 595.28" xml:space="preserve"><style>.s0{fill:none;stroke-width:0.5;stroke:#fff;}.s1{fill:none;stroke:#000;}.s2{opacity:0.3;}.s3{fill:none;stroke-width:2;stroke:#303030;}</style><metadata id="metadata35862"/><defs id="defs35860"/><g id="g35528" transform="translate(-243.98901,-98.065002)"><circle stroke-miterlimit="10" cx="347.49" cy="202.57" r="98.67" id="circle35530" style="fill:#e30613;stroke-width:0.5;stroke:#fff"/><circle stroke-miterlimit="10" cx="346.49" cy="196.57" r="11.5" id="circle35532" stroke="#000"/><circle cx="346.49" cy="196.57" r="3" id="circle35534" fill="#3c3c3b"/><g id="g35536"><polygon stroke-miterlimit="10" points="282.67 137.23 280.67 137.23 274.33 143.89 287 139.56 287 137.23 " id="polygon35538" class="s0"/><polygon stroke-miterlimit="10" points="294.33 131.23 291.83 127.89 289.33 127.89 287 132.23 289.33 138.89 292.33 138.89 292.33 134.23 " id="polygon35540" class="s0"/><polygon stroke-miterlimit="10" points="298.83 130.23 297 132.56 297 134.89 300.67 134.89 300.67 130.23 " id="polygon35542" class="s0"/><polygon stroke-miterlimit="10" points="305.33 130.23 305.33 127.89 308 127.89 313.33 131.39 317 131.39 317 126.56 311.17 124.23 312.67 121.56 309.64 118.89 306.67 122.56 305.33 124.23 300.67 122.56 298.83 123.89 305.33 134.89 308 132.56 307.42 132.05 " id="polygon35544" class="s0"/><polygon stroke-miterlimit="10" points="323 126.89 325.67 124.23 328 124.23 330 121.23 330 118.89 327.67 114.89 320.67 114.89 319.34 114.89 317 118.89 318 118.89 320.34 118.89 323.5 118.89 320.67 121.56 319.34 123.73 320.67 132.56 320.67 130.23 320.67 126.89 " id="polygon35546" class="s0"/><polygon stroke-miterlimit="10" points="333.67 127.89 337 126.89 338.67 126.89 341.34 123.73 338 123.73 337 118.89 339 118.89 339.34 114.89 338.34 113.23 336 114.89 334 116.23 332 113.23 334 110.89 341.34 109.56 344.36 109.56 345.67 114.89 344.36 118.89 344.36 121.06 347.34 121.06 350.49 123.73 347.34 126.89 344.37 126.89 344.37 127.89 348.34 130.23 350.49 127.89 352.34 123.73 352.34 121.06 353.67 118.89 353.67 116.56 350.49 114.89 347.67 114.89 347.34 112.56 348.34 109.56 353.67 109.56 357 110.89 357 116.56 359.34 118.89 359.34 122.23 357.34 123.73 356.67 125.56 357.67 127.89 356.67 132.56 353 132.56 350.49 133.39 353 137.23 350.49 138.89 344.37 137.23 340.67 134.89 338.67 132.56 335 132.56 330 132.56 328 132.56 326.67 130.23 " id="polygon35548" class="s0"/><polygon stroke-miterlimit="10" points="367.34 111.89 369.67 111.89 374.67 111.89 374.67 115.39 373 118.89 373 121.06 374.67 124.89 373 127.89 370.67 132.56 368.5 132.56 362.34 132.56 359.34 132.56 362.34 127.89 362.34 123.73 361 122.23 362.34 118.89 367.34 118.89 367.34 114.89 " id="polygon35550" class="s0"/><polygon stroke-miterlimit="10" points="365.34 134.89 359.34 134.89 358 134.89 354.67 134.89 354.67 137.23 357 137.73 359.34 138.89 359.34 140.56 360.84 143.89 364.34 145.9 367 145.9 367 143.89 367 140.56 363.67 140.56 365.34 137.23 " id="polygon35552" class="s0"/><path stroke-miterlimit="10" d="m380.67 114.89-2.67 4 0 1.67 2.67 1.67-1.33 3.34-1.33 1.33-5 1 1.67 4.67 4.67 0 2.67 0 4-2.33c0 0 1.33-1.67 1.67-2.33 0.33-0.66-2-3.67-2-3.67l0-2 2.03 0-1.37-3.33-3.33-2.33-2.33-1.67zM384.67 134.89l-6 2.33-4-1.17-1.67-1.17-2 1.17M384.67 134.89l-6 2.33-4-1.17-1.67-1.17-2 1.17M384.67 134.89l-6 2.33-4-1.17-1.67-1.17-2 1.17M384.67 134.89l-6 2.33-4-1.17-1.67-1.17-2 1.17M384.67 134.89l-6 2.33-4-1.17-1.67-1.17-2 1.17M384.67 134.89l-6 2.33-4-1.17-1.67-1.17-2 1.17M384.67 134.89l-6 2.33-4-1.17-1.67-1.17-2 1.17M384.67 134.89l-6 2.33-4-1.17-1.67-1.17-2 1.17c0 0 0 1.5 0 2.83 0 1.34 0 5 0 5l-1.33 2 0 2.33-2.67 1 7.67 5 1.17-5.33 0-3 4.52-2-1.35-3.33-4.33 1.67 0-3.33 2.67 0 3.02 0 2.32 0 2-4zM398.34 122.23l-4.33 4.67 0 1 0 2.33-2.33 0c0 0-3.44 1-2.39 2.33 1.06 1.34 0 4.67 0 4.67l-1.58 3.33-1.7 0 0 4-1.33 1.33-4.32 0 0 2.33 4.32 4.67-2.33 6 2.33 0 3.03-6.33 1.64-4 0-4 2.32-4 1.67-3.33 3.33 0-0.67 3.33-0.33 4 2.67-4 2.33-3.33 4.67-3.83 0-3.17-4.67 0 0-3.33-2.33-4.67z" id="path35554" class="s0"/><polygon stroke-miterlimit="10" points="379 151.9 380.35 151.9 380.35 155.4 380.35 160.56 379 158.9 375.84 157.23 377.42 154.23 " id="polygon35560" class="s0"/><polygon stroke-miterlimit="10" points="411 140.56 407.34 140.39 405.34 143.89 402.83 142.23 402.83 140.39 405.34 137.23 407.67 134.89 409.58 132.56 411 132.56 413 133.39 416.34 137.23 413 140.39 " id="polygon35562" class="s0"/><polygon stroke-miterlimit="10" points="402.83 147.9 401 150.23 398.34 151.9 396.67 151.9 395 148.9 399 145.9 400.34 143.89 402.83 142.23 404 145.9 407 145.9 409.58 145.9 409.58 147.9 406.67 147.9 " id="polygon35564" class="s0"/><path stroke-miterlimit="10" d="m390.67 154.23-2.97 2 0 2.67 0 1.67-3.03 1.33c0 0-2 1.33 0 2.33 2 1 4.61 3.33 4.61 3.33l1.39-3.33c0 0 1.69-0.67 2.18-0.67 0.49 0 2.49-0.33 3.49-1 1-0.67 3-2 3-2l2.96-4.33-5.62 2.67-3.82 1.67-1.51 0 0-1.67 0-2.67-0.67-2zM408 151.9l-2.67 2.33-2.51-1.17 0-2.5M408 151.9l-2.67 2.33-2.51-1.17 0-2.5M408 151.9l-2.67 2.33-2.51-1.17 0-2.5M408 151.9l-2.67 2.33-2.51-1.17 0-2.5M408 151.9l-2.67 2.33-2.51-1.17 0-2.5M408 151.9l-2.67 2.33-2.51-1.17 0-2.5M408 151.9l-2.67 2.33-2.51-1.17 0-2.5M408 151.9l-2.67 2.33-2.51-1.17 0-2.5c0 0-1.58 2.67 2.59 0 4.17-2.67 2.59-2.67 2.59-2.67l1.58 0 1.42-2 0-2c0 0 2.33 0 3.33 0 1 0 2 0 2 0l3 0-11.33 8zM424.34 151.9l-5 0-3 0 0-1.33c0 0-3.33 0.33-3 1.33 0.33 1 0.62 1.67-0.02 2.33-0.64 0.67 0 2 0 2l1.36 2.67c0 0 1.33 1.34 1.67 2 0.33 0.67 2.35 0 2.35 0l0.65-3 1.33-2.02 2-1.65 1.67-2.33zM410.94 158.9l-3.27 2.3-2.33 1.7c-2 1.33-5.67 0-5.67 0l0 6.67 2.62 1.67 0 1.67-5.29 0c0 0-2.33 1.33-2 0 0.33-1.33 0-3.33 0-3.33l0-3.37 1.33-3.63 5.96-3.67 3.05-3.02 4.25 0 1.35 3.02zM394.97 175.56c0 0-0.57-1-1.93 0-1.37 1-5.33 0-5.33 0l0-2.07c0 0-2.3-1.59 0-2.59 2.3-1 2.3-1 2.3-1l0.82 0 2.21 3.06 1.93 2.61z" id="path35566" class="s0"/><polygon stroke-miterlimit="10" points="427.12 149.06 424.34 149.06 422.67 149.06 424.34 151.9 424.34 155.88 429.9 154.23 429.9 151.9 " id="polygon35576" class="s0"/><path stroke-miterlimit="10" d="m395 179.9 0.4 1.03 1.27 3.31-1.67 0-1.97-2.17 1.82-3.83 3.82-2.22 3.62-3.11 4.38 0 1.33-3 5.02-5.21 1.98 2.88 1.33 2.33 3 2 2 4.11-2 1.56-3-1.56-1.33 0-1.98 1.56-3.44-0.33 0 2.33c0 0 1.91 1 0 1.33-1.91 0.33-6.63 0-6.63 0l-2.61-2-5.33 1z" id="path35578" class="s0"/><polygon stroke-miterlimit="10" points="418.68 164.68 420.67 164.68 424.34 161.19 426.29 160.9 429.9 164.68 429.9 167.56 428.67 167.56 426.29 167.56 422.67 167.56 421.34 169.9 419.34 168.73 " id="polygon35580" class="s0"/><path stroke-miterlimit="10" d="m432.67 188.23 5.87 0 1.46-2 0-3.67-1.46-4.33-2.21-3.77-2-4.56 2-2.33-6.43 5.39-3.62 3.06-4.95 0 0 4.22-2.65 1.67c0 0 0.01 3.33 0 4.33-0.01 1 1.65 1.33 2.65 2 1 0.67 2.96 0 2.96 0 0 0 1.28 0.59 1.99 0.3 0.72-0.3 0-1.96 0-1.96l-1.95-2.33 0-2.33 1.95-2.33 3.06-1.48 2.99 0 1.67 3.48 0 2.67-1.33 4zM412 184.23l4.33 2.33 0 2.05-2.17 2.29-2.17 0-2.42 3-2.4 0 0 4-1.85 0M412 184.23l4.33 2.33 0 2.05-2.17 2.29-2.17 0-2.42 3-2.4 0 0 4-1.85 0M412 184.23l4.33 2.33 0 2.05-2.17 2.29-2.17 0-2.42 3-2.4 0 0 4-1.85 0M412 184.23l4.33 2.33 0 2.05-2.17 2.29-2.17 0-2.42 3-2.4 0 0 4-1.85 0M412 184.23l4.33 2.33 0 2.05-2.17 2.29-2.17 0-2.42 3-2.4 0 0 4-1.85 0M412 184.23l4.33 2.33 0 2.05-2.17 2.29-2.17 0-2.42 3-2.4 0 0 4-1.85 0M412 184.23l4.33 2.33 0 2.05-2.17 2.29-2.17 0-2.42 3-2.4 0 0 4-1.85 0M412 184.23l4.33 2.33 0 2.05-2.17 2.29-2.17 0-2.42 3-2.4 0 0 4-1.85 0c0 0-2.94 1.33-2.8 0 0.14-1.33-1.86-2.67-1.86-2.67l-3-1c0 0-2.33-3.07-1.33-2.87 1 0.2 1.33 1.13 2.67 0 1.33-1.13 2.06-3.04 3.53-2.75 1.47 0.29 2.8-1.38 2.8-1.38 0 0 0.37-1.33 1.85-1 1.48 0.33 3.75 0 3.75 0l1.07-2zM444.08 194.14l-4.08 0 0 4.34-2.29-3.34 0-2.25-1.88-1.54-3 0-3.49 1.54-3.06-0.5-3.62 0.25c0 0-2.58 0.25-3.33 1-0.75 0.75-3 2.25-3 2.25l-5.4 2.59-3.75 2.91c0 0 1.9 1.93 2.4 1.84 0.5-0.09 3.44-2.59 3.44-2.59l3.31-0.5 0 2c0 0-3.12 2-3.31 2.5-0.19 0.5-3.44 2-3.44 2 0 0-1.29 1.5-2.4 2.25-1.1 0.75-4.62 1-4.23 1.75 0.38 0.75 0.38 0.75 0.38 0.75 0 0 3.45 0.75 3.85 1 0.4 0.25 2.85 2 3.75 0 0.9-2 2.09-4 2.09-4l2.06-0.75 1.25-1.25c0 0 1.25 1 1.25 1.75 0 0.75-2.75 3.25-2.75 3.25 0 0-0.75 0.65-0.75 1.95 0 1.3 0.25 1.8 1.25 2.3 1 0.5 1.25-0.5 2.25 0 1 0.5 3.25 0.29 3.75 0.14 0.5-0.14 1.33-1.64 1.33-1.64 0 0 0.33-3 1.62-2.75 1.29 0.25 1.29 0.25 1.29 0.25l-1.29 4.31 0 1.44 1.99 0 2.05 0 3 0 2.75 1.5 1.5-2.5 4.42-1c0.33-2.75-1.08-4.5 0-4.5 1.08 0 0.33 3.5 1.08 0 0.75-3.5 0.5-4.28 0.75-5.77 0.25-1.48 0-3.48-0.75-2.98-0.75 0.5-2.09-0.57-2.54 1.09-0.46 1.66-1.21 1.91-2.21 2.91-1 1-1 1-1 1l-3.25 1c0 0-1.75-1 0.25-1.75 2-0.75 3-3.16 3-3.16l1.25 0 1.96-1.59 2.79-1.5 1.5-1.66 1.25-2.84 0-1.5zM404.08 205.13l1.25 1.52-1.25 1-1.79 1.25c0 0-2.71-2-2.71 0 0 2 0 2.75 0 2.75l-3.5-1.25-3.05-2.01c0 0-1.3-1.24 0-1.24 1.3 0 1.97-2.02 1.97-2.02 0 0 2.08-2.05 2.83-1.89 0.75 0.16 0.75 0.16 0.75 0.16l0.31-3.5c0 0 0.94 0.25 1.94 0 1-0.25 1-0.25 1-0.25l1.12 1.5 0 2.09 0 0.91 1.13 0.98z" id="path35582" class="s0"/><polygon stroke-miterlimit="10" points="394.97 200.64 396.09 198.49 394.97 195.39 393.04 196.64 394 199.64 " id="polygon35590" class="s0"/><path stroke-miterlimit="10" d="m437.72 223.14-3.63-1.25-2.5 1.25-2.24 2.25-3.06 2.5-1.95 2.5 4 1.25c0 0-0.11-0.25 1.57 0 1.68 0.25 2.93 0 2.93 0l2 0.11 1-3.11 0.75-1.82c0 0 1.01 1.68 1.13 0 0.12-1.68 0-3.68 0-3.68zM424.29 226.82l-1.62 1.32-2.33 0-1.65 0-2.35-0.66M424.29 226.82l-1.62 1.32-2.33 0-1.65 0-2.35-0.66M424.29 226.82l-1.62 1.32-2.33 0-1.65 0-2.35-0.66M424.29 226.82l-1.62 1.32-2.33 0-1.65 0-2.35-0.66M424.29 226.82l-1.62 1.32-2.33 0-1.65 0-2.35-0.66M424.29 226.82l-1.62 1.32-2.33 0-1.65 0-2.35-0.66M424.29 226.82l-1.62 1.32-2.33 0-1.65 0-2.35-0.66M424.29 226.82l-1.62 1.32-2.33 0-1.65 0-2.35-0.66c0 0-1.25 0.77-1.25-0.66 0-1.43 0-1.43 0-1.43l-2.06 0c0 0-2.74-1-2.09-1.75 0.65-0.75-1.65-2 0-2.75 1.65-0.75 0.4 0.25 1.65-0.75 1.25-1 2.25-1.25 2.25-1.25 0 0-0.5-1.5 0.5-1.5 1 0 1 0 1 0 0 0 1.44 1 2.35 1.5 0.9 0.5-1.1-0.75 0.9 0.5 2 1.25 3.08 2.5 3.08 2.5l0 2.5 0.84 2.43 0.79 0zM405.34 221.89c-0.5-1.5 0-3 0-3l-1-1.5-2.04-1.25-1.46 0-1.94 1.25-1.31-1.25-1.5-1-1.52-1-1.52 0-0.58 0-3.18 0-0.05 1.5 0 2.38c2.86 1.63 1.26-0.37 3.81 0.88 2.55 1.25 2.55 1.25 2.55 1.25 0 0 2.15 0.75 1.7 1.75-0.45 1-1.19 2.25-1.19 2.25 0 0-3.25 0.25-3.63 1-0.37 0.75-0.12-0.75-0.37 0.75-0.25 1.5-1.5 0.5-0.25 1.5 1.25 1-1.5 0.5 1.25 1 2.75 0.5 1 0.75 2.75 0.5 1.75-0.25 1.75-0.25 1.75-0.25l0 0-0.3 2.25c0 0 2.05 0.22 3.3 0.86 1.25 0.64 0.98-0.64 2.37 0 1.38 0.64 3.39-1.27 3.26 0.19-0.13 1.46-0.38-1.05-0.13 1.45 0.25 2.5-0.5 0.25 0.25 2.5 0.75 2.25-2 2 0.75 2.25 2.75 0.25 0.25 0.25 2.75 0.25 2.5 0 1.25 1 2.5 0 1.25-1 1.25-1 1.25-1 0 0 1.75 1.25 0-1.25-1.75-2.5-1.3-2-2.65-2.75-1.35-0.75-3.75-2.5-3.75-2.5 0 0 1.15-1 1.4-2.75 0.25-1.75 1-3.25 1-3.25l-3.37-2.12-0.88-0.87zM384.67 222.77l0 1.38 2.01 0c0 0 0.41-0.5 1.16-1.37 0.75-0.87 0.75-0.87 0.75-0.87l0.64-1.25c0 0 0-0.87 0-1.75 0-0.87-2.28 0-2.28 0l-2.28 1.25 0 2.63zM423.5 231.76l-2.17 0-2.65 0c0 0-2.35-1.64-2.35 0 0 1.64 0 1.39 0 2.64 0 1.25-1.75 0 0 1.25 1.75 1.25 3.2 2 3.2 2l1.81 0 0 2.25 0 4 1.33 1.5 0.84 1 2.78-1.75 2.05-2.25 1.57-2.5 1.15-3c0 0-0.33-0.75-1.15-1.25-0.82-0.5-3.62-1.5-3.62-1.5l-2.78-2.39zM423.31 250.89l-1.97 3.25c0 0-1.25 1-2 1.5-0.75 0.5-1.3 0.75-2.03 1.25-0.72 0.5-1.75 0-1.75 0 0 0-0.17-0.05-1.19 0.22-1.03 0.28-1.53 0.97-2.28 0-0.75-0.97-2.75-1.75-2.5-2.86 0.25-1.11-0.5-1.61 0-2.36 0.5-0.75 0.49-0.5 0.74-2.25 0.26-1.75 0.26-1.75 0.26-1.75l-1.18-1.5c0 0-1.87-0.5-2.22-1-0.35-0.5-1.85-1.75-1.85-1.75l-1.25-1.25-2.29-1.75c0 0-0.23-2.61 1.16-1.81 1.38 0.81-0.37 1.06 1.38 0.81 1.75-0.25 1.7-1.61 2.85-0.81 1.15 0.81 2.38 1.06 3.14 1.31 0.76 0.25 1.89 1 2.7 1.75 0.81 0.75 1 2 2.53 2.75 1.53 0.75 2.72 0.75 3.13 1.75 0.4 1 2.65 1.71 2.65 1.71l1.33 1.54 0.64 1.25zM400.33 242.39l0-1-1.44-2.56-2.81-0.25-1.52 1.06 1.53 1.97c0 0 0.48 3.78 1.36 3.03 0.89-0.75 2.89-2.25 2.89-2.25zM396.09 234.89l-1.08 0-4.18 1-1.6 0c0 0-1.67 0.25-2.28-1-0.61-1.25-0.61-1.25-0.61-1.25 0 0-1.33-1.78-1.67-1.89-0.33-0.11-0.89-0.73-0.89-0.73l-2.19-1.13c0-1.5 0-1.5 0-1.5l2.19-1.57c0 0-1.03 0.27 0.89-0.33 1.92-0.6 1.92-0.6 1.92-0.6 0 0 2 1.75 2.25 2.25 0.25 0.5-1.25-1.5 0.25 0.5 1.5 2 1.5 2 1.5 2 0 0 1.25 0.52 1.88 0.26 0.63-0.26-1.12-1.26 0.63-0.26 1.75 1 0.25 0.25 1.75 1 1.5 0.75 0 0 1.5 0.75 1.5 0.75 0 0 1.5 0.75 1.5 0.75 1.5 0.75 1.5 0.75l-0.44 1-1.45 1.02-1.36-1.02zM406.21 252.14c0 0-3.64-1-3.26 0 0.38 1-1.17 3-1.17 3 0 0-0.7 1-1.45 1.25-0.75 0.25-2.89 0-2.89 0l-1.36-2.29c0 0 1.23-2.1 1.36-2.4 0.14-0.3 0-1.56 0-1.56l-2.44 0-1.97-2.04c0 0-0.3-0.71 0-1.71 0.3-1 0.3-1 0.3-1 0 0-0.5-1-0.87-1.75-0.37-0.75-1.63-1.98-1.63-1.98l-0.36-1.27-3.51-1.56-1.36 0-0.92 2.83c0 0 0.06-0.52-0.89-1.27-0.95-0.75-2.19-1.81-2.19-1.81 0 0-0.21-0.44-1.23-1.19-1.02-0.75-2.26-1.48-2.26-1.48l-2.26-0.77 1.25 3.44 1.01 2.06c0 0-0.01 1.04 0.99 1.02 1-0.02 2.5 1.48 2.5 1.48 0 0 0.5 2.36 1.25 2.68 0.75 0.32 0.17 0.49 1.83 2.28 1.67 1.79-0.08-0.96 1.67 1.79 1.75 2.75 2.54 3.25 2.89 3.75 0.36 0.5-1.14-0.75 0.36 0.5 1.5 1.25 1-0.03 2.88 2.36 1.88 2.39 3.63 3.64 3.63 3.64 0 0 0.48 0.75 1.36 1.25 0.89 0.5 0.89 1 1.89 1 1 0 1.74 0 3.49 0 1.76 0 1.76-0.25 3.38 0 1.62 0.25 2.37-0.5 3.37 0 1 0.5-1.5 0.5 1 0.5 2.5 0 4.97 0 4.97 0l0-2.75c0 0-1.81-0.75-3.01-0.75-1.21 0-2.96-0.25-2.96-0.25 0 0 1.5-0.55 0-1.53-1.5-0.97-0.25 1.03-1.5-0.97-1.25-2-1.25-2-1.25-2l-0.62-2.5z" id="path35592" class="s0"/><polygon stroke-miterlimit="10" points="380.35 235.14 381.58 235.14 383.78 235.14 383.78 233.02 381.58 233.02 379.33 230.9 378.09 230.9 378.09 232.64 379.33 232.64 " id="polygon35610" class="s0"/><path stroke-miterlimit="10" d="m410.94 266.39-1.35-1.5-2.4 0-1.85 0.75 0 2.75c1.5 0.5-1 1 1.5 0.5 2.5-0.5 2.5-0.5 2.5-0.5l1.6-2zM401.8 269.1l0 3.29-2.46 0-1.89 0M401.8 269.1l0 3.29-2.46 0-1.89 0M401.8 269.1l0 3.29-2.46 0-1.89 0M401.8 269.1l0 3.29-2.46 0-1.89 0M401.8 269.1l0 3.29-2.46 0-1.89 0M401.8 269.1l0 3.29-2.46 0-1.89 0M401.8 269.1l0 3.29-2.46 0-1.89 0M401.8 269.1l0 3.29-2.46 0-1.89 0c0 0-0.14 0.25 0 1 0.14 0.75-1.36 2.5-1.36 2.5l-1.08 1.25c0 0-1.52 1.25-1.97 0-0.45-1.25-1.22-2.74-2.21-3.74-0.99-1.01-0.99-1.01-0.99-1.01 0 0-3.52-0.25-2.89-1.5 0.64-1.25 0-2.75 0-2.75 0 0-0.72-1.54 2.33-1.15 3.06 0.4 1.31 0.4 3.06 0.4 1.75 0 2.25-0.29 3.75-0.4 1.5-0.1 1.5-0.1 1.5-0.1l2.75 0 1.46 2.21zM394.97 262.89c0 0-0.98-0.5-1.93 0-0.95 0.5-0.7-1.5-2.58 0-1.87 1.5-3.15 1.5-3.51 2-0.36 0.5-1.69 2.75-2.28 1-0.58-1.75-0.58-1.75-0.58-1.75l2.86-1.25c0 0 1.05 0 2.28 0 1.23 0 1.23-2.75 1.23-2.75 0 0-2.23-0.01 0.37-1.25 2.6-1.24 2.6-1.24 2.6-1.24 0 0-2.54 2.72-0.39 2.24 2.16-0.48 3.05 0.25 3.05 0.25l0 1.96-1.12 0.79zM386.68 260.14c-1.09 0.75-2.1-0.75-2.59 0-0.5 0.75-2.5 0.22-2.5 0.22l-1.23-2.71c0 0-0.77 1.44-1.02-0.03-0.25-1.47-1.24-2.72-1.24-2.72 0 0 1.78-0.5 2.26-1 0.48-0.5 1.48-1.25 1.23-2-0.25-0.75 0.04-1.25-1.23-1.25-1.27 0-4.52 0-4.52 0 0 0-0.25-0.5 0-1.62 0.25-1.12-0.11-2.62-0.11-2.62 0 0-1.39-2.3 0.11-1.65 1.5 0.65 2-1.65 3.5 0 1.5 1.65 1-0.1 2.25 1.65 1.25 1.75 0.75 0.5 1.25 1.75 0.5 1.25-0.25 3.39 1.25 4.2 1.5 0.8 2.86 2.06 2.86 2.06 1.14 2 1.14 3.26 1.14 3.26l0 1.74-1.4 0.75zM371.33 235.14c0 0-1.25 1.25-1.25 2 0 0.75-1.5 0.64 0 1.69 1.5 1.06 1-1.06 2.5 0 1.5 1.06-0.25-0.19 1.5 1.06 1.75 1.25 4.01 2.75 4.01 2.75l0-2-2.26-2.06-0.7-2.67-1.38-0.77-2.42 0zM380.35 282.39c0 0 0.29 0.25 1.26 0 0.97-0.25 1.22 0.75 2.47 0 1.25-0.75 1.73-0.5 2.86-1.5 1.14-1 1.14-3.19 1.14-3.19 0 0-1.18-1.06-1.21-2.31-0.04-1.25-2.12-2.69-2.2-3.1-0.08-0.4-0.89 0-0.89 0l-2.17-0.18-2.03 0-1.49-3.02c-0.51-1.71-2.26-2.55-2.26-2.55l-2.08 0c0 0 0.17 0.59 0 1.34-0.17 0.75-1.08 0.75 0 2.25 1.08 1.5 1.83 3.69 2.08 4.47 0.25 0.78 2.26 4.78 2.26 4.78l0 1 0 1.25 2.26 0.75zM375.14 253.39l-1.9 1.25c0 0-1.1 1.76 0 3.01 1.1 1.24 1.85 0.99 2.6 1.74 0.71 0.72 2.58-0.11 2.31 0.98-0.01 0.05-0.03 0.11-0.06 0.17-0.51 1.35 0.01 2.35 0 3.35-0.01 1-1.08 2.31 0.08 2.66 1.16 0.34-0.84-1.41 1.16 0.34 2 1.75 0 0.5 2 1.75 2 1.25 2.25 0.91 2.75 0.46 0.5-0.46 1.17-1.46 0.58-3.21-0.58-1.75-1.78-1.75-3.06-3-1.28-1.25-2.28-5.28-2.28-5.28l-4.19-4.22zM369.42 256.39c0 0-0.42 1 0 2.5 0.42 1.5 0.92 2.12 1.67 2.56 0.75 0.44 0.75 0.44 0.75 0.44 0 0 0.83-0.95 0.91-1.35 0.09-0.4-0.49 0.09 0-1.4 0.49-1.49-0.18-0.3-1.75-1.53-1.58-1.22-1.58-1.22-1.58-1.22zM373.76 249.02c0 0 0.63 1.13-0.52 1.88-1.15 0.75-4 1.45-4 1.45l-2.23-1.66 0-1.66c0 0-1.17 0.54-1.17-0.92 0-1.46-1.25-3.26-1-3.36 0.25-0.1 0.25-0.1 0.25-0.1 0 0-3.07-0.02-0.28-0.51 2.78-0.49 2.78-0.49 2.78-0.49 0 0 0.55 0.7 1.65 1.1 1.1 0.4-0.65-0.6 1.1 0.4 1.75 1 0.5-0.25 1.75 1 1.25 1.25 1.67 2.88 1.67 2.88zM371.07 241.66l-4.07 0 0-1.27 0-0.75c0 0 0-1.5 0-0.75 0 0.75-1.33-0.75 0-0.75 1.33 0 1.33 0 1.33 0l1.08 1.76 1.65 1.76zM375.14 282.68l-2.39 0-3.33 1.22-0.19 2 0 1.25c0 0 1.82-0.5 1.84 0 0.02 0.5 0.47 0.5 1.12 0 0.65-0.5 1.57-0.75 1.57-0.75l2.08-1.29 0-1.2-0.7-1.22zM372.9 276.39c0 0-0.42 0.36-0.37 1.31 0.05 0.95 0.05 0.94 0.05 0.94l-3.17 1.75c0 0-1.5-0.5-2.42 0-0.92 0.5-2.17 0-2.17 0 0 0-1.4-1.03-1.2-1.89 0.2-0.86-1.05-3.89-1.05-3.89 0 0 0-2.17 0-2.32 0-0.15-1.75-2.78-1.75-2.78l1.25-2.96c0 0 1.75 0.09 2.75 0.34 1 0.25-0.25-1 1 0.25 1.25 1.25-0.41 1.74 1.17 2.37 1.58 0.63 1.25 0.88 2.42 1.63 1.17 0.75-0.58-0.5 1.17 0.75 1.75 1.25 2.65 2.72 2.65 2.72l-0.33 1.78zM367 262.89c0 0-0.77 1.5-0.59 2 0.17 0.5-1.58 0.25 0.17 0.5 1.75 0.25 2.83 0 2.83 0 0 0-0.17-1.75 0-2.5 0.17-0.75-0.68-2.35-0.68-2.35l-1.12 0c0 0-1.38-1.89-1.21-2.89 0.17-1.01 0-2.51 0-2.51l-0.61-1.75c0 0 1.47-0.75 0-2-1.47-1.25 0.03-0.75-1.47-1.25-1.5-0.5-2.5-2-2.5 0 0 2 0 3.25 0 3.25 0 0-0.75-1.75-1 0-0.25 1.75-0.25-0.25-0.25 1.75 0 2-0.75 0.25 0 2 0.75 1.75-1.5 0.5 0.75 1.75 2.25 1.25 0.5 1 2.25 1.25 1.75 0.25 1.75 0.25 1.75 0.25l1.08 1.06 0.59 1.44zM360.84 239.9c0 0-2-1.49-1.75 0 0.25 1.49 0.25 0.24 0.25 1.49 0 1.25-0.75-0.75 0 1.25 0.75 2-0.5 0.5 0.75 2 1.25 1.5 1.25 1.5 1.25 1.5 0 0-1 0.2 0-1.4 1-1.6 0-3.08 0-3.08l0.45-1.76-0.94 0zM357.83 248.1c0 0 0 0.74-1.25-0.11-1.25-0.85-1.25-0.85-1.25-0.85l-0.67-2.4c0 0-1.58-0.6-3.08-1.1-1.5-0.5 2-0.25-1.5-0.5-3.5-0.25-5.72-0.45-5.72-0.45l-1.28 0.95c0 0 0.5 0.25-1.5 0-2-0.25-2-0.25-2-0.25l-1.5-0.7c0 0-0.75 0.43-1 1.44-0.25 1.01 1 1.03 0 2.02-1 0.99-2 1.84-2 1.84 0 0-2-0.6-1.5 1.03 0.5 1.63-0.08 3.32-0.08 3.32 0 0 0.83-0.19 1.58 1.06 0.75 1.25-1.75 1.25 0.75 1.25 2.5 0 3 0.25 3.75 0 0.75-0.25 6.09 0.11 6.09 0.11l0 1.64c0 0 1.16-0.9 1.91 0.93 0.75 1.83 0.75 1.83 0.75 1.83 0 0 1.31-0.5 2.15 0 0.84 0.5-0.65 1.5 0.85 0.5 1.5-1 2.17-0.65 3.33-2.33 1.17-1.67 1.17-1.67 1.17-1.67l0 0c0 0 1.25-1.75 2-2.25 0.75-0.5 0.75-0.5 0.75-0.5 0 0 0.33-0.52 0.42-1.51 0.08-0.99 0.08-0.99 0.08-0.99l-1.25-2.29zM361.78 264.89c0 0 0.69-1.5 0-2-0.69-0.5 0.81 0.5-0.69-0.5-1.5-1-0.92-1.95-2.08-1.85-1.17 0.1-2.17-0.01-2.17-0.01 0 0-0.25-1.09-1 0.01-0.75 1.1-0.83 1.26-1.17 1.93-0.33 0.67-0.83 2.42-0.83 2.42 0 0 1 0.81 0 1.66-1 0.84-0.25-0.41-1 0.84-0.75 1.25-4 0-0.75 1.25 3.25 1.25 0.75 2.75 3.25 1.25 2.5-1.5 2.5-1.5 2.5-1.5 0 0 0.58-1.44 1.17-1.84 0.58-0.41 0.58-0.41 0.58-0.41l0 0 0.81-0.86 1.39-0.39zM359 285.1c0 0 2.17 2.05 0 2.42-2.17 0.38 0.08 0.38-2.17 0.38-2.25 0-2 0-4.25 0-2.25 0-1 0-2.25 0-1.25 0-4.04-0.37-4.04-0.37l0-1.02-2.96-1.4-1.75 0c0 0 0.25-0.55-1.25 0-1.5 0.55-2.5 1.28-2.5 1.28l0-1.28c0 0-3.25 1.47-1.25-0.24 2-1.71 3-2.18 3-2.18l0.25-2.06c0 0 0-0.28-1 0-1 0.28-3.05-1.03-2.9 0 0.15 1.03-0.85 1.6-1.1 2.06-0.25 0.47 1.25 0.22-0.25 0.47-1.5 0.25-3.25 2.57-3.75 0.91-0.5-1.66-1.25-3.44-1.25-3.44 4.25-2.72 4.25-2.72 4.25-2.72 0 0 2.5-2.25 3.25-2.25 0.75 0 5-1.03 5-1.03 0 0 0.06-0.78 2.28 0 2.22 0.78 4.22 3.14 4.47 3.09 0.25-0.06 1.66 0 1.66 0 0 0-0.65 0.19 1.85 1.69 2.5 1.5 2.5 1.5 2.5 1.5 0 0 0.34 1.82 1.54 1.78 1.21-0.03 2.62 1.47 2.62 1.47l0 0.95zM349.58 272.3c0 0-0.25 0.98-1.75 1.29-1.5 0.31-3.06 0-3.06 0l0-1.29c0 0 1.62-2.4-0.41-1.77-2.03 0.62-2.03 0.62-2.03 0.62 0 0-1.75 2.85-2.75 0.93-1-1.93-1.75-2.97-1.75-2.97 0 0 0.5-1.75 1-2.1 0.5-0.35 1-1.49 1-1.49l1.25-0.61-0.25-2-3 0c0 0-1.25 1.25-1.5 0-0.25-1.25-0.25-1.25-0.25-1.25l0-2.5c0 0-1.75-1.74-1-1.49 0.75 0.24-0.5 0.34 1.5-0.33 2-0.67 2-1.17 3-0.92 1 0.25 1.56-0.75 2.66 0 1.09 0.75 1.72-0.24 2.53 1.26 0.81 1.49-1.19-0.01 0.81 1.49 2 1.5 1.25 0.25 2 1.5 0.75 1.25 1.25-1 0.75 1.25-0.5 2.25-0.5 3.61-0.5 3.61l1.75 1.05c0 0-0.75 2.26 0 2.55 0.75 0.29 1.5-2.61 0.75 0.29-0.75 2.9 0.31 2.9 0.31 2.9l-1.06 0zM329.58 270.52c0 0-1.25-0.21-1.25-1.42 0-1.21 0-3.6 0-3.6 0 0 0.25-2.36 1.25-2.61 1-0.25-0.25 0.25 1-0.25 1.25-0.5-0.25-0.25 1.25-0.5 1.5-0.25 1.5-0.25 1.5-0.25 0 0 1.63 1.25 1.56 2-0.06 0.75-0.56-0.75-0.06 0.75 0.5 1.5 0.5 1.5 0.5 1.5 0 0-1.5-2.54 0 0.85 1.5 3.4 2 5.3 2 5.3-1.25 1.6-1.25 1.6-1.25 1.6l-2.58-0.31-2.17-1.29-0.75-1.77-1 0zM323.08 279.39c0 0-1.5 0.25-2.25 0-0.75-0.25-2.5-1.39-3-1.69-0.5-0.3-0.25 1.19-0.5-0.31-0.25-1.5-1-3 0-3.13 1-0.12-0.51 0.26 2.62-0.68 3.13-0.94 3.13-0.94 3.13-0.94 0 0 0.25-0.25 1.75 0 1.5 0.25 2.5 0.94 2.5 0.94 0 0 0.75 1.31 1 2.44 0.25 1.13 0 3.49 0 3.49 0 0-0.5-0.39-1.25 0-0.75 0.39-3 0-3 0l-1-0.11zM320.83 267c0 0-1 1.31 0 2.1 1 0.79-1.5 3.2-1.5 3.2l-2.5 0c0 0 0.25-0.15 0-1.77-0.24-1.63 1.25-0.38-0.24-1.63-1.5-1.25-3.25-1.5-3.25-1 0 0.5 0 2.63 0 2.63l-2.42 0c0 0 0.28 1.63-1.27-0.87-1.56-2.5-2.56-3.1-2.56-3.1 0 0 2.25 0.57 0-1.04-2.25-1.61-3.5-2.61-3.5-2.61 0 0-1.5-0.63-1-1.44 0.5-0.81 1.5-2.06 2.25-2.31 0.75-0.25-1-1.49 1.5-1.49 2.5-0.01 0 0.24 2.5-0.01 2.5-0.25 2.75 0.85 4.25-0.32 1.5-1.17-1-0.42 1.5-1.17 2.5-0.75 2.5-0.75 2.5-0.75 0 0 2-0.5 2.5 0 0.5 0.5 1.47 1.1 1.49 1.93 0.01 0.83 0 1.83 0 1.83 0 0-0.25 0.3 0.01 1.4 0.26 1.1 0.76-0.4 0.26 1.1-0.5 1.5-0.5 1.5-0.5 1.5l0 3.85zM329.58 252.34c0 0 1.25 2.36 0 2.83-1.25 0.47-1.5 0.4-2.5 0.94-1 0.53-2 0.28-2.75 0.28-0.75 0 0.25 1.5-0.75 0-1-1.5-2.07-2.25-2.03-3 0.04-0.75-0.11-1.75 1.09-3.25 1.2-1.5 0.95-0.8 1.7-2.15 0.75-1.35 1.51-3.25 1.51-3.25l1.49-2.05c0 0 0.22 0.49 1.11-1.03 0.89-1.52 0.5-3.14 1.7-3.08 1.19 0.06 1.19 0.06 1.19 0.06 0 0 2 0.52 1.5 1.26-0.5 0.74-0.5 0.74-0.5 0.74 0 0-1.5-0.5 0 0 1.5 0.5 1.5-1 1.5 0.5 0 1.5 0.25-0.75 0 1.5-0.25 2.25 0.75 1-0.25 2.25-1 1.25-1.75 0.25-1.75 1.5 0 1.25-3 1.75-2.25 2.63 0.75 0.88 0.75 0.88 0.75 0.88l-0.75 2.44zM327.79 238.59c0 0 0.29 1.06-1.21-0.44-1.5-1.5-1.5-1.5-1.5-1.5 0 0-2.89-0.75-2.45 0 0.45 0.75-1.12 1.25-1.09 2.25 0.04 1 1.54 0 0.04 1-1.5 1-1.5-0.25-1.5 1 0 1.25 0 2.75 0 2.75 0 0-2.25 0.45-2 1.1 0.25 0.65 0.46 0.9-0.02 1.65-0.48 0.75 0.51 1.86-1.24 1.43-1.74-0.43-4.81 0-4.81 0 0 0-1.27-1.2-1.1 1.31 0.17 2.51-1.58 1.76 0.17 2.51 1.75 0.75-1.5 0 1.75 0.75 3.25 0.75 1.74 1.5 4 1 2.26-0.5-0.53-0.23 2.23-1.05 2.76-0.83 5.53-9.69 5.53-9.69l1.5-2.74 1.71-1.32zM315.33 235.14c0.25 1.25 0.25 2.5 0 3-0.25 0.5-1-1.75-0.25 0.5 0.75 2.25 0.75 2.25 0.75 2.25 0 0-2 0.5 0 0 2-0.5 2.2-1.25 3.23-2 1.02-0.75 1.53-2.58 1.53-2.58l0-1.17c0 0 1-2.49 0-2.12-1 0.37-2.69-0.04-2.69-0.04l-1.06 0c-1.49 2.16 1.5 0.66 0 1.41-1.49 0.75-1.5 0.75-1.5 0.75zM310.92 244.13c-0.58 0.51 1.17 0.01-0.58 0.51-1.75 0.5-4.25 0.29-4.25 0.29l-1.5-1.61c0 0-0.5-0.89 0-1.66 0.5-0.77 0.25-1.5 1-1.76 0.75-0.26 2.78-0.76 3.14-1.01 0.36-0.25-1.39-0.25 0.36-0.25 1.75 0 0.75-1.25 1.75 0 1 1.25 0.66 4.98 0.08 5.49zM306.58 250.14l-2.22 3.41-1.88 0-3.15-2.17c0 0-0.5-1.49 0-2.37 0.5-0.87-1 0.38 0.5-0.87 1.5-1.25 0.53-2 3.01-1.75 2.49 0.25 2.49 0.25 3.74 0 1.25-0.25 0.1 1 1.25-0.25 1.15-1.25 2.47 0 2.47 0 0 0 0.15 1.11-0.66 1.68-0.81 0.57-0.81 0.57-0.81 0.57l-0.92 0.63-1.33 1.13zM307.92 253.39l-1.83 1.78-1.37 0-2.23 2.48-1.15 0-2.22-0.59-1.28-1.89-1.25 0c0 0 0.5-0.78 0-1.78-0.5-1-2.25-0.75-0.5-1 1.75-0.25 1.75-0.25 1.75-0.25l2.5 1.41c0 0-0.08-1.61 2.15 0 2.23 1.62 0.67-1.13 1.88 0 1.72 1.62 3.55-0.16 3.55-0.16zM293.08 244.98c-0.25-0.83 0-2.33 0-2.33 0 0-2 0.03-1.25-1.11 0.75-1.14 1.25-3.39 1.25-3.39l1-2.23c0 0 1 0.73 3.5-0.77 2.5-1.5 2.07-1.06 4.04-2.16 1.96-1.09 2.22-2.08 3.09-1.96 0.87 0.12-0.38-1.88 0.87 0.12 1.25 2-0.24 2.5-0.87 4-0.63 1.5-1.58 1.44-2.23 2.47-0.65 1.03-0.08 1.55-0.86 2.29-0.79 0.74 0.71-1.76-0.79 0.74-1.5 2.5-0.43 2.95-1.97 4.1-1.53 1.15-3.54 3.08-3.54 3.08l-1.99-1.43-0.25-1.42zM309.64 235.14c-0.56 0.75-1.73 1.17-1.73 1.17l-1.85-1.17 1.79-3.39c0 0-0.48-1.4 0-1.5 0.48-0.11 2.44-2.11 2.44-2.11 0 0 4.14-1.64 4.46-1.32 0.32 0.32-1.68-0.18 0.32 0.32 2 0.5 2.25-1.75 2 0.5-0.25 2.25 0.5 2.52-1.25 3.26-1.75 0.74-1.75 0.74-1.75 0.74l-2.07 1.38c0 0 2.37 2.12 0 2.12-2.37 0-1.7 0.77-1.7 0.77l-0.67-0.77zM313.08 221.89c0 0-0.89 1.25-1.07 2.25-0.18 1-1.31 1.5-2.37 1.75-1.06 0.25-3.34 0.45-3.57 0.6-0.23 0.15 1.27-0.35-0.23 0.15-1.5 0.5-3.35 1.5-3.35 1.5l-2.4 2.11-2.75 0.78-2.01 0.73c0 0-1.74 3.57-2.24 1.23-0.5-2.34-1.42-2.74-1.42-2.74 0 0-1.08-1.86-1.08-2.11 0-0.25 0-0.25 0-0.25l1.08-1.27c0 0 2.9 0.52 3.66-0.73 0.76-1.25 1.76-1 2.51-1.75 0.75-0.75-0.94-0.25 1.28-1.37 2.22-1.12 2.77-1.01 3.37-1.44 0.6-0.43 1.61-2.18 2.23-2.43 0.62-0.25 0.62-0.25 0.62-0.25l0.73-2.5c0 0 1.43-0.75 1.85-1 0.42-0.25 0.42-0.25 0.42-0.25l1.98 1.25 0 2.36 1.16 0.39 1.61 3zM296.83 214.14l-4 2c0 0-1.09 0.5-1.17 1.25-0.08 0.75-1.08-0.5-0.08 0.75 1 1.25 1-0.5 1 1.25 0 1.75-2.09 2.5-0.92 3.38 1.17 0.88-3.33 4.13 1.17 0.88 4.5-3.25 6.03-4.75 6.03-4.75 1.47 0.25 2.97 0 2.97 0l0.65-2.5c0 0-0.35 0.25 0-1.5 0.35-1.75 0.35-1.75 0.35-1.75l-3.97 0-2.03 1zM309.64 213.14c0 0-0.14 0.75-1.73 0-1.58-0.75-3.2 0-3.2 0 0 0-2.88-1.75-1.88-2.5 1-0.75 1-0.75 1-0.75 0 0-1.24-2.25 0.88-2 2.12 0.25-0.38-0.25 2.12 0.25 2.5 0.5 2.5 0.5 2.5 0.5l0.97 2.03-0.66 2.47zM299.11 210.68c0 0-0.82 0.47-2.3 0.97-1.48 0.5-2.98 0-2.98 0l0-0.97c0 0 0.23-2.07 1.49-2.8 1.26-0.73 0.21-1.73 1.49-2.23 1.27-0.5 0.27-2.07 1.02-2.41 0.75-0.34-1.5 0.66 0.75-0.34 2.25-1 1 0.5 2.25-1 1.25-1.5 0.5 0.25 1.25-1.5 0.75-1.75-1.25-2 0.75-2.37 2-0.37 1.51 0.88 3.63 0 2.12-0.87-0.13-0.87 2.12-0.87 2.25 0 3.11-1 3.43 0 0.32 1 0.18 0.5 0 2.5-0.18 2-0.02 2.43-1.1 3.59-1.08 1.16-1.08 1.16-1.08 1.16 0 0-0.83 1.25-1.92 1.25-1.08 0-0.36-0.5-1.85 0-1.48 0.5-3.71-2.46-3.05 0 0.66 2.46-0.14 2.21-0.54 2.23-0.4 0.02-0.86 1.02-0.86 1.02 0 0 1.03 2.31 0 1.78-1.04-0.53-1.04-0.53-1.04-0.53l-1.47 0.53zM314.76 192.64l-1.68 2.75c0 0-0.69 0.25-1.47 0-0.78-0.25-0.41 0.25-1.97 0-1.56-0.25-1.56-0.25-1.56-0.25l-3.72 0.25c0 0-1.22-0.64 0-1.32 1.22-0.68-0.53 0.07 1.22-0.68 1.75-0.75-1.75 0.25 1.75-0.75 3.5-1 2.25-0.5 3.5-1 1.25-0.5 1.25-0.5 1.25-0.5l2.68 1.5zM315.83 188.61l0 1.04c0 0 0.35 0.5-1.07 0-1.43-0.5-1.43-0.5-1.43-0.5 0 0-2.26 1.43-1.13-0.54 1.13-1.96 1.13-1.96 1.13-1.96l2.54-1.25c0 0 1.95-1.21 0.96 1-0.99 2.21-0.99 2.21-0.99 2.21z" id="path35612" class="s0"/><polygon stroke-miterlimit="10" points="319.06 184.23 321.03 182.56 319.06 180.89 317.11 182.89 318.08 184.23 " id="polygon35682" class="s0"/><circle cx="349.49" cy="207.23" r="99.85" id="circle35684" fill="none"/><path stroke-miterlimit="10" d="M359.34 138.89" id="path35686" class="s0"/></g><g id="g35688"><defs id="defs35690"><circle id="SVGID_1_" cx="347.49" cy="201.57" r="103.5"/></defs><clipPath id="SVGID_2_"><use xlink:href="#SVGID_1_" overflow="visible" id="use35694" x="0" y="0" width="100" height="100"/></clipPath><line clip-path="url(#SVGID_2_)" stroke-miterlimit="10" x1="346.49" y1="185.07" x2="343.49" y2="97.07" id="line35696" class="s1"/><line clip-path="url(#SVGID_2_)" stroke-miterlimit="10" x1="348.89" y1="185.07" x2="361.49" y2="97.07" id="line35698" class="s1"/><line clip-path="url(#SVGID_2_)" stroke-miterlimit="10" x1="352.76" y1="186.94" x2="400.74" y2="103.57" id="line35700" class="s1"/><line clip-path="url(#SVGID_2_)" stroke-miterlimit="10" x1="355.19" y1="189.06" x2="418.49" y2="111.82" id="line35702" class="s1"/><line clip-path="url(#SVGID_2_)" stroke-miterlimit="10" x1="356.59" y1="191.06" x2="433.74" y2="124.82" id="line35704" class="s1"/><line clip-path="url(#SVGID_2_)" stroke-miterlimit="10" x1="357.45" y1="193.08" x2="445.49" y2="141.07" id="line35706" class="s1"/><line clip-path="url(#SVGID_2_)" stroke-miterlimit="10" x1="357.45" y1="193.08" x2="457.49" y2="157.94" id="line35708" class="s1"/><line clip-path="url(#SVGID_2_)" stroke-miterlimit="10" x1="357.99" y1="195.32" x2="460.74" y2="180.07" id="line35710" class="s1"/><line clip-path="url(#SVGID_2_)" stroke-miterlimit="10" x1="357.99" y1="197.9" x2="455.6" y2="199.57" id="line35712" class="s1"/><line clip-path="url(#SVGID_2_)" stroke-miterlimit="10" x1="350.27" y1="185.72" x2="381.24" y2="94.62" id="line35714" class="s1"/><line clip-path="url(#SVGID_2_)" stroke-miterlimit="10" x1="357.45" y1="199.57" x2="462.49" y2="221.07" id="line35716" class="s1"/><line clip-path="url(#SVGID_2_)" stroke-miterlimit="10" x1="356.59" y1="202.07" x2="460.74" y2="241.32" id="line35718" class="s1"/><line clip-path="url(#SVGID_2_)" stroke-miterlimit="10" x1="355.19" y1="204.07" x2="438.24" y2="275.82" id="line35720" class="s1"/><line clip-path="url(#SVGID_2_)" stroke-miterlimit="10" x1="356.06" y1="202.94" x2="454.66" y2="261.9" id="line35722" class="s1"/><line clip-path="url(#SVGID_2_)" stroke-miterlimit="10" x1="354.27" y1="205.01" x2="428.16" y2="294.57" id="line35724" class="s1"/><line clip-path="url(#SVGID_2_)" stroke-miterlimit="10" x1="352.33" y1="206.46" x2="406.8" y2="301.57" id="line35726" class="s1"/><line clip-path="url(#SVGID_2_)" stroke-miterlimit="10" x1="350.58" y1="207.3" x2="391.22" y2="315.73" id="line35728" class="s1"/><line clip-path="url(#SVGID_2_)" stroke-miterlimit="10" x1="348.89" y1="207.81" x2="368.66" y2="312.9" id="line35730" class="s1"/><line clip-path="url(#SVGID_2_)" stroke-miterlimit="10" x1="346.49" y1="208.07" x2="348.89" y2="312.9" id="line35732" class="s1"/><line clip-path="url(#SVGID_2_)" stroke-miterlimit="10" x1="344.98" y1="207.96" x2="329.66" y2="314.4" id="line35734" class="s1"/><line clip-path="url(#SVGID_2_)" stroke-miterlimit="10" x1="343.16" y1="207.81" x2="308.16" y2="312.9" id="line35736" class="s1"/><line clip-path="url(#SVGID_2_)" stroke-miterlimit="10" x1="341.69" y1="207" x2="290.99" y2="300.9" id="line35738" class="s1"/><line clip-path="url(#SVGID_2_)" stroke-miterlimit="10" x1="339.78" y1="205.9" x2="273.66" y2="292.9" id="line35740" class="s1"/><line clip-path="url(#SVGID_2_)" stroke-miterlimit="10" x1="338.49" y1="204.07" x2="255.99" y2="279.73" id="line35742" class="s1"/><line clip-path="url(#SVGID_2_)" stroke-miterlimit="10" x1="336.92" y1="202.94" x2="244.49" y2="264.56" id="line35744" class="s1"/><line clip-path="url(#SVGID_2_)" stroke-miterlimit="10" x1="335.89" y1="201.04" x2="234.32" y2="245.73" id="line35746" class="s1"/><line clip-path="url(#SVGID_2_)" stroke-miterlimit="10" x1="334.99" y1="199.57" x2="227.49" y2="226.57" id="line35748" class="s1"/><line clip-path="url(#SVGID_2_)" stroke-miterlimit="10" x1="334.99" y1="197.9" x2="220.99" y2="204.07" id="line35750" class="s1"/><line clip-path="url(#SVGID_2_)" stroke-miterlimit="10" x1="334.99" y1="195.32" x2="231.16" y2="183.57" id="line35752" class="s1"/><line clip-path="url(#SVGID_2_)" stroke-miterlimit="10" x1="335.53" y1="193.08" x2="234.32" y2="164.07" id="line35754" class="s1"/><line clip-path="url(#SVGID_2_)" stroke-miterlimit="10" x1="335.89" y1="192.09" x2="234.32" y2="140.17" id="line35756" class="s1"/><line clip-path="url(#SVGID_2_)" stroke-miterlimit="10" x1="337.32" y1="189.44" x2="248.82" y2="124.82" id="line35758" class="s1"/><line clip-path="url(#SVGID_2_)" stroke-miterlimit="10" x1="338.49" y1="187.69" x2="263.49" y2="109.06" id="line35760" class="s1"/><line clip-path="url(#SVGID_2_)" stroke-miterlimit="10" x1="340.21" y1="186.94" x2="283.07" y2="99.23" id="line35762" class="s1"/><line clip-path="url(#SVGID_2_)" stroke-miterlimit="10" x1="342.68" y1="185.72" x2="300.99" y2="87.23" id="line35764" class="s1"/><line clip-path="url(#SVGID_2_)" stroke-miterlimit="10" x1="344.33" y1="185.27" x2="321.83" y2="82.06" id="line35766" class="s1"/></g><g id="g35768"><defs id="defs35770"><circle id="SVGID_3_" cx="347.49" cy="202.57" r="97.6"/></defs><clipPath id="SVGID_4_"><use xlink:href="#SVGID_3_" overflow="visible" id="use35774" x="0" y="0" width="100" height="100"/></clipPath><g clip-path="url(#SVGID_4_)" id="g35776" opacity="0.3"><defs id="defs35778"><circle id="SVGID_5_" cx="347.78" cy="202.57" r="103.5" opacity="0.3"/></defs><clipPath id="SVGID_6_"><use xlink:href="#SVGID_5_" overflow="visible" id="use35782" x="0" y="0" width="100" height="100"/></clipPath><line clip-path="url(#SVGID_6_)" stroke-miterlimit="10" x1="346.78" y1="186.07" x2="343.78" y2="98.07" id="line35784" class="s3"/><line clip-path="url(#SVGID_6_)" stroke-miterlimit="10" x1="349.18" y1="186.07" x2="361.78" y2="98.07" id="line35786" class="s3"/><line clip-path="url(#SVGID_6_)" stroke-miterlimit="10" x1="353.06" y1="187.94" x2="401.03" y2="104.57" id="line35788" class="s3"/><line clip-path="url(#SVGID_6_)" stroke-miterlimit="10" x1="355.48" y1="190.06" x2="418.78" y2="112.82" id="line35790" class="s3"/><line clip-path="url(#SVGID_6_)" stroke-miterlimit="10" x1="356.88" y1="192.07" x2="434.03" y2="125.82" id="line35792" class="s3"/><line clip-path="url(#SVGID_6_)" stroke-miterlimit="10" x1="357.74" y1="194.09" x2="445.78" y2="142.07" id="line35794" class="s3"/><line clip-path="url(#SVGID_6_)" stroke-miterlimit="10" x1="357.74" y1="194.09" x2="457.78" y2="158.94" id="line35796" class="s3"/><line clip-path="url(#SVGID_6_)" stroke-miterlimit="10" x1="358.28" y1="196.32" x2="461.03" y2="181.07" id="line35798" class="s3"/><line clip-path="url(#SVGID_6_)" stroke-miterlimit="10" x1="358.28" y1="198.91" x2="455.89" y2="200.57" id="line35800" class="s3"/><line clip-path="url(#SVGID_6_)" stroke-miterlimit="10" x1="350.57" y1="186.72" x2="381.53" y2="95.63" id="line35802" class="s3"/><line clip-path="url(#SVGID_6_)" stroke-miterlimit="10" x1="357.74" y1="200.57" x2="462.78" y2="222.07" id="line35804" class="s3"/><line clip-path="url(#SVGID_6_)" stroke-miterlimit="10" x1="356.88" y1="203.08" x2="461.03" y2="242.32" id="line35806" class="s3"/><line clip-path="url(#SVGID_6_)" stroke-miterlimit="10" x1="355.48" y1="205.08" x2="438.53" y2="276.82" id="line35808" class="s3"/><line clip-path="url(#SVGID_6_)" stroke-miterlimit="10" x1="356.35" y1="203.95" x2="454.95" y2="262.91" id="line35810" class="s3"/><line clip-path="url(#SVGID_6_)" stroke-miterlimit="10" x1="354.57" y1="206.02" x2="428.45" y2="295.57" id="line35812" class="s3"/><line clip-path="url(#SVGID_6_)" stroke-miterlimit="10" x1="352.62" y1="207.47" x2="407.09" y2="302.57" id="line35814" class="s3"/><line clip-path="url(#SVGID_6_)" stroke-miterlimit="10" x1="350.87" y1="208.31" x2="391.51" y2="316.74" id="line35816" class="s3"/><line clip-path="url(#SVGID_6_)" stroke-miterlimit="10" x1="349.18" y1="208.82" x2="368.95" y2="313.9" id="line35818" class="s3"/><line clip-path="url(#SVGID_6_)" stroke-miterlimit="10" x1="346.78" y1="209.07" x2="349.18" y2="313.9" id="line35820" class="s3"/><line clip-path="url(#SVGID_6_)" stroke-miterlimit="10" x1="345.27" y1="208.97" x2="329.95" y2="315.4" id="line35822" class="s3"/><line clip-path="url(#SVGID_6_)" stroke-miterlimit="10" x1="343.45" y1="208.82" x2="308.45" y2="313.9" id="line35824" class="s3"/><line clip-path="url(#SVGID_6_)" stroke-miterlimit="10" x1="341.98" y1="208.01" x2="291.28" y2="301.9" id="line35826" class="s3"/><line clip-path="url(#SVGID_6_)" stroke-miterlimit="10" x1="340.08" y1="206.9" x2="273.95" y2="293.9" id="line35828" class="s3"/><line clip-path="url(#SVGID_6_)" stroke-miterlimit="10" x1="338.78" y1="205.08" x2="256.28" y2="280.74" id="line35830" class="s3"/><line clip-path="url(#SVGID_6_)" stroke-miterlimit="10" x1="337.21" y1="203.95" x2="244.78" y2="265.57" id="line35832" class="s3"/><line clip-path="url(#SVGID_6_)" stroke-miterlimit="10" x1="336.18" y1="202.05" x2="234.62" y2="246.74" id="line35834" class="s3"/><line clip-path="url(#SVGID_6_)" stroke-miterlimit="10" x1="335.28" y1="200.57" x2="227.78" y2="227.57" id="line35836" class="s3"/><line clip-path="url(#SVGID_6_)" stroke-miterlimit="10" x1="335.28" y1="198.91" x2="221.28" y2="205.08" id="line35838" class="s3"/><line clip-path="url(#SVGID_6_)" stroke-miterlimit="10" x1="335.28" y1="196.32" x2="231.45" y2="184.57" id="line35840" class="s3"/><line clip-path="url(#SVGID_6_)" stroke-miterlimit="10" x1="335.82" y1="194.09" x2="234.62" y2="165.07" id="line35842" class="s3"/><line clip-path="url(#SVGID_6_)" stroke-miterlimit="10" x1="336.18" y1="193.1" x2="234.62" y2="141.18" id="line35844" class="s3"/><line clip-path="url(#SVGID_6_)" stroke-miterlimit="10" x1="337.61" y1="190.45" x2="249.12" y2="125.82" id="line35846" class="s3"/><line clip-path="url(#SVGID_6_)" stroke-miterlimit="10" x1="338.78" y1="188.7" x2="263.78" y2="110.07" id="line35848" class="s3"/><line clip-path="url(#SVGID_6_)" stroke-miterlimit="10" x1="340.5" y1="187.94" x2="283.36" y2="100.24" id="line35850" class="s3"/><line clip-path="url(#SVGID_6_)" stroke-miterlimit="10" x1="342.97" y1="186.72" x2="301.28" y2="88.24" id="line35852" class="s3"/><line clip-path="url(#SVGID_6_)" stroke-miterlimit="10" x1="344.62" y1="186.28" x2="322.13" y2="83.07" id="line35854" class="s3"/><use xlink:href="#SVGID_5_" overflow="visible" stroke-miterlimit="10" id="use35856" x="0" y="0" width="100" height="100" style="fill:none;stroke:#303030"/></g></g></g></svg>