<svg xmlns:svg="http://www.w3.org/2000/svg" xmlns="http://www.w3.org/2000/svg" xmlns:xlink="http://www.w3.org/1999/xlink" version="1.1" id="Layer_1" x="0" y="0" width="218.65" height="218.65" viewBox="0 0 218.65 218.65" enable-background="new 0 0 841.89 595.28" xml:space="preserve"><style>.s0{fill:none;stroke-width:0.5;stroke:#fff;}.s1{fill:none;stroke:#000;}.s2{opacity:0.3;}.s3{fill:none;stroke-width:2;stroke:#303030;}</style><metadata id="metadata349"/><defs id="defs347"/><g id="g3" transform="translate(-315.682,-190.424)"><circle stroke-miterlimit="10" cx="424.6" cy="300.81" r="103.5" id="circle5" style="fill:#e30613;stroke-width:0.5;stroke:#fff"/><g id="g7"><defs id="defs9"><circle id="SVGID_1_" cx="425.01" cy="301.09" r="103.5"/></defs><clipPath id="SVGID_2_"><use xlink:href="#SVGID_1_" overflow="visible" id="use13" x="0" y="0" width="100" height="100"/></clipPath><path clip-path="url(#SVGID_2_)" stroke-miterlimit="10" d="m382.09 269.83 0-2.75 0-3-1.5-1.75-1.5-1.25-1.83 0c0 0-2.17-0.25-1.92 0 0.25 0.25-1.5 3-1.5 3l0 1.32 0 1.93 0 0.75-2.5-0.25-3-0.5-2.75 0-1.75 2.5c0 0 0.5 1.25 0 2-0.5 0.75 0 2.75 0 2.75l2 2.5 2.5 2.25 1.25 0 1.75-2.75-2.75 5.5 0 2.75 0.5 1.25 3.76 0 1.99 0 2.42 0 2.33 0 1.5 0c0 0 1 0.75 2.5 1.25 1.5 0.5 3.75 0 3.75 0l4 0.22 3.25 0c0 0-1-0.47 0-1.22 1-0.75 0-2 0-2 0 0 1.64-1.5 0.45-2.25-1.19-0.75-1.69-1.25-2.44-1.5-0.75-0.25-3.5-2-3.5-2l-1.5-1.25 0.25-1.5c1.25-0.75 2.25-1.57 2.25-1.57l1 0 1.75-2.43 1.25-1c0 0 2.01-0.5 1.38-1.25-0.63-0.75 0.12-2.5 0.12-2.5 0 0-1.5-2-2.25-2.5-0.75-0.5-3.75-2-3.75-2l-1.25 0.5-2 2-1.25 1.75-1 1.25-2 1.75z" id="path15" class="s0"/><polyline clip-path="url(#SVGID_2_)" stroke-miterlimit="10" points=" 369.09 273.21 372.72 273.21 376.09 277.58 375.09 278.27 374.22 278.83 373.43 278.33 " id="polyline17" class="s0"/><polyline clip-path="url(#SVGID_2_)" stroke-miterlimit="10" points=" 382.34 275.96 384.47 273.21 385.47 270.83 386.47 270.83 " id="polyline19" class="s0"/><polyline clip-path="url(#SVGID_2_)" stroke-miterlimit="10" points=" 382.34 277.58 385.47 277.58 386.47 279.71 387.84 279.71 388.84 281.33 " id="polyline21" class="s0"/><polyline clip-path="url(#SVGID_2_)" stroke-miterlimit="10" points=" 382.34 279.46 385.59 281.33 387.22 282.58 " id="polyline23" class="s0"/><polyline clip-path="url(#SVGID_2_)" stroke-miterlimit="10" points=" 378.97 275.96 378.97 272.21 378.97 270.21 377.97 268.96 " id="polyline25" class="s0"/><line clip-path="url(#SVGID_2_)" stroke-miterlimit="10" x1="380.45" y1="278.83" x2="382.34" y2="273.39" id="line27" class="s0"/><line clip-path="url(#SVGID_2_)" stroke-miterlimit="10" x1="378.97" y1="278.33" x2="379.61" y2="273.39" id="line29" class="s0"/><line clip-path="url(#SVGID_2_)" stroke-miterlimit="10" x1="379.29" y1="279.45" x2="380.45" y2="275.39" id="line31" class="s0"/><line clip-path="url(#SVGID_2_)" stroke-miterlimit="10" x1="377.26" y1="273.2" x2="377.97" y2="278.83" id="line33" class="s0"/><line clip-path="url(#SVGID_2_)" stroke-miterlimit="10" x1="379.29" y1="279.95" x2="383.72" y2="276.58" id="line35" class="s0"/><line clip-path="url(#SVGID_2_)" stroke-miterlimit="10" x1="378.47" y1="279.95" x2="382.34" y2="271.2" id="line37" class="s0"/><polyline clip-path="url(#SVGID_2_)" stroke-miterlimit="10" points=" 380.4 282.58 380.46 281.02 380.4 279.96 378.47 279.46 377.26 277.58 376.09 270.83 " id="polyline39" class="s0"/><line clip-path="url(#SVGID_2_)" stroke-miterlimit="10" x1="377.81" y1="277.58" x2="376.09" y2="277.58" id="line41" class="s0"/><g clip-path="url(#SVGID_2_)" id="g43"/><path clip-path="url(#SVGID_2_)" stroke-miterlimit="10" d="m401.34 298.5 1.67-2.67c0 0 0.17-2.5 0-3-0.17-0.5-2.83-2.83-2.83-2.83l-3.5 0c0 0-2.5-0.33-3 0-0.5 0.33-1.67 0.67-1.67 0.67l-1.17 1.25-2 0-1.62 0.58c0 0-0.79 0-0.75 0.5 0.04 0.5-0.62 1.17-0.87 1.83-0.25 0.67-0.25 1.67 0 2.17 0.25 0.5 0.88 1.5 0.88 1.5l-4.12 0.83-0.94 0c0 0 0.23 1.76 0 2.38-0.22 0.62-0.4 1.62 0.1 2.29 0.51 0.67 0.84 1.33 0.84 1.33 0 0 1.25 2 1.38 2 0.13 0 0.33-0.67 1.06 0 0.73 0.67 3.9 0.5 4.06 0.67 0.17 0.17 0.67-0.58 2 1.79 1.33 2.38 1.29 3.71 1.29 3.71l3.47 0 1.75-1c0 0 1.17-2.42 1.67-2.71 0.5-0.29-0.5 0.21 0.5-0.29 1-0.5 2-0.49 2.67-0.91 0.67-0.42-0.02-0.75 0.91-1.25 0.93-0.5 2.43-0.83 2.26-2-0.17-1.17-0.33-2.17-1-2.67-0.67-0.5-2.17-0.99-2.17-0.99 0 0-0.33-1.66-0.67-1.59-0.33 0.08-0.67-0.76-0.67-0.76l0.5-0.83zM418.34 272.46c0 0-2 0.62-2.67 0.75-0.67 0.13-0.17-1.25-2 0.19-1.83 1.44-2.5 2-2.5 2 0 0-1.67 3.69-1.67 4.06 0 0.38-0.33 1.04 0 1.88 0.33 0.83-0.17 0.34 1 2 1.17 1.67 1.33 1.5 1.83 2.75 0.5 1.25 2.18 3.77 2.18 3.77l1.32 2.06c1.33 0.58 2.5 0 2.5 0 0 0 2.06 0.09 2.78-0.58 0.72-0.67 1.39-1.48 1.39-1.48 0 0 0.83 0.52 1.33 0 0.5-0.52-1-0.52 0.5-0.52 1.5 0 3.5 0.17 3.67-0.67 0.17-0.83 1-2.58 1-2.58 0 0 0.5-0.41 0-2.25-0.5-1.83-1.17-2.81-1.17-2.81l-0.67-1.06c0 0-3.33-1.6-4.17-2.53-0.83-0.93-1.89-1.84-1.89-1.84l0-1.32-0.94-0.87-1.83-0.94zM421.84 262.5l-2.55 0c0 0 0.29-0.56 0-1.53-0.29-0.97 0.62-1.14 0-1.64-0.62-0.5-0.79-1.67-0.79-2.33 0-0.67 0-2 0-2 0 0-1.17-0.83 0-1.17 1.17-0.33 1.73-1.17 2.61-1.17 0.89 0 2.22 0 2.22 0 0 0 1.67-0.83 2 0 0.33 0.83 1 1.5 1.17 2.17 0.17 0.67 0.67 1.33 0.67 1.83 0 0.5 0.33 1.5 0 2-0.33 0.5-1.83 1.78-2.17 2.31-0.33 0.53-1.33 1.53-1.33 1.53l-0.5 0-1.33 0zM435.51 263.83l0 1.17c0 0-2 0 0 1 2 1 3 1.33 3 1.33l0.83 0 1 0.83c0 0 0.67-0.67 1-1.17 0.33-0.5 0-2.17 0-2.17 0 0-0.37-1.17 0.15-1.67 0.52-0.5 0-2.19 0-2.19l-2.48 0c0 0 0.16-0.53-0.84 0-0.99 0.53-0.99 0.53-0.99 0.53l-1 1-0.67 1.33zM431.18 265.66c0 0 1 1.33-1 0.67-2-0.67-2.85-0.67-2.85-0.67 0 0-0.02 0.74 0-1.22 0.02-1.95 0.02-1.95 0.02-1.95l1.33-1.76c0 0-0.61-1.07 0.7-1.07 1.3 0 2.06 0 2.06 0 0 0 0.75 0.81 1.58 1.07 0.83 0.26-0.17-0.4 0.83 0.26 1 0.67 1.67 1.5 1.67 1.5l0 2.5-0.89 1.52-3.44-0.85zM355.32 273.39l-2.98-0.94c0 0-0.5-0.04-1 0-0.5 0.04-0.67-0.79-1.33 0.46-0.67 1.25-1.67 1.54-1.5 2.48 0.17 0.94-0.2 1.1-0.02 2.19 0.18 1.09 0.04 1-0.05 1.88-0.1 0.88 1.6-0.75 0 1.56-1.6 2.31-1.76-0.02-1.6 2.31 0.17 2.33-1.27 1.33-0.05 2.75 1.22 1.42 1.22 0.69 2.22 1.47 1 0.78-2-0.05 1 0.78 3 0.83 3 0.83 3 0.83 0 0-1.5 1.17 0 0 1.5-1.17 1.79-0.73 2.31-1.61 0.52-0.89-0.81-0.89 0.52-0.89 1.33 0 3.99 0.33 3.5-0.59-0.5-0.91 0.83-1.91 0-2.41-0.83-0.5-1.16-0.2-1.66-1.35-0.5-1.15-1.17-1.73-1.17-2.36 0-0.62 0-0.75 0-1.69 0-0.94 0-1.11 0-1.69 0-0.58-0.33-0.13-0.33-1.19 0-1.06-0.85-2-0.85-2zM336.18 313.5c0 0 0.4-1.17-1.3-1-1.7 0.17-3.86 0.32-4.36 0.49-0.5 0.18-0.83 0.01-2.17 0.51-1.33 0.5-3.33 1-3.33 1 0 0-1.17-0.17-1.33 0.83-0.17 1 0 3 0 3l-2.83 4.25c0 0 0 4.58 0.67 5.08 0.67 0.5 0.83 1.5 1.67 3.33 0.83 1.83 1.33 3.83 1.67 4.33 0.33 0.5 0.67 1.5 0.83 2.5 0.17 1-0.67 2.33 0.17 3.17 0.83 0.83 2.04 1.67 2.69 1.67 0.65 0 2.15 0 3.15 0 1 0 4.41-1 4.54-1.83 0.13-0.83 0.79-3.17 1.96-4.67 1.17-1.5-0.33-0.33 1.17-1.5 1.5-1.17 5.99-2.5 6-3.5 0-1 0.91-1.5 0.96-2.17 0.05-0.67 0.71-2.17 0.71-2.17l0-1.17M350.2 326.13l-0.68 1.53c0 0 0 0 0 1.17 0 1.17-0.33 0.83-1 2.33-0.67 1.5-1 1.83-1.5 2.83-0.5 1-1 1-0.71 1.03 0.28 0.03 0.68 1.64 0.68 1.64 0 0 0.37 0.83 0.03 1.17-0.33 0.33 2 1.67 2.83 2.83 0.83 1.17 1.5 0.17 2.5 0 1-0.17 0.84-0.17 1.67-0.67 0.83-0.5 1.17-0.67 2.33-2.17 1.17-1.5 1-1.83 1.17-2.33 0.17-0.5-0.17-0.83 0-1.5 0.17-0.67 0-5.17 0-5.17l-0.92-1.17M369.09 341.83l2.42-0.61c0.83-0.56 0.83-1.72 1.08-2.39 0.25-0.67 0.08 0.17 0-1-0.08-1.17-0.41-1.83-0.75-2.67-0.33-0.83 0.46-0.47-0.94-1.49-1.4-1.01-2.9-1.18-2.9-1.18 0 0-0.67 0.86-1.33 1.18-0.67 0.32-2.17 0.99-2.17 0.99 0 0-0.78 1.33-0.89 1.83-0.11 0.5-0.77-1.17-0.11 0.5 0.67 1.67 1.93 3 1.93 3 0 0-1.24 0.33 0 0.5 1.24 0.17 1.24 0.17 1.24 0.17l1.3 0.56 1.12 0.61zM394.68 332.5c0 0-1.16 0-1.41 0-0.25 0-0.25 0-0.25 0 0 0-2.67 0.19-2.83 1.18-0.17 0.99 0.33 1.99 0 2.49-0.33 0.5-0.07 1.33-0.04 1.67 0.04 0.33-1.13 0.33-0.13 1.17 1 0.83 1.33 2.23 1.33 2.23 0 0-0.17-0.22 0 0.61 0.17 0.83-0.5 1.33 0 1.83 0.5 0.5-0.5 0 0.5 0.5 1 0.5 0.17 1 1 0.5 0.83-0.5 2-1.83 1.83-2-0.17-0.17-1 2.17-0.17-0.17 0.83-2.33 0-1.67 0.83-2.33 0.83-0.67-0.67-0.33 0.83-0.67 1.5-0.33 1.5-0.33 1.5-0.33 0 0-1 0.54 0-0.48 1-1.02 1.33-1.52 1.33-1.52l0-1.83-2.67-1.65-1.67-1.18zM400.18 343.66l-1.17-1.83-1.33 0.83c0 0-1-1-0.83 0.08 0.17 1.08-0.2 1.17-0.02 2.12 0.19 0.96 0.19 0.96 0.19 0.96l0.67 1 1.33 0 1.17-1 0-2.17zM383.18 339.83l-2 0c0 0-2.33 0.95-2.66 1.39-0.33 0.44-2 2.44-2 2.44 0 0-0.17 0.33-0.67 0-0.5-0.33-3.12 0-3.12 0 0 0 0.55-0.17 0 0.67-0.55 0.83-0.88 1.33-0.71 2.5 0.17 1.17 0.33-0.17 0.17 1.17-0.17 1.33 0.67 0.75 1.33 1.96 0.67 1.21 2.33 0.71 2.5 2.38 0.17 1.67-0.17 4.5-0.17 4.5 0 0-0.67 1-0.67 2 0 1-0.33 1.17-0.17 2 0.17 0.83-0.17 1.67-0.17 1.67 0 0-1.91 0.67-2.12 1.17-0.21 0.5-0.75 0.83-0.75 0.83 0 0-0.79 1-0.79 1.67 0 0.67 0 0.67 0 0.67 0 0-0.83 1.33 0 1.67 0.83 0.33 1.67 0.33 2.5 0.83 0.83 0.5 2 0 2 0l1.31-0.33c0 0-0.99-1.5 0.27-2.17 1.25-0.67 1.25-0.67 1.25-0.67l2.66 0c0 0 0.34-0.5 0.67-1 0.33-0.5 1.67-0.5 1.33-2-0.33-1.5 1.27-2 0.05-3.33-1.22-1.33-2.06-2.5-2.06-2.5 0 0 0-1.61 0-2.64 0-1.03 0-2.53 0-2.53 0 0 0.17 0 0.67-1 0.5-1 0.5-1 0.5-1 0 0 0.33-0.17 0.67-0.67 0.33-0.5 0.2-2 0.68-2.67 0.48-0.67 0.48-0.67 0.48-0.67 0 0-0.17 0 0-1.83 0.17-1.83 0-3.11 0-3.11l-1-1.39zM363.22 349.5c0 0 0.37-1.16 0-1.83-0.37-0.67-0.21 0.67-0.37-0.67-0.17-1.33-0.34-2.17-0.75-2.67-0.41-0.5-0.24-0.33-1.08-0.67-0.83-0.33-2.67 0-2.67 0 0 0-0.83-1.33-1.5 0.67-0.67 2-0.83 2.5-0.83 2.5l-0.69 0c-1.31-0.33-1.98-0.47-1.98-0.47l-1.44-1.49c0 0-1.89-0.96-2.06 0-0.17 0.96-1.33 1.96-1.33 1.96 0 0 0.33 0.33 0 0.83-0.33 0.5-1.67 1.25-1.5 2.29 0.17 1.04 0.5-0.29 0.17 1.04-0.33 1.33-0.67 1.83-0.17 2.58 0.5 0.75-0.33-0.03 1 1.11 1.33 1.14 1.67 1.31 2.5 1.64 0.83 0.33-0.68-0.83 1.83 0 2.5 0.83 2.5 0.83 2.5 0.83 0 0 2.99-0.33 3.5 0 0.5 0.33 1.66-0.33 2 0 0.34 0.33 1.16 0.69 1.75 0.1 0.59-0.6 1.75-3.68 1.75-3.68l0.08-1.25 0-1.93-0.7-0.91zM363.22 353.58l-1.13-0.5-1.75 0-2 0c0 0 0.32-0.25-0.76 0-1.07 0.25-2.26 0.5-2.26 0.5 0 0-0.99 1.31-1.98 1.11-1-0.19-2.66 0.02-2.66 0.02l-1 0-1.12 0.44M374.18 388.5c0.67-0.33 2.87-1.17 3.35-2.5 0.48-1.33-0.65-1.83 0-3 0.65-1.17 0.93-2.5 0.12-3.67-0.81-1.17-0.34-2-1.49-3.17-1.15-1.17-0.98-2-1.98-2.67-1-0.67-2.41-0.96-3.37-1.23-0.96-0.27-2.38-0.56-2.84 0-0.46 0.56-3.13 3.73-3.13 4.23 0 0.5-1.02 1-0.93 2.67 0.1 1.67 0.01 2-0.7 2.83-0.71 0.83-0.55 0.83-1.13 1.33-0.58 0.5-0.58 0.5-0.58 0.5M395.47 322.58c0.55-0.58 0.9-2.08 1.31-2.75 0.41-0.67 0-2.75 0-2.75 0 0-0.52-0.09-1.3-0.58-0.79-0.5-3.79-0.83-3.79-0.83 0 0-1-0.67-1.17 0-0.17 0.67-1.48 0.83-0.91 2.17 0.57 1.33-0.09 0 0.74 2 0.83 2 1 2 1.33 2.75 0.33 0.75-0.5 0.42 0.33 0.75 0.83 0.33 1.25 0 1.25 0l2.2-0.75zM320.85 306.5c0 0 2 0 3 0 1 0 1 0 1 0 0 0 3-1.17 3.5-1.17 0.5 0 0.67 1.5 1.17 0 0.5-1.5 0.33-0.83 0.5-2 0.17-1.17 0.67-0.65 0.83-1.66 0.17-1.01 0.67-0.51 0-2.34-0.67-1.83-0.33-2.83-1.67-3-1.33-0.17-2.83-1.17-5.17-1-2.33 0.17-3.17 0.83-3.17 0.83 0 0-1.17 2.17-1.17 3.17 0 1-0.33 3 0 4 0.33 1-0.15 3.17-0.15 3.17l1.31 0zM359.34 324.58l0.28-2c0 0-0.45-0.42 0.72-1.58 1.17-1.17 1.33-0.81 1.75-1.57 0.42-0.76 0.5-1.43 1.13-1.59 0.63-0.17-2.06-0.33 0.7-0.75 2.76-0.42 1.76 0.08 2.76-0.42 1-0.5-0.17 0.33 1-0.5 1.17-0.83 0.33-2.67 1.41-2.67 1.09 0 1.01-0.87 1.72-1.02 0.71-0.15 1.79-0.48 1.92-0.98 0.12-0.5 0.12-0.5 0.12-0.5M359.34 316.5c0 0-0.44-0.61-0.21-0.94 0.07-0.11 0.23-0.18 0.49-0.19 1.06-0.04 5.82-5.58 5.82-5.58" id="path45" class="s0"/><line clip-path="url(#SVGID_2_)" stroke-miterlimit="10" x1="363.84" y1="307.33" x2="358.34" y2="315.37" id="line83" class="s0"/><path clip-path="url(#SVGID_2_)" stroke-miterlimit="10" d="m343.85 317.79 3.17-0.24-5.5 4.29-1.4 0.75c0 0-0.93 1.58-1.26 2-0.33 0.42-1.17 1.25-2 2.25-0.83 1-2.34 1.67-2.92 2.67-0.58 1-1.57 1.17-2.74 2-1.17 0.83-2.17 1-2.17 1l-1 2.33-0.83 2.33c0 0 0.17 0.71 0 1.52-0.17 0.81 0 2.54 0 2.54" id="path85" class="s0"/><line clip-path="url(#SVGID_2_)" stroke-miterlimit="10" x1="345.16" y1="317.69" x2="338.18" y2="317.79" id="line87" class="s0"/><line clip-path="url(#SVGID_2_)" stroke-miterlimit="10" x1="344.6" y1="319.42" x2="339.01" y2="319.42" id="line89" class="s0"/><line clip-path="url(#SVGID_2_)" stroke-miterlimit="10" x1="342.35" y1="319.83" x2="337.06" y2="321" id="line91" class="s0"/><line clip-path="url(#SVGID_2_)" stroke-miterlimit="10" x1="345.34" y1="305.33" x2="347.01" y2="299.33" id="line93" class="s0"/><polygon clip-path="url(#SVGID_2_)" stroke-miterlimit="10" points="478.51 337.83 481.18 337.83 482.84 337.83 484.51 337.83 484.51 341.66 484.51 344.16 484.51 345.5 482.84 348.16 481.18 348.16 478.01 349.5 474.84 347.83 471.51 346.83 471.51 345.5 474.51 342.83 476.18 339.5 " id="polygon95" class="s0"/><polygon clip-path="url(#SVGID_2_)" stroke-miterlimit="10" points="441.84 366.16 445.51 366.16 447.51 366.16 448.51 362.5 448.51 360.83 446.51 358.83 443.68 358.83 440.84 358.83 438.84 358.83 438.84 361.83 438.84 363.83 " id="polygon97" class="s0"/><polygon clip-path="url(#SVGID_2_)" stroke-miterlimit="10" points="428.34 353.08 430.59 353.08 433.84 353.08 436.84 351.83 436.84 349.5 436.84 346.83 431.97 346.83 430.34 346.83 429.34 346.83 427.09 346.83 427.09 349.5 427.09 351.08 " id="polygon99" class="s0"/><path clip-path="url(#SVGID_2_)" stroke-miterlimit="10" d="m403.84 348.33 0 4.75 0 2.25 3 1.5 3 2 1.75-2.25c0 0 0-0.25 0-1.25 0-1 0-1 0-1 0 0 1.75-1.25 0-2.5-1.75-1.25-1.75-1.25-1.75-1.25l-1.74-1.08-1.51 0-1.5 0-1.25-1.17zM363.84 300.09l4.25 0 2.5 0 1.25 2.24 1.75 2.25 0 2.5c0 0-1 1 0 1.75 1 0.75 0 2.25 0 2.25l2.75 0c0 0-0.25 1.25 0 2 0.25 0.75 0.25-0.75 0.25 0.75 0 1.5 1.5 1.75 0 2.5-1.5 0.75-1.5 0.75-1.5 0.75l-2 2.25-3.42 2.25c0 0-0.33 1.25-1.08 1.75-0.75 0.5-1.25 0.5-2 1.25-0.75 0.75-2.25 1.5-2.25 1.5 0 0-1.5 0.5-2.25 1.25-0.75 0.75-2.75 0-2.75 0l-1.5 0.33-1.25 0-2.25 0-1.25 0-2-1.08-2.5-1.25c0 0-1.75 0.75-1.5-0.75 0.25-1.5 0.25-1.5 0.25-1.5l-0.27-2.25c-0.23-1.5 0.27-0.25-0.23-1.5-0.5-1.25-0.5-1.25-0.5-1.25 0 0-1.25-0.25-2.25-1-1-0.75-1.75-0.25-3.75-1.75-2-1.5-2.25-1-3.25-2.5-1-1.5 0 0.25-1-1.5-1-1.75-0.25 0.5-1-1.75-0.75-2.25 0.75-3.25 0-4.5-0.75-1.25 0.32-2-0.22-3-0.53-1-0.78 0.75-0.53-1 0.25-1.75-2.19-2-0.1-2.75 2.1-0.75 0.1 1 2.1-0.75 2-1.75 2-1.75 2-1.75 0 0 0-1.75 1-2.25 1-0.5-0.5 0 1-0.5 1.5-0.5-0.75-0.5 1.5-0.5 2.25 0 3 0 4.25 0 1.25 0 1.5-1.5 2.5 0 1 1.5 0-0.75 1 1.5 1 2.25 1 2.25 1 2.25l0 0 0.25 2.25 0.25 1.51 0.75 1.24c1.25-0.75 1.25-0.75 1.25-0.75l-0.25-2.75c0 0 0-1 0.75-1.25 0.75-0.25 0.75-0.25 0.75-0.25 0 0 0.21-1.25 0.98-1 0.77 0.25 2.02-0.25 2.02-0.25l1.25 0.5c2 1.25 1.5-0.75 2 1.25 0.5 2 0.5 2 0.5 2l2.75 1.26z" id="path101" class="s0"/><polygon clip-path="url(#SVGID_2_)" stroke-miterlimit="10" points="360.34 303.33 362.09 301.71 363.84 300.09 " id="polygon105" class="s0"/><path clip-path="url(#SVGID_2_)" stroke-miterlimit="10" d="m360.34 307.33 0-4 0 4zM358.34 307.33l2 0-2 0z" id="path107" class="s0"/><polyline clip-path="url(#SVGID_2_)" stroke-miterlimit="10" points=" 344.09 317.08 344.09 314.33 344.09 312.58 343.09 309.79 343.59 307.33 345.34 305.33 343.84 302.08 342.34 300.09 339.59 300.09 336.59 300.09 334.88 302.08 " id="polyline111" class="s0"/><path clip-path="url(#SVGID_2_)" stroke-miterlimit="10" d="m360.34 327.66-1-3.08-1-2-1.5-5.5 1.5-1.25 0-2.25 1 0 0-2.25c0 0 0-1.75-1-2.75-1-1 0-1.25 0-1.25l-3.02-2-0.98 0-2.5 0-1.75 0-3.75 0 2.84-4.42" id="path113" class="s0"/><polyline clip-path="url(#SVGID_2_)" stroke-miterlimit="10" points=" 346.34 318.08 347.59 317.08 351.34 317.08 353.34 317.08 355.32 319.08 356.59 321.08 358.34 322.58 " id="polyline115" class="s0"/><line clip-path="url(#SVGID_2_)" stroke-miterlimit="10" x1="393.21" y1="299.33" x2="394.31" y2="294.33" id="line117" class="s0"/><polyline clip-path="url(#SVGID_2_)" stroke-miterlimit="10" points=" 391.51 295.31 391.51 300.09 396.77 294.33 " id="polyline119" class="s0"/><path clip-path="url(#SVGID_2_)" stroke-miterlimit="10" d="m423.01 277.42-1.89 1.41c0 0 0.28 0.42 0 1.13-0.28 0.71-0.44 2.17-0.61 2.36-0.17 0.18-0.5-0.65-0.67 0.27-0.17 0.92-0.17 0.92-0.17 0.92l-1.17 0-0.52 0.67-1.98 0-1.83 0c0 0-2.45 0.17-1.81 0.67 0.64 0.5 0.64 0.5 0.64 0.5" id="path121" class="s0"/><polyline clip-path="url(#SVGID_2_)" stroke-miterlimit="10" points=" 388.84 308 388.84 309.79 384.78 309.79 381.5 311 376.59 316.33 " id="polyline123" class="s0"/><path clip-path="url(#SVGID_2_)" stroke-miterlimit="10" d="m383.72 307.33-2.32 0-1.53-2 0-3.66 0-4.46-2.26-2.88c0 0-1.02-0.55-1.02-1.53 0-0.97-1.5-3.12-1.5-3.12l-1.25-2.13-0.99-1.47" id="path125" class="s0"/><polyline clip-path="url(#SVGID_2_)" stroke-miterlimit="10" points=" 367.97 284.31 363.92 284.31 362.09 285.33 360.34 285.33 357.59 285.33 " id="polyline127" class="s0"/><path clip-path="url(#SVGID_2_)" stroke-miterlimit="10" d="m400.18 290 2-3.92c0 0 1.17-0.5 1.67-0.75 0.5-0.25 1.51-1.02 1.51-1.02l0.99-1.73 1.33-1.25M402.18 291.85c0 0-1.42-1.56 0-2.16 1.42-0.6 1.75-2.13 1.75-2.13l2.42 0 3.02-1.89 0-0.85 1.15-1.49M396.96 295.31l1.52 1.9 0.54 2.88-2.06 2.24c0 0-2.11-0.25-1.36 1 0.75 1.25 0 0.5 0 2 0 1.5 0 1.5 0 1.5l-2.33 0.5-1.75-0.83-2.05-1.17 0-2-2.24-1.66 1.63-2.09c0 0-0.75-2.74 0-2.37 0.75 0.37 0.75 0.37 0.75 0.37l3.52-0.4 2.35-0.34-3.96 5.5M431.97 266.52l-4.87 2.44c0 0-2.92 2.38-4.08 2.25-1.17-0.12-1.17-0.12-1.17-0.12l-2.55 2.13-1.62-3.37c0 0 1 0.17-0.83 0-1.83-0.17-4-1.25-4.5-0.88-0.5 0.38-6.17 2.25-6.17 2.25l0 3.06-0.82 1.13c0 0-0.65 2.48 0 2.88 0.65 0.4 1.65 1.69 1.65 1.69l0.67 1.38 1 0.98 1.16 0M434.62 266.52l-2.65 2.44-2.74 1.88-2.14 1.39c0 0-3.67 1.11-4.08 0.98-0.42-0.12-1.89 0.19-1.89 0.19l0 0.87" id="path129" class="s0"/><polyline clip-path="url(#SVGID_2_)" stroke-miterlimit="10" points=" 427.32 264.45 424.34 264.45 423.18 262.5 " id="polyline139" class="s0"/><line clip-path="url(#SVGID_2_)" stroke-miterlimit="10" x1="427.34" y1="262.5" x2="425.01" y2="260.97" id="line141" class="s0"/><polyline clip-path="url(#SVGID_2_)" stroke-miterlimit="10" points=" 359.62 282.58 362.78 282.58 363.92 282.58 365.44 282.31 366.09 281.33 " id="polyline143" class="s0"/><path clip-path="url(#SVGID_2_)" stroke-miterlimit="10" d="m368.59 282.08-3.15-3.25 0-2.25 0.48 0 1.75 0.42 1.08-0.08 1.33-0.33 1.25 0 2.08 1.75 0.92 2 0.33 0.83 1.08 0.75 1.5 0.58 0.75 0.42 0.83 0.58 0.77 0.83 0.48 0.58 0.58 0.42 0 0.42-0.42 0 0.83 0.33 1.83-1.33 1.33-0.08 1.17 0.08 1.67 0.17 1.5 0 2.17-0.42c0 0 0.67-0.5 0.92-0.5 0.25 0 1.17-0.5 1.17-0.5l1-0.5 0.5-0.25 1.13-0.01" id="path145" class="s0"/><polyline clip-path="url(#SVGID_2_)" stroke-miterlimit="10" points=" 365.84 277.42 362.86 275.39 360.34 274.26 361.09 276.58 363.22 278.83 366.09 281.33 369.09 286.08 372.59 287.55 372.59 289.85 374.09 292.17 376.09 296.83 377.61 298.33 378.15 302.33 377.61 306.5 377.61 308.58 375.09 311.35 " id="polyline147" class="s0"/><polyline clip-path="url(#SVGID_2_)" stroke-miterlimit="10" points=" 363.92 350.4 367.97 349.5 370.81 348.33 370.81 346.83 " id="polyline149" class="s0"/><path clip-path="url(#SVGID_2_)" stroke-miterlimit="10" d="m384.18 341.22 1.41-1.39 3.25-2.67-2.37 0-1.69 0.67-3.6 0c0 0-2.33 1-3.03 0.85-0.69-0.15-2.06 1.15-2.06 1.15l-3.24 1.39-0.26 1.44-2.76 1.67-2.47 2.5-1.27 0-2.87 0.83M369.83 371.95l-2.47-1.37c0 0-1.02-1-1.27-1.03-0.25-0.03-2.18-2.47-2.18-2.47l-1.58-0.92c0 0-1.24-3.08-1.99-3.67-0.75-0.58 0-1.92 0-1.92l-7 0M371.18 370.83l-3.82-2.33 0-2.23 3.82 2.23c0 0 0 0-2.09-1.67-2.09-1.67-3.25 0-3.25 0 0 0 0 0-0.4-1.25-0.4-1.25-1.35-0.5-2.22-1.5-0.87-1-0.13-1.75-0.36-3.5-0.23-1.75-0.77-1.75-0.77-1.75l-1-0.62-5.2-0.63-4.71 1.25M348.01 354.69l-3.41 0.46c0 0-2.59-0.56-2.26 0.93 0.33 1.5-0.02 0.25-0.68 1.5-0.66 1.25-3.16 1.25-3.16 1.25 0 0 2-0.17 2.5 0 0.5 0.17 1-1 1.67-1.25 0.67-0.25 1-0.01 1-0.01 0 0 1.83-0.4 3.08 0.01 1.24 0.42 1.59-0.08 1.8 0 0.21 0.08 1.96 1.09 2.62 1.25 0.67 0.17 1.78 2.33 1.78 2.33 0 0 0.72 0.67 1.39 1.33 0.67 0.67 0.99 1.17 0.99 1.17l2.25 2.5c0 0 0.59 1.5 0.76 2.33 0.16 0.83 3.17 3 3.75 3.67 0.58 0.67-0.08 1.5 0 2.83 0.08 1.33-0.08 1.67 0 2.5 0.08 0.83-0.75 0.5-1.75 1.33-1 0.83-1.5 0.67-2 0.83-0.5 0.17-0.83 0.67-0.76 1 0.07 0.33-1.41 4-1.7 5.5-0.29 1.5-0.55 0.83-0.55 0.83" id="path151" class="s0"/></g><polygon stroke-miterlimit="10" points="425.01 311.33 425.01 313.33 420.84 316.83 416.34 316.83 411.34 316.83 411.34 313.33 416.84 309.33 420.84 309.33 " id="polygon159" class="s0"/><polygon stroke-miterlimit="10" points="444.09 286.58 444.09 289.83 444.09 291.58 439.09 291.58 439.09 289.83 440.84 286.58 442.34 286.58 " id="polygon161" class="s0"/><polygon stroke-miterlimit="10" points="455.47 284.33 454.59 284.33 451.84 282.83 450.34 281.33 450.34 280.33 453.34 280.33 454.59 281.33 456.34 281.33 456.34 282.83 " id="polygon163" class="s0"/><path stroke-miterlimit="10" d="m496.59 336.58 0-4.5c0 0-1.25-1.25 0-1.5 1.25-0.25 1.25-0.25 1.25-0.25 0 0 1.75-0.5 2 0 0.25 0.5 0.25-0.75 0.25 0.5 0 1.25 0 2.51 0 2.51l-1.25 3.24-2.25 0z" id="path165" class="s0"/><polygon stroke-miterlimit="10" points="408.84 330.11 408.84 327.33 403.59 326.33 406.84 331.83 408.84 331.83 " id="polygon167" class="s0"/><g id="g169"><circle stroke-miterlimit="10" cx="423.95" cy="294.47" r="12.15" id="circle171" stroke="#000"/><circle cx="423.95" cy="294.47" r="3.17" id="circle173" fill="#3c3c3b"/><g id="g175"><defs id="defs177"><circle id="SVGID_3_" cx="425.01" cy="299.75" r="109.33"/></defs><clipPath id="SVGID_4_"><use xlink:href="#SVGID_3_" overflow="visible" id="use181" x="0" y="0" width="100" height="100"/></clipPath><line clip-path="url(#SVGID_4_)" stroke-miterlimit="10" x1="423.95" y1="282.32" x2="420.78" y2="189.37" id="line183" class="s1"/><line clip-path="url(#SVGID_4_)" stroke-miterlimit="10" x1="426.48" y1="282.32" x2="439.8" y2="189.37" id="line185" class="s1"/><line clip-path="url(#SVGID_4_)" stroke-miterlimit="10" x1="430.58" y1="284.3" x2="481.26" y2="196.23" id="line187" class="s1"/><line clip-path="url(#SVGID_4_)" stroke-miterlimit="10" x1="433.14" y1="286.54" x2="500.01" y2="204.95" id="line189" class="s1"/><line clip-path="url(#SVGID_4_)" stroke-miterlimit="10" x1="434.62" y1="288.65" x2="516.11" y2="218.68" id="line191" class="s1"/><line clip-path="url(#SVGID_4_)" stroke-miterlimit="10" x1="435.53" y1="290.79" x2="528.53" y2="235.85" id="line193" class="s1"/><line clip-path="url(#SVGID_4_)" stroke-miterlimit="10" x1="435.53" y1="290.79" x2="541.2" y2="253.67" id="line195" class="s1"/><line clip-path="url(#SVGID_4_)" stroke-miterlimit="10" x1="436.1" y1="293.15" x2="544.64" y2="277.04" id="line197" class="s1"/><line clip-path="url(#SVGID_4_)" stroke-miterlimit="10" x1="436.1" y1="295.88" x2="539.21" y2="297.64" id="line199" class="s1"/><line clip-path="url(#SVGID_4_)" stroke-miterlimit="10" x1="427.95" y1="283.01" x2="460.66" y2="186.78" id="line201" class="s1"/><line clip-path="url(#SVGID_4_)" stroke-miterlimit="10" x1="435.53" y1="297.64" x2="546.48" y2="320.35" id="line203" class="s1"/><line clip-path="url(#SVGID_4_)" stroke-miterlimit="10" x1="434.62" y1="300.29" x2="544.64" y2="341.74" id="line205" class="s1"/><line clip-path="url(#SVGID_4_)" stroke-miterlimit="10" x1="433.14" y1="302.4" x2="520.87" y2="378.18" id="line207" class="s1"/><line clip-path="url(#SVGID_4_)" stroke-miterlimit="10" x1="434.06" y1="301.2" x2="538.21" y2="363.48" id="line209" class="s1"/><line clip-path="url(#SVGID_4_)" stroke-miterlimit="10" x1="432.18" y1="303.39" x2="510.22" y2="397.99" id="line211" class="s1"/><line clip-path="url(#SVGID_4_)" stroke-miterlimit="10" x1="430.12" y1="304.92" x2="487.65" y2="405.38" id="line213" class="s1"/><line clip-path="url(#SVGID_4_)" stroke-miterlimit="10" x1="428.27" y1="305.81" x2="471.2" y2="420.35" id="line215" class="s1"/><line clip-path="url(#SVGID_4_)" stroke-miterlimit="10" x1="426.48" y1="306.35" x2="447.37" y2="417.35" id="line217" class="s1"/><line clip-path="url(#SVGID_4_)" stroke-miterlimit="10" x1="423.95" y1="306.62" x2="426.48" y2="417.35" id="line219" class="s1"/><line clip-path="url(#SVGID_4_)" stroke-miterlimit="10" x1="422.36" y1="306.5" x2="406.17" y2="418.94" id="line221" class="s1"/><line clip-path="url(#SVGID_4_)" stroke-miterlimit="10" x1="420.43" y1="306.35" x2="383.46" y2="417.35" id="line223" class="s1"/><line clip-path="url(#SVGID_4_)" stroke-miterlimit="10" x1="418.88" y1="305.5" x2="365.33" y2="404.68" id="line225" class="s1"/><line clip-path="url(#SVGID_4_)" stroke-miterlimit="10" x1="416.87" y1="304.32" x2="347.02" y2="396.23" id="line227" class="s1"/><line clip-path="url(#SVGID_4_)" stroke-miterlimit="10" x1="415.5" y1="302.4" x2="328.36" y2="382.32" id="line229" class="s1"/><line clip-path="url(#SVGID_4_)" stroke-miterlimit="10" x1="413.85" y1="301.2" x2="316.21" y2="366.3" id="line231" class="s1"/><line clip-path="url(#SVGID_4_)" stroke-miterlimit="10" x1="412.76" y1="299.19" x2="305.47" y2="346.4" id="line233" class="s1"/><line clip-path="url(#SVGID_4_)" stroke-miterlimit="10" x1="411.8" y1="297.64" x2="298.25" y2="326.16" id="line235" class="s1"/><line clip-path="url(#SVGID_4_)" stroke-miterlimit="10" x1="411.8" y1="295.88" x2="291.39" y2="302.4" id="line237" class="s1"/><line clip-path="url(#SVGID_4_)" stroke-miterlimit="10" x1="411.8" y1="293.15" x2="302.13" y2="280.74" id="line239" class="s1"/><line clip-path="url(#SVGID_4_)" stroke-miterlimit="10" x1="412.38" y1="290.79" x2="305.47" y2="260.14" id="line241" class="s1"/><line clip-path="url(#SVGID_4_)" stroke-miterlimit="10" x1="412.76" y1="289.75" x2="305.47" y2="234.9" id="line243" class="s1"/><line clip-path="url(#SVGID_4_)" stroke-miterlimit="10" x1="414.27" y1="286.94" x2="320.79" y2="218.68" id="line245" class="s1"/><line clip-path="url(#SVGID_4_)" stroke-miterlimit="10" x1="415.5" y1="285.1" x2="336.28" y2="202.04" id="line247" class="s1"/><line clip-path="url(#SVGID_4_)" stroke-miterlimit="10" x1="417.32" y1="284.3" x2="356.97" y2="191.65" id="line249" class="s1"/><line clip-path="url(#SVGID_4_)" stroke-miterlimit="10" x1="419.93" y1="283.01" x2="375.89" y2="178.98" id="line251" class="s1"/><line clip-path="url(#SVGID_4_)" stroke-miterlimit="10" x1="421.67" y1="282.54" x2="397.91" y2="173.52" id="line253" class="s1"/></g><g id="g255"><defs id="defs257"><circle id="SVGID_5_" cx="425.01" cy="300.81" r="103.09"/></defs><clipPath id="SVGID_6_"><use xlink:href="#SVGID_5_" overflow="visible" id="use261" x="0" y="0" width="100" height="100"/></clipPath><g clip-path="url(#SVGID_6_)" id="g263" opacity="0.3"><defs id="defs265"><circle id="SVGID_7_" cx="425.32" cy="300.81" r="109.33" opacity="0.3"/></defs><clipPath id="SVGID_8_"><use xlink:href="#SVGID_7_" overflow="visible" id="use269" x="0" y="0" width="100" height="100"/></clipPath><line clip-path="url(#SVGID_8_)" stroke-miterlimit="10" x1="424.26" y1="283.39" x2="421.09" y2="190.43" id="line271" class="s3"/><line clip-path="url(#SVGID_8_)" stroke-miterlimit="10" x1="426.79" y1="283.39" x2="440.11" y2="190.43" id="line273" class="s3"/><line clip-path="url(#SVGID_8_)" stroke-miterlimit="10" x1="430.89" y1="285.36" x2="481.57" y2="197.3" id="line275" class="s3"/><line clip-path="url(#SVGID_8_)" stroke-miterlimit="10" x1="433.45" y1="287.6" x2="500.32" y2="206.01" id="line277" class="s3"/><line clip-path="url(#SVGID_8_)" stroke-miterlimit="10" x1="434.93" y1="289.72" x2="516.42" y2="219.74" id="line279" class="s3"/><line clip-path="url(#SVGID_8_)" stroke-miterlimit="10" x1="435.84" y1="291.85" x2="528.84" y2="236.91" id="line281" class="s3"/><line clip-path="url(#SVGID_8_)" stroke-miterlimit="10" x1="435.84" y1="291.85" x2="541.51" y2="254.73" id="line283" class="s3"/><line clip-path="url(#SVGID_8_)" stroke-miterlimit="10" x1="436.41" y1="294.21" x2="544.94" y2="278.1" id="line285" class="s3"/><line clip-path="url(#SVGID_8_)" stroke-miterlimit="10" x1="436.41" y1="296.94" x2="539.52" y2="298.7" id="line287" class="s3"/><line clip-path="url(#SVGID_8_)" stroke-miterlimit="10" x1="428.26" y1="284.07" x2="460.97" y2="187.85" id="line289" class="s3"/><line clip-path="url(#SVGID_8_)" stroke-miterlimit="10" x1="435.84" y1="298.7" x2="546.79" y2="321.41" id="line291" class="s3"/><line clip-path="url(#SVGID_8_)" stroke-miterlimit="10" x1="434.93" y1="301.35" x2="544.94" y2="342.8" id="line293" class="s3"/><line clip-path="url(#SVGID_8_)" stroke-miterlimit="10" x1="433.45" y1="303.46" x2="521.18" y2="379.25" id="line295" class="s3"/><line clip-path="url(#SVGID_8_)" stroke-miterlimit="10" x1="434.37" y1="302.27" x2="538.52" y2="364.55" id="line297" class="s3"/><line clip-path="url(#SVGID_8_)" stroke-miterlimit="10" x1="432.48" y1="304.46" x2="510.52" y2="399.05" id="line299" class="s3"/><line clip-path="url(#SVGID_8_)" stroke-miterlimit="10" x1="430.43" y1="305.99" x2="487.96" y2="406.45" id="line301" class="s3"/><line clip-path="url(#SVGID_8_)" stroke-miterlimit="10" x1="428.58" y1="306.88" x2="471.5" y2="421.41" id="line303" class="s3"/><line clip-path="url(#SVGID_8_)" stroke-miterlimit="10" x1="426.79" y1="307.42" x2="447.68" y2="418.42" id="line305" class="s3"/><line clip-path="url(#SVGID_8_)" stroke-miterlimit="10" x1="424.26" y1="307.68" x2="426.79" y2="418.42" id="line307" class="s3"/><line clip-path="url(#SVGID_8_)" stroke-miterlimit="10" x1="422.67" y1="307.57" x2="406.48" y2="420" id="line309" class="s3"/><line clip-path="url(#SVGID_8_)" stroke-miterlimit="10" x1="420.74" y1="307.42" x2="383.77" y2="418.42" id="line311" class="s3"/><line clip-path="url(#SVGID_8_)" stroke-miterlimit="10" x1="419.19" y1="306.56" x2="365.64" y2="405.74" id="line313" class="s3"/><line clip-path="url(#SVGID_8_)" stroke-miterlimit="10" x1="417.18" y1="305.39" x2="347.33" y2="397.29" id="line315" class="s3"/><line clip-path="url(#SVGID_8_)" stroke-miterlimit="10" x1="415.81" y1="303.46" x2="328.67" y2="383.38" id="line317" class="s3"/><line clip-path="url(#SVGID_8_)" stroke-miterlimit="10" x1="414.15" y1="302.27" x2="316.52" y2="367.36" id="line319" class="s3"/><line clip-path="url(#SVGID_8_)" stroke-miterlimit="10" x1="413.07" y1="300.26" x2="305.78" y2="347.47" id="line321" class="s3"/><line clip-path="url(#SVGID_8_)" stroke-miterlimit="10" x1="412.11" y1="298.7" x2="298.56" y2="327.22" id="line323" class="s3"/><line clip-path="url(#SVGID_8_)" stroke-miterlimit="10" x1="412.11" y1="296.94" x2="291.7" y2="303.46" id="line325" class="s3"/><line clip-path="url(#SVGID_8_)" stroke-miterlimit="10" x1="412.11" y1="294.21" x2="302.43" y2="281.8" id="line327" class="s3"/><line clip-path="url(#SVGID_8_)" stroke-miterlimit="10" x1="412.68" y1="291.85" x2="305.78" y2="261.2" id="line329" class="s3"/><line clip-path="url(#SVGID_8_)" stroke-miterlimit="10" x1="413.07" y1="290.81" x2="305.78" y2="235.96" id="line331" class="s3"/><line clip-path="url(#SVGID_8_)" stroke-miterlimit="10" x1="414.57" y1="288.01" x2="321.1" y2="219.74" id="line333" class="s3"/><line clip-path="url(#SVGID_8_)" stroke-miterlimit="10" x1="415.81" y1="286.16" x2="336.59" y2="203.1" id="line335" class="s3"/><line clip-path="url(#SVGID_8_)" stroke-miterlimit="10" x1="417.63" y1="285.36" x2="357.27" y2="192.72" id="line337" class="s3"/><line clip-path="url(#SVGID_8_)" stroke-miterlimit="10" x1="420.24" y1="284.07" x2="376.2" y2="180.05" id="line339" class="s3"/><line clip-path="url(#SVGID_8_)" stroke-miterlimit="10" x1="421.98" y1="283.6" x2="398.22" y2="174.58" id="line341" class="s3"/><use xlink:href="#SVGID_7_" overflow="visible" stroke-miterlimit="10" id="use343" x="0" y="0" width="100" height="100" style="fill:none;stroke:#303030"/></g></g></g></g></svg>