<?xml version="1.0" encoding="UTF-8" standalone="no"?>
<!-- Generator: Adobe Illustrator 16.0.4, SVG Export Plug-In . SVG Version: 6.00 Build 0)  -->

<svg
   xmlns:dc="http://purl.org/dc/elements/1.1/"
   xmlns:cc="http://creativecommons.org/ns#"
   xmlns:rdf="http://www.w3.org/1999/02/22-rdf-syntax-ns#"
   xmlns:svg="http://www.w3.org/2000/svg"
   xmlns="http://www.w3.org/2000/svg"
   xmlns:xlink="http://www.w3.org/1999/xlink"
   xmlns:sodipodi="http://sodipodi.sourceforge.net/DTD/sodipodi-0.dtd"
   xmlns:inkscape="http://www.inkscape.org/namespaces/inkscape"
   version="1.1"
   id="Layer_1"
   x="0px"
   y="0px"
   width="207"
   height="209.013"
   viewBox="0 0 207 209.01299"
   enable-background="new 0 0 841.89 595.28"
   xml:space="preserve"
   inkscape:version="0.91 r13725"
   sodipodi:docname="parasol1.svg"><metadata
     id="metadata337"><rdf:RDF><cc:Work
         rdf:about=""><dc:format>image/svg+xml</dc:format><dc:type
           rdf:resource="http://purl.org/dc/dcmitype/StillImage" /><dc:title></dc:title></cc:Work></rdf:RDF></metadata><defs
     id="defs335" /><sodipodi:namedview
     pagecolor="#ffffff"
     bordercolor="#666666"
     borderopacity="1"
     objecttolerance="10"
     gridtolerance="10"
     guidetolerance="10"
     inkscape:pageopacity="0"
     inkscape:pageshadow="2"
     inkscape:window-width="686"
     inkscape:window-height="480"
     id="namedview333"
     showgrid="false"
     fit-margin-top="0"
     fit-margin-left="0"
     fit-margin-right="0"
     fit-margin-bottom="0"
     inkscape:zoom="0.34208744"
     inkscape:cx="176.95599"
     inkscape:cy="9.4379883"
     inkscape:window-x="-8"
     inkscape:window-y="-8"
     inkscape:window-maximized="1"
     inkscape:current-layer="Layer_1" /><g
     id="g3"
     transform="translate(-243.98901,-98.065002)"><circle
       stroke-miterlimit="10"
       cx="347.48901"
       cy="202.565"
       r="98.667"
       id="circle5"
       style="fill:#e30613;stroke:#ffffff;stroke-width:0.5;stroke-miterlimit:10" /><circle
       stroke-miterlimit="10"
       cx="346.48901"
       cy="196.565"
       r="11.5"
       id="circle7"
       style="stroke:#000000;stroke-miterlimit:10" /><circle
       cx="346.48901"
       cy="196.565"
       r="3"
       id="circle9"
       style="fill:#3c3c3b" /><g
       id="g11"><polygon
         stroke-miterlimit="10"
         points="282.668,137.227 280.668,137.227 274.335,143.894 287.002,139.561 287.002,137.227 "
         id="polygon13"
         style="fill:none;stroke:#ffffff;stroke-width:0.5;stroke-miterlimit:10" /><polygon
         stroke-miterlimit="10"
         points="294.335,131.227 291.835,127.894 289.335,127.894 287.002,132.227 289.335,138.894 292.335,138.894 292.335,134.227 "
         id="polygon15"
         style="fill:none;stroke:#ffffff;stroke-width:0.5;stroke-miterlimit:10" /><polygon
         stroke-miterlimit="10"
         points="298.835,130.227 297.002,132.56 297.002,134.894 300.668,134.894 300.668,130.227 "
         id="polygon17"
         style="fill:none;stroke:#ffffff;stroke-width:0.5;stroke-miterlimit:10" /><polygon
         stroke-miterlimit="10"
         points="305.335,130.227 305.335,127.894 308.002,127.894 313.335,131.394 317.002,131.394 317.002,126.561 311.168,124.227 312.668,121.561 309.643,118.894 306.668,122.561 305.335,124.227 300.668,122.561 298.835,123.894 305.335,134.894 308.002,132.56 307.419,132.052 "
         id="polygon19"
         style="fill:none;stroke:#ffffff;stroke-width:0.5;stroke-miterlimit:10" /><polygon
         stroke-miterlimit="10"
         points="323.002,126.894 325.669,124.227 328.002,124.227 330.002,121.227 330.002,118.894 327.669,114.894 320.669,114.894 319.336,114.894 317.002,118.894 318.002,118.894 320.336,118.894 323.502,118.894 320.669,121.56 319.336,123.727 320.669,132.56 320.669,130.227 320.669,126.894 "
         id="polygon21"
         style="fill:none;stroke:#ffffff;stroke-width:0.5;stroke-miterlimit:10" /><polygon
         stroke-miterlimit="10"
         points="333.669,127.894 337.002,126.894 338.669,126.894 341.336,123.727 338.002,123.727 337.002,118.894 339.002,118.894 339.336,114.894 338.336,113.227 336.002,114.894 334.002,116.227 332.002,113.227 334.002,110.894 341.336,109.56 344.363,109.56 345.669,114.894 344.363,118.894 344.363,121.06 347.336,121.06 350.489,123.727 347.336,126.894 344.365,126.894 344.365,127.894 348.336,130.227 350.489,127.894 352.336,123.727 352.336,121.06 353.669,118.894 353.669,116.56 350.489,114.894 347.669,114.894 347.336,112.56 348.336,109.56 353.669,109.56 357.002,110.894 357.002,116.56 359.336,118.894 359.336,122.227 357.336,123.727 356.669,125.56 357.669,127.894 356.669,132.56 353.002,132.56 350.489,133.394 353.002,137.227 350.489,138.894 344.365,137.227 340.669,134.894 338.669,132.56 335.002,132.56 330.002,132.56 328.002,132.56 326.669,130.227 "
         id="polygon23"
         style="fill:none;stroke:#ffffff;stroke-width:0.5;stroke-miterlimit:10" /><polygon
         stroke-miterlimit="10"
         points="367.336,111.894 369.669,111.894 374.669,111.894 374.669,115.394 373.002,118.894 373.002,121.06 374.669,124.894 373.002,127.894 370.669,132.56 368.502,132.56 362.336,132.56 359.336,132.56 362.336,127.894 362.336,123.727 361.002,122.227 362.336,118.894 367.336,118.894 367.336,114.894 "
         id="polygon25"
         style="fill:none;stroke:#ffffff;stroke-width:0.5;stroke-miterlimit:10" /><polygon
         stroke-miterlimit="10"
         points="365.336,134.894 359.336,134.894 358.002,134.894 354.668,134.894 354.668,137.227 357.002,137.727 359.336,138.894 359.336,140.56 360.836,143.894 364.335,145.895 367.002,145.895 367.002,143.894 367.002,140.56 363.668,140.56 365.336,137.227 "
         id="polygon27"
         style="fill:none;stroke:#ffffff;stroke-width:0.5;stroke-miterlimit:10" /><path
         stroke-miterlimit="10"
         d="m 380.668,114.894 -2.666,4 0,1.668 2.666,1.665 -1.332,3.335 -1.334,1.332 -5,1 1.667,4.666 4.666,0 2.667,0 4,-2.333 c 0,0 1.333,-1.668 1.666,-2.333 0.334,-0.665 -2,-3.667 -2,-3.667 l 0,-2 2.033,0 -1.366,-3.333 -3.333,-2.332 -2.334,-1.668 z"
         id="path29"
         inkscape:connector-curvature="0"
         style="fill:none;stroke:#ffffff;stroke-width:0.5;stroke-miterlimit:10" /><path
         stroke-miterlimit="10"
         d="m 384.668,134.894 -6,2.333 -3.999,-1.167 -1.667,-1.166 -2,1.166 c 0,0 0,1.499 0,2.834 0,1.335 0,5 0,5 l -1.334,2.001 0,2.334 -2.666,1 7.667,5 1.167,-5.334 0,-3 4.516,-2.001 -1.35,-3.334 -4.333,1.669 0,-3.335 2.666,0 3.017,0 2.316,0 2,-4 z"
         id="path31"
         inkscape:connector-curvature="0"
         style="fill:none;stroke:#ffffff;stroke-width:0.5;stroke-miterlimit:10" /><path
         stroke-miterlimit="10"
         d="m 398.336,122.227 -4.334,4.667 0,1 0,2.333 -2.334,0 c 0,0 -3.445,0.998 -2.389,2.333 1.056,1.335 0,4.667 0,4.667 l -1.578,3.333 -1.699,0 0,4.002 -1.334,1.333 -4.316,0 0,2.334 4.316,4.666 -2.333,6 2.333,0 3.033,-6.333 1.643,-4 0,-4 2.324,-4.001 1.668,-3.334 3.332,0 -0.666,3.334 -0.334,4.001 2.668,-4.001 2.332,-3.334 4.668,-3.833 0,-3.167 -4.668,0 0,-3.333 -2.332,-4.667 z"
         id="path33"
         inkscape:connector-curvature="0"
         style="fill:none;stroke:#ffffff;stroke-width:0.5;stroke-miterlimit:10" /><polygon
         stroke-miterlimit="10"
         points="379.002,151.895 380.352,151.895 380.352,155.395 380.352,160.562 379.002,158.895 375.836,157.229 377.418,154.229 "
         id="polygon35"
         style="fill:none;stroke:#ffffff;stroke-width:0.5;stroke-miterlimit:10" /><polygon
         stroke-miterlimit="10"
         points="411.002,140.561 407.336,140.394 405.336,143.894 402.828,142.229 402.828,140.394 405.336,137.227 407.668,134.894 409.582,132.56 411.002,132.56 413.002,133.394 416.336,137.227 413.002,140.394 "
         id="polygon37"
         style="fill:none;stroke:#ffffff;stroke-width:0.5;stroke-miterlimit:10" /><polygon
         stroke-miterlimit="10"
         points="402.828,147.895 401.002,150.229 398.336,151.895 396.668,151.895 395.002,148.895 399.002,145.895 400.336,143.894 402.828,142.229 404.002,145.895 407.002,145.895 409.582,145.895 409.582,147.895 406.668,147.895 "
         id="polygon39"
         style="fill:none;stroke:#ffffff;stroke-width:0.5;stroke-miterlimit:10" /><path
         stroke-miterlimit="10"
         d="m 390.668,154.229 -2.967,1.999 0,2.667 0,1.667 -3.033,1.333 c 0,0 -2,1.334 0,2.334 2,1 4.611,3.333 4.611,3.333 l 1.389,-3.333 c 0,0 1.686,-0.667 2.176,-0.667 0.492,0 2.492,-0.333 3.492,-1 1,-0.667 3,-2 3,-2 l 2.955,-4.334 -5.623,2.667 -3.824,1.667 -1.508,0 0,-1.667 0,-2.667 -0.668,-1.999 z"
         id="path41"
         inkscape:connector-curvature="0"
         style="fill:none;stroke:#ffffff;stroke-width:0.5;stroke-miterlimit:10" /><path
         stroke-miterlimit="10"
         d="m 408.002,151.895 -2.666,2.334 -2.508,-1.167 0,-2.5 c 0,0 -1.582,2.667 2.586,0 4.168,-2.667 2.588,-2.667 2.588,-2.667 l 1.58,0 1.42,-2 0,-2.001 c 0,0 2.334,-0.001 3.334,0 1,0.001 2,0 2,0 l 3,0 -11.334,8.001 z"
         id="path43"
         inkscape:connector-curvature="0"
         style="fill:none;stroke:#ffffff;stroke-width:0.5;stroke-miterlimit:10" /><path
         stroke-miterlimit="10"
         d="m 424.336,151.895 -5,0 -3,0 0,-1.333 c 0,0 -3.334,0.333 -3,1.333 0.332,1 0.619,1.668 -0.023,2.334 -0.645,0.666 0,1.999 0,1.999 l 1.355,2.667 c 0,0 1.334,1.335 1.668,2.001 0.332,0.666 2.346,0 2.346,0 l 0.654,-3.001 1.332,-2.019 2,-1.647 1.668,-2.334 z"
         id="path45"
         inkscape:connector-curvature="0"
         style="fill:none;stroke:#ffffff;stroke-width:0.5;stroke-miterlimit:10" /><path
         stroke-miterlimit="10"
         d="m 410.936,158.895 -3.268,2.297 -2.332,1.703 c -2,1.334 -5.668,0 -5.668,0 l 0,6.667 2.623,1.667 0,1.666 -5.289,0 c 0,0 -2.334,1.333 -2,0 0.334,-1.333 0,-3.333 0,-3.333 l 0,-3.371 1.334,-3.629 5.955,-3.667 3.045,-3.019 4.246,0 1.354,3.019 z"
         id="path47"
         inkscape:connector-curvature="0"
         style="fill:none;stroke:#ffffff;stroke-width:0.5;stroke-miterlimit:10" /><path
         stroke-miterlimit="10"
         d="m 394.969,175.562 c 0,0 -0.566,-1 -1.934,0 -1.368,1 -5.334,0 -5.334,0 l 0,-2.074 c 0,0 -2.301,-1.593 0,-2.593 2.301,-1 2.301,-1 2.301,-1 l 0.822,0 2.211,3.056 1.934,2.611 z"
         id="path49"
         inkscape:connector-curvature="0"
         style="fill:none;stroke:#ffffff;stroke-width:0.5;stroke-miterlimit:10" /><polygon
         stroke-miterlimit="10"
         points="427.119,149.061 424.336,149.061 422.668,149.061 424.336,151.895 424.336,155.876 429.902,154.229 429.902,151.895 "
         id="polygon51"
         style="fill:none;stroke:#ffffff;stroke-width:0.5;stroke-miterlimit:10" /><path
         stroke-miterlimit="10"
         d="m 395.002,179.895 0.395,1.026 1.271,3.308 -1.666,0 -1.967,-2.167 1.816,-3.833 3.816,-2.223 3.623,-3.111 4.377,0 1.334,-3 5.023,-5.213 1.977,2.88 1.334,2.333 3,2 2,4.111 -2,1.556 -3,-1.556 -1.334,0 -1.977,1.556 -3.443,-0.333 0,2.333 c 0,0 1.914,0.999 0,1.333 -1.914,0.334 -6.631,0 -6.631,0 l -2.615,-2 -5.333,1 z"
         id="path53"
         inkscape:connector-curvature="0"
         style="fill:none;stroke:#ffffff;stroke-width:0.5;stroke-miterlimit:10" /><polygon
         stroke-miterlimit="10"
         points="418.682,164.682 420.674,164.682 424.336,161.191 426.285,160.896 429.902,164.682 429.902,167.562 428.668,167.562 426.285,167.562 422.668,167.562 421.336,169.895 419.336,168.728 "
         id="polygon55"
         style="fill:none;stroke:#ffffff;stroke-width:0.5;stroke-miterlimit:10" /><path
         stroke-miterlimit="10"
         d="m 432.668,188.229 5.873,0 1.461,-2 0,-3.667 -1.459,-4.333 -2.207,-3.773 -2,-4.561 2,-2.333 -6.434,5.389 -3.617,3.056 -4.949,0 0,4.223 -2.654,1.666 c 0,0 0.012,3.334 0,4.334 -0.014,1 1.654,1.334 2.654,2 1,0.666 2.955,0 2.955,0 0,0 1.277,0.592 1.994,0.296 0.717,-0.296 0,-1.963 0,-1.963 l -1.949,-2.333 0,-2.334 1.949,-2.333 3.057,-1.477 2.994,0 1.666,3.477 0,2.667 -1.334,3.999 z"
         id="path57"
         inkscape:connector-curvature="0"
         style="fill:none;stroke:#ffffff;stroke-width:0.5;stroke-miterlimit:10" /><path
         stroke-miterlimit="10"
         d="m 412.002,184.229 4.334,2.333 0,2.046 -2.168,2.287 -2.166,0 -2.42,3 -2.396,0 0,4 -1.85,0 c 0,0 -2.938,1.333 -2.803,0 0.135,-1.333 -1.865,-2.666 -1.865,-2.666 l -3,-1 c 0,0 -2.332,-3.075 -1.332,-2.871 1,0.204 1.334,1.129 2.666,0 1.334,-1.129 2.062,-3.037 3.531,-2.75 1.469,0.287 2.803,-1.379 2.803,-1.379 0,0 0.367,-1.333 1.85,-1 1.483,0.333 3.75,0 3.75,0 l 1.066,-2 z"
         id="path59"
         inkscape:connector-curvature="0"
         style="fill:none;stroke:#ffffff;stroke-width:0.5;stroke-miterlimit:10" /><path
         stroke-miterlimit="10"
         d="m 444.084,194.144 -4.082,0 0,4.344 -2.287,-3.344 0,-2.25 -1.881,-1.536 -3,0 -3.492,1.536 -3.057,-0.5 -3.617,0.25 c 0,0 -2.582,0.25 -3.332,1 -0.752,0.75 -3,2.25 -3,2.25 l -5.4,2.594 -3.75,2.906 c 0,0 1.895,1.93 2.396,1.84 0.501,-0.09 3.443,-2.59 3.443,-2.59 l 3.311,-0.5 0,2 c 0,0 -3.119,2 -3.311,2.5 -0.192,0.5 -3.443,2 -3.443,2 0,0 -1.295,1.5 -2.396,2.25 -1.101,0.75 -4.617,1 -4.234,1.75 0.383,0.75 0.383,0.75 0.383,0.75 0,0 3.453,0.75 3.852,1 0.399,0.25 2.85,2 3.75,0 0.898,-2 2.09,-4 2.09,-4 l 2.059,-0.75 1.252,-1.25 c 0,0 1.248,1 1.248,1.75 0,0.75 -2.75,3.25 -2.75,3.25 0,0 -0.75,0.645 -0.75,1.947 0,1.302 0.25,1.803 1.25,2.303 1,0.5 1.25,-0.5 2.25,0 1,0.5 3.252,0.289 3.752,0.145 0.498,-0.145 1.332,-1.645 1.332,-1.645 0,0 0.33,-3 1.623,-2.75 1.293,0.25 1.293,0.25 1.293,0.25 l -1.293,4.314 0,1.436 1.994,0 2.049,0 3,0 2.75,1.5 1.5,-2.5 4.418,-1 c 0.332,-2.75 -1.082,-4.5 0,-4.5 1.082,0 0.332,3.5 1.082,0 0.75,-3.5 0.5,-4.285 0.75,-5.768 0.25,-1.483 0,-3.482 -0.75,-2.982 -0.75,0.5 -2.086,-0.57 -2.543,1.09 -0.457,1.66 -1.207,1.91 -2.207,2.91 -1,1 -1,1 -1,1 l -3.25,1 c 0,0 -1.75,-1 0.25,-1.75 2,-0.75 3,-3.16 3,-3.16 l 1.25,0 1.959,-1.59 2.791,-1.5 1.5,-1.656 1.25,-2.844 0,-1.5 z"
         id="path61"
         inkscape:connector-curvature="0"
         style="fill:none;stroke:#ffffff;stroke-width:0.5;stroke-miterlimit:10" /><path
         stroke-miterlimit="10"
         d="m 404.084,205.126 1.252,1.518 -1.252,1 -1.793,1.25 c 0,0 -2.707,-2 -2.707,0 0,2 0,2.75 0,2.75 l -3.498,-1.25 -3.051,-2.009 c 0,0 -1.299,-1.241 0,-1.241 1.299,0 1.967,-2.018 1.967,-2.018 0,0 2.082,-2.053 2.832,-1.893 0.75,0.16 0.75,0.16 0.75,0.16 l 0.312,-3.5 c 0,0 0.938,0.25 1.938,0 1,-0.25 1,-0.25 1,-0.25 l 1.117,1.5 0,2.09 0,0.91 1.133,0.983 z"
         id="path63"
         inkscape:connector-curvature="0"
         style="fill:none;stroke:#ffffff;stroke-width:0.5;stroke-miterlimit:10" /><polygon
         stroke-miterlimit="10"
         points="394.969,200.644 396.086,198.487 394.969,195.394 393.035,196.644 394.002,199.644 "
         id="polygon65"
         style="fill:none;stroke:#ffffff;stroke-width:0.5;stroke-miterlimit:10" /><path
         stroke-miterlimit="10"
         d="m 437.715,223.144 -3.631,-1.25 -2.5,1.25 -2.242,2.25 -3.057,2.5 -1.949,2.5 3.998,1.25 c 0,0 -0.113,-0.25 1.568,0 1.681,0.25 2.932,0 2.932,0 l 2,0.111 1,-3.111 0.75,-1.819 c 0,0 1.012,1.681 1.131,0 0.119,-1.681 0,-3.681 0,-3.681 z"
         id="path67"
         inkscape:connector-curvature="0"
         style="fill:none;stroke:#ffffff;stroke-width:0.5;stroke-miterlimit:10" /><path
         stroke-miterlimit="10"
         d="m 424.291,226.824 -1.623,1.319 -2.334,0 -1.652,0 -2.346,-0.66 c 0,0 -1.252,0.771 -1.252,-0.659 0,-1.43 0,-1.431 0,-1.431 l -2.059,0 c 0,0 -2.74,-1 -2.09,-1.75 0.648,-0.75 -1.65,-2 0,-2.75 1.648,-0.75 0.398,0.25 1.648,-0.75 1.25,-1 2.25,-1.25 2.25,-1.25 0,0 -0.5,-1.5 0.5,-1.5 1,0 1,0 1,0 0,0 1.443,1 2.348,1.5 0.902,0.5 -1.098,-0.75 0.902,0.5 2,1.25 3.084,2.5 3.084,2.5 l 0,2.5 0.836,2.431 0.788,0 z"
         id="path69"
         inkscape:connector-curvature="0"
         style="fill:none;stroke:#ffffff;stroke-width:0.5;stroke-miterlimit:10" /><path
         stroke-miterlimit="10"
         d="m 405.336,221.894 c -0.502,-1.5 0,-3 0,-3 l -1.002,-1.5 -2.043,-1.25 -1.457,0 -1.938,1.25 -1.312,-1.25 -1.498,-1 -1.525,-1 -1.525,0 -0.576,0 -3.18,0 -0.052,1.5 0,2.375 c 2.856,1.625 1.259,-0.375 3.808,0.875 2.549,1.25 2.549,1.25 2.549,1.25 0,0 2.145,0.75 1.697,1.75 -0.448,1 -1.195,2.25 -1.195,2.25 0,0 -3.254,0.25 -3.627,1 -0.375,0.75 -0.125,-0.75 -0.375,0.75 -0.25,1.5 -1.5,0.5 -0.25,1.5 1.25,1 -1.5,0.5 1.25,1 2.75,0.5 1,0.75 2.75,0.5 1.75,-0.25 1.75,-0.25 1.75,-0.25 l 0,0 -0.303,2.25 c 0,0 2.053,0.223 3.303,0.861 1.25,0.638 0.984,-0.639 2.367,0 1.383,0.639 3.387,-1.27 3.26,0.185 -0.127,1.455 -0.377,-1.046 -0.127,1.454 0.25,2.5 -0.5,0.25 0.25,2.5 0.75,2.25 -2,2 0.75,2.25 2.75,0.25 0.25,0.25 2.75,0.25 2.5,0 1.25,1 2.5,0 1.25,-1 1.25,-1 1.25,-1 0,0 1.75,1.25 0,-1.25 -1.75,-2.5 -1.299,-2 -2.648,-2.75 -1.352,-0.75 -3.75,-2.5 -3.75,-2.5 0,0 1.148,-1 1.398,-2.75 0.25,-1.75 0.998,-3.25 0.998,-3.25 l -3.371,-2.125 -0.876,-0.875 z"
         id="path71"
         inkscape:connector-curvature="0"
         style="fill:none;stroke:#ffffff;stroke-width:0.5;stroke-miterlimit:10" /><path
         stroke-miterlimit="10"
         d="m 384.668,222.769 0,1.375 2.011,0 c 0,0 0.405,-0.5 1.155,-1.375 0.75,-0.875 0.75,-0.875 0.75,-0.875 l 0.644,-1.25 c 0,0 0,-0.875 0,-1.75 0,-0.875 -2.28,0 -2.28,0 l -2.279,1.25 0,2.625 z"
         id="path73"
         inkscape:connector-curvature="0"
         style="fill:none;stroke:#ffffff;stroke-width:0.5;stroke-miterlimit:10" /><path
         stroke-miterlimit="10"
         d="m 423.504,231.755 -2.168,0 -2.654,0 c 0,0 -2.346,-1.639 -2.346,0 -0.002,1.639 0,1.389 0,2.639 -0.002,1.25 -1.752,0 -0.002,1.25 1.75,1.25 3.195,2 3.195,2 l 1.807,0 0,2.25 0,4 1.332,1.5 0.836,1 2.781,-1.75 2.049,-2.25 1.568,-2.5 1.15,-3 c 0,0 -0.332,-0.75 -1.15,-1.25 -0.818,-0.5 -3.617,-1.5 -3.617,-1.5 l -2.781,-2.389 z"
         id="path75"
         inkscape:connector-curvature="0"
         style="fill:none;stroke:#ffffff;stroke-width:0.5;stroke-miterlimit:10" /><path
         stroke-miterlimit="10"
         d="m 423.305,250.894 -1.969,3.25 c 0,0 -1.25,1 -2,1.5 -0.752,0.5 -1.303,0.75 -2.027,1.25 -0.724,0.5 -1.752,0 -1.752,0 0,0 -0.168,-0.055 -1.195,0.223 -1.027,0.278 -1.527,0.973 -2.277,0 -0.75,-0.973 -2.754,-1.75 -2.502,-2.861 0.252,-1.111 -0.502,-1.611 0,-2.361 0.502,-0.75 0.486,-0.5 0.744,-2.25 0.258,-1.75 0.258,-1.75 0.258,-1.75 l -1.178,-1.5 c 0,0 -1.869,-0.5 -2.221,-1 -0.352,-0.5 -1.85,-1.75 -1.85,-1.75 l -1.252,-1.25 -2.289,-1.75 c 0,0 -0.227,-2.611 1.156,-1.806 1.383,0.805 -0.367,1.056 1.383,0.806 1.75,-0.25 1.703,-1.611 2.852,-0.806 1.149,0.805 2.383,1.056 3.141,1.306 0.758,0.25 1.891,1 2.699,1.75 0.808,0.75 1.004,2 2.531,2.75 1.527,0.75 2.721,0.75 3.125,1.75 0.402,1 2.654,1.708 2.654,1.708 l 1.332,1.542 0.637,1.249 z"
         id="path77"
         inkscape:connector-curvature="0"
         style="fill:none;stroke:#ffffff;stroke-width:0.5;stroke-miterlimit:10" /><path
         stroke-miterlimit="10"
         d="m 400.334,242.394 0,-1 -1.438,-2.556 -2.811,-0.252 -1.525,1.058 1.525,1.971 c 0,0 0.475,3.779 1.361,3.029 0.886,-0.75 2.888,-2.25 2.888,-2.25 z"
         id="path79"
         inkscape:connector-curvature="0"
         style="fill:none;stroke:#ffffff;stroke-width:0.5;stroke-miterlimit:10" /><path
         stroke-miterlimit="10"
         d="m 396.086,234.894 -1.084,0 -4.178,1 -1.597,0 c 0,0 -1.667,0.25 -2.28,-1 -0.613,-1.25 -0.613,-1.25 -0.613,-1.25 0,0 -1.332,-1.777 -1.666,-1.889 -0.334,-0.112 -0.889,-0.729 -0.889,-0.729 l -2.195,-1.133 c 0,-1.5 0,-1.5 0,-1.5 l 2.195,-1.569 c 0,0 -1.027,0.265 0.889,-0.333 1.916,-0.598 1.916,-0.598 1.916,-0.598 0,0 2.002,1.75 2.252,2.25 0.248,0.5 -1.252,-1.5 0.248,0.5 1.5,2 1.5,2 1.5,2 0,0 1.248,0.52 1.875,0.26 0.625,-0.26 -1.125,-1.26 0.625,-0.26 1.75,1 0.25,0.25 1.75,1 1.5,0.75 0,0 1.5,0.75 1.5,0.75 0,0 1.5,0.75 1.5,0.75 1.5,0.75 1.5,0.75 l -0.438,1 -1.449,1.021 -1.361,-1.02 z"
         id="path81"
         inkscape:connector-curvature="0"
         style="fill:none;stroke:#ffffff;stroke-width:0.5;stroke-miterlimit:10" /><path
         stroke-miterlimit="10"
         d="m 406.211,252.144 c 0,0 -3.643,-1 -3.26,0 0.383,1 -1.17,3 -1.17,3 0,0 -0.697,1 -1.447,1.25 -0.75,0.25 -2.887,0 -2.887,0 l -1.361,-2.292 c 0,0 1.225,-2.097 1.361,-2.402 0.136,-0.305 0,-1.556 0,-1.556 l -2.445,0 -1.967,-2.042 c 0,0 -0.299,-0.708 0,-1.708 0.299,-1 0.299,-1 0.299,-1 0,0 -0.502,-1 -0.875,-1.75 -0.375,-0.75 -1.635,-1.979 -1.635,-1.979 l -0.365,-1.271 -3.512,-1.556 -1.363,0 -0.916,2.826 c 0,0 0.057,-0.521 -0.889,-1.271 -0.946,-0.75 -2.195,-1.808 -2.195,-1.808 0,0 -0.215,-0.442 -1.232,-1.192 -1.017,-0.75 -2.258,-1.479 -2.258,-1.479 l -2.258,-0.771 1.248,3.442 1.01,2.058 c 0,0 -0.01,1.041 0.99,1.021 1,-0.02 2.5,1.479 2.5,1.479 0,0 0.5,2.361 1.25,2.681 0.75,0.32 0.168,0.485 1.834,2.277 1.666,1.792 -0.084,-0.958 1.666,1.792 1.75,2.75 2.537,3.25 2.894,3.75 0.357,0.5 -1.144,-0.75 0.356,0.5 1.5,1.25 0.998,-0.027 2.875,2.361 1.875,2.389 3.627,3.639 3.627,3.639 0,0 0.475,0.75 1.361,1.25 0.886,0.5 0.887,1 1.887,1 1,0 1.738,0 3.494,0 1.756,0 1.76,-0.25 3.383,0 1.623,0.25 2.369,-0.5 3.371,0 1.002,0.5 -1.498,0.5 1.002,0.5 2.5,0 4.973,0 4.973,0 l 0,-2.75 c 0,0 -1.807,-0.75 -3.014,-0.75 -1.209,0 -2.961,-0.25 -2.961,-0.25 0,0 1.498,-0.553 0,-1.526 -1.498,-0.973 -0.248,1.026 -1.498,-0.974 -1.25,-2 -1.25,-2 -1.25,-2 l -0.623,-2.499 z"
         id="path83"
         inkscape:connector-curvature="0"
         style="fill:none;stroke:#ffffff;stroke-width:0.5;stroke-miterlimit:10" /><polygon
         stroke-miterlimit="10"
         points="380.352,235.144 381.584,235.144 383.779,235.144 383.779,233.023 381.584,233.023 379.334,230.903 378.094,230.903 378.094,232.644 379.334,232.644 "
         id="polygon85"
         style="fill:none;stroke:#ffffff;stroke-width:0.5;stroke-miterlimit:10" /><path
         stroke-miterlimit="10"
         d="m 410.936,266.394 -1.354,-1.5 -2.396,0 -1.85,0.75 0,2.75 c 1.498,0.5 -1.002,1 1.498,0.5 2.5,-0.5 2.5,-0.5 2.5,-0.5 l 1.602,-2 z"
         id="path87"
         inkscape:connector-curvature="0"
         style="fill:none;stroke:#ffffff;stroke-width:0.5;stroke-miterlimit:10" /><path
         stroke-miterlimit="10"
         d="m 401.795,269.101 0,3.293 -2.461,0 -1.887,0 c 0,0 -0.137,0.25 0,1 0.137,0.75 -1.361,2.5 -1.361,2.5 l -1.084,1.25 c 0,0 -1.516,1.25 -1.967,0 -0.451,-1.25 -1.223,-2.738 -2.211,-3.744 -0.99,-1.006 -0.99,-1.006 -0.99,-1.006 0,0 -3.523,-0.25 -2.887,-1.5 0.636,-1.25 0,-2.75 0,-2.75 0,0 -0.723,-1.543 2.332,-1.146 3.055,0.397 1.305,0.396 3.055,0.396 1.75,0 2.254,-0.293 3.752,-0.396 1.498,-0.103 1.498,-0.104 1.498,-0.104 l 2.75,0 1.461,2.207 z"
         id="path89"
         inkscape:connector-curvature="0"
         style="fill:none;stroke:#ffffff;stroke-width:0.5;stroke-miterlimit:10" /><path
         stroke-miterlimit="10"
         d="m 394.969,262.894 c 0,0 -0.982,-0.5 -1.934,0 -0.952,0.5 -0.701,-1.5 -2.576,0 -1.875,1.5 -3.148,1.5 -3.512,2 -0.364,0.5 -1.695,2.75 -2.279,1 -0.584,-1.75 -0.584,-1.75 -0.584,-1.75 l 2.863,-1.25 c 0,0 1.049,0 2.28,0 1.231,0 1.231,-2.75 1.231,-2.75 0,0 -2.232,-0.007 0.365,-1.25 2.597,-1.243 2.598,-1.243 2.598,-1.243 0,0 -2.545,2.721 -0.387,2.243 2.16,-0.478 3.051,0.25 3.051,0.25 l 0,1.956 -1.116,0.794 z"
         id="path91"
         inkscape:connector-curvature="0"
         style="fill:none;stroke:#ffffff;stroke-width:0.5;stroke-miterlimit:10" /><path
         stroke-miterlimit="10"
         d="m 386.679,260.144 c -1.095,0.75 -2.095,-0.75 -2.595,0 -0.5,0.75 -2.5,0.217 -2.5,0.217 l -1.232,-2.71 c 0,0 -0.768,1.44 -1.018,-0.033 -0.25,-1.473 -1.24,-2.724 -1.24,-2.724 0,0 1.775,-0.5 2.258,-1 0.483,-0.5 1.482,-1.25 1.232,-2 -0.25,-0.75 0.035,-1.25 -1.232,-1.25 -1.267,0 -4.516,0 -4.516,0 0,0 -0.25,-0.5 0,-1.625 0.248,-1.125 -0.111,-2.625 -0.111,-2.625 0,0 -1.389,-2.303 0.111,-1.651 1.498,0.651 1.998,-1.651 3.498,0 1.5,1.651 1,-0.099 2.25,1.651 1.25,1.75 0.75,0.5 1.25,1.75 0.5,1.25 -0.25,3.391 1.25,4.195 1.5,0.804 2.863,2.055 2.863,2.055 1.137,2 1.137,3.257 1.137,3.257 l 0,1.743 -1.405,0.75 z"
         id="path93"
         inkscape:connector-curvature="0"
         style="fill:none;stroke:#ffffff;stroke-width:0.5;stroke-miterlimit:10" /><path
         stroke-miterlimit="10"
         d="m 371.334,235.144 c 0,0 -1.25,1.25 -1.25,2 0,0.75 -1.5,0.639 0,1.694 1.5,1.055 1,-1.056 2.5,0 1.5,1.056 -0.25,-0.194 1.5,1.056 1.75,1.25 4.01,2.75 4.01,2.75 l 0,-2 -2.258,-2.058 -0.697,-2.672 -1.383,-0.771 -2.422,0 z"
         id="path95"
         inkscape:connector-curvature="0"
         style="fill:none;stroke:#ffffff;stroke-width:0.5;stroke-miterlimit:10" /><path
         stroke-miterlimit="10"
         d="m 380.352,282.394 c 0,0 0.287,0.25 1.26,0 0.973,-0.25 1.223,0.75 2.473,0 1.25,-0.75 1.727,-0.5 2.863,-1.5 1.136,-1 1.137,-3.194 1.137,-3.194 0,0 -1.178,-1.056 -1.213,-2.306 -0.037,-1.25 -2.119,-2.695 -2.203,-3.098 -0.084,-0.403 -0.889,0 -0.889,0 l -2.168,-0.179 -2.027,0 -1.49,-3.017 c -0.51,-1.707 -2.258,-2.551 -2.258,-2.551 l -2.08,0 c 0,0 0.172,0.594 0,1.344 -0.172,0.75 -1.078,0.75 0,2.25 1.078,1.5 1.83,3.691 2.08,4.471 0.248,0.779 2.258,4.779 2.258,4.779 l 0,1 0,1.25 2.257,0.751 z"
         id="path97"
         inkscape:connector-curvature="0"
         style="fill:none;stroke:#ffffff;stroke-width:0.5;stroke-miterlimit:10" /><path
         stroke-miterlimit="10"
         d="m 375.139,253.394 -1.902,1.25 c 0,0 -1.1,1.764 0,3.007 1.098,1.243 1.85,0.993 2.6,1.743 0.714,0.716 2.582,-0.114 2.313,0.977 -0.013,0.054 -0.032,0.111 -0.056,0.174 -0.51,1.35 0.01,2.35 0,3.35 -0.01,1 -1.078,2.312 0.081,2.656 1.159,0.344 -0.841,-1.406 1.159,0.344 2,1.75 0,0.5 2,1.75 2,1.25 2.25,0.914 2.75,0.457 0.5,-0.457 1.168,-1.457 0.584,-3.207 -0.584,-1.75 -1.779,-1.75 -3.057,-3 -1.278,-1.25 -2.277,-5.276 -2.277,-5.276 l -4.195,-4.225 z"
         id="path99"
         inkscape:connector-curvature="0"
         style="fill:none;stroke:#ffffff;stroke-width:0.5;stroke-miterlimit:10" /><path
         stroke-miterlimit="10"
         d="m 369.418,256.394 c 0,0 -0.416,1 0,2.5 0.416,1.5 0.916,2.119 1.666,2.56 0.75,0.441 0.75,0.44 0.75,0.44 0,0 0.826,-0.949 0.914,-1.35 0.086,-0.4 -0.488,0.093 0,-1.4 0.488,-1.493 -0.177,-0.303 -1.754,-1.526 -1.576,-1.224 -1.576,-1.224 -1.576,-1.224 z"
         id="path101"
         inkscape:connector-curvature="0"
         style="fill:none;stroke:#ffffff;stroke-width:0.5;stroke-miterlimit:10" /><path
         stroke-miterlimit="10"
         d="m 373.756,249.019 c 0,0 0.631,1.125 -0.52,1.875 -1.152,0.75 -4.004,1.445 -4.004,1.445 l -2.23,-1.66 0,-1.66 c 0,0 -1.168,0.541 -1.168,-0.917 0,-1.458 -1.25,-3.261 -1,-3.359 0.25,-0.098 0.25,-0.099 0.25,-0.099 0,0 -3.066,-0.021 -0.283,-0.511 2.783,-0.49 2.783,-0.489 2.783,-0.489 0,0 0.547,0.697 1.648,1.099 1.101,0.402 -0.648,-0.599 1.102,0.401 1.75,1 0.5,-0.25 1.75,1 1.25,1.25 1.672,2.875 1.672,2.875 z"
         id="path103"
         inkscape:connector-curvature="0"
         style="fill:none;stroke:#ffffff;stroke-width:0.5;stroke-miterlimit:10" /><path
         stroke-miterlimit="10"
         d="m 371.068,241.664 -4.066,0 0,-1.271 0,-0.75 c 0,0 0,-1.5 0,-0.75 0,0.75 -1.332,-0.75 0,-0.75 1.332,0 1.332,0 1.332,0 l 1.084,1.76 1.65,1.761 z"
         id="path105"
         inkscape:connector-curvature="0"
         style="fill:none;stroke:#ffffff;stroke-width:0.5;stroke-miterlimit:10" /><path
         stroke-miterlimit="10"
         d="m 375.139,282.678 -2.391,0 -3.33,1.216 -0.186,2 0,1.25 c 0,0 1.82,-0.5 1.836,0 0.016,0.5 0.469,0.5 1.117,0 0.648,-0.5 1.57,-0.75 1.57,-0.75 l 2.08,-1.295 0,-1.205 -0.696,-1.216 z"
         id="path107"
         inkscape:connector-curvature="0"
         style="fill:none;stroke:#ffffff;stroke-width:0.5;stroke-miterlimit:10" /><path
         stroke-miterlimit="10"
         d="m 372.904,276.394 c 0,0 -0.42,0.361 -0.37,1.306 0.05,0.945 0.05,0.944 0.05,0.944 l -3.166,1.75 c 0,0 -1.498,-0.5 -2.416,0 -0.918,0.5 -2.168,0 -2.168,0 0,0 -1.4,-1.027 -1.2,-1.889 0.2,-0.862 -1.05,-3.891 -1.05,-3.891 0,0 0,-2.166 0,-2.318 0,-0.152 -1.748,-2.783 -1.748,-2.783 l 1.248,-2.963 c 0,0 1.75,0.094 2.75,0.344 1,0.25 -0.25,-1 1,0.25 1.25,1.25 -0.414,1.738 1.168,2.369 1.582,0.631 1.25,0.881 2.416,1.631 1.166,0.75 -0.584,-0.5 1.166,0.75 1.75,1.25 2.652,2.721 2.652,2.721 l -0.332,1.779 z"
         id="path109"
         inkscape:connector-curvature="0"
         style="fill:none;stroke:#ffffff;stroke-width:0.5;stroke-miterlimit:10" /><path
         stroke-miterlimit="10"
         d="m 367.002,262.894 c 0,0 -0.766,1.5 -0.592,2 0.174,0.5 -1.576,0.25 0.174,0.5 1.75,0.25 2.834,0 2.834,0 0,0 -0.166,-1.75 0,-2.5 0.166,-0.75 -0.678,-2.35 -0.678,-2.35 l -1.121,0 c 0,0 -1.383,-1.887 -1.209,-2.894 0.174,-1.007 0,-2.507 0,-2.507 l -0.609,-1.75 c 0,0 1.465,-0.75 0,-2 -1.467,-1.25 0.033,-0.75 -1.467,-1.25 -1.5,-0.5 -2.5,-2 -2.5,0 0,2 0,3.25 0,3.25 0,0 -0.748,-1.75 -0.998,0 -0.252,1.75 -0.252,-0.25 -0.252,1.75 0,2 -0.75,0.25 0,2 0.75,1.75 -1.5,0.5 0.75,1.75 2.25,1.25 0.5,1 2.25,1.25 1.75,0.25 1.75,0.25 1.75,0.25 l 1.076,1.06 0.592,1.441 z"
         id="path111"
         inkscape:connector-curvature="0"
         style="fill:none;stroke:#ffffff;stroke-width:0.5;stroke-miterlimit:10" /><path
         stroke-miterlimit="10"
         d="m 360.836,239.903 c 0,0 -2.002,-1.49 -1.752,0 0.25,1.49 0.25,0.24 0.25,1.49 0,1.25 -0.75,-0.75 0,1.25 0.75,2 -0.5,0.5 0.75,2 1.25,1.5 1.25,1.5 1.25,1.5 0,0 -1,0.197 0,-1.401 1,-1.598 0,-3.078 0,-3.078 l 0.445,-1.761 -0.943,0 z"
         id="path113"
         inkscape:connector-curvature="0"
         style="fill:none;stroke:#ffffff;stroke-width:0.5;stroke-miterlimit:10" /><path
         stroke-miterlimit="10"
         d="m 357.834,248.102 c 0,0 0,0.737 -1.25,-0.11 -1.25,-0.847 -1.25,-0.848 -1.25,-0.848 l -0.666,-2.401 c 0,0 -1.584,-0.599 -3.084,-1.099 -1.5,-0.5 2,-0.25 -1.5,-0.5 -3.5,-0.25 -5.719,-0.447 -5.719,-0.447 l -1.281,0.947 c 0,0 0.5,0.25 -1.5,0 -2,-0.25 -2,-0.25 -2,-0.25 l -1.5,-0.697 c 0,0 -0.75,0.426 -1,1.437 -0.25,1.011 1,1.026 0,2.019 -1,0.993 -2,1.84 -2,1.84 0,0 -2,-0.598 -1.5,1.027 0.5,1.625 -0.08,3.32 -0.08,3.32 0,0 0.83,-0.195 1.58,1.055 0.75,1.25 -1.75,1.25 0.75,1.25 2.5,0 3,0.25 3.75,0 0.75,-0.25 6.086,0.111 6.086,0.111 l 0,1.639 c 0,0 1.164,-0.9 1.914,0.925 0.75,1.825 0.75,1.825 0.75,1.825 0,0 1.311,-0.5 2.155,0 0.844,0.5 -0.655,1.5 0.845,0.5 1.5,-1 2.168,-0.65 3.334,-2.325 1.166,-1.675 1.166,-1.675 1.166,-1.675 l 0,0 c 0,0 1.25,-1.75 2,-2.25 0.75,-0.5 0.75,-0.5 0.75,-0.5 0,0 0.334,-0.52 0.417,-1.51 0.083,-0.99 0.083,-0.99 0.083,-0.99 l -1.25,-2.293 z"
         id="path115"
         inkscape:connector-curvature="0"
         style="fill:none;stroke:#ffffff;stroke-width:0.5;stroke-miterlimit:10" /><path
         stroke-miterlimit="10"
         d="m 361.779,264.894 c 0,0 0.693,-1.5 0,-2 -0.695,-0.5 0.805,0.5 -0.695,-0.5 -1.5,-1 -0.916,-1.949 -2.083,-1.85 -1.167,0.099 -2.167,-0.007 -2.167,-0.007 0,0 -0.25,-1.093 -1,0.007 -0.75,1.1 -0.832,1.26 -1.166,1.93 -0.334,0.67 -0.834,2.42 -0.834,2.42 0,0 1,0.812 0,1.656 -1,0.844 -0.25,-0.406 -1,0.844 -0.75,1.25 -4,0 -0.75,1.25 3.25,1.25 0.75,2.75 3.25,1.25 2.5,-1.5 2.5,-1.5 2.5,-1.5 0,0 0.584,-1.438 1.167,-1.844 0.583,-0.406 0.583,-0.406 0.583,-0.406 l 0,0 0.807,-0.856 1.388,-0.394 z"
         id="path117"
         inkscape:connector-curvature="0"
         style="fill:none;stroke:#ffffff;stroke-width:0.5;stroke-miterlimit:10" /><path
         stroke-miterlimit="10"
         d="m 359.001,285.099 c 0,0 2.167,2.045 0,2.42 -2.167,0.375 0.083,0.375 -2.167,0.375 -2.25,0 -2,0 -4.25,0 -2.25,0 -1,0 -2.25,0 -1.25,0 -4.039,-0.375 -4.039,-0.375 l 0,-1.022 -2.961,-1.397 -1.75,0 c 0,0 0.25,-0.545 -1.25,0 -1.5,0.545 -2.5,1.276 -2.5,1.276 l 0,-1.276 c 0,0 -3.25,1.471 -1.25,-0.242 2,-1.713 3,-2.179 3,-2.179 l 0.25,-2.062 c 0,0 0,-0.277 -1,0 -1,0.277 -3.051,-1.027 -2.9,0 0.151,1.027 -0.85,1.596 -1.1,2.062 -0.25,0.466 1.25,0.216 -0.25,0.466 -1.5,0.25 -3.25,2.572 -3.75,0.911 -0.5,-1.661 -1.25,-3.438 -1.25,-3.438 4.25,-2.723 4.25,-2.723 4.25,-2.723 0,0 2.5,-2.25 3.25,-2.25 0.75,0 5,-1.029 5,-1.029 0,0 0.059,-0.779 2.279,0 2.22,0.779 4.221,3.141 4.471,3.085 0.25,-0.056 1.655,0 1.655,0 0,0 -0.655,0.194 1.845,1.694 2.5,1.5 2.5,1.5 2.5,1.5 0,0 0.336,1.818 1.543,1.784 1.207,-0.034 2.624,1.466 2.624,1.466 l 0,0.954 z"
         id="path119"
         inkscape:connector-curvature="0"
         style="fill:none;stroke:#ffffff;stroke-width:0.5;stroke-miterlimit:10" /><path
         stroke-miterlimit="10"
         d="m 349.584,272.296 c 0,0 -0.25,0.977 -1.75,1.287 -1.5,0.31 -3.06,0 -3.06,0 l 0,-1.287 c 0,0 1.618,-2.396 -0.411,-1.774 -2.029,0.622 -2.029,0.622 -2.029,0.622 0,0 -1.75,2.852 -2.75,0.926 -1,-1.926 -1.75,-2.969 -1.75,-2.969 0,0 0.5,-1.75 1,-2.104 0.5,-0.354 1,-1.492 1,-1.492 l 1.25,-0.611 -0.25,-2 -3,0 c 0,0 -1.25,1.25 -1.5,0 -0.25,-1.25 -0.25,-1.25 -0.25,-1.25 l 0,-2.5 c 0,0 -1.75,-1.736 -1,-1.493 0.75,0.243 -0.5,0.343 1.5,-0.332 2,-0.675 2,-1.175 3,-0.925 1,0.25 1.564,-0.75 2.657,0 1.093,0.75 1.724,-0.236 2.533,1.257 0.809,1.493 -1.19,-0.007 0.81,1.493 2,1.5 1.25,0.25 2,1.5 0.75,1.25 1.25,-1 0.75,1.25 -0.5,2.25 -0.5,3.611 -0.5,3.611 l 1.75,1.045 c 0,0 -0.75,2.258 0,2.551 0.75,0.293 1.5,-2.609 0.75,0.293 -0.75,2.902 0.311,2.902 0.311,2.902 l -1.061,0 z"
         id="path121"
         inkscape:connector-curvature="0"
         style="fill:none;stroke:#ffffff;stroke-width:0.5;stroke-miterlimit:10" /><path
         stroke-miterlimit="10"
         d="m 329.584,270.521 c 0,0 -1.25,-0.214 -1.25,-1.421 0,-1.207 0,-3.596 0,-3.596 0,0 0.25,-2.361 1.25,-2.611 1,-0.25 -0.25,0.25 1,-0.25 1.25,-0.5 -0.25,-0.25 1.25,-0.5 1.5,-0.25 1.5,-0.25 1.5,-0.25 0,0 1.627,1.25 1.563,2 -0.064,0.75 -0.563,-0.75 -0.063,0.75 0.5,1.5 0.5,1.5 0.5,1.5 0,0 -1.5,-2.543 0,0.854 1.5,3.397 2,5.299 2,5.299 -1.25,1.598 -1.25,1.598 -1.25,1.598 l -2.58,-0.311 -2.17,-1.287 -0.75,-1.774 -1,0 z"
         id="path123"
         inkscape:connector-curvature="0"
         style="fill:none;stroke:#ffffff;stroke-width:0.5;stroke-miterlimit:10" /><path
         stroke-miterlimit="10"
         d="m 323.084,279.394 c 0,0 -1.5,0.25 -2.25,0 -0.75,-0.25 -2.5,-1.389 -3,-1.694 -0.5,-0.305 -0.25,1.194 -0.5,-0.306 -0.25,-1.5 -1,-3.002 0,-3.126 1,-0.124 -0.506,0.255 2.623,-0.685 3.127,-0.939 3.127,-0.939 3.127,-0.939 0,0 0.25,-0.25 1.75,0 1.5,0.25 2.5,0.939 2.5,0.939 0,0 0.75,1.311 1,2.436 0.25,1.125 0,3.486 0,3.486 0,0 -0.5,-0.389 -1.25,0 -0.75,0.389 -3,0 -3,0 l -1,-0.111 z"
         id="path125"
         inkscape:connector-curvature="0"
         style="fill:none;stroke:#ffffff;stroke-width:0.5;stroke-miterlimit:10" /><path
         stroke-miterlimit="10"
         d="m 320.834,266.997 c 0,0 -1,1.311 0,2.104 1,0.793 -1.5,3.195 -1.5,3.195 l -2.505,0 c 0,0 0.245,-0.146 0,-1.774 -0.245,-1.628 1.255,-0.378 -0.245,-1.628 -1.5,-1.25 -3.25,-1.5 -3.25,-1 0,0.5 0,2.628 0,2.628 l -2.418,0 c 0,0 0.285,1.628 -1.273,-0.875 -1.558,-2.503 -2.559,-3.097 -2.559,-3.097 0,0 2.25,0.566 0,-1.045 -2.25,-1.611 -3.5,-2.611 -3.5,-2.611 0,0 -1.5,-0.631 -1,-1.44 0.5,-0.809 1.5,-2.06 2.25,-2.31 0.75,-0.25 -1,-1.486 1.5,-1.493 2.5,-0.007 0,0.243 2.5,-0.007 2.5,-0.25 2.75,0.85 4.25,-0.325 1.5,-1.175 -1,-0.425 1.5,-1.175 2.5,-0.75 2.5,-0.75 2.5,-0.75 0,0 2,-0.5 2.5,0 0.5,0.5 1.473,1.1 1.486,1.925 0.013,0.825 0,1.825 0,1.825 0,0 -0.252,0.301 0.006,1.4 0.258,1.099 0.758,-0.4 0.258,1.1 -0.5,1.5 -0.5,1.5 -0.5,1.5 l 0,3.853 z"
         id="path127"
         inkscape:connector-curvature="0"
         style="fill:none;stroke:#ffffff;stroke-width:0.5;stroke-miterlimit:10" /><path
         stroke-miterlimit="10"
         d="m 329.584,252.339 c 0,0 1.25,2.359 0,2.832 -1.25,0.473 -1.5,0.404 -2.5,0.938 -1,0.534 -2,0.284 -2.75,0.284 -0.75,0 0.25,1.5 -0.75,0 -1,-1.5 -2.072,-2.25 -2.035,-3 0.035,-0.75 -0.109,-1.75 1.088,-3.25 1.197,-1.5 0.947,-0.805 1.697,-2.152 0.75,-1.347 1.51,-3.249 1.51,-3.249 l 1.49,-2.046 c 0,0 0.223,0.488 1.111,-1.032 0.888,-1.52 0.5,-3.136 1.695,-3.078 1.193,0.058 1.193,0.058 1.193,0.058 0,0 2,0.52 1.5,1.26 -0.5,0.74 -0.5,0.74 -0.5,0.74 0,0 -1.5,-0.5 0,0 1.5,0.5 1.5,-1 1.5,0.5 0,1.5 0.25,-0.75 0,1.5 -0.25,2.25 0.75,1 -0.25,2.25 -1,1.25 -1.75,0.25 -1.75,1.5 0,1.25 -3,1.75 -2.25,2.625 0.75,0.875 0.75,0.875 0.75,0.875 l -0.749,2.445 z"
         id="path129"
         inkscape:connector-curvature="0"
         style="fill:none;stroke:#ffffff;stroke-width:0.5;stroke-miterlimit:10" /><path
         stroke-miterlimit="10"
         d="m 327.793,238.586 c 0,0 0.291,1.058 -1.209,-0.442 -1.5,-1.5 -1.5,-1.5 -1.5,-1.5 0,0 -2.895,-0.75 -2.447,0 0.448,0.75 -1.125,1.25 -1.088,2.25 0.035,1 1.535,0 0.035,1 -1.5,1 -1.5,-0.25 -1.5,1 0,1.25 0,2.75 0,2.75 0,0 -2.25,0.447 -2,1.099 0.25,0.652 0.461,0.901 -0.02,1.651 -0.481,0.75 0.51,1.857 -1.235,1.429 -1.745,-0.428 -4.813,0 -4.813,0 0,0 -1.27,-1.2 -1.1,1.311 0.168,2.511 -1.582,1.761 0.168,2.511 1.75,0.75 -1.5,0 1.75,0.75 3.25,0.75 1.74,1.5 3.995,1 2.255,-0.5 -0.534,-0.228 2.229,-1.055 2.763,-0.827 5.525,-9.695 5.525,-9.695 l 1.5,-2.74 1.71,-1.319 z"
         id="path131"
         inkscape:connector-curvature="0"
         style="fill:none;stroke:#ffffff;stroke-width:0.5;stroke-miterlimit:10" /><path
         stroke-miterlimit="10"
         d="m 315.334,235.144 c 0.25,1.25 0.25,2.5 0,3 -0.25,0.5 -1,-1.75 -0.25,0.5 0.75,2.25 0.75,2.25 0.75,2.25 0,0 -2,0.5 0,0 2,-0.5 2.197,-1.25 3.225,-2 1.025,-0.75 1.525,-2.583 1.525,-2.583 l 0,-1.167 c 0,0 1,-2.49 0,-2.12 -1,0.37 -2.689,-0.037 -2.689,-0.037 l -1.065,0 c -1.495,2.157 1.495,0.657 0,1.407 -1.495,0.75 -1.496,0.75 -1.496,0.75 z"
         id="path133"
         inkscape:connector-curvature="0"
         style="fill:none;stroke:#ffffff;stroke-width:0.5;stroke-miterlimit:10" /><path
         stroke-miterlimit="10"
         d="m 310.916,244.133 c -0.582,0.511 1.168,0.011 -0.582,0.511 -1.75,0.5 -4.25,0.289 -4.25,0.289 l -1.5,-1.612 c 0,0 -0.5,-0.886 0,-1.656 0.5,-0.77 0.25,-1.501 1,-1.761 0.75,-0.26 2.777,-0.76 3.139,-1.01 0.362,-0.25 -1.389,-0.25 0.361,-0.25 1.75,0 0.75,-1.25 1.75,0 1,1.25 0.662,4.978 0.082,5.489 z"
         id="path135"
         inkscape:connector-curvature="0"
         style="fill:none;stroke:#ffffff;stroke-width:0.5;stroke-miterlimit:10" /><path
         stroke-miterlimit="10"
         d="m 306.584,250.144 -2.222,3.412 -1.88,0 -3.148,-2.172 c 0,0 -0.5,-1.49 0,-2.365 0.5,-0.875 -1,0.375 0.5,-0.875 1.5,-1.25 0.527,-2 3.014,-1.75 2.487,0.25 2.486,0.25 3.736,0 1.25,-0.25 0.103,0.999 1.25,-0.25 1.148,-1.249 2.467,0 2.467,0 0,0 0.15,1.107 -0.658,1.679 -0.808,0.572 -0.809,0.571 -0.809,0.571 l -0.917,0.625 -1.333,1.125 z"
         id="path137"
         inkscape:connector-curvature="0"
         style="fill:none;stroke:#ffffff;stroke-width:0.5;stroke-miterlimit:10" /><path
         stroke-miterlimit="10"
         d="m 307.917,253.394 -1.833,1.777 -1.372,0 -2.229,2.479 -1.148,0 -2.222,-0.59 -1.278,-1.89 -1.25,0 c 0,0 0.5,-0.777 0,-1.777 -0.5,-1 -2.25,-0.75 -0.5,-1 1.75,-0.25 1.75,-0.25 1.75,-0.25 l 2.5,1.412 c 0,0 -0.081,-1.615 2.148,0 2.229,1.615 0.674,-1.131 1.88,0 1.721,1.616 3.554,-0.161 3.554,-0.161 z"
         id="path139"
         inkscape:connector-curvature="0"
         style="fill:none;stroke:#ffffff;stroke-width:0.5;stroke-miterlimit:10" /><path
         stroke-miterlimit="10"
         d="m 293.084,244.977 c -0.25,-0.833 0,-2.333 0,-2.333 0,0 -2,0.027 -1.25,-1.111 0.75,-1.138 1.25,-3.389 1.25,-3.389 l 1,-2.229 c 0,0 1,0.729 3.5,-0.771 2.5,-1.5 2.072,-1.064 4.037,-2.157 1.963,-1.093 2.219,-2.077 3.091,-1.96 0.872,0.117 -0.378,-1.883 0.872,0.117 1.25,2 -0.244,2.5 -0.872,4 -0.628,1.5 -1.581,1.439 -2.229,2.47 -0.648,1.031 -0.076,1.55 -0.861,2.29 -0.787,0.74 0.713,-1.76 -0.787,0.74 -1.5,2.5 -0.434,2.947 -1.967,4.099 -1.533,1.152 -3.543,3.08 -3.543,3.08 l -1.99,-1.429 -0.251,-1.417 z"
         id="path141"
         inkscape:connector-curvature="0"
         style="fill:none;stroke:#ffffff;stroke-width:0.5;stroke-miterlimit:10" /><path
         stroke-miterlimit="10"
         d="m 309.643,235.144 c -0.559,0.75 -1.726,1.167 -1.726,1.167 l -1.849,-1.167 1.787,-3.389 c 0,0 -0.479,-1.398 0,-1.505 0.479,-0.107 2.445,-2.106 2.445,-2.106 0,0 4.135,-1.639 4.459,-1.319 0.324,0.32 -1.676,-0.181 0.324,0.319 2,0.5 2.25,-1.75 2,0.5 -0.25,2.25 0.5,2.52 -1.25,3.26 -1.75,0.74 -1.75,0.74 -1.75,0.74 l -2.068,1.38 c 0,0 2.371,2.12 0,2.12 -2.373,0 -1.704,0.771 -1.704,0.771 l -0.668,-0.771 z"
         id="path143"
         inkscape:connector-curvature="0"
         style="fill:none;stroke:#ffffff;stroke-width:0.5;stroke-miterlimit:10" /><path
         stroke-miterlimit="10"
         d="m 313.084,221.894 c 0,0 -0.889,1.25 -1.068,2.25 -0.182,1 -1.314,1.5 -2.373,1.75 -1.059,0.25 -3.34,0.445 -3.574,0.598 -0.234,0.153 1.266,-0.348 -0.234,0.152 -1.5,0.5 -3.352,1.5 -3.352,1.5 l -2.398,2.106 -2.75,0.776 -2.01,0.729 c 0,0 -1.74,3.574 -2.24,1.231 -0.5,-2.343 -1.418,-2.736 -1.418,-2.736 0,0 -1.082,-1.856 -1.082,-2.106 0,-0.25 0,-0.25 0,-0.25 l 1.082,-1.27 c 0,0 2.898,0.52 3.658,-0.73 0.76,-1.25 1.76,-1 2.51,-1.75 0.75,-0.75 -0.943,-0.25 1.278,-1.375 2.221,-1.125 2.769,-1.014 3.37,-1.444 0.601,-0.43 1.607,-2.181 2.229,-2.431 0.622,-0.25 0.622,-0.25 0.622,-0.25 l 0.734,-2.5 c 0,0 1.432,-0.75 1.849,-1 0.417,-0.25 0.417,-0.25 0.417,-0.25 l 1.978,1.25 0,2.361 1.16,0.389 1.612,3 z"
         id="path145"
         inkscape:connector-curvature="0"
         style="fill:none;stroke:#ffffff;stroke-width:0.5;stroke-miterlimit:10" /><path
         stroke-miterlimit="10"
         d="m 296.834,214.144 -4,2 c 0,0 -1.086,0.5 -1.168,1.25 -0.082,0.75 -1.082,-0.5 -0.082,0.75 1,1.25 1,-0.5 1,1.25 0,1.75 -2.086,2.5 -0.918,3.375 1.168,0.875 -3.332,4.125 1.168,0.875 4.5,-3.25 6.033,-4.75 6.033,-4.75 1.467,0.25 2.967,0 2.967,0 l 0.648,-2.5 c 0,0 -0.352,0.25 0,-1.5 0.352,-1.75 0.352,-1.75 0.352,-1.75 l -3.967,0 -2.033,1 z"
         id="path147"
         inkscape:connector-curvature="0"
         style="fill:none;stroke:#ffffff;stroke-width:0.5;stroke-miterlimit:10" /><path
         stroke-miterlimit="10"
         d="m 309.643,213.144 c 0,0 -0.143,0.75 -1.726,0 -1.583,-0.75 -3.205,0 -3.205,0 0,0 -2.878,-1.75 -1.878,-2.5 1,-0.75 1,-0.75 1,-0.75 0,0 -1.244,-2.25 0.878,-2 2.122,0.25 -0.378,-0.25 2.122,0.25 2.5,0.5 2.5,0.5 2.5,0.5 l 0.967,2.032 -0.658,2.468 z"
         id="path149"
         inkscape:connector-curvature="0"
         style="fill:none;stroke:#ffffff;stroke-width:0.5;stroke-miterlimit:10" /><path
         stroke-miterlimit="10"
         d="m 299.112,210.676 c 0,0 -0.825,0.468 -2.302,0.968 -1.477,0.5 -2.977,0 -2.977,0 l 0,-0.968 c 0,0 0.23,-2.071 1.49,-2.802 1.26,-0.731 0.213,-1.73 1.486,-2.23 1.273,-0.5 0.273,-2.07 1.023,-2.41 0.75,-0.34 -1.5,0.66 0.75,-0.34 2.25,-1 1,0.5 2.25,-1 1.25,-1.5 0.5,0.25 1.25,-1.5 0.75,-1.75 -1.25,-2 0.75,-2.375 2,-0.375 1.506,0.875 3.628,0 2.122,-0.875 -0.128,-0.875 2.122,-0.875 2.25,0 3.111,-1 3.432,0 0.318,1 0.18,0.5 0,2.5 -0.182,2 -0.02,2.43 -1.1,3.59 -1.082,1.16 -1.082,1.16 -1.082,1.16 0,0 -0.834,1.25 -1.917,1.25 -1.083,0 -0.364,-0.5 -1.849,0 -1.485,0.5 -3.707,-2.457 -3.048,0 0.659,2.457 -0.14,2.211 -0.538,2.23 -0.398,0.019 -0.861,1.02 -0.861,1.02 0,0 1.035,2.314 0,1.782 -1.037,-0.532 -1.037,-0.532 -1.037,-0.532 l -1.47,0.532 z"
         id="path151"
         inkscape:connector-curvature="0"
         style="fill:none;stroke:#ffffff;stroke-width:0.5;stroke-miterlimit:10" /><path
         stroke-miterlimit="10"
         d="m 314.76,192.644 -1.676,2.75 c 0,0 -0.686,0.25 -1.468,0 -0.782,-0.25 -0.415,0.25 -1.974,0 -1.559,-0.25 -1.559,-0.25 -1.559,-0.25 l -3.722,0.25 c 0,0 -1.222,-0.639 0,-1.319 1.222,-0.68 -0.528,0.069 1.222,-0.681 1.75,-0.75 -1.75,0.25 1.75,-0.75 3.5,-1 2.25,-0.5 3.5,-1 1.25,-0.5 1.25,-0.5 1.25,-0.5 l 2.677,1.5 z"
         id="path153"
         inkscape:connector-curvature="0"
         style="fill:none;stroke:#ffffff;stroke-width:0.5;stroke-miterlimit:10" /><path
         stroke-miterlimit="10"
         d="m 315.834,188.607 0,1.036 c 0,0 0.352,0.5 -1.074,0 -1.426,-0.5 -1.426,-0.5 -1.426,-0.5 0,0 -2.256,1.428 -1.128,-0.536 1.128,-1.964 1.128,-1.964 1.128,-1.964 l 2.539,-1.25 c 0,0 1.951,-1.214 0.956,1 -0.995,2.214 -0.995,2.214 -0.995,2.214 z"
         id="path155"
         inkscape:connector-curvature="0"
         style="fill:none;stroke:#ffffff;stroke-width:0.5;stroke-miterlimit:10" /><polygon
         stroke-miterlimit="10"
         points="319.059,184.229 321.029,182.562 319.059,180.894 317.111,182.894 318.085,184.229 "
         id="polygon157"
         style="fill:none;stroke:#ffffff;stroke-width:0.5;stroke-miterlimit:10" /><circle
         cx="349.48901"
         cy="207.233"
         r="99.845001"
         id="circle159"
         style="fill:none" /><path
         stroke-miterlimit="10"
         d="M 359.336,138.894"
         id="path161"
         inkscape:connector-curvature="0"
         style="fill:none;stroke:#ffffff;stroke-width:0.5;stroke-miterlimit:10" /></g><g
       id="g163"><defs
         id="defs165"><circle
           id="SVGID_1_"
           cx="347.48901"
           cy="201.565"
           r="103.5" /></defs><clipPath
         id="SVGID_2_"><use
           xlink:href="#SVGID_1_"
           overflow="visible"
           id="use169"
           style="overflow:visible"
           x="0"
           y="0"
           width="100%"
           height="100%" /></clipPath><line
         clip-path="url(#SVGID_2_)"
         stroke-miterlimit="10"
         x1="346.48901"
         y1="185.065"
         x2="343.48901"
         y2="97.065002"
         id="line171"
         style="fill:none;stroke:#000000;stroke-miterlimit:10" /><line
         clip-path="url(#SVGID_2_)"
         stroke-miterlimit="10"
         x1="348.88699"
         y1="185.065"
         x2="361.48901"
         y2="97.065002"
         id="line173"
         style="fill:none;stroke:#000000;stroke-miterlimit:10" /><line
         clip-path="url(#SVGID_2_)"
         stroke-miterlimit="10"
         x1="352.76401"
         y1="186.935"
         x2="400.73901"
         y2="103.565"
         id="line175"
         style="fill:none;stroke:#000000;stroke-miterlimit:10" /><line
         clip-path="url(#SVGID_2_)"
         stroke-miterlimit="10"
         x1="355.18799"
         y1="189.058"
         x2="418.48901"
         y2="111.815"
         id="line177"
         style="fill:none;stroke:#000000;stroke-miterlimit:10" /><line
         clip-path="url(#SVGID_2_)"
         stroke-miterlimit="10"
         x1="356.58701"
         y1="191.06"
         x2="433.73901"
         y2="124.815"
         id="line179"
         style="fill:none;stroke:#000000;stroke-miterlimit:10" /><line
         clip-path="url(#SVGID_2_)"
         stroke-miterlimit="10"
         x1="357.448"
         y1="193.08"
         x2="445.48901"
         y2="141.065"
         id="line181"
         style="fill:none;stroke:#000000;stroke-miterlimit:10" /><line
         clip-path="url(#SVGID_2_)"
         stroke-miterlimit="10"
         x1="357.448"
         y1="193.08"
         x2="457.48901"
         y2="157.938"
         id="line183"
         style="fill:none;stroke:#000000;stroke-miterlimit:10" /><line
         clip-path="url(#SVGID_2_)"
         stroke-miterlimit="10"
         x1="357.98901"
         y1="195.315"
         x2="460.73901"
         y2="180.065"
         id="line185"
         style="fill:none;stroke:#000000;stroke-miterlimit:10" /><line
         clip-path="url(#SVGID_2_)"
         stroke-miterlimit="10"
         x1="357.98901"
         y1="197.901"
         x2="455.604"
         y2="199.565"
         id="line187"
         style="fill:none;stroke:#000000;stroke-miterlimit:10" /><line
         clip-path="url(#SVGID_2_)"
         stroke-miterlimit="10"
         x1="350.27499"
         y1="185.717"
         x2="381.23901"
         y2="94.619003"
         id="line189"
         style="fill:none;stroke:#000000;stroke-miterlimit:10" /><line
         clip-path="url(#SVGID_2_)"
         stroke-miterlimit="10"
         x1="357.448"
         y1="199.565"
         x2="462.48901"
         y2="221.065"
         id="line191"
         style="fill:none;stroke:#000000;stroke-miterlimit:10" /><line
         clip-path="url(#SVGID_2_)"
         stroke-miterlimit="10"
         x1="356.58701"
         y1="202.07201"
         x2="460.73901"
         y2="241.315"
         id="line193"
         style="fill:none;stroke:#000000;stroke-miterlimit:10" /><line
         clip-path="url(#SVGID_2_)"
         stroke-miterlimit="10"
         x1="355.18799"
         y1="204.07401"
         x2="438.23901"
         y2="275.815"
         id="line195"
         style="fill:none;stroke:#000000;stroke-miterlimit:10" /><line
         clip-path="url(#SVGID_2_)"
         stroke-miterlimit="10"
         x1="356.05899"
         y1="202.942"
         x2="454.65601"
         y2="261.89899"
         id="line197"
         style="fill:none;stroke:#000000;stroke-miterlimit:10" /><line
         clip-path="url(#SVGID_2_)"
         stroke-miterlimit="10"
         x1="354.27301"
         y1="205.013"
         x2="428.15601"
         y2="294.56601"
         id="line199"
         style="fill:none;stroke:#000000;stroke-miterlimit:10" /><line
         clip-path="url(#SVGID_2_)"
         stroke-miterlimit="10"
         x1="352.32501"
         y1="206.46201"
         x2="406.79599"
         y2="301.56601"
         id="line201"
         style="fill:none;stroke:#000000;stroke-miterlimit:10" /><line
         clip-path="url(#SVGID_2_)"
         stroke-miterlimit="10"
         x1="350.577"
         y1="207.304"
         x2="391.215"
         y2="315.733"
         id="line203"
         style="fill:none;stroke:#000000;stroke-miterlimit:10" /><line
         clip-path="url(#SVGID_2_)"
         stroke-miterlimit="10"
         x1="348.88699"
         y1="207.814"
         x2="368.65701"
         y2="312.897"
         id="line205"
         style="fill:none;stroke:#000000;stroke-miterlimit:10" /><line
         clip-path="url(#SVGID_2_)"
         stroke-miterlimit="10"
         x1="346.48901"
         y1="208.065"
         x2="348.88699"
         y2="312.897"
         id="line207"
         style="fill:none;stroke:#000000;stroke-miterlimit:10" /><line
         clip-path="url(#SVGID_2_)"
         stroke-miterlimit="10"
         x1="344.98099"
         y1="207.95799"
         x2="329.65701"
         y2="314.397"
         id="line209"
         style="fill:none;stroke:#000000;stroke-miterlimit:10" /><line
         clip-path="url(#SVGID_2_)"
         stroke-miterlimit="10"
         x1="343.15601"
         y1="207.814"
         x2="308.15601"
         y2="312.897"
         id="line211"
         style="fill:none;stroke:#000000;stroke-miterlimit:10" /><line
         clip-path="url(#SVGID_2_)"
         stroke-miterlimit="10"
         x1="341.686"
         y1="207.004"
         x2="290.98999"
         y2="300.89801"
         id="line213"
         style="fill:none;stroke:#000000;stroke-miterlimit:10" /><line
         clip-path="url(#SVGID_2_)"
         stroke-miterlimit="10"
         x1="339.78299"
         y1="205.895"
         x2="273.65601"
         y2="292.89801"
         id="line215"
         style="fill:none;stroke:#000000;stroke-miterlimit:10" /><line
         clip-path="url(#SVGID_2_)"
         stroke-miterlimit="10"
         x1="338.48999"
         y1="204.07401"
         x2="255.99001"
         y2="279.73099"
         id="line217"
         style="fill:none;stroke:#000000;stroke-miterlimit:10" /><line
         clip-path="url(#SVGID_2_)"
         stroke-miterlimit="10"
         x1="336.92099"
         y1="202.942"
         x2="244.49001"
         y2="264.564"
         id="line219"
         style="fill:none;stroke:#000000;stroke-miterlimit:10" /><line
         clip-path="url(#SVGID_2_)"
         stroke-miterlimit="10"
         x1="335.892"
         y1="201.03799"
         x2="234.323"
         y2="245.731"
         id="line221"
         style="fill:none;stroke:#000000;stroke-miterlimit:10" /><line
         clip-path="url(#SVGID_2_)"
         stroke-miterlimit="10"
         x1="334.98901"
         y1="199.565"
         x2="227.49001"
         y2="226.56599"
         id="line223"
         style="fill:none;stroke:#000000;stroke-miterlimit:10" /><line
         clip-path="url(#SVGID_2_)"
         stroke-miterlimit="10"
         x1="334.98901"
         y1="197.901"
         x2="220.99001"
         y2="204.07401"
         id="line225"
         style="fill:none;stroke:#000000;stroke-miterlimit:10" /><line
         clip-path="url(#SVGID_2_)"
         stroke-miterlimit="10"
         x1="334.98901"
         y1="195.315"
         x2="231.15601"
         y2="183.565"
         id="line227"
         style="fill:none;stroke:#000000;stroke-miterlimit:10" /><line
         clip-path="url(#SVGID_2_)"
         stroke-miterlimit="10"
         x1="335.52899"
         y1="193.08"
         x2="234.323"
         y2="164.065"
         id="line229"
         style="fill:none;stroke:#000000;stroke-miterlimit:10" /><line
         clip-path="url(#SVGID_2_)"
         stroke-miterlimit="10"
         x1="335.892"
         y1="192.093"
         x2="234.323"
         y2="140.168"
         id="line231"
         style="fill:none;stroke:#000000;stroke-miterlimit:10" /><line
         clip-path="url(#SVGID_2_)"
         stroke-miterlimit="10"
         x1="337.319"
         y1="189.44"
         x2="248.82201"
         y2="124.815"
         id="line233"
         style="fill:none;stroke:#000000;stroke-miterlimit:10" /><line
         clip-path="url(#SVGID_2_)"
         stroke-miterlimit="10"
         x1="338.48999"
         y1="187.69"
         x2="263.48901"
         y2="109.063"
         id="line235"
         style="fill:none;stroke:#000000;stroke-miterlimit:10" /><line
         clip-path="url(#SVGID_2_)"
         stroke-miterlimit="10"
         x1="340.20901"
         y1="186.935"
         x2="283.07199"
         y2="99.230003"
         id="line237"
         style="fill:none;stroke:#000000;stroke-miterlimit:10" /><line
         clip-path="url(#SVGID_2_)"
         stroke-miterlimit="10"
         x1="342.67899"
         y1="185.717"
         x2="300.98901"
         y2="87.234001"
         id="line239"
         style="fill:none;stroke:#000000;stroke-miterlimit:10" /><line
         clip-path="url(#SVGID_2_)"
         stroke-miterlimit="10"
         x1="344.32999"
         y1="185.272"
         x2="321.83401"
         y2="82.061996"
         id="line241"
         style="fill:none;stroke:#000000;stroke-miterlimit:10" /></g><g
       id="g243"><defs
         id="defs245"><circle
           id="SVGID_3_"
           cx="347.48901"
           cy="202.565"
           r="97.595001" /></defs><clipPath
         id="SVGID_4_"><use
           xlink:href="#SVGID_3_"
           overflow="visible"
           id="use249"
           style="overflow:visible"
           x="0"
           y="0"
           width="100%"
           height="100%" /></clipPath><g
         clip-path="url(#SVGID_4_)"
         id="g251"
         style="opacity:0.3"><defs
           id="defs253"><circle
             id="SVGID_5_"
             cx="347.78101"
             cy="202.57201"
             r="103.5"
             style="opacity:0.3" /></defs><clipPath
           id="SVGID_6_"><use
             xlink:href="#SVGID_5_"
             overflow="visible"
             id="use257"
             style="overflow:visible"
             x="0"
             y="0"
             width="100%"
             height="100%" /></clipPath><line
           clip-path="url(#SVGID_6_)"
           stroke-miterlimit="10"
           x1="346.78101"
           y1="186.07201"
           x2="343.78101"
           y2="98.071999"
           id="line259"
           style="fill:none;stroke:#303030;stroke-width:2;stroke-miterlimit:10" /><line
           clip-path="url(#SVGID_6_)"
           stroke-miterlimit="10"
           x1="349.17801"
           y1="186.07201"
           x2="361.78101"
           y2="98.071999"
           id="line261"
           style="fill:none;stroke:#303030;stroke-width:2;stroke-miterlimit:10" /><line
           clip-path="url(#SVGID_6_)"
           stroke-miterlimit="10"
           x1="353.05701"
           y1="187.94099"
           x2="401.03101"
           y2="104.572"
           id="line263"
           style="fill:none;stroke:#303030;stroke-width:2;stroke-miterlimit:10" /><line
           clip-path="url(#SVGID_6_)"
           stroke-miterlimit="10"
           x1="355.479"
           y1="190.064"
           x2="418.78101"
           y2="112.822"
           id="line265"
           style="fill:none;stroke:#303030;stroke-width:2;stroke-miterlimit:10" /><line
           clip-path="url(#SVGID_6_)"
           stroke-miterlimit="10"
           x1="356.879"
           y1="192.06599"
           x2="434.03101"
           y2="125.822"
           id="line267"
           style="fill:none;stroke:#303030;stroke-width:2;stroke-miterlimit:10" /><line
           clip-path="url(#SVGID_6_)"
           stroke-miterlimit="10"
           x1="357.73999"
           y1="194.08701"
           x2="445.78101"
           y2="142.07201"
           id="line269"
           style="fill:none;stroke:#303030;stroke-width:2;stroke-miterlimit:10" /><line
           clip-path="url(#SVGID_6_)"
           stroke-miterlimit="10"
           x1="357.73999"
           y1="194.08701"
           x2="457.78101"
           y2="158.944"
           id="line271"
           style="fill:none;stroke:#303030;stroke-width:2;stroke-miterlimit:10" /><line
           clip-path="url(#SVGID_6_)"
           stroke-miterlimit="10"
           x1="358.28101"
           y1="196.32201"
           x2="461.03101"
           y2="181.07201"
           id="line273"
           style="fill:none;stroke:#303030;stroke-width:2;stroke-miterlimit:10" /><line
           clip-path="url(#SVGID_6_)"
           stroke-miterlimit="10"
           x1="358.28101"
           y1="198.908"
           x2="455.89499"
           y2="200.57201"
           id="line275"
           style="fill:none;stroke:#303030;stroke-width:2;stroke-miterlimit:10" /><line
           clip-path="url(#SVGID_6_)"
           stroke-miterlimit="10"
           x1="350.56699"
           y1="186.724"
           x2="381.53101"
           y2="95.625999"
           id="line277"
           style="fill:none;stroke:#303030;stroke-width:2;stroke-miterlimit:10" /><line
           clip-path="url(#SVGID_6_)"
           stroke-miterlimit="10"
           x1="357.73999"
           y1="200.57201"
           x2="462.78101"
           y2="222.07201"
           id="line279"
           style="fill:none;stroke:#303030;stroke-width:2;stroke-miterlimit:10" /><line
           clip-path="url(#SVGID_6_)"
           stroke-miterlimit="10"
           x1="356.879"
           y1="203.07899"
           x2="461.03101"
           y2="242.32201"
           id="line281"
           style="fill:none;stroke:#303030;stroke-width:2;stroke-miterlimit:10" /><line
           clip-path="url(#SVGID_6_)"
           stroke-miterlimit="10"
           x1="355.479"
           y1="205.08099"
           x2="438.53101"
           y2="276.82199"
           id="line283"
           style="fill:none;stroke:#303030;stroke-width:2;stroke-miterlimit:10" /><line
           clip-path="url(#SVGID_6_)"
           stroke-miterlimit="10"
           x1="356.35001"
           y1="203.94901"
           x2="454.948"
           y2="262.90601"
           id="line285"
           style="fill:none;stroke:#303030;stroke-width:2;stroke-miterlimit:10" /><line
           clip-path="url(#SVGID_6_)"
           stroke-miterlimit="10"
           x1="354.56601"
           y1="206.02"
           x2="428.448"
           y2="295.573"
           id="line287"
           style="fill:none;stroke:#303030;stroke-width:2;stroke-miterlimit:10" /><line
           clip-path="url(#SVGID_6_)"
           stroke-miterlimit="10"
           x1="352.617"
           y1="207.46899"
           x2="407.08801"
           y2="302.573"
           id="line289"
           style="fill:none;stroke:#303030;stroke-width:2;stroke-miterlimit:10" /><line
           clip-path="url(#SVGID_6_)"
           stroke-miterlimit="10"
           x1="350.86899"
           y1="208.311"
           x2="391.50699"
           y2="316.73999"
           id="line291"
           style="fill:none;stroke:#303030;stroke-width:2;stroke-miterlimit:10" /><line
           clip-path="url(#SVGID_6_)"
           stroke-miterlimit="10"
           x1="349.17801"
           y1="208.821"
           x2="368.94901"
           y2="313.90399"
           id="line293"
           style="fill:none;stroke:#303030;stroke-width:2;stroke-miterlimit:10" /><line
           clip-path="url(#SVGID_6_)"
           stroke-miterlimit="10"
           x1="346.78101"
           y1="209.07201"
           x2="349.17801"
           y2="313.90399"
           id="line295"
           style="fill:none;stroke:#303030;stroke-width:2;stroke-miterlimit:10" /><line
           clip-path="url(#SVGID_6_)"
           stroke-miterlimit="10"
           x1="345.27301"
           y1="208.965"
           x2="329.94901"
           y2="315.40399"
           id="line297"
           style="fill:none;stroke:#303030;stroke-width:2;stroke-miterlimit:10" /><line
           clip-path="url(#SVGID_6_)"
           stroke-miterlimit="10"
           x1="343.44901"
           y1="208.821"
           x2="308.44901"
           y2="313.90399"
           id="line299"
           style="fill:none;stroke:#303030;stroke-width:2;stroke-miterlimit:10" /><line
           clip-path="url(#SVGID_6_)"
           stroke-miterlimit="10"
           x1="341.978"
           y1="208.011"
           x2="291.28101"
           y2="301.905"
           id="line301"
           style="fill:none;stroke:#303030;stroke-width:2;stroke-miterlimit:10" /><line
           clip-path="url(#SVGID_6_)"
           stroke-miterlimit="10"
           x1="340.07501"
           y1="206.901"
           x2="273.948"
           y2="293.905"
           id="line303"
           style="fill:none;stroke:#303030;stroke-width:2;stroke-miterlimit:10" /><line
           clip-path="url(#SVGID_6_)"
           stroke-miterlimit="10"
           x1="338.78101"
           y1="205.08099"
           x2="256.28101"
           y2="280.73801"
           id="line305"
           style="fill:none;stroke:#303030;stroke-width:2;stroke-miterlimit:10" /><line
           clip-path="url(#SVGID_6_)"
           stroke-miterlimit="10"
           x1="337.21301"
           y1="203.94901"
           x2="244.78101"
           y2="265.57101"
           id="line307"
           style="fill:none;stroke:#303030;stroke-width:2;stroke-miterlimit:10" /><line
           clip-path="url(#SVGID_6_)"
           stroke-miterlimit="10"
           x1="336.18399"
           y1="202.045"
           x2="234.61501"
           y2="246.73801"
           id="line309"
           style="fill:none;stroke:#303030;stroke-width:2;stroke-miterlimit:10" /><line
           clip-path="url(#SVGID_6_)"
           stroke-miterlimit="10"
           x1="335.28101"
           y1="200.57201"
           x2="227.78101"
           y2="227.573"
           id="line311"
           style="fill:none;stroke:#303030;stroke-width:2;stroke-miterlimit:10" /><line
           clip-path="url(#SVGID_6_)"
           stroke-miterlimit="10"
           x1="335.28101"
           y1="198.908"
           x2="221.28101"
           y2="205.08099"
           id="line313"
           style="fill:none;stroke:#303030;stroke-width:2;stroke-miterlimit:10" /><line
           clip-path="url(#SVGID_6_)"
           stroke-miterlimit="10"
           x1="335.28101"
           y1="196.32201"
           x2="231.448"
           y2="184.57201"
           id="line315"
           style="fill:none;stroke:#303030;stroke-width:2;stroke-miterlimit:10" /><line
           clip-path="url(#SVGID_6_)"
           stroke-miterlimit="10"
           x1="335.82001"
           y1="194.08701"
           x2="234.61501"
           y2="165.07201"
           id="line317"
           style="fill:none;stroke:#303030;stroke-width:2;stroke-miterlimit:10" /><line
           clip-path="url(#SVGID_6_)"
           stroke-miterlimit="10"
           x1="336.18399"
           y1="193.10001"
           x2="234.61501"
           y2="141.175"
           id="line319"
           style="fill:none;stroke:#303030;stroke-width:2;stroke-miterlimit:10" /><line
           clip-path="url(#SVGID_6_)"
           stroke-miterlimit="10"
           x1="337.61099"
           y1="190.44701"
           x2="249.11501"
           y2="125.822"
           id="line321"
           style="fill:none;stroke:#303030;stroke-width:2;stroke-miterlimit:10" /><line
           clip-path="url(#SVGID_6_)"
           stroke-miterlimit="10"
           x1="338.78101"
           y1="188.69701"
           x2="263.78101"
           y2="110.07"
           id="line323"
           style="fill:none;stroke:#303030;stroke-width:2;stroke-miterlimit:10" /><line
           clip-path="url(#SVGID_6_)"
           stroke-miterlimit="10"
           x1="340.50201"
           y1="187.94099"
           x2="283.36499"
           y2="100.237"
           id="line325"
           style="fill:none;stroke:#303030;stroke-width:2;stroke-miterlimit:10" /><line
           clip-path="url(#SVGID_6_)"
           stroke-miterlimit="10"
           x1="342.97101"
           y1="186.724"
           x2="301.28101"
           y2="88.240997"
           id="line327"
           style="fill:none;stroke:#303030;stroke-width:2;stroke-miterlimit:10" /><line
           clip-path="url(#SVGID_6_)"
           stroke-miterlimit="10"
           x1="344.62201"
           y1="186.27901"
           x2="322.12601"
           y2="83.069"
           id="line329"
           style="fill:none;stroke:#303030;stroke-width:2;stroke-miterlimit:10" /><use
           xlink:href="#SVGID_5_"
           overflow="visible"
           stroke-miterlimit="10"
           id="use331"
           style="overflow:visible;fill:none;stroke:#303030;stroke-miterlimit:10"
           x="0"
           y="0"
           width="100%"
           height="100%" /></g></g></g></svg>