<?xml version="1.0" encoding="UTF-8" standalone="no"?>
<svg
   xmlns:dc="http://purl.org/dc/elements/1.1/"
   xmlns:cc="http://creativecommons.org/ns#"
   xmlns:rdf="http://www.w3.org/1999/02/22-rdf-syntax-ns#"
   xmlns:svg="http://www.w3.org/2000/svg"
   xmlns="http://www.w3.org/2000/svg"
   xmlns:xlink="http://www.w3.org/1999/xlink"
   xmlns:sodipodi="http://sodipodi.sourceforge.net/DTD/sodipodi-0.dtd"
   xmlns:inkscape="http://www.inkscape.org/namespaces/inkscape"
   version="1.1"
   id="Layer_1"
   x="0"
   y="0"
   width="218.66"
   height="218.66"
   viewBox="0 0 218.66 218.66"
   enable-background="new 0 0 841.89 595.28"
   xml:space="preserve"
   inkscape:version="0.91 r13725"
   sodipodi:docname="parasol2_optimized.svg"><sodipodi:namedview
     pagecolor="#ffffff"
     bordercolor="#666666"
     borderopacity="1"
     objecttolerance="10"
     gridtolerance="10"
     guidetolerance="10"
     inkscape:pageopacity="0"
     inkscape:pageshadow="2"
     inkscape:window-width="1600"
     inkscape:window-height="837"
     id="namedview247"
     showgrid="false"
     inkscape:zoom="4.3172047"
     inkscape:cx="166.64442"
     inkscape:cy="105.04783"
     inkscape:window-x="-8"
     inkscape:window-y="-8"
     inkscape:window-maximized="1"
     inkscape:current-layer="Layer_1" /><style
     id="style3">.s0{fill:none;stroke-width:0.5;stroke:#fff;}.s1{fill:none;stroke:#000;}.s2{opacity:0.3;}.s3{fill:none;stroke-width:2;stroke:#303030;}</style><metadata
     id="metadata37333"><rdf:RDF><cc:Work
         rdf:about=""><dc:format>image/svg+xml</dc:format><dc:type
           rdf:resource="http://purl.org/dc/dcmitype/StillImage" /><dc:title></dc:title></cc:Work></rdf:RDF></metadata><defs
     id="defs37331" /><g
     id="g36405"
     transform="translate(-311.12799,-180.36802)"><circle
       cx="420.4"
       cy="290.42"
       r="103.61"
       id="circle36407"
       fill="none" /><circle
       stroke-miterlimit="10"
       cx="419.96"
       cy="289.88"
       r="103.5"
       id="circle36409"
       style="fill:#e30613;stroke-width:0.5;stroke:#fff" /><g
       id="g36411"><defs
         id="defs36413"><path
           id="SVGID_1_"
           d="m523.96 290.5c0 57.16-46.34 103.5-103.5 103.5-57.16 0-103.5-46.34-103.5-103.5 0-57.16 46.34-103.5 103.51-103.5 57.16 0 103.5 46.34 103.5 103.5z" /></defs><clipPath
         id="SVGID_2_"><use
           xlink:href="#SVGID_1_"
           overflow="visible"
           id="use36417"
           x="0"
           y="0"
           width="100"
           height="100" /></clipPath><path
         clip-path="url(#SVGID_2_)"
         stroke-miterlimit="10"
         d="m 443.53,279.49 c 0,0 -2.67,-6.48 -12.5,-7.33 0,0 -7.83,-0.83 -12.33,7.33 m 103.64,-8.18 0,0 0,0 0,0 0,0 0,0 c 0,0 -7.81,3.52 -10.47,8.19 0,0 -5.17,-0.75 -6.92,0 0,0 -1.25,-6.81 -12.25,-7.5 0,0 -9,0.5 -11.5,7.5 m -21.83,7.51 c 0,0 -2.67,-6.48 -12.5,-7.33 0,0 -7.83,-0.83 -12.33,7.33 0,0 -2.83,-0.67 -6.17,0 0,0 -3.47,-7.67 -12.83,-7.5 m 122.64,-0.69 c 0,0 -7.8,3.52 -10.47,8.19 0,0 -5.17,-0.75 -6.92,0 0,0 -1.25,-6.81 -12.25,-7.5 0,0 -9,0.5 -11.5,7.5 0,0 -3.17,-1 -6.17,0 0,0 -3,-6.81 -13,-7.5 m 44.47,6.56 c 0,0 -7.8,3.52 -10.47,8.19 0,0 -5.16,-0.75 -6.91,0 0,0 -1.25,-6.81 -12.25,-7.5 0,0 -9,0.5 -11.5,7.5 0,0 -3.17,-1 -6.17,0 0,0 -3,-6.81 -13,-7.5 0,0 -8.17,0.17 -12.5,7.5 0,0 -2.83,-0.67 -6,0 0,0 -2.66,-6.48 -12.5,-7.33 0,0 -7.83,-0.83 -12.33,7.33 0,0 -2.83,-0.67 -6.17,0 m 124.98,-0.73 c 0,0 -7.8,3.52 -10.47,8.19 0,0 -5.16,-0.75 -6.92,0 0,0 -1.25,-6.81 -12.25,-7.5 0,0 -9,0.5 -11.5,7.5 0,0 -3.17,-1 -6.17,0 0,0 -3,-6.81 -13,-7.5 0,0 -8.17,0.17 -12.5,7.5 0,0 -2.83,-0.67 -6,0 0,0 -2.67,-6.48 -12.5,-7.33 0,0 -7.83,-0.83 -12.33,7.33 0,0 -2.83,-0.67 -6.17,0 0,0 -3.47,-7.67 -12.83,-7.5 0,0 -8.5,0 -12.17,7.5 m 119.63,-0.74 c 0,0 -7.81,3.52 -10.47,8.19 0,0 -5.17,-0.75 -6.92,0 0,0 -1.25,-6.81 -12.25,-7.5 0,0 -9,0.5 -11.5,7.5 0,0 -3.17,-1 -6.17,0 0,0 -3,-6.81 -13,-7.5 0,0 -8.17,0.17 -12.5,7.5 0,0 -2.83,-0.67 -6,0 0,0 -2.67,-6.48 -12.5,-7.33 0,0 -7.83,-0.83 -12.33,7.33 0,0 -2.83,-0.67 -6.17,0 0,0 -3.47,-7.67 -12.83,-7.5 0,0 -8.5,0 -12.17,7.5 0,0 -2.33,-0.5 -6,0 m 156.65,-0.9 c 0,0 -7.8,3.52 -10.47,8.19 0,0 -5.17,-0.75 -6.92,0 0,0 -1.25,-6.81 -12.25,-7.5 0,0 -9,0.5 -11.5,7.5 0,0 -3.17,-1 -6.17,0 0,0 -3,-6.81 -13,-7.5 0,0 -8.17,0.17 -12.5,7.5 0,0 -2.83,-0.67 -6,0 0,0 -2.67,-6.48 -12.5,-7.33 0,0 -7.83,-0.83 -12.33,7.33 0,0 -2.83,-0.67 -6.16,0 0,0 -3.47,-7.67 -12.83,-7.5 0,0 -8.5,0 -12.17,7.5 0,0 -2.33,-0.5 -6,0 0,0 -3.17,-7.5 -13,-7.5 0,0 -7.5,-0.5 -12.33,7.5 m 150.29,-0.95 c 0,0 -7.81,3.52 -10.47,8.19 0,0 -5.17,-0.75 -6.92,0 0,0 -1.25,-6.81 -12.25,-7.5 0,0 -9,0.5 -11.5,7.5 0,0 -3.17,-1 -6.17,0 0,0 -3,-6.81 -13,-7.5 0,0 -8.17,0.17 -12.5,7.5 0,0 -2.83,-0.67 -6,0 0,0 -2.67,-6.48 -12.5,-7.33 0,0 -7.83,-0.83 -12.33,7.33 0,0 -2.83,-0.67 -6.17,0 0,0 -3.47,-7.67 -12.83,-7.5 0,0 -8.5,0 -12.17,7.5 0,0 -2.33,-0.5 -6,0 0,0 -3.17,-7.5 -13,-7.5 m 168.99,6.94 c 0,0 -7.8,3.52 -10.47,8.19 0,0 -5.17,-0.75 -6.92,0 0,0 -1.25,-6.81 -12.25,-7.5 0,0 -9,0.5 -11.5,7.5 0,0 -3.17,-1 -6.17,0 0,0 -3,-6.81 -13,-7.5 0,0 -8.17,0.17 -12.5,7.5 0,0 -2.83,-0.67 -6,0 0,0 -2.66,-6.48 -12.5,-7.33 0,0 -7.83,-0.83 -12.33,7.33 0,0 -2.83,-0.67 -6.17,0 0,0 -3.47,-7.67 -12.83,-7.5 0,0 -8.5,0 -12.17,7.5 0,0 -2.33,-0.5 -6,0 0,0 -3.17,-7.5 -13,-7.5 0,0 -7.5,-0.5 -12.33,7.5 m 150.96,-0.68 c 0,0 -7.8,3.52 -10.47,8.19 0,0 -5.17,-0.75 -6.92,0 0,0 -1.25,-6.81 -12.25,-7.5 0,0 -9,0.5 -11.5,7.5 0,0 -3.17,-1 -6.17,0 0,0 -3,-6.81 -13,-7.5 0,0 -8.17,0.17 -12.5,7.5 0,0 -2.83,-0.67 -6,0 0,0 -2.67,-6.48 -12.5,-7.33 0,0 -7.83,-0.83 -12.33,7.33 0,0 -2.83,-0.67 -6.17,0 0,0 -3.47,-7.67 -12.83,-7.5 0,0 -8.5,0 -12.17,7.5 0,0 -2.33,-0.5 -6,0 0,0 -3.17,-7.5 -13,-7.5 0,0 -7.5,-0.5 -12.33,7.5 m 181.87,-1 c 0,0 -7.8,3.52 -10.47,8.19 0,0 -5.17,-0.75 -6.92,0 0,0 -1.25,-6.81 -12.25,-7.5 0,0 -9,0.5 -11.5,7.5 0,0 -3.17,-1 -6.17,0 0,0 -3,-6.81 -13,-7.5 0,0 -8.17,0.17 -12.5,7.5 0,0 -2.83,-0.67 -6,0 0,0 -2.67,-6.48 -12.5,-7.33 0,0 -7.83,-0.83 -12.33,7.33 0,0 -2.83,-0.67 -6.17,0 0,0 -3.47,-7.67 -12.83,-7.5 0,0 -8.5,0 -12.17,7.5 0,0 -2.33,-0.5 -6,0 0,0 -3.17,-7.5 -13,-7.5 0,0 -7.5,-0.5 -12.33,7.5 0,0 -1.67,-0.67 -5.83,0 0,0 -4.5,-7.83 -13,-7.5 m 169.79,6.76 c 0,0 -7.81,3.52 -10.47,8.19 0,0 -5.17,-0.75 -6.92,0 0,0 -1.25,-6.81 -12.25,-7.5 0,0 -9,0.5 -11.5,7.5 0,0 -3.17,-1 -6.17,0 0,0 -3,-6.81 -13,-7.5 0,0 -8.17,0.17 -12.5,7.5 0,0 -2.83,-0.67 -6,0 0,0 -2.67,-6.48 -12.5,-7.33 0,0 -7.83,-0.83 -12.33,7.33 0,0 -2.83,-0.67 -6.17,0 0,0 -3.47,-7.67 -12.83,-7.5 0,0 -8.5,0 -12.17,7.5 0,0 -2.33,-0.5 -6,0 0,0 -3.17,-7.5 -13,-7.5 m 169.65,6.6 c 0,0 -7.8,3.52 -10.47,8.19 0,0 -5.17,-0.75 -6.92,0 0,0 -1.25,-6.81 -12.25,-7.5 0,0 -9,0.5 -11.5,7.5 0,0 -3.17,-1 -6.17,0 0,0 -3,-6.81 -13,-7.5 0,0 -8.17,0.17 -12.5,7.5 0,0 -2.83,-0.67 -6,0 0,0 -2.66,-6.48 -12.5,-7.33 0,0 -7.83,-0.83 -12.33,7.33 0,0 -2.83,-0.67 -6.17,0 0,0 -3.47,-7.67 -12.83,-7.5 0,0 -8.5,0 -12.17,7.5 0,0 -2.33,-0.5 -6,0 0,0 -3.17,-7.5 -13,-7.5 0,0 -7.5,-0.5 -12.33,7.5 0,0 -1.67,-0.67 -5.83,0 0,0 -4.5,-7.83 -13,-7.5 0,0 -8.83,0 -12,7.5 0,0 -3.16,-0.33 -6.33,0 0,0 -4,-8 -13,-7.5 m 200.46,6.55 c 0,0 -7.81,3.52 -10.47,8.19 0,0 -5.17,-0.75 -6.92,0 0,0 -1.25,-6.81 -12.25,-7.5 0,0 -9,0.5 -11.5,7.5 0,0 -3.17,-1 -6.17,0 0,0 -3,-6.81 -13,-7.5 0,0 -8.17,0.17 -12.5,7.5 0,0 -2.83,-0.67 -6,0 0,0 -2.67,-6.48 -12.5,-7.33 0,0 -7.83,-0.83 -12.33,7.33 0,0 -2.83,-0.67 -6.16,0 0,0 -3.47,-7.67 -12.83,-7.5 0,0 -8.5,0 -12.17,7.5 0,0 -2.33,-0.5 -6,0 0,0 -3.17,-7.5 -13,-7.5 0,0 -7.5,-0.5 -12.33,7.5 0,0 -1.67,-0.67 -5.83,0 0,0 -4.5,-7.83 -13,-7.5 0,0 -8.83,0 -12,7.5 0,0 -3.17,-0.33 -6.33,0 0,0 -3.99,-8 -13,-7.5 m 231.47,6.41 c 0,0 -7.8,3.52 -10.47,8.19 0,0 -5.17,-0.75 -6.91,0 0,0 -1.25,-6.81 -12.25,-7.5 0,0 -9,0.5 -11.5,7.5 0,0 -3.17,-1 -6.17,0 0,0 -3,-6.81 -13,-7.5 0,0 -8.16,0.17 -12.5,7.5 0,0 -2.83,-0.67 -6,0 0,0 -2.67,-6.48 -12.5,-7.33 0,0 -7.83,-0.83 -12.33,7.33 0,0 -2.83,-0.67 -6.17,0 0,0 -3.47,-7.67 -12.83,-7.5 0,0 -8.5,0 -12.17,7.5 0,0 -2.33,-0.5 -6,0 0,0 -3.17,-7.5 -13,-7.5 0,0 -7.5,-0.5 -12.33,7.5 0,0 -1.67,-0.67 -5.83,0 0,0 -4.5,-7.83 -13,-7.5 0,0 -8.83,0 -12,7.5 0,0 -3.17,-0.33 -6.33,0 0,0 -4,-8 -13,-7.5 m 201.11,6.75 c 0,0 -7.8,3.52 -10.47,8.19 0,0 -5.17,-0.75 -6.92,0 0,0 -1.25,-6.81 -12.25,-7.5 0,0 -9,0.5 -11.5,7.5 0,0 -3.17,-1 -6.17,0 0,0 -3,-6.81 -13,-7.5 0,0 -8.17,0.17 -12.5,7.5 0,0 -2.83,-0.67 -6,0 0,0 -2.67,-6.48 -12.5,-7.33 0,0 -7.83,-0.83 -12.33,7.33 0,0 -2.83,-0.67 -6.16,0 0,0 -3.47,-7.67 -12.83,-7.5 0,0 -8.5,0 -12.17,7.5 0,0 -2.33,-0.5 -6,0 0,0 -3.17,-7.5 -13,-7.5 0,0 -7.5,-0.5 -12.33,7.5 0,0 -1.67,-0.67 -5.83,0 0,0 -4.5,-7.83 -13,-7.5 0,0 -8.83,0 -12,7.5 0,0 -3.17,-0.33 -6.33,0 0,0 -4,-8 -13,-7.5 m 231.47,6.85 c 0,0 -7.8,3.52 -10.47,8.19 0,0 -5.17,-0.75 -6.91,0 0,0 -1.25,-6.81 -12.25,-7.5 0,0 -9,0.5 -11.5,7.5 0,0 -3.17,-1 -6.17,0 0,0 -3,-6.81 -13,-7.5 0,0 -8.16,0.17 -12.5,7.5 0,0 -2.83,-0.67 -6,0 0,0 -2.66,-6.48 -12.5,-7.33 0,0 -7.83,-0.83 -12.33,7.33 0,0 -2.83,-0.67 -6.17,0 0,0 -3.47,-7.67 -12.83,-7.5 0,0 -8.5,0 -12.17,7.5 0,0 -2.33,-0.5 -6,0 0,0 -3.17,-7.5 -13,-7.5 0,0 -7.5,-0.5 -12.33,7.5 0,0 -1.66,-0.67 -5.83,0 0,0 -4.5,-7.83 -13,-7.5 0,0 -8.83,0 -12,7.5 0,0 -3.17,-0.33 -6.33,0 0,0 -4,-8 -13,-7.5 m 232.06,6.37 c 0,0 -7.8,3.52 -10.47,8.19 0,0 -5.17,-0.75 -6.92,0 0,0 -1.25,-6.81 -12.25,-7.5 0,0 -9,0.5 -11.5,7.5 0,0 -3.17,-1 -6.17,0 0,0 -3,-6.81 -13,-7.5 0,0 -8.16,0.17 -12.5,7.5 0,0 -2.83,-0.67 -6,0 0,0 -2.67,-6.48 -12.5,-7.33 0,0 -7.83,-0.83 -12.33,7.33 0,0 -2.83,-0.67 -6.17,0 0,0 -3.47,-7.67 -12.83,-7.5 0,0 -8.5,0 -12.17,7.5 0,0 -2.33,-0.5 -6,0 0,0 -3.17,-7.5 -13,-7.5 0,0 -7.5,-0.5 -12.33,7.5 0,0 -1.67,-0.67 -5.83,0 0,0 -4.5,-7.83 -13,-7.5 0,0 -8.83,0 -12,7.5 0,0 -3.17,-0.33 -6.33,0 0,0 -3.99,-8 -13,-7.5"
         id="path36419"
         class="s0"
         inkscape:connector-curvature="0"
         style="fill:none;stroke:#ffffff;stroke-width:0.5;stroke-miterlimit:10"
         sodipodi:nodetypes="cccccccccccccccccccccccccccccccccccccccccccccccccccccccccccccccccccccccccccccccccccccccccccccccccccccccccccccccccccccccccccccccccccccccccccccccccccccccccccccccccccccccccccccccccccccccccccccccccccccccccccccccccccccccccccccccccccccccccccccccccccccccccccccccccccccccccccccccccccccccccccccccccccccccccccc" /><g
         clip-path="url(#SVGID_2_)"
         id="g36459"><path
           stroke-miterlimit="10"
           d="m533.95 281.16c0 0-3.66-6.19-9.79-5.76 0 0-5.4-0.43-9.43 5.42M529.14 285.08 529.14 285.08 529.14 285.08 529.14 285.08 529.14 285.08 529.14 285.08c0 0-1.77-2.92-4.61-3.09 0 0-3.16 0.06-4.55 3.09M526.25 286.84c0 0-0.27-1.92-1.92-2.17 0 0-1.94 0.02-2 2.05M531.48 282.92c0 0-3.81-4.44-6.92-4.09 0 0-4.37-0.22-6.82 3.73"
           id="path36461"
           class="s0" /></g><g
         clip-path="url(#SVGID_2_)"
         id="g36469"><path
           stroke-miterlimit="10"
           d="m503.05 280.91c0 0-3.65-6.19-9.79-5.76 0 0-5.4-0.42-9.43 5.42M498.23 284.83 498.23 284.83 498.23 284.83 498.23 284.83 498.23 284.83 498.23 284.83c0 0-1.77-2.92-4.61-3.09 0 0-3.17 0.06-4.55 3.09M495.35 286.59c0 0-0.28-1.92-1.92-2.17 0 0-1.94 0.02-2 2.05M500.57 282.66c0 0-3.81-4.44-6.92-4.09 0 0-4.37-0.22-6.82 3.73"
           id="path36471"
           class="s0" /></g><g
         clip-path="url(#SVGID_2_)"
         id="g36479"><path
           stroke-miterlimit="10"
           d="m440.85 280.96c0 0-3.65-6.19-9.79-5.76 0 0-5.4-0.42-9.43 5.42M436.04 284.88 436.04 284.88 436.04 284.88 436.04 284.88 436.04 284.88 436.04 284.88c0 0-1.77-2.92-4.61-3.09 0 0-3.17 0.06-4.55 3.09M433.16 286.64c0 0-0.27-1.92-1.92-2.17 0 0-1.94 0.02-2 2.05M438.38 282.71c0 0-3.81-4.44-6.92-4.09 0 0-4.37-0.22-6.82 3.73"
           id="path36481"
           class="s0" /></g><g
         clip-path="url(#SVGID_2_)"
         id="g36489"><path
           stroke-miterlimit="10"
           d="m518.32 288.56c0 0-3.65-6.19-9.79-5.76 0 0-5.4-0.42-9.43 5.42M513.51 292.49 513.51 292.49 513.51 292.49 513.51 292.49 513.51 292.49 513.51 292.49c0 0-1.77-2.92-4.61-3.09 0 0-3.17 0.06-4.55 3.09M510.63 294.24c0 0-0.27-1.93-1.92-2.17 0 0-1.94 0.02-2 2.05M515.85 290.32c0 0-3.81-4.44-6.92-4.09 0 0-4.37-0.21-6.82 3.73"
           id="path36491"
           class="s0" /></g><g
         clip-path="url(#SVGID_2_)"
         id="g36499"><path
           stroke-miterlimit="10"
           d="m456.18 288.58c0 0-3.65-6.19-9.79-5.76 0 0-5.4-0.43-9.43 5.42M451.37 292.51 451.37 292.51 451.37 292.51 451.37 292.51 451.37 292.51 451.37 292.51c0 0-1.78-2.92-4.61-3.09 0 0-3.17 0.06-4.55 3.09M448.49 294.26c0 0-0.28-1.92-1.91-2.17 0 0-1.94 0.01-2 2.05M453.71 290.34c0 0-3.81-4.44-6.92-4.1 0 0-4.37-0.22-6.82 3.73"
           id="path36501"
           class="s0" /></g><g
         clip-path="url(#SVGID_2_)"
         id="g36509"><path
           stroke-miterlimit="10"
           d="m533.45 295.64c0 0-3.66-6.19-9.79-5.76 0 0-5.4-0.42-9.43 5.42M528.64 299.56 528.64 299.56 528.64 299.56 528.64 299.56 528.64 299.56 528.64 299.56c0 0-1.77-2.92-4.61-3.09 0 0-3.17 0.06-4.55 3.09M525.76 301.31c0 0-0.27-1.92-1.92-2.18 0 0-1.94 0.02-2 2.05M530.98 297.39c0 0-3.81-4.44-6.92-4.09 0 0-4.37-0.22-6.82 3.73"
           id="path36511"
           class="s0" /></g><g
         clip-path="url(#SVGID_2_)"
         id="g36519"><path
           stroke-miterlimit="10"
           d="m502.55 295.38c0 0-3.65-6.19-9.79-5.76 0 0-5.4-0.42-9.43 5.42M497.74 299.31 497.74 299.31 497.74 299.31 497.74 299.31 497.74 299.31 497.74 299.31c0 0-1.78-2.92-4.61-3.09 0 0-3.17 0.06-4.55 3.09M494.86 301.06c0 0-0.28-1.92-1.92-2.17 0 0-1.94 0.02-2 2.05M500.08 297.14c0 0-3.81-4.44-6.92-4.09 0 0-4.37-0.22-6.82 3.73"
           id="path36521"
           class="s0" /></g><g
         clip-path="url(#SVGID_2_)"
         id="g36529"><path
           stroke-miterlimit="10"
           d="m471.31 295.65c0 0-3.65-6.19-9.79-5.76 0 0-5.4-0.42-9.43 5.42M466.5 299.58 466.5 299.58 466.5 299.58 466.5 299.58 466.5 299.58 466.5 299.58c0 0-1.77-2.92-4.61-3.09 0 0-3.17 0.06-4.55 3.09M463.62 301.33c0 0-0.27-1.92-1.92-2.17 0 0-1.94 0.02-2 2.05M468.84 297.41c0 0-3.81-4.44-6.92-4.09 0 0-4.37-0.22-6.82 3.73"
           id="path36531"
           class="s0" /></g><g
         clip-path="url(#SVGID_2_)"
         id="g36539"><path
           stroke-miterlimit="10"
           d="m440.36 295.43c0 0-3.65-6.19-9.79-5.76 0 0-5.4-0.42-9.43 5.42M435.55 299.36 435.55 299.36 435.55 299.36 435.55 299.36 435.55 299.36 435.55 299.36c0 0-1.78-2.92-4.61-3.09 0 0-3.17 0.06-4.55 3.09M432.66 301.11c0 0-0.27-1.92-1.92-2.17 0 0-1.94 0.02-2 2.05M437.89 297.19c0 0-3.81-4.44-6.92-4.09 0 0-4.37-0.22-6.82 3.73"
           id="path36541"
           class="s0" /></g><g
         clip-path="url(#SVGID_2_)"
         id="g36549"><path
           stroke-miterlimit="10"
           d="m518.32 303.17c0 0-3.65-6.19-9.79-5.76 0 0-5.4-0.42-9.43 5.42M513.51 307.09 513.51 307.09 513.51 307.09 513.51 307.09 513.51 307.09 513.51 307.09c0 0-1.78-2.92-4.61-3.09 0 0-3.16 0.06-4.55 3.09M510.63 308.85c0 0-0.27-1.92-1.92-2.18 0 0-1.94 0.02-2 2.05M515.85 304.93c0 0-3.81-4.44-6.92-4.09 0 0-4.37-0.22-6.82 3.73"
           id="path36551"
           class="s0" /></g><g
         clip-path="url(#SVGID_2_)"
         id="g36559"><path
           stroke-miterlimit="10"
           d="m487.42 302.92c0 0-3.65-6.19-9.79-5.76 0 0-5.4-0.42-9.43 5.42M482.61 306.84 482.61 306.84 482.61 306.84 482.61 306.84 482.61 306.84 482.61 306.84c0 0-1.77-2.92-4.61-3.09 0 0-3.17 0.06-4.55 3.09M479.72 308.6c0 0-0.27-1.93-1.91-2.17 0 0-1.94 0.02-2 2.05M484.95 304.67c0 0-3.81-4.44-6.92-4.1 0 0-4.37-0.21-6.82 3.73"
           id="path36561"
           class="s0" /></g><g
         clip-path="url(#SVGID_2_)"
         id="g36569"><path
           stroke-miterlimit="10"
           d="m456.18 303.19c0 0-3.65-6.19-9.79-5.76 0 0-5.4-0.42-9.43 5.42M451.37 307.11 451.37 307.11 451.37 307.11 451.37 307.11 451.37 307.11 451.37 307.11c0 0-1.77-2.92-4.61-3.09 0 0-3.17 0.06-4.55 3.09M448.49 308.87c0 0-0.28-1.92-1.92-2.17 0 0-1.94 0.02-2 2.05M453.71 304.95c0 0-3.81-4.44-6.92-4.1 0 0-4.37-0.21-6.82 3.73"
           id="path36571"
           class="s0" /></g><g
         clip-path="url(#SVGID_2_)"
         id="g36579"><path
           stroke-miterlimit="10"
           d="m425.23 302.97c0 0-3.65-6.19-9.79-5.76 0 0-5.4-0.43-9.43 5.42M420.42 306.89 420.42 306.89 420.42 306.89 420.42 306.89 420.42 306.89 420.42 306.89c0 0-1.77-2.92-4.61-3.09 0 0-3.17 0.06-4.55 3.09M417.53 308.65c0 0-0.27-1.92-1.91-2.17 0 0-1.94 0.01-2 2.05M422.76 304.72c0 0-3.81-4.44-6.92-4.09 0 0-4.37-0.22-6.82 3.73"
           id="path36581"
           class="s0" /></g><g
         clip-path="url(#SVGID_2_)"
         id="g36589"><path
           stroke-miterlimit="10"
           d="m533.95 310.48c0 0-3.66-6.19-9.79-5.76 0 0-5.4-0.43-9.43 5.42M529.14 314.41 529.14 314.41 529.14 314.41 529.14 314.41 529.14 314.41 529.14 314.41c0 0-1.77-2.92-4.61-3.09 0 0-3.16 0.06-4.55 3.09M526.25 316.16c0 0-0.27-1.92-1.92-2.17 0 0-1.94 0.02-2 2.05M531.48 312.24c0 0-3.81-4.44-6.92-4.09 0 0-4.37-0.22-6.82 3.73"
           id="path36591"
           class="s0" /></g><g
         clip-path="url(#SVGID_2_)"
         id="g36599"><path
           stroke-miterlimit="10"
           d="m503.05 310.23c0 0-3.65-6.19-9.79-5.76 0 0-5.4-0.42-9.43 5.42M498.23 314.15 498.23 314.15 498.23 314.15 498.23 314.15 498.23 314.15 498.23 314.15c0 0-1.77-2.92-4.61-3.09 0 0-3.17 0.06-4.55 3.09M495.35 315.91c0 0-0.27-1.92-1.92-2.17 0 0-1.94 0.02-2 2.05M500.57 311.99c0 0-3.81-4.44-6.92-4.09 0 0-4.37-0.22-6.82 3.73"
           id="path36601"
           class="s0" /></g><g
         clip-path="url(#SVGID_2_)"
         id="g36609"><path
           stroke-miterlimit="10"
           d="m471.81 310.5c0 0-3.66-6.19-9.79-5.76 0 0-5.4-0.42-9.43 5.42M467 314.43 467 314.43 467 314.43 467 314.43 467 314.43 467 314.43c0 0-1.77-2.92-4.61-3.09 0 0-3.17 0.06-4.55 3.09M464.12 316.18c0 0-0.27-1.92-1.92-2.17 0 0-1.94 0.02-2 2.05M469.34 312.26c0 0-3.81-4.44-6.92-4.09 0 0-4.37-0.22-6.82 3.73"
           id="path36611"
           class="s0" /></g><g
         clip-path="url(#SVGID_2_)"
         id="g36619"><path
           stroke-miterlimit="10"
           d="m440.85 310.28c0 0-3.65-6.19-9.79-5.76 0 0-5.4-0.42-9.43 5.42M436.04 314.2 436.04 314.2 436.04 314.2 436.04 314.2 436.04 314.2 436.04 314.2c0 0-1.78-2.92-4.61-3.09 0 0-3.17 0.06-4.55 3.09M433.16 315.96c0 0-0.27-1.92-1.92-2.17 0 0-1.94 0.02-2 2.05M438.38 312.04c0 0-3.81-4.44-6.92-4.09 0 0-4.37-0.22-6.82 3.73"
           id="path36621"
           class="s0" /></g><g
         clip-path="url(#SVGID_2_)"
         id="g36629"><path
           stroke-miterlimit="10"
           d="m409.74 310.25c0 0-3.65-6.19-9.79-5.76 0 0-5.4-0.42-9.43 5.42M404.93 314.18 404.93 314.18 404.93 314.18 404.93 314.18 404.93 314.18 404.93 314.18c0 0-1.77-2.92-4.61-3.09 0 0-3.17 0.06-4.55 3.09M402.04 315.93c0 0-0.28-1.92-1.92-2.17 0 0-1.94 0.01-2 2.05M407.27 312.01c0 0-3.81-4.44-6.92-4.09 0 0-4.37-0.22-6.82 3.73"
           id="path36631"
           class="s0" /></g><g
         clip-path="url(#SVGID_2_)"
         id="g36639"><path
           stroke-miterlimit="10"
           d="m518.16 317.64c0 0-3.65-6.19-9.79-5.76 0 0-5.4-0.43-9.43 5.42M513.35 321.57 513.35 321.57 513.35 321.57 513.35 321.57 513.35 321.57 513.35 321.57c0 0-1.78-2.92-4.61-3.09 0 0-3.17 0.06-4.55 3.09M510.47 323.32c0 0-0.28-1.92-1.92-2.18 0 0-1.94 0.02-2 2.05M515.69 319.4c0 0-3.81-4.44-6.92-4.09 0 0-4.37-0.22-6.82 3.73"
           id="path36641"
           class="s0" /></g><g
         clip-path="url(#SVGID_2_)"
         id="g36649"><path
           stroke-miterlimit="10"
           d="m486.92 317.91c0 0-3.66-6.19-9.79-5.76 0 0-5.4-0.42-9.43 5.42M482.11 321.84 482.11 321.84 482.11 321.84 482.11 321.84 482.11 321.84 482.11 321.84c0 0-1.77-2.92-4.61-3.09 0 0-3.16 0.06-4.55 3.09M479.23 323.59c0 0-0.27-1.93-1.92-2.18 0 0-1.94 0.02-2 2.05M484.45 319.67c0 0-3.81-4.44-6.92-4.09 0 0-4.37-0.22-6.82 3.73"
           id="path36651"
           class="s0" /></g><g
         clip-path="url(#SVGID_2_)"
         id="g36659"><path
           stroke-miterlimit="10"
           d="m455.97 317.69c0 0-3.65-6.19-9.79-5.76 0 0-5.4-0.43-9.43 5.42M451.16 321.62 451.16 321.62 451.16 321.62 451.16 321.62 451.16 321.62 451.16 321.62c0 0-1.78-2.92-4.61-3.09 0 0-3.17 0.06-4.55 3.09M448.27 323.37c0 0-0.28-1.92-1.92-2.18 0 0-1.94 0.02-2 2.05M453.5 319.45c0 0-3.81-4.44-6.92-4.09 0 0-4.37-0.22-6.82 3.73"
           id="path36661"
           class="s0" /></g><g
         clip-path="url(#SVGID_2_)"
         id="g36669"><path
           stroke-miterlimit="10"
           d="m424.85 317.66c0 0-3.65-6.19-9.79-5.76 0 0-5.4-0.42-9.43 5.42M420.04 321.59 420.04 321.59 420.04 321.59 420.04 321.59 420.04 321.59 420.04 321.59c0 0-1.77-2.92-4.61-3.09 0 0-3.17 0.06-4.55 3.09M417.16 323.34c0 0-0.27-1.92-1.92-2.17 0 0-1.94 0.02-2 2.05M422.38 319.42c0 0-3.81-4.44-6.92-4.09 0 0-4.37-0.22-6.82 3.73"
           id="path36671"
           class="s0" /></g><g
         clip-path="url(#SVGID_2_)"
         id="g36679"><path
           stroke-miterlimit="10"
           d="m393.81 317.79c0 0-3.66-6.19-9.79-5.76 0 0-5.4-0.42-9.43 5.42M388.99 321.72 388.99 321.72 388.99 321.72 388.99 321.72 388.99 321.72 388.99 321.72c0 0-1.77-2.92-4.61-3.09 0 0-3.17 0.06-4.55 3.09M386.11 323.47c0 0-0.27-1.92-1.92-2.17 0 0-1.94 0.02-2 2.05M391.34 319.55c0 0-3.81-4.44-6.92-4.1 0 0-4.37-0.22-6.82 3.73"
           id="path36681"
           class="s0" /></g><g
         clip-path="url(#SVGID_2_)"
         id="g36689"><path
           stroke-miterlimit="10"
           d="m533.01 325.5c0 0-3.65-6.19-9.79-5.76 0 0-5.4-0.42-9.43 5.42M528.19 329.43 528.19 329.43 528.19 329.43 528.19 329.43 528.19 329.43 528.19 329.43c0 0-1.77-2.92-4.61-3.09 0 0-3.16 0.06-4.55 3.09M525.31 331.18c0 0-0.27-1.93-1.92-2.18 0 0-1.94 0.02-2 2.05M530.53 327.26c0 0-3.81-4.44-6.92-4.09 0 0-4.37-0.22-6.82 3.73"
           id="path36691"
           class="s0" /></g><g
         clip-path="url(#SVGID_2_)"
         id="g36699"><path
           stroke-miterlimit="10"
           d="m502.1 325.25c0 0-3.65-6.19-9.79-5.76 0 0-5.4-0.42-9.43 5.42M497.29 329.17 497.29 329.17 497.29 329.17 497.29 329.17 497.29 329.17 497.29 329.17c0 0-1.77-2.92-4.61-3.09 0 0-3.17 0.06-4.55 3.09M494.41 330.93c0 0-0.28-1.92-1.92-2.17 0 0-1.94 0.02-2 2.05M499.63 327c0 0-3.81-4.44-6.92-4.09 0 0-4.37-0.22-6.82 3.73"
           id="path36701"
           class="s0" /></g><g
         clip-path="url(#SVGID_2_)"
         id="g36709"><path
           stroke-miterlimit="10"
           d="m470.87 325.52c0 0-3.66-6.19-9.79-5.76 0 0-5.4-0.43-9.43 5.42M466.05 329.45 466.05 329.45 466.05 329.45 466.05 329.45 466.05 329.45 466.05 329.45c0 0-1.77-2.92-4.61-3.09 0 0-3.17 0.06-4.55 3.09M463.17 331.2c0 0-0.27-1.92-1.91-2.17 0 0-1.94 0.01-2 2.05M468.39 327.28c0 0-3.81-4.44-6.92-4.09 0 0-4.37-0.22-6.82 3.73"
           id="path36711"
           class="s0" /></g><g
         clip-path="url(#SVGID_2_)"
         id="g36719"><path
           stroke-miterlimit="10"
           d="m439.91 325.3c0 0-3.65-6.19-9.78-5.76 0 0-5.4-0.42-9.44 5.42M435.1 329.22 435.1 329.22 435.1 329.22 435.1 329.22 435.1 329.22 435.1 329.22c0 0-1.77-2.92-4.61-3.09 0 0-3.17 0.06-4.55 3.09M432.22 330.98c0 0-0.28-1.92-1.92-2.17 0 0-1.94 0.02-2 2.05M437.44 327.05c0 0-3.81-4.44-6.92-4.09 0 0-4.37-0.21-6.82 3.73"
           id="path36721"
           class="s0" /></g><g
         clip-path="url(#SVGID_2_)"
         id="g36729"><path
           stroke-miterlimit="10"
           d="m408.79 325.27c0 0-3.65-6.19-9.79-5.76 0 0-5.4-0.42-9.43 5.42M403.98 329.19 403.98 329.19 403.98 329.19 403.98 329.19 403.98 329.19 403.98 329.19c0 0-1.77-2.92-4.61-3.09 0 0-3.17 0.06-4.55 3.09M401.1 330.95c0 0-0.28-1.92-1.92-2.18 0 0-1.94 0.02-2 2.05M406.32 327.02c0 0-3.81-4.44-6.92-4.09 0 0-4.37-0.22-6.82 3.73"
           id="path36731"
           class="s0" /></g><g
         clip-path="url(#SVGID_2_)"
         id="g36739"><path
           stroke-miterlimit="10"
           d="m518.24 333.12c0 0-3.66-6.19-9.79-5.76 0 0-5.4-0.42-9.43 5.42M513.42 337.04 513.42 337.04 513.42 337.04 513.42 337.04 513.42 337.04 513.42 337.04c0 0-1.77-2.92-4.61-3.09 0 0-3.17 0.06-4.55 3.09M510.54 338.8c0 0-0.27-1.92-1.92-2.18 0 0-1.94 0.02-2 2.05M515.77 334.87c0 0-3.81-4.44-6.92-4.09 0 0-4.37-0.22-6.82 3.73"
           id="path36741"
           class="s0" /></g><g
         clip-path="url(#SVGID_2_)"
         id="g36749"><path
           stroke-miterlimit="10"
           d="m487.33 332.86c0 0-3.65-6.19-9.79-5.76 0 0-5.4-0.42-9.43 5.42M482.52 336.79 482.52 336.79 482.52 336.79 482.52 336.79 482.52 336.79 482.52 336.79c0 0-1.77-2.92-4.61-3.09 0 0-3.17 0.06-4.55 3.09M479.64 338.54c0 0-0.28-1.92-1.92-2.17 0 0-1.94 0.02-2 2.05M484.86 334.62c0 0-3.81-4.44-6.92-4.09 0 0-4.37-0.22-6.82 3.73"
           id="path36751"
           class="s0" /></g><g
         clip-path="url(#SVGID_2_)"
         id="g36759"><path
           stroke-miterlimit="10"
           d="m456.1 333.14c0 0-3.66-6.19-9.79-5.76 0 0-5.4-0.43-9.43 5.42M451.29 337.06 451.29 337.06 451.29 337.06 451.29 337.06 451.29 337.06 451.29 337.06c0 0-1.77-2.92-4.61-3.09 0 0-3.17 0.06-4.55 3.09M448.4 338.81c0 0-0.27-1.92-1.92-2.17 0 0-1.94 0.02-2 2.05M453.63 334.89c0 0-3.81-4.44-6.92-4.09 0 0-4.37-0.22-6.82 3.73"
           id="path36761"
           class="s0" /></g><g
         clip-path="url(#SVGID_2_)"
         id="g36769"><path
           stroke-miterlimit="10"
           d="m425.14 332.91c0 0-3.65-6.19-9.79-5.76 0 0-5.4-0.42-9.43 5.42M420.33 336.84 420.33 336.84 420.33 336.84 420.33 336.84 420.33 336.84 420.33 336.84c0 0-1.78-2.92-4.61-3.09 0 0-3.17 0.06-4.55 3.09M417.45 338.59c0 0-0.28-1.93-1.91-2.17 0 0-1.94 0.02-2 2.05M422.67 334.67c0 0-3.81-4.44-6.92-4.1 0 0-4.37-0.22-6.82 3.73"
           id="path36771"
           class="s0" /></g><g
         clip-path="url(#SVGID_2_)"
         id="g36779"><path
           stroke-miterlimit="10"
           d="m394.03 332.88c0 0-3.66-6.19-9.79-5.76 0 0-5.4-0.42-9.43 5.42M389.22 336.81 389.22 336.81 389.22 336.81 389.22 336.81 389.22 336.81 389.22 336.81c0 0-1.77-2.92-4.61-3.09 0 0-3.17 0.06-4.55 3.09M386.33 338.56c0 0-0.27-1.93-1.92-2.18 0 0-1.94 0.02-2 2.05M391.56 334.64c0 0-3.81-4.44-6.92-4.1 0 0-4.37-0.22-6.82 3.73"
           id="path36781"
           class="s0" /></g><g
         clip-path="url(#SVGID_2_)"
         id="g36789"><path
           stroke-miterlimit="10"
           d="m502.61 340.28c0 0-3.65-6.19-9.79-5.76 0 0-5.4-0.43-9.43 5.42M497.8 344.2 497.8 344.2 497.8 344.2 497.8 344.2 497.8 344.2 497.8 344.2c0 0-1.77-2.92-4.61-3.09 0 0-3.17 0.06-4.55 3.09M494.92 345.96c0 0-0.27-1.93-1.91-2.17 0 0-1.94 0.01-2 2.05M500.14 342.03c0 0-3.81-4.44-6.92-4.09 0 0-4.37-0.22-6.82 3.73"
           id="path36791"
           class="s0" /></g><g
         clip-path="url(#SVGID_2_)"
         id="g36799"><path
           stroke-miterlimit="10"
           d="m471.38 340.55c0 0-3.66-6.19-9.79-5.76 0 0-5.4-0.43-9.43 5.42M466.56 344.47 466.56 344.47 466.56 344.47 466.56 344.47 466.56 344.47 466.56 344.47c0 0-1.77-2.92-4.61-3.09 0 0-3.17 0.06-4.55 3.09M463.68 346.23c0 0-0.27-1.92-1.92-2.17 0 0-1.94 0.01-2 2.05M468.9 342.3c0 0-3.81-4.44-6.92-4.09 0 0-4.37-0.22-6.83 3.73"
           id="path36801"
           class="s0" /></g><g
         clip-path="url(#SVGID_2_)"
         id="g36809"><path
           stroke-miterlimit="10"
           d="m440.42 340.33c0 0-3.65-6.19-9.78-5.76 0 0-5.4-0.42-9.44 5.42M435.61 344.25 435.61 344.25 435.61 344.25 435.61 344.25 435.61 344.25 435.61 344.25c0 0-1.77-2.92-4.61-3.09 0 0-3.17 0.06-4.55 3.09M432.73 346.01c0 0-0.28-1.92-1.92-2.17 0 0-1.94 0.02-2 2.05M437.95 342.08c0 0-3.81-4.44-6.92-4.09 0 0-4.37-0.22-6.82 3.73"
           id="path36811"
           class="s0" /></g><g
         clip-path="url(#SVGID_2_)"
         id="g36819"><path
           stroke-miterlimit="10"
           d="m409.3 340.3c0 0-3.65-6.19-9.79-5.76 0 0-5.4-0.43-9.43 5.42M404.49 344.22 404.49 344.22 404.49 344.22 404.49 344.22 404.49 344.22 404.49 344.22c0 0-1.77-2.92-4.61-3.09 0 0-3.17 0.06-4.55 3.09M401.61 345.98c0 0-0.28-1.92-1.91-2.17 0 0-1.94 0.02-2 2.05M406.83 342.05c0 0-3.81-4.44-6.92-4.09 0 0-4.37-0.22-6.82 3.73"
           id="path36821"
           class="s0" /></g><g
         clip-path="url(#SVGID_2_)"
         id="g36829"><path
           stroke-miterlimit="10"
           d="m378.26 340.43c0 0-3.65-6.19-9.79-5.76 0 0-5.4-0.42-9.43 5.42M373.45 344.35 373.45 344.35 373.45 344.35 373.45 344.35 373.45 344.35 373.45 344.35c0 0-1.77-2.92-4.61-3.09 0 0-3.17 0.06-4.55 3.09M370.57 346.11c0 0-0.28-1.92-1.92-2.17 0 0-1.94 0.02-2 2.05M375.79 342.18c0 0-3.81-4.44-6.92-4.09 0 0-4.37-0.22-6.82 3.73"
           id="path36831"
           class="s0" /></g><g
         clip-path="url(#SVGID_2_)"
         id="g36839"><path
           stroke-miterlimit="10"
           d="m518.57 347.58c0 0-3.65-6.19-9.79-5.76 0 0-5.4-0.43-9.43 5.42M513.76 351.51 513.76 351.51 513.76 351.51 513.76 351.51 513.76 351.51 513.76 351.51c0 0-1.77-2.92-4.61-3.09 0 0-3.17 0.06-4.55 3.09M510.87 353.26c0 0-0.28-1.92-1.91-2.17 0 0-1.94 0.02-2 2.05M516.1 349.34c0 0-3.81-4.44-6.92-4.09 0 0-4.37-0.22-6.82 3.73"
           id="path36841"
           class="s0" /></g><g
         clip-path="url(#SVGID_2_)"
         id="g36849"><path
           stroke-miterlimit="10"
           d="m487.33 347.86c0 0-3.66-6.19-9.79-5.76 0 0-5.4-0.42-9.43 5.42M482.52 351.78 482.52 351.78 482.52 351.78 482.52 351.78 482.52 351.78 482.52 351.78c0 0-1.77-2.92-4.61-3.09 0 0-3.17 0.06-4.55 3.09M479.64 353.54c0 0-0.27-1.93-1.92-2.18 0 0-1.94 0.02-2 2.05M484.86 349.61c0 0-3.81-4.44-6.92-4.09 0 0-4.37-0.22-6.82 3.73"
           id="path36851"
           class="s0" /></g><g
         clip-path="url(#SVGID_2_)"
         id="g36859"><path
           stroke-miterlimit="10"
           d="m456.38 347.63c0 0-3.65-6.19-9.79-5.76 0 0-5.4-0.43-9.43 5.42M451.57 351.56 451.57 351.56 451.57 351.56 451.57 351.56 451.57 351.56 451.57 351.56c0 0-1.77-2.92-4.61-3.09 0 0-3.17 0.06-4.55 3.09M448.68 353.31c0 0-0.27-1.92-1.91-2.17 0 0-1.94 0.01-2 2.05M453.91 349.39c0 0-3.81-4.44-6.92-4.09 0 0-4.37-0.22-6.82 3.73"
           id="path36861"
           class="s0" /></g><g
         clip-path="url(#SVGID_2_)"
         id="g36869"><path
           stroke-miterlimit="10"
           d="m425.26 347.6c0 0-3.65-6.19-9.79-5.76 0 0-5.4-0.42-9.43 5.42M420.45 351.53 420.45 351.53 420.45 351.53 420.45 351.53 420.45 351.53 420.45 351.53c0 0-1.77-2.92-4.61-3.09 0 0-3.17 0.06-4.55 3.09M417.57 353.28c0 0-0.28-1.92-1.92-2.17 0 0-1.94 0.02-2 2.05M422.79 349.36c0 0-3.81-4.44-6.92-4.09 0 0-4.37-0.22-6.82 3.73"
           id="path36871"
           class="s0" /></g><g
         clip-path="url(#SVGID_2_)"
         id="g36879"><path
           stroke-miterlimit="10"
           d="m394.22 347.73c0 0-3.65-6.19-9.79-5.76 0 0-5.4-0.42-9.43 5.42M389.4 351.66 389.4 351.66 389.4 351.66 389.4 351.66 389.4 351.66 389.4 351.66c0 0-1.77-2.92-4.61-3.09 0 0-3.17 0.06-4.55 3.09M386.52 353.41c0 0-0.28-1.92-1.92-2.17 0 0-1.94 0.02-2 2.05M391.74 349.49c0 0-3.81-4.44-6.92-4.09 0 0-4.37-0.22-6.82 3.73"
           id="path36881"
           class="s0" /></g><g
         clip-path="url(#SVGID_2_)"
         id="g36889"><path
           stroke-miterlimit="10"
           d="m502.46 354.92c0 0-3.65-6.19-9.79-5.76 0 0-5.4-0.43-9.43 5.42M497.65 358.84 497.65 358.84 497.65 358.84 497.65 358.84 497.65 358.84 497.65 358.84c0 0-1.77-2.92-4.61-3.09 0 0-3.17 0.06-4.55 3.09M494.77 360.6c0 0-0.28-1.92-1.92-2.17 0 0-1.94 0.02-2 2.05M499.99 356.67c0 0-3.81-4.44-6.92-4.1 0 0-4.37-0.22-6.82 3.73"
           id="path36891"
           class="s0" /></g><g
         clip-path="url(#SVGID_2_)"
         id="g36899"><path
           stroke-miterlimit="10"
           d="m471.23 355.19c0 0-3.65-6.19-9.79-5.76 0 0-5.4-0.42-9.43 5.42M466.42 359.11 466.42 359.11 466.42 359.11 466.42 359.11 466.42 359.11 466.42 359.11c0 0-1.77-2.92-4.61-3.09 0 0-3.16 0.06-4.55 3.09M463.53 360.87c0 0-0.27-1.92-1.92-2.18 0 0-1.94 0.02-2 2.05M468.76 356.94c0 0-3.81-4.44-6.92-4.09 0 0-4.37-0.22-6.82 3.73"
           id="path36901"
           class="s0" /></g><g
         clip-path="url(#SVGID_2_)"
         id="g36909"><path
           stroke-miterlimit="10"
           d="m440.27 354.97c0 0-3.65-6.19-9.78-5.76 0 0-5.4-0.43-9.43 5.42M435.46 358.89 435.46 358.89 435.46 358.89 435.46 358.89 435.46 358.89 435.46 358.89c0 0-1.77-2.92-4.61-3.09 0 0-3.17 0.06-4.55 3.09M432.58 360.65c0 0-0.28-1.92-1.92-2.17 0 0-1.94 0.02-2 2.05M437.8 356.72c0 0-3.81-4.44-6.92-4.09 0 0-4.37-0.22-6.82 3.73"
           id="path36911"
           class="s0" /></g><g
         clip-path="url(#SVGID_2_)"
         id="g36919"><path
           stroke-miterlimit="10"
           d="m409.16 354.94c0 0-3.66-6.19-9.79-5.76 0 0-5.4-0.42-9.43 5.42M404.35 358.86 404.35 358.86 404.35 358.86 404.35 358.86 404.35 358.86 404.35 358.86c0 0-1.77-2.92-4.61-3.09 0 0-3.16 0.06-4.55 3.09M401.46 360.62c0 0-0.27-1.92-1.92-2.18 0 0-1.94 0.02-2 2.05M406.69 356.69c0 0-3.81-4.44-6.92-4.1 0 0-4.37-0.21-6.82 3.73"
           id="path36921"
           class="s0" /></g><g
         clip-path="url(#SVGID_2_)"
         id="g36929"><path
           stroke-miterlimit="10"
           d="m487.33 361.96c0 0-3.66-6.19-9.79-5.76 0 0-5.4-0.42-9.43 5.42M482.52 365.88 482.52 365.88 482.52 365.88 482.52 365.88 482.52 365.88 482.52 365.88c0 0-1.77-2.92-4.61-3.09 0 0-3.16 0.06-4.55 3.09M479.64 367.64c0 0-0.27-1.92-1.92-2.17 0 0-1.94 0.02-2 2.05M484.86 363.71c0 0-3.81-4.44-6.92-4.1 0 0-4.37-0.21-6.82 3.73"
           id="path36931"
           class="s0" /></g><g
         clip-path="url(#SVGID_2_)"
         id="g36939"><path
           stroke-miterlimit="10"
           d="m456.37 361.74c0 0-3.65-6.19-9.78-5.76 0 0-5.4-0.42-9.43 5.42M451.56 365.66 451.56 365.66 451.56 365.66 451.56 365.66 451.56 365.66 451.56 365.66c0 0-1.77-2.92-4.61-3.09 0 0-3.17 0.06-4.55 3.09M448.68 367.42c0 0-0.28-1.92-1.92-2.17 0 0-1.94 0.02-2 2.05M453.91 363.49c0 0-3.81-4.44-6.92-4.09 0 0-4.37-0.22-6.82 3.73"
           id="path36941"
           class="s0" /></g><g
         clip-path="url(#SVGID_2_)"
         id="g36949"><path
           stroke-miterlimit="10"
           d="m425.26 361.71c0 0-3.65-6.19-9.79-5.76 0 0-5.4-0.42-9.43 5.42M420.45 365.63 420.45 365.63 420.45 365.63 420.45 365.63 420.45 365.63 420.45 365.63c0 0-1.77-2.92-4.61-3.09 0 0-3.17 0.06-4.55 3.09M417.57 367.39c0 0-0.28-1.92-1.92-2.17 0 0-1.94 0.02-2 2.05M422.79 363.46c0 0-3.81-4.44-6.92-4.09 0 0-4.37-0.22-6.82 3.73"
           id="path36951"
           class="s0" /></g><g
         clip-path="url(#SVGID_2_)"
         id="g36959"><path
           stroke-miterlimit="10"
           d="m394.22 361.84c0 0-3.65-6.19-9.79-5.76 0 0-5.4-0.42-9.43 5.42M389.4 365.76 389.4 365.76 389.4 365.76 389.4 365.76 389.4 365.76 389.4 365.76c0 0-1.77-2.92-4.61-3.09 0 0-3.17 0.06-4.55 3.09M386.52 367.52c0 0-0.27-1.93-1.91-2.17 0 0-1.94 0.01-2 2.05M391.75 363.59c0 0-3.81-4.44-6.92-4.1 0 0-4.37-0.21-6.82 3.73"
           id="path36961"
           class="s0" /></g><g
         clip-path="url(#SVGID_2_)"
         id="g36969"><path
           stroke-miterlimit="10"
           d="m363.01 361.76c0 0-3.65-6.19-9.79-5.76 0 0-5.4-0.42-9.43 5.42M358.2 365.68 358.2 365.68 358.2 365.68 358.2 365.68 358.2 365.68 358.2 365.68c0 0-1.77-2.92-4.61-3.09 0 0-3.17 0.06-4.55 3.09M355.32 367.44c0 0-0.28-1.92-1.92-2.17 0 0-1.94 0.02-2 2.05M360.54 363.51c0 0-3.81-4.44-6.92-4.09 0 0-4.37-0.22-6.82 3.73"
           id="path36971"
           class="s0" /></g><g
         clip-path="url(#SVGID_2_)"
         id="g36979"><path
           stroke-miterlimit="10"
           d="m502.59 369.42c0 0-3.66-6.19-9.79-5.76 0 0-5.4-0.42-9.43 5.42M497.77 373.35 497.77 373.35 497.77 373.35 497.77 373.35 497.77 373.35 497.77 373.35c0 0-1.77-2.92-4.61-3.09 0 0-3.17 0.06-4.55 3.09M494.89 375.1c0 0-0.27-1.92-1.91-2.17 0 0-1.94 0.01-2 2.05M500.11 371.18c0 0-3.81-4.44-6.92-4.09 0 0-4.37-0.22-6.82 3.73"
           id="path36981"
           class="s0" /></g><g
         clip-path="url(#SVGID_2_)"
         id="g36989"><path
           stroke-miterlimit="10"
           d="m471.63 369.2c0 0-3.65-6.19-9.78-5.76 0 0-5.4-0.43-9.44 5.42M466.82 373.12 466.82 373.12 466.82 373.12 466.82 373.12 466.82 373.12 466.82 373.12c0 0-1.78-2.92-4.61-3.09 0 0-3.17 0.06-4.55 3.09M463.94 374.88c0 0-0.28-1.92-1.92-2.17 0 0-1.94 0.01-2 2.05M469.16 370.96c0 0-3.81-4.44-6.92-4.09 0 0-4.37-0.22-6.82 3.73"
           id="path36991"
           class="s0" /></g><g
         clip-path="url(#SVGID_2_)"
         id="g36999"><path
           stroke-miterlimit="10"
           d="m440.51 369.17c0 0-3.65-6.19-9.78-5.76 0 0-5.4-0.43-9.43 5.42M435.7 373.09 435.7 373.09 435.7 373.09 435.7 373.09 435.7 373.09 435.7 373.09c0 0-1.78-2.92-4.61-3.09 0 0-3.17 0.06-4.55 3.09M432.82 374.85c0 0-0.28-1.92-1.92-2.17 0 0-1.94 0.02-2 2.05M438.04 370.93c0 0-3.81-4.44-6.92-4.1 0 0-4.37-0.22-6.82 3.73"
           id="path37001"
           class="s0" /></g><g
         clip-path="url(#SVGID_2_)"
         id="g37009"><path
           stroke-miterlimit="10"
           d="m409.47 369.3c0 0-3.65-6.19-9.79-5.76 0 0-5.4-0.43-9.43 5.42M404.65 373.22 404.65 373.22 404.65 373.22 404.65 373.22 404.65 373.22 404.65 373.22c0 0-1.77-2.92-4.61-3.09 0 0-3.17 0.06-4.55 3.09M401.77 374.98c0 0-0.27-1.92-1.92-2.17 0 0-1.94 0.02-2 2.05M407 371.06c0 0-3.81-4.44-6.92-4.09 0 0-4.37-0.21-6.82 3.73"
           id="path37011"
           class="s0" /></g><g
         clip-path="url(#SVGID_2_)"
         id="g37019"><path
           stroke-miterlimit="10"
           d="m378.27 369.22c0 0-3.66-6.19-9.79-5.76 0 0-5.4-0.42-9.43 5.42M373.45 373.14 373.45 373.14 373.45 373.14 373.45 373.14 373.45 373.14 373.45 373.14c0 0-1.77-2.92-4.61-3.09 0 0-3.17 0.06-4.55 3.09M370.57 374.9c0 0-0.27-1.92-1.92-2.17 0 0-1.94 0.01-2 2.05M375.8 370.98c0 0-3.81-4.44-6.92-4.09 0 0-4.37-0.22-6.82 3.73"
           id="path37021"
           class="s0" /></g><g
         clip-path="url(#SVGID_2_)"
         id="g37029"><path
           stroke-miterlimit="10"
           d="m487.8 376.67c0 0-3.66-6.19-9.79-5.76 0 0-5.4-0.42-9.43 5.42M482.98 380.6 482.98 380.6 482.98 380.6 482.98 380.6 482.98 380.6 482.98 380.6c0 0-1.77-2.92-4.61-3.09 0 0-3.17 0.06-4.55 3.09M480.1 382.35c0 0-0.27-1.92-1.92-2.17 0 0-1.94 0.02-2 2.05M485.32 378.43c0 0-3.81-4.44-6.92-4.09 0 0-4.37-0.22-6.82 3.73"
           id="path37031"
           class="s0" /></g><g
         clip-path="url(#SVGID_2_)"
         id="g37039"><path
           stroke-miterlimit="10"
           d="m456.84 376.45c0 0-3.65-6.19-9.78-5.76 0 0-5.4-0.42-9.44 5.42M452.03 380.37 452.03 380.37 452.03 380.37 452.03 380.37 452.03 380.37 452.03 380.37c0 0-1.77-2.92-4.61-3.09 0 0-3.17 0.06-4.55 3.09M449.15 382.13c0 0-0.27-1.92-1.92-2.17 0 0-1.94 0.02-2 2.05M454.37 378.21c0 0-3.81-4.44-6.92-4.1 0 0-4.37-0.21-6.82 3.73"
           id="path37041"
           class="s0" /></g><g
         clip-path="url(#SVGID_2_)"
         id="g37049"><path
           stroke-miterlimit="10"
           d="m425.72 376.42c0 0-3.65-6.19-9.79-5.76 0 0-5.4-0.43-9.43 5.42M420.91 380.34 420.91 380.34 420.91 380.34 420.91 380.34 420.91 380.34 420.91 380.34c0 0-1.78-2.92-4.61-3.09 0 0-3.17 0.06-4.55 3.09M418.03 382.1c0 0-0.27-1.92-1.92-2.17 0 0-1.94 0.02-2 2.05M423.25 378.18c0 0-3.81-4.44-6.92-4.09 0 0-4.37-0.22-6.82 3.73"
           id="path37051"
           class="s0" /></g><g
         clip-path="url(#SVGID_2_)"
         id="g37059"><path
           stroke-miterlimit="10"
           d="m394.68 376.55c0 0-3.65-6.19-9.79-5.76 0 0-5.4-0.42-9.43 5.42M389.86 380.47 389.86 380.47 389.86 380.47 389.86 380.47 389.86 380.47 389.86 380.47c0 0-1.77-2.92-4.61-3.09 0 0-3.17 0.06-4.55 3.09M386.98 382.23c0 0-0.28-1.93-1.92-2.18 0 0-1.94 0.02-2 2.05M392.21 378.31c0 0-3.81-4.44-6.92-4.09 0 0-4.37-0.22-6.82 3.73"
           id="path37061"
           class="s0" /></g><g
         clip-path="url(#SVGID_2_)"
         id="g37069"><path
           stroke-miterlimit="10"
           d="m363.48 376.47c0 0-3.65-6.19-9.79-5.76 0 0-5.4-0.42-9.43 5.42M358.66 380.39 358.66 380.39 358.66 380.39 358.66 380.39 358.66 380.39 358.66 380.39c0 0-1.77-2.92-4.61-3.09 0 0-3.17 0.06-4.55 3.09M355.78 382.15c0 0-0.28-1.92-1.92-2.17 0 0-1.94 0.02-2 2.05M361 378.23c0 0-3.81-4.44-6.92-4.09 0 0-4.37-0.22-6.82 3.73"
           id="path37071"
           class="s0" /></g><g
         clip-path="url(#SVGID_2_)"
         id="g37079"><path
           stroke-miterlimit="10"
           d="m471.87 384.36c0 0-3.66-6.19-9.79-5.76 0 0-5.4-0.43-9.44 5.42M467.06 388.28 467.06 388.28 467.06 388.28 467.06 388.28 467.06 388.28 467.06 388.28c0 0-1.77-2.92-4.61-3.09 0 0-3.17 0.06-4.55 3.09M464.18 390.04c0 0-0.27-1.92-1.91-2.17 0 0-1.94 0.02-2 2.05M469.4 386.11c0 0-3.81-4.44-6.92-4.09 0 0-4.37-0.22-6.83 3.73"
           id="path37081"
           class="s0" /></g><g
         clip-path="url(#SVGID_2_)"
         id="g37089"><path
           stroke-miterlimit="10"
           d="m440.91 384.14c0 0-3.65-6.19-9.78-5.76 0 0-5.4-0.42-9.44 5.42M436.11 388.06 436.11 388.06 436.11 388.06 436.11 388.06 436.11 388.06 436.11 388.06c0 0-1.77-2.92-4.61-3.09 0 0-3.17 0.06-4.55 3.09M433.22 389.82c0 0-0.28-1.92-1.92-2.17 0 0-1.94 0.01-2 2.05M438.44 385.89c0 0-3.8-4.44-6.91-4.09 0 0-4.37-0.22-6.82 3.73"
           id="path37091"
           class="s0" /></g><g
         clip-path="url(#SVGID_2_)"
         id="g37099"><path
           stroke-miterlimit="10"
           d="m409.8 384.11c0 0-3.65-6.19-9.79-5.76 0 0-5.4-0.43-9.43 5.42M404.99 388.03 404.99 388.03 404.99 388.03 404.99 388.03 404.99 388.03 404.99 388.03c0 0-1.77-2.92-4.61-3.09 0 0-3.17 0.06-4.55 3.09M402.1 389.79c0 0-0.27-1.93-1.92-2.17 0 0-1.94 0.02-2 2.05M407.33 385.86c0 0-3.81-4.44-6.92-4.1 0 0-4.37-0.21-6.82 3.73"
           id="path37101"
           class="s0" /></g><g
         clip-path="url(#SVGID_2_)"
         id="g37109"><path
           stroke-miterlimit="10"
           d="m378.75 384.24c0 0-3.66-6.19-9.79-5.76 0 0-5.4-0.42-9.43 5.42M373.94 388.16 373.94 388.16 373.94 388.16 373.94 388.16 373.94 388.16 373.94 388.16c0 0-1.77-2.92-4.61-3.09 0 0-3.17 0.06-4.55 3.09M371.06 389.92c0 0-0.27-1.92-1.92-2.17 0 0-1.94 0.02-2 2.05M376.28 385.99c0 0-3.81-4.44-6.92-4.1 0 0-4.37-0.22-6.82 3.73"
           id="path37111"
           class="s0" /></g><g
         clip-path="url(#SVGID_2_)"
         id="g37119"><path
           stroke-miterlimit="10"
           d="m456.51 391.35c0 0-3.65-6.19-9.78-5.76 0 0-5.4-0.42-9.44 5.42M451.7 395.27 451.7 395.27 451.7 395.27 451.7 395.27 451.7 395.27 451.7 395.27c0 0-1.78-2.92-4.61-3.09 0 0-3.17 0.06-4.55 3.09M448.82 397.03c0 0-0.28-1.92-1.92-2.18 0 0-1.94 0.02-2 2.05M454.04 393.1c0 0-3.81-4.44-6.92-4.09 0 0-4.37-0.22-6.82 3.73"
           id="path37121"
           class="s0" /></g><g
         clip-path="url(#SVGID_2_)"
         id="g37129"><path
           stroke-miterlimit="10"
           d="m425.39 391.32c0 0-3.65-6.19-9.79-5.76 0 0-5.4-0.42-9.43 5.42M420.58 395.24 420.58 395.24 420.58 395.24 420.58 395.24 420.58 395.24 420.58 395.24c0 0-1.77-2.92-4.61-3.09 0 0-3.17 0.06-4.55 3.09M417.7 397c0 0-0.27-1.92-1.92-2.17 0 0-1.94 0.02-2 2.05M422.92 393.07c0 0-3.81-4.44-6.92-4.09 0 0-4.37-0.22-6.82 3.73"
           id="path37131"
           class="s0" /></g><g
         clip-path="url(#SVGID_2_)"
         id="g37139"><path
           stroke-miterlimit="10"
           d="m394.35 391.45c0 0-3.65-6.19-9.79-5.76 0 0-5.4-0.42-9.43 5.42M389.54 395.37 389.54 395.37 389.54 395.37 389.54 395.37 389.54 395.37 389.54 395.37c0 0-1.77-2.92-4.61-3.09 0 0-3.17 0.06-4.55 3.09M386.65 397.13c0 0-0.28-1.92-1.92-2.17 0 0-1.94 0.02-2 2.05M391.88 393.21c0 0-3.81-4.44-6.92-4.1 0 0-4.37-0.22-6.82 3.73"
           id="path37141"
           class="s0" /></g><path
         clip-path="url(#SVGID_2_)"
         stroke-miterlimit="10"
         d="M524.16 278.8"
         id="path37149"
         class="s0" /></g><path
       stroke-miterlimit="10"
       d="M551.42 433.56"
       id="path37151"
       class="s0" /><g
       id="g37153"><circle
         stroke-miterlimit="10"
         cx="419.4"
         cy="284.42"
         r="12.15"
         id="circle37155"
         stroke="#000" /><circle
         cx="419.4"
         cy="284.42"
         r="3.17"
         id="circle37157"
         fill="#3c3c3b" /><g
         id="g37159"><defs
           id="defs37161"><circle
             id="SVGID_3_"
             cx="420.46"
             cy="289.7"
             r="109.33" /></defs><clipPath
           id="SVGID_4_"><use
             xlink:href="#SVGID_3_"
             overflow="visible"
             id="use37165"
             x="0"
             y="0"
             width="100"
             height="100" /></clipPath><line
           clip-path="url(#SVGID_4_)"
           stroke-miterlimit="10"
           x1="419.4"
           y1="272.27"
           x2="416.23"
           y2="179.31"
           id="line37167"
           class="s1" /><line
           clip-path="url(#SVGID_4_)"
           stroke-miterlimit="10"
           x1="421.93"
           y1="272.27"
           x2="435.25"
           y2="179.31"
           id="line37169"
           class="s1" /><line
           clip-path="url(#SVGID_4_)"
           stroke-miterlimit="10"
           x1="426.03"
           y1="274.24"
           x2="476.7"
           y2="186.18"
           id="line37171"
           class="s1" /><line
           clip-path="url(#SVGID_4_)"
           stroke-miterlimit="10"
           x1="428.59"
           y1="276.48"
           x2="495.45"
           y2="194.9"
           id="line37173"
           class="s1" /><line
           clip-path="url(#SVGID_4_)"
           stroke-miterlimit="10"
           x1="430.07"
           y1="278.6"
           x2="511.56"
           y2="208.63"
           id="line37175"
           class="s1" /><line
           clip-path="url(#SVGID_4_)"
           stroke-miterlimit="10"
           x1="430.98"
           y1="280.73"
           x2="523.97"
           y2="225.79"
           id="line37177"
           class="s1" /><line
           clip-path="url(#SVGID_4_)"
           stroke-miterlimit="10"
           x1="430.98"
           y1="280.73"
           x2="536.65"
           y2="243.61"
           id="line37179"
           class="s1" /><line
           clip-path="url(#SVGID_4_)"
           stroke-miterlimit="10"
           x1="431.55"
           y1="283.1"
           x2="540.08"
           y2="266.99"
           id="line37181"
           class="s1" /><line
           clip-path="url(#SVGID_4_)"
           stroke-miterlimit="10"
           x1="431.55"
           y1="285.83"
           x2="534.66"
           y2="287.59"
           id="line37183"
           class="s1" /><line
           clip-path="url(#SVGID_4_)"
           stroke-miterlimit="10"
           x1="423.4"
           y1="272.95"
           x2="456.11"
           y2="176.73"
           id="line37185"
           class="s1" /><line
           clip-path="url(#SVGID_4_)"
           stroke-miterlimit="10"
           x1="430.98"
           y1="287.58"
           x2="541.93"
           y2="310.3"
           id="line37187"
           class="s1" /><line
           clip-path="url(#SVGID_4_)"
           stroke-miterlimit="10"
           x1="430.07"
           y1="290.23"
           x2="540.08"
           y2="331.69"
           id="line37189"
           class="s1" /><line
           clip-path="url(#SVGID_4_)"
           stroke-miterlimit="10"
           x1="428.59"
           y1="292.35"
           x2="516.31"
           y2="368.13"
           id="line37191"
           class="s1" /><line
           clip-path="url(#SVGID_4_)"
           stroke-miterlimit="10"
           x1="429.51"
           y1="291.15"
           x2="533.66"
           y2="353.43"
           id="line37193"
           class="s1" /><line
           clip-path="url(#SVGID_4_)"
           stroke-miterlimit="10"
           x1="427.62"
           y1="293.34"
           x2="505.66"
           y2="387.94"
           id="line37195"
           class="s1" /><line
           clip-path="url(#SVGID_4_)"
           stroke-miterlimit="10"
           x1="425.56"
           y1="294.87"
           x2="483.1"
           y2="395.33"
           id="line37197"
           class="s1" /><line
           clip-path="url(#SVGID_4_)"
           stroke-miterlimit="10"
           x1="423.72"
           y1="295.76"
           x2="466.64"
           y2="410.29"
           id="line37199"
           class="s1" /><line
           clip-path="url(#SVGID_4_)"
           stroke-miterlimit="10"
           x1="421.93"
           y1="296.3"
           x2="442.81"
           y2="407.3"
           id="line37201"
           class="s1" /><line
           clip-path="url(#SVGID_4_)"
           stroke-miterlimit="10"
           x1="419.4"
           y1="296.56"
           x2="421.93"
           y2="407.3"
           id="line37203"
           class="s1" /><line
           clip-path="url(#SVGID_4_)"
           stroke-miterlimit="10"
           x1="417.81"
           y1="296.45"
           x2="401.62"
           y2="408.88"
           id="line37205"
           class="s1" /><line
           clip-path="url(#SVGID_4_)"
           stroke-miterlimit="10"
           x1="415.88"
           y1="296.3"
           x2="378.91"
           y2="407.3"
           id="line37207"
           class="s1" /><line
           clip-path="url(#SVGID_4_)"
           stroke-miterlimit="10"
           x1="414.33"
           y1="295.44"
           x2="360.77"
           y2="394.62"
           id="line37209"
           class="s1" /><line
           clip-path="url(#SVGID_4_)"
           stroke-miterlimit="10"
           x1="412.32"
           y1="294.27"
           x2="342.47"
           y2="386.17"
           id="line37211"
           class="s1" /><line
           clip-path="url(#SVGID_4_)"
           stroke-miterlimit="10"
           x1="410.95"
           y1="292.35"
           x2="323.8"
           y2="372.26"
           id="line37213"
           class="s1" /><line
           clip-path="url(#SVGID_4_)"
           stroke-miterlimit="10"
           x1="409.29"
           y1="291.15"
           x2="311.66"
           y2="356.24"
           id="line37215"
           class="s1" /><line
           clip-path="url(#SVGID_4_)"
           stroke-miterlimit="10"
           x1="408.2"
           y1="289.14"
           x2="300.92"
           y2="336.35"
           id="line37217"
           class="s1" /><line
           clip-path="url(#SVGID_4_)"
           stroke-miterlimit="10"
           x1="407.25"
           y1="287.58"
           x2="293.7"
           y2="316.1"
           id="line37219"
           class="s1" /><line
           clip-path="url(#SVGID_4_)"
           stroke-miterlimit="10"
           x1="407.25"
           y1="285.83"
           x2="286.83"
           y2="292.35"
           id="line37221"
           class="s1" /><line
           clip-path="url(#SVGID_4_)"
           stroke-miterlimit="10"
           x1="407.25"
           y1="283.1"
           x2="297.57"
           y2="270.68"
           id="line37223"
           class="s1" /><line
           clip-path="url(#SVGID_4_)"
           stroke-miterlimit="10"
           x1="407.82"
           y1="280.73"
           x2="300.92"
           y2="250.08"
           id="line37225"
           class="s1" /><line
           clip-path="url(#SVGID_4_)"
           stroke-miterlimit="10"
           x1="408.2"
           y1="279.69"
           x2="300.92"
           y2="224.84"
           id="line37227"
           class="s1" /><line
           clip-path="url(#SVGID_4_)"
           stroke-miterlimit="10"
           x1="409.71"
           y1="276.89"
           x2="316.23"
           y2="208.62"
           id="line37229"
           class="s1" /><line
           clip-path="url(#SVGID_4_)"
           stroke-miterlimit="10"
           x1="410.95"
           y1="275.04"
           x2="331.73"
           y2="191.99"
           id="line37231"
           class="s1" /><line
           clip-path="url(#SVGID_4_)"
           stroke-miterlimit="10"
           x1="412.77"
           y1="274.24"
           x2="352.42"
           y2="181.6"
           id="line37233"
           class="s1" /><line
           clip-path="url(#SVGID_4_)"
           stroke-miterlimit="10"
           x1="415.38"
           y1="272.95"
           x2="371.34"
           y2="168.93"
           id="line37235"
           class="s1" /><line
           clip-path="url(#SVGID_4_)"
           stroke-miterlimit="10"
           x1="417.12"
           y1="272.48"
           x2="393.36"
           y2="163.47"
           id="line37237"
           class="s1" /></g><g
         id="g37239"><defs
           id="defs37241"><circle
             id="SVGID_5_"
             cx="420.46"
             cy="290.75"
             r="103.09" /></defs><clipPath
           id="SVGID_6_"><use
             xlink:href="#SVGID_5_"
             overflow="visible"
             id="use37245"
             x="0"
             y="0"
             width="100"
             height="100" /></clipPath><g
           clip-path="url(#SVGID_6_)"
           id="g37247"
           opacity="0.3"><defs
             id="defs37249"><circle
               id="SVGID_7_"
               cx="420.77"
               cy="290.76"
               r="109.33"
               opacity="0.3" /></defs><clipPath
             id="SVGID_8_"><use
               xlink:href="#SVGID_7_"
               overflow="visible"
               id="use37253"
               x="0"
               y="0"
               width="100"
               height="100" /></clipPath><line
             clip-path="url(#SVGID_8_)"
             stroke-miterlimit="10"
             x1="419.71"
             y1="273.33"
             x2="416.54"
             y2="180.38"
             id="line37255"
             class="s3" /><line
             clip-path="url(#SVGID_8_)"
             stroke-miterlimit="10"
             x1="422.24"
             y1="273.33"
             x2="435.55"
             y2="180.38"
             id="line37257"
             class="s3" /><line
             clip-path="url(#SVGID_8_)"
             stroke-miterlimit="10"
             x1="426.34"
             y1="275.31"
             x2="477.02"
             y2="187.24"
             id="line37259"
             class="s3" /><line
             clip-path="url(#SVGID_8_)"
             stroke-miterlimit="10"
             x1="428.9"
             y1="277.55"
             x2="495.76"
             y2="195.96"
             id="line37261"
             class="s3" /><line
             clip-path="url(#SVGID_8_)"
             stroke-miterlimit="10"
             x1="430.38"
             y1="279.66"
             x2="511.87"
             y2="209.69"
             id="line37263"
             class="s3" /><line
             clip-path="url(#SVGID_8_)"
             stroke-miterlimit="10"
             x1="431.29"
             y1="281.8"
             x2="524.28"
             y2="226.86"
             id="line37265"
             class="s3" /><line
             clip-path="url(#SVGID_8_)"
             stroke-miterlimit="10"
             x1="431.29"
             y1="281.8"
             x2="536.96"
             y2="244.68"
             id="line37267"
             class="s3" /><line
             clip-path="url(#SVGID_8_)"
             stroke-miterlimit="10"
             x1="431.86"
             y1="284.16"
             x2="540.39"
             y2="268.05"
             id="line37269"
             class="s3" /><line
             clip-path="url(#SVGID_8_)"
             stroke-miterlimit="10"
             x1="431.86"
             y1="286.89"
             x2="534.97"
             y2="288.65"
             id="line37271"
             class="s3" /><line
             clip-path="url(#SVGID_8_)"
             stroke-miterlimit="10"
             x1="423.71"
             y1="274.02"
             x2="456.42"
             y2="177.79"
             id="line37273"
             class="s3" /><line
             clip-path="url(#SVGID_8_)"
             stroke-miterlimit="10"
             x1="431.29"
             y1="288.65"
             x2="542.24"
             y2="311.36"
             id="line37275"
             class="s3" /><line
             clip-path="url(#SVGID_8_)"
             stroke-miterlimit="10"
             x1="430.37"
             y1="291.3"
             x2="540.39"
             y2="332.75"
             id="line37277"
             class="s3" /><line
             clip-path="url(#SVGID_8_)"
             stroke-miterlimit="10"
             x1="428.9"
             y1="293.41"
             x2="516.62"
             y2="369.19"
             id="line37279"
             class="s3" /><line
             clip-path="url(#SVGID_8_)"
             stroke-miterlimit="10"
             x1="429.82"
             y1="292.21"
             x2="533.96"
             y2="354.49"
             id="line37281"
             class="s3" /><line
             clip-path="url(#SVGID_8_)"
             stroke-miterlimit="10"
             x1="427.93"
             y1="294.4"
             x2="505.97"
             y2="389"
             id="line37283"
             class="s3" /><line
             clip-path="url(#SVGID_8_)"
             stroke-miterlimit="10"
             x1="425.87"
             y1="295.93"
             x2="483.41"
             y2="396.39"
             id="line37285"
             class="s3" /><line
             clip-path="url(#SVGID_8_)"
             stroke-miterlimit="10"
             x1="424.03"
             y1="296.82"
             x2="466.95"
             y2="411.36"
             id="line37287"
             class="s3" /><line
             clip-path="url(#SVGID_8_)"
             stroke-miterlimit="10"
             x1="422.24"
             y1="297.36"
             x2="443.12"
             y2="408.36"
             id="line37289"
             class="s3" /><line
             clip-path="url(#SVGID_8_)"
             stroke-miterlimit="10"
             x1="419.71"
             y1="297.63"
             x2="422.24"
             y2="408.36"
             id="line37291"
             class="s3" /><line
             clip-path="url(#SVGID_8_)"
             stroke-miterlimit="10"
             x1="418.11"
             y1="297.51"
             x2="401.93"
             y2="409.94"
             id="line37293"
             class="s3" /><line
             clip-path="url(#SVGID_8_)"
             stroke-miterlimit="10"
             x1="416.19"
             y1="297.36"
             x2="379.22"
             y2="408.36"
             id="line37295"
             class="s3" /><line
             clip-path="url(#SVGID_8_)"
             stroke-miterlimit="10"
             x1="414.64"
             y1="296.51"
             x2="361.08"
             y2="395.69"
             id="line37297"
             class="s3" /><line
             clip-path="url(#SVGID_8_)"
             stroke-miterlimit="10"
             x1="412.63"
             y1="295.33"
             x2="342.77"
             y2="387.23"
             id="line37299"
             class="s3" /><line
             clip-path="url(#SVGID_8_)"
             stroke-miterlimit="10"
             x1="411.26"
             y1="293.41"
             x2="324.11"
             y2="373.33"
             id="line37301"
             class="s3" /><line
             clip-path="url(#SVGID_8_)"
             stroke-miterlimit="10"
             x1="409.6"
             y1="292.21"
             x2="311.97"
             y2="357.3"
             id="line37303"
             class="s3" /><line
             clip-path="url(#SVGID_8_)"
             stroke-miterlimit="10"
             x1="408.51"
             y1="290.2"
             x2="301.23"
             y2="337.41"
             id="line37305"
             class="s3" /><line
             clip-path="url(#SVGID_8_)"
             stroke-miterlimit="10"
             x1="407.56"
             y1="288.65"
             x2="294.01"
             y2="317.17"
             id="line37307"
             class="s3" /><line
             clip-path="url(#SVGID_8_)"
             stroke-miterlimit="10"
             x1="407.56"
             y1="286.89"
             x2="287.14"
             y2="293.41"
             id="line37309"
             class="s3" /><line
             clip-path="url(#SVGID_8_)"
             stroke-miterlimit="10"
             x1="407.56"
             y1="284.16"
             x2="297.88"
             y2="271.74"
             id="line37311"
             class="s3" /><line
             clip-path="url(#SVGID_8_)"
             stroke-miterlimit="10"
             x1="408.13"
             y1="281.8"
             x2="301.23"
             y2="251.15"
             id="line37313"
             class="s3" /><line
             clip-path="url(#SVGID_8_)"
             stroke-miterlimit="10"
             x1="408.52"
             y1="280.75"
             x2="301.23"
             y2="225.9"
             id="line37315"
             class="s3" /><line
             clip-path="url(#SVGID_8_)"
             stroke-miterlimit="10"
             x1="410.02"
             y1="277.95"
             x2="316.55"
             y2="209.69"
             id="line37317"
             class="s3" /><line
             clip-path="url(#SVGID_8_)"
             stroke-miterlimit="10"
             x1="411.26"
             y1="276.1"
             x2="332.04"
             y2="193.05"
             id="line37319"
             class="s3" /><line
             clip-path="url(#SVGID_8_)"
             stroke-miterlimit="10"
             x1="413.08"
             y1="275.31"
             x2="352.72"
             y2="182.66"
             id="line37321"
             class="s3" /><line
             clip-path="url(#SVGID_8_)"
             stroke-miterlimit="10"
             x1="415.68"
             y1="274.02"
             x2="371.65"
             y2="169.99"
             id="line37323"
             class="s3" /><line
             clip-path="url(#SVGID_8_)"
             stroke-miterlimit="10"
             x1="417.43"
             y1="273.55"
             x2="393.67"
             y2="164.53"
             id="line37325"
             class="s3" /><use
             xlink:href="#SVGID_7_"
             overflow="visible"
             stroke-miterlimit="10"
             id="use37327"
             x="0"
             y="0"
             width="100"
             height="100"
             style="fill:none;stroke:#303030" /></g></g></g></g></svg>