<?xml version="1.0" encoding="utf-8"?>
<!-- Generator: Adobe Illustrator 16.0.4, SVG Export Plug-In . SVG Version: 6.00 Build 0)  -->
<!DOCTYPE svg PUBLIC "-//W3C//DTD SVG 1.1//EN" "http://www.w3.org/Graphics/SVG/1.1/DTD/svg11.dtd">
<svg version="1.1" xmlns="http://www.w3.org/2000/svg" xmlns:xlink="http://www.w3.org/1999/xlink" x="0px" y="0px" width="510px"
	 height="185px" viewBox="0 0 510 185" enable-background="new 0 0 510 185" xml:space="preserve">
<g id="Layer_2" display="none">
	<rect x="-186" y="-198" display="inline" width="909" height="601"/>
</g>
<g id="Layer_1">
	<g opacity="0.8">
		
			<image overflow="visible" width="2521" height="1169" xlink:href="291613A558826DD5.png"  transform="matrix(0.24 0 0 0.24 -45.9424 -39.9141)">
		</image>
	</g>
	<g>
		
			<image overflow="visible" width="768" height="697" xlink:href="291613A558826DD7.png"  transform="matrix(0.24 0 0 0.24 -14.7764 8.4863)">
		</image>
	</g>
	<g>
		
			<image overflow="visible" width="632" height="784" xlink:href="291613A558826DD2.png"  transform="matrix(0.24 0 0 0.24 91.5894 3.2212)">
		</image>
	</g>
	<g opacity="0.7">
		
			<image overflow="visible" width="738" height="830" xlink:href="291613A558826DD3.png"  transform="matrix(0.24 0 0 0.24 165.564 5.4624)">
		</image>
	</g>
	<g>
		
			<image overflow="visible" width="719" height="769" xlink:href="291613A558826DDD.png"  transform="matrix(0.24 0 0 0.24 265.0654 -3.9141)">
		</image>
	</g>
	<g>
		
			<image overflow="visible" width="660" height="653" xlink:href="291613A558826DDF.png"  transform="matrix(0.24 0 0 0.24 359.8398 17.3613)">
		</image>
	</g>
	<g>
		<polyline fill="none" stroke="#FFFFFF" stroke-width="2" stroke-miterlimit="10" points="21.224,90.896 52.557,90.896 
			56.557,80.228 63.224,90.896 66.557,70.228 73.89,96.228 77.89,70.228 83.89,89.562 87.89,74.228 93.224,103.562 99.89,70.228 
			103.89,89.562 110.558,74.646 115.058,118.896 125.558,64.146 130.558,106.788 		"/>
		<path fill="none" stroke="#FFFFFF" stroke-width="2" stroke-miterlimit="10" d="M130.558,107.896l6.001-40.834l4.834,28.834
			l4.833-14.166l6.167,45.666l5-61.334l5,34.834l5.166-14.666l5.5,46.166l5.334-77.166l5.5,45.332l4.833-19.832
			c0,0,1.832,45.666,3.332,42.666s2.5-68.166,2.5-68.166l4,89.166l5.5-95"/>
		<polyline opacity="0.8" fill="none" stroke="#FFFFFF" stroke-width="2" stroke-miterlimit="10" points="204.058,46.396 
			209.808,127.146 215.558,78.146 220.308,138.896 225.558,52.646 230.558,123.896 236.058,58.896 241.058,156.396 246.558,41.646 
			252.058,168.396 257.572,41.646 263.058,144.396 267.558,53.896 272.558,106.788 278.558,60.896 282.558,135.396 288.058,78.896 
			293.558,123.396 299.558,41.646 304.058,141.396 		"/>
		<polyline fill="none" stroke="#FFFFFF" stroke-width="2" stroke-miterlimit="10" points="304.058,144.396 310.058,61.396 
			311.391,126.229 314.725,78.896 320.891,102.896 325.725,48.562 330.725,132.062 335.891,85.228 341.058,100.562 346.558,60.062 
			351.891,126.728 357.057,79.728 362.224,95.728 367.057,69.228 372.557,108.562 378.057,65.062 388.557,114.228 393.391,75.896 
			398.724,90.062 		"/>
		<polyline opacity="0.8" fill="none" stroke="#FFFFFF" stroke-width="2" stroke-miterlimit="10" points="398.724,92.062 
			405.224,69.396 409.891,102.896 414.724,76.728 420.224,89.228 425.391,69.396 430.724,110.396 434.391,69.396 442.557,97.228 
			447.057,74.728 451.724,91.728 482.057,91.396 		"/>
	</g>
	<g>
		<polyline fill="none" stroke="#FFFFFF" stroke-width="0.5" stroke-miterlimit="10" points="130.558,106.788 125.558,64.146 
			115.058,118.896 110.558,74.646 103.89,89.562 99.89,70.228 93.224,103.562 87.89,74.228 83.89,89.562 77.89,70.228 73.89,96.228 
			66.557,70.228 63.224,90.896 56.557,80.228 52.557,90.896 21.224,90.896 		"/>
		<path fill="none" stroke="#FFFFFF" stroke-width="0.5" stroke-miterlimit="10" d="M130.558,107.896l6.001-40.834l4.834,28.834
			l4.833-14.166l6.167,45.666l5-61.334l5,34.834l5.166-14.666l5.5,46.166l5.334-77.166l5.5,45.332l4.833-19.832
			c0,0,1.832,45.666,3.332,42.666s2.5-68.166,2.5-68.166l4,89.166l5.5-95"/>
		<polyline fill="none" stroke="#FFFFFF" stroke-width="0.5" stroke-miterlimit="10" points="204.058,46.396 209.808,127.146 
			215.558,78.146 220.308,138.896 225.558,52.646 230.558,123.896 236.058,58.896 241.058,156.396 246.558,41.646 252.058,168.396 
			257.572,41.646 263.058,144.396 267.558,53.896 272.558,106.788 278.558,60.896 282.558,135.396 288.058,78.896 293.558,123.396 
			299.558,41.646 304.058,141.396 		"/>
		<polyline fill="none" stroke="#FFFFFF" stroke-width="0.5" stroke-miterlimit="10" points="304.058,144.396 310.058,61.396 
			311.391,126.229 314.725,78.896 320.891,102.896 325.725,48.562 330.725,132.062 335.891,85.228 341.058,100.562 346.558,60.062 
			351.891,126.728 357.057,79.728 362.224,95.728 367.057,69.228 372.557,108.562 378.057,65.062 388.557,114.228 393.391,75.896 
			398.724,90.062 		"/>
		<polyline fill="none" stroke="#FFFFFF" stroke-width="0.5" stroke-miterlimit="10" points="398.724,92.062 405.224,69.396 
			409.891,102.896 414.724,76.728 420.224,89.228 425.391,69.396 430.724,110.396 434.391,69.396 442.557,97.228 447.057,74.728 
			451.724,91.728 482.057,91.396 		"/>
	</g>
	<path fill="none" stroke="#FFFFFF" stroke-miterlimit="10" d="M482.057,91.396"/>
	<path fill="none" stroke="#FFFFFF" stroke-width="6" stroke-miterlimit="10" d="M549.28,91.396"/>
</g>
</svg>
